<?xml version="1.0" encoding="utf-8"?>
<!-- Generator: Adobe Illustrator 16.0.0, SVG Export Plug-In . SVG Version: 6.00 Build 0)  -->
<!DOCTYPE svg PUBLIC "-//W3C//DTD SVG 1.1//EN" "http://www.w3.org/Graphics/SVG/1.1/DTD/svg11.dtd">
<svg version="1.1" id="Layer_2" xmlns="http://www.w3.org/2000/svg" xmlns:xlink="http://www.w3.org/1999/xlink" x="0px" y="0px"
	 width="24px" height="24px" viewBox="0 0 24 24" style="enable-background:new 0 0 24 24;" xml:space="preserve">
<path style="fill:#E0454B;" d="M22,21H2c-1.327,0-2,0.505-2,1.5S0.673,24,2,24h20c1.327,0,2-0.505,2-1.5S23.327,21,22,21z"/>
<path style="fill:#EAA001;" d="M5.692,20H18.5c0.957,0,3.5,0,3.5-2.309c0-1.521-1.029-2.84-2.506-3.209l-1.225-0.306L20,2.5
	C20,1.122,18.878,0,17.5,0h-3C14.225,0,14,0.224,14,0.5S14.225,1,14.5,1h3c0.827,0,1.5,0.673,1.505,1.427l-1.709,11.507L9,11.859V9
	h2.377C12.272,9,13,8.271,13,7.377c0-0.747-0.506-1.395-1.229-1.575L6.8,4.56C6.136,4.394,5.406,4.549,4.866,4.97
	C4.315,5.4,4,6.048,4,6.746C4,7.989,5.011,9,6.254,9H8v2.609l-0.931-0.232c-1.439-0.361-3.021-0.025-4.191,0.889
	C1.685,13.197,1,14.602,1,16.115C1,18.584,2.71,20,5.692,20z M6.225,14.136c0.219-0.169,0.533-0.129,0.702,0.091L9.851,18H11.5
	c0.276,0,0.5,0.225,0.5,0.5S11.776,19,11.5,19H7.521c-0.276,0-0.5-0.225-0.5-0.5s0.224-0.5,0.5-0.5h1.065l-2.45-3.162
	C5.967,14.619,6.007,14.307,6.225,14.136z"/>
</svg>
