<?xml version="1.0" encoding="utf-8"?>
<!-- Generator: Adobe Illustrator 16.0.0, SVG Export Plug-In . SVG Version: 6.00 Build 0)  -->
<!DOCTYPE svg PUBLIC "-//W3C//DTD SVG 1.1//EN" "http://www.w3.org/Graphics/SVG/1.1/DTD/svg11.dtd">
<svg version="1.1" id="Layer_2" xmlns="http://www.w3.org/2000/svg" xmlns:xlink="http://www.w3.org/1999/xlink" x="0px" y="0px"
	 width="24px" height="24px" viewBox="0 0 24 24" style="enable-background:new 0 0 24 24;" xml:space="preserve">
<path style="fill:#E0454B;" d="M18.962,6.308H5.036c-0.638,0-1.154,0.517-1.154,1.154v9.075c0,0.639,0.517,1.154,1.154,1.154h2.901
	c0.269-0.683,0.94-2.885-0.748-4.574c1.476-0.219,4.798-2.351,4.798-4.975c0.34,2.569,2.802,4.881,4.824,4.881
	c0,0-1.805,1.973-0.537,4.668h2.688c0.642,0,1.156-0.517,1.156-1.154V7.462C20.118,6.825,19.604,6.308,18.962,6.308z"/>
<path style="fill:#FFFFFF;" d="M16.811,13.033c-2.021,0-4.483-2.313-4.824-4.881c0,2.624-3.322,4.756-4.797,4.974
	c1.688,1.69,1.016,3.894,0.748,4.575c-0.052,0.135-0.092,0.218-0.092,0.218h8.531c-0.039-0.075-0.066-0.146-0.102-0.218
	C15.006,15.005,16.811,13.033,16.811,13.033z"/>
<g>
	<path style="fill:#EAA001;" d="M20.956,14.786c-0.081,0-0.161-0.04-0.209-0.112c-0.076-0.116-0.044-0.271,0.071-0.347
		c0.789-0.518,1.26-1.389,1.26-2.329c0-0.937-0.468-1.807-1.252-2.326c-0.115-0.076-0.147-0.231-0.07-0.347
		c0.076-0.115,0.232-0.146,0.346-0.07c0.925,0.612,1.477,1.638,1.477,2.743c0,1.109-0.555,2.137-1.484,2.747
		C21.051,14.772,21.003,14.786,20.956,14.786z"/>
</g>
<g>
	<path style="fill:#EAA001;" d="M21.829,15.809c-0.081,0-0.161-0.04-0.209-0.113c-0.076-0.115-0.044-0.27,0.071-0.346
		c1.136-0.745,1.813-1.999,1.813-3.353c0-1.35-0.674-2.602-1.803-3.348c-0.115-0.076-0.147-0.231-0.071-0.346
		c0.077-0.116,0.233-0.146,0.347-0.071c1.27,0.839,2.027,2.246,2.027,3.765c0,1.522-0.762,2.933-2.038,3.771
		C21.924,15.795,21.876,15.809,21.829,15.809z"/>
</g>
<g>
	<path style="fill:#EAA001;" d="M3.084,14.786c-0.047,0-0.095-0.014-0.137-0.041c-0.93-0.61-1.485-1.637-1.485-2.747
		c0-1.105,0.551-2.131,1.475-2.743c0.115-0.075,0.27-0.045,0.347,0.07c0.076,0.115,0.044,0.271-0.07,0.347
		c-0.784,0.519-1.251,1.388-1.251,2.326c0,0.941,0.471,1.812,1.259,2.329c0.115,0.076,0.147,0.23,0.072,0.346
		C3.245,14.746,3.165,14.786,3.084,14.786z"/>
</g>
<g>
	<path style="fill:#EAA001;" d="M2.216,15.809c-0.047,0-0.095-0.014-0.137-0.041c-1.276-0.837-2.039-2.246-2.039-3.771
		c0-1.519,0.757-2.926,2.026-3.765c0.114-0.077,0.27-0.044,0.346,0.071s0.044,0.27-0.071,0.346C1.214,9.395,0.54,10.646,0.54,11.997
		c0,1.354,0.678,2.608,1.813,3.353c0.115,0.075,0.147,0.23,0.072,0.346C2.377,15.769,2.297,15.809,2.216,15.809z"/>
</g>
</svg>
