<?xml version="1.0" encoding="utf-8"?>
<!-- Generator: Adobe Illustrator 16.0.0, SVG Export Plug-In . SVG Version: 6.00 Build 0)  -->
<!DOCTYPE svg PUBLIC "-//W3C//DTD SVG 1.1//EN" "http://www.w3.org/Graphics/SVG/1.1/DTD/svg11.dtd">
<svg version="1.1" id="Layer_3" xmlns="http://www.w3.org/2000/svg" xmlns:xlink="http://www.w3.org/1999/xlink" x="0px" y="0px"
	 width="24px" height="24px" viewBox="0 0 24 24" style="enable-background:new 0 0 24 24;" xml:space="preserve">
<g>
	<path style="fill:#0F8EA1;" d="M18.841,19.4c-0.3,0-0.572-0.2-0.878-0.52c-0.506-0.526-0.759-0.793-1.519,0
		c-0.094,0.098-0.245,0.098-0.339,0s-0.094-0.256,0-0.354c1.017-1.061,1.597-0.626,2.196,0c0.453,0.472,0.597,0.523,1.099,0
		c0.688-0.718,1.072-0.734,1.718-0.063c0.093,0.098,0.093,0.256,0,0.354c-0.094,0.098-0.246,0.098-0.339,0
		c-0.435-0.453-0.521-0.479-1.04,0.063C19.391,19.245,19.104,19.4,18.841,19.4z"/>
</g>
<g>
	<path style="fill:#0F8EA1;" d="M18.995,20.4c-0.257,0-0.489-0.146-0.751-0.38c-0.434-0.386-0.649-0.581-1.3,0
		c-0.08,0.071-0.21,0.071-0.29,0c-0.08-0.072-0.08-0.188,0-0.259c0.87-0.776,1.366-0.459,1.88,0c0.388,0.345,0.511,0.383,0.94,0
		c0.589-0.525,0.917-0.538,1.47-0.046c0.079,0.071,0.079,0.188,0,0.259c-0.08,0.071-0.21,0.071-0.29,0
		c-0.372-0.332-0.445-0.352-0.89,0.046C19.466,20.287,19.221,20.4,18.995,20.4z"/>
</g>
<g>
	<path style="fill:#E0454B;" d="M16.39,9.917c-0.084,0-0.169-0.021-0.247-0.067l-6.91-3.991L2.321,9.85
		C2.084,9.987,1.782,9.906,1.646,9.67C1.509,9.434,1.59,9.131,1.826,8.994l7.407-4.277l7.404,4.277
		c0.235,0.137,0.317,0.439,0.181,0.676C16.726,9.828,16.56,9.917,16.39,9.917z"/>
</g>
<polygon style="fill:#E0454B;" points="9.232,6.399 3.522,9.697 3.522,18.643 14.941,18.643 14.941,9.697 "/>
<g>
	<polygon style="fill:#E0454B;" points="21.104,21.627 16.576,21.627 15.505,19.502 0,19.502 0,18.502 16.12,18.502 17.191,20.627 
		20.396,20.627 21.146,18.502 24,18.502 24,19.502 21.854,19.502 	"/>
</g>
<g>
	<g>
		<path style="fill:#0F8EA1;" d="M14.563,5.092c-0.096,0-0.192-0.037-0.266-0.11c-0.146-0.146-0.146-0.384,0-0.53l1.313-1.313
			c0.146-0.146,0.385-0.146,0.531,0c0.146,0.146,0.146,0.384,0,0.53l-1.313,1.313C14.755,5.055,14.658,5.092,14.563,5.092z"/>
	</g>
	<g>
		<path style="fill:#0F8EA1;" d="M15.986,7.061c-0.096,0-0.192-0.037-0.266-0.11c-0.146-0.146-0.146-0.384,0-0.53l1.313-1.313
			c0.146-0.146,0.385-0.146,0.531,0c0.146,0.146,0.146,0.384,0,0.53L16.252,6.95C16.179,7.023,16.082,7.061,15.986,7.061z"/>
	</g>
	<g>
		<path style="fill:#0F8EA1;" d="M17.056,4.436c-0.096,0-0.192-0.037-0.266-0.11c-0.146-0.146-0.146-0.384,0-0.53l1.313-1.313
			c0.146-0.146,0.385-0.146,0.531,0c0.146,0.146,0.146,0.384,0,0.53l-1.313,1.313C17.248,4.398,17.151,4.436,17.056,4.436z"/>
	</g>
	<g>
		<path style="fill:#0F8EA1;" d="M18.066,8.087c-0.096,0-0.192-0.036-0.266-0.109c-0.146-0.146-0.146-0.384,0-0.53l1.313-1.313
			c0.146-0.146,0.385-0.146,0.531,0c0.146,0.146,0.146,0.384,0,0.53l-1.313,1.313C18.259,8.051,18.162,8.087,18.066,8.087z"/>
	</g>
	<g>
		<path style="fill:#0F8EA1;" d="M19.505,5.092c-0.096,0-0.192-0.037-0.266-0.11c-0.146-0.146-0.146-0.384,0-0.53l1.313-1.313
			c0.146-0.146,0.385-0.146,0.531,0c0.146,0.146,0.146,0.384,0,0.53l-1.313,1.313C19.697,5.055,19.601,5.092,19.505,5.092z"/>
	</g>
	<g>
		<path style="fill:#0F8EA1;" d="M20.45,8.006c-0.096,0-0.192-0.037-0.266-0.11c-0.146-0.146-0.146-0.384,0.001-0.53l1.892-1.891
			c0.145-0.146,0.384-0.146,0.53,0s0.146,0.384-0.001,0.53l-1.892,1.891C20.643,7.969,20.546,8.006,20.45,8.006z"/>
	</g>
</g>
</svg>
