<?xml version="1.0" encoding="utf-8"?>
<!-- Generator: Adobe Illustrator 16.0.0, SVG Export Plug-In . SVG Version: 6.00 Build 0)  -->
<!DOCTYPE svg PUBLIC "-//W3C//DTD SVG 1.1//EN" "http://www.w3.org/Graphics/SVG/1.1/DTD/svg11.dtd">
<svg version="1.1" id="Layer_2" xmlns="http://www.w3.org/2000/svg" xmlns:xlink="http://www.w3.org/1999/xlink" x="0px" y="0px"
	 width="23.832px" height="24px" viewBox="0 0 23.832 24" enable-background="new 0 0 23.832 24" xml:space="preserve">
<g>
	<path fill-rule="evenodd" clip-rule="evenodd" fill="#EAA001" d="M0.617,9.102c0.041-0.664,0.292-1.066,0.791-1.315
		c1.826-0.91,3.651-1.823,5.477-2.733c1.063-0.531,2.128-1.06,3.192-1.589c0.826-0.411,1.558-0.167,1.971,0.663
		c1.933,3.879,3.864,7.759,5.796,11.638c0.379,0.758,0.129,1.515-0.627,1.892c-2.911,1.452-5.823,2.901-8.735,4.351
		c-0.707,0.352-1.474,0.104-1.826-0.601c-1.28-2.556-2.553-5.115-3.828-7.673c-0.672-1.349-1.348-2.694-2.012-4.046
		C0.711,9.474,0.661,9.233,0.617,9.102z M10.771,4.062c-0.129,0.054-0.262,0.1-0.387,0.162C7.547,5.637,4.71,7.051,1.873,8.466
		C1.417,8.693,1.34,8.921,1.567,9.376c1.913,3.837,3.826,7.675,5.74,11.513c0.252,0.504,0.452,0.571,0.96,0.317
		c2.822-1.407,5.646-2.814,8.469-4.222c0.492-0.246,0.562-0.45,0.318-0.941c-1.276-2.569-2.553-5.139-3.828-7.708
		c-0.642-1.291-1.282-2.582-1.922-3.875C11.196,4.242,11.051,4.081,10.771,4.062z"/>
	<path fill-rule="evenodd" clip-rule="evenodd" fill="#EAA001" d="M18.049,14.24c-0.248-0.499-0.5-0.995-0.742-1.498
		c-0.034-0.072-0.023-0.169-0.023-0.255c-0.001-3.059-0.001-6.117-0.001-9.175c0-0.475-0.167-0.651-0.633-0.651
		c-3.208-0.001-6.417-0.001-9.625,0c-0.466,0-0.646,0.184-0.646,0.646c0,0.292,0.01,0.585-0.006,0.876
		c-0.005,0.081-0.069,0.188-0.139,0.23c-0.201,0.12-0.418,0.213-0.646,0.325c0-0.62-0.059-1.223,0.015-1.809
		c0.087-0.689,0.658-1.094,1.391-1.094c2.142-0.003,4.283-0.001,6.425-0.001c1.09,0,2.182-0.002,3.271,0.001
		c0.693,0.002,1.205,0.382,1.369,1.014c0.03,0.112,0.037,0.233,0.037,0.351c0.002,3.635,0.002,7.271,0.002,10.905
		c0,0.04,0,0.079,0,0.118C18.081,14.229,18.064,14.234,18.049,14.24z"/>
	<path fill-rule="evenodd" clip-rule="evenodd" fill="#EAA001" d="M18.965,16.086c0-0.564-0.004-1.128,0.005-1.692
		c0.001-0.08,0.062-0.16,0.101-0.238c1.07-2.149,2.142-4.299,3.213-6.448c0.221-0.444,0.143-0.669-0.305-0.894
		c-0.945-0.472-1.891-0.946-2.84-1.412c-0.131-0.064-0.19-0.136-0.183-0.286c0.013-0.219,0.003-0.439,0.003-0.689
		c0.082,0.028,0.14,0.041,0.191,0.067c1.1,0.547,2.199,1.092,3.295,1.645c0.716,0.361,0.965,1.127,0.608,1.843
		c-1.31,2.632-2.62,5.264-3.93,7.896c-0.036,0.074-0.079,0.146-0.119,0.218C18.992,16.091,18.979,16.088,18.965,16.086z"/>
	<path fill-rule="evenodd" clip-rule="evenodd" fill="#EAA001" d="M17.904,18.325c-0.262,0.518-0.503,1.047-0.789,1.551
		c-0.313,0.551-0.992,0.778-1.58,0.549c-0.325-0.128-0.634-0.299-0.996-0.472c0.314-0.157,0.584-0.302,0.861-0.425
		c0.056-0.024,0.15,0.015,0.218,0.046c0.458,0.214,0.696,0.153,0.89-0.299c0.135-0.312,0.338-0.507,0.645-0.632
		c0.246-0.099,0.479-0.233,0.717-0.352C17.881,18.303,17.893,18.314,17.904,18.325z"/>
	<path fill-rule="evenodd" clip-rule="evenodd" fill="#E0454B" d="M10.955,16.033c-0.925-0.552-1.959-0.654-2.94-0.934
		c-0.818-0.232-1.599-0.548-2.174-1.218c-0.87-1.014-0.855-2.348,0.049-3.194c0.575-0.538,1.261-0.724,2.035-0.549
		C7.962,10.146,8,10.156,7.992,10.115C8.259,9.801,8.481,9.431,8.8,9.183c1.153-0.898,2.754-0.457,3.362,0.883
		c0.392,0.862,0.297,1.729,0.012,2.582c-0.193,0.58-0.479,1.13-0.692,1.705c-0.177,0.478-0.31,0.972-0.461,1.458
		C11.002,15.87,10.985,15.931,10.955,16.033z M8.67,11.414c-0.205-0.122-0.389-0.241-0.581-0.344
		c-0.505-0.272-1.007-0.253-1.474,0.075c-0.473,0.334-0.688,0.808-0.569,1.381c0.121,0.588,0.486,1.008,1.003,1.31
		c1.036,0.606,2.24,0.649,3.327,1.031c0.239-0.553,0.472-1.077,0.694-1.605c0.127-0.305,0.258-0.61,0.353-0.926
		c0.205-0.685,0.299-1.37-0.059-2.046c-0.279-0.527-0.77-0.795-1.412-0.738c-0.521,0.045-1.02,0.456-1.152,0.982
		C8.731,10.808,8.715,11.094,8.67,11.414z"/>
</g>
</svg>
