<?xml version="1.0" encoding="utf-8"?>
<!-- Generator: Adobe Illustrator 16.0.0, SVG Export Plug-In . SVG Version: 6.00 Build 0)  -->
<!DOCTYPE svg PUBLIC "-//W3C//DTD SVG 1.1//EN" "http://www.w3.org/Graphics/SVG/1.1/DTD/svg11.dtd">
<svg version="1.1" id="Layer_2" xmlns="http://www.w3.org/2000/svg" xmlns:xlink="http://www.w3.org/1999/xlink" x="0px" y="0px"
	 width="24px" height="24px" viewBox="0 0 24 24" style="enable-background:new 0 0 24 24;" xml:space="preserve">
<g>
	<path style="fill:#E0454B;" d="M22.851,9.232c-0.127,0-0.256-0.032-0.374-0.101L12,3.08L1.523,9.131
		C1.165,9.339,0.706,9.216,0.499,8.857C0.292,8.499,0.415,8.04,0.773,7.833L12,1.348l11.227,6.485
		c0.358,0.207,0.481,0.666,0.274,1.024C23.362,9.098,23.11,9.232,22.851,9.232z"/>
</g>
<path style="fill:#E0454B;" d="M12,3.9l-8.656,5v13.563h17.313V8.9L12,3.9z M15.655,19.688c-1.087,0-1.967-1.082-2.804-1.68
	c-0.134-0.096-0.271-0.168-0.412-0.217c0.128,1.176,0.701,2.465,1.514,3.279c-1.003,0-2.732,0-3.905,0
	c0.857-0.857,1.435-2.129,1.566-3.285c-0.15,0.047-0.298,0.119-0.442,0.223c-0.837,0.598-1.741,1.68-2.828,1.68
	c-1.364,0-2.47-1.105-2.47-2.471s1.106-2.471,2.47-2.471c1.087,0,1.991,1.082,2.828,1.68c0.128,0.092,0.259,0.158,0.392,0.205
	c-0.064-0.303-0.162-0.588-0.329-0.822c-0.599-0.836-1.706-1.703-1.706-2.791c0-1.364,1.106-2.469,2.47-2.469
	c1.364,0,2.47,1.105,2.47,2.469c0,1.088-1.053,1.955-1.653,2.791c-0.162,0.227-0.256,0.506-0.322,0.805
	c0.122-0.047,0.241-0.104,0.357-0.188c0.837-0.598,1.717-1.68,2.804-1.68c1.364,0,2.47,1.105,2.47,2.471S17.02,19.688,15.655,19.688
	z"/>
<path style="fill:#EAA001;" d="M15.655,14.746c-1.087,0-1.967,1.082-2.804,1.68c-0.116,0.084-0.235,0.141-0.357,0.188
	c0.066-0.299,0.16-0.578,0.322-0.805c0.601-0.836,1.653-1.703,1.653-2.791c0-1.364-1.105-2.469-2.47-2.469
	c-1.364,0-2.47,1.105-2.47,2.469c0,1.088,1.107,1.955,1.706,2.791c0.167,0.234,0.264,0.52,0.329,0.822
	c-0.132-0.047-0.264-0.113-0.392-0.205c-0.837-0.598-1.741-1.68-2.828-1.68c-1.364,0-2.47,1.105-2.47,2.471s1.106,2.471,2.47,2.471
	c1.087,0,1.991-1.082,2.828-1.68c0.144-0.104,0.292-0.176,0.442-0.223c-0.131,1.156-0.709,2.428-1.566,3.285
	c1.173,0,2.902,0,3.905,0c-0.813-0.814-1.386-2.104-1.514-3.279c0.14,0.049,0.278,0.121,0.412,0.217
	c0.837,0.598,1.717,1.68,2.804,1.68c1.364,0,2.47-1.105,2.47-2.471S17.02,14.746,15.655,14.746z"/>
</svg>
