<?xml version="1.0" encoding="utf-8"?>
<!-- Generator: Adobe Illustrator 16.0.0, SVG Export Plug-In . SVG Version: 6.00 Build 0)  -->
<!DOCTYPE svg PUBLIC "-//W3C//DTD SVG 1.1//EN" "http://www.w3.org/Graphics/SVG/1.1/DTD/svg11.dtd">
<svg version="1.1" id="Layer_2" xmlns="http://www.w3.org/2000/svg" xmlns:xlink="http://www.w3.org/1999/xlink" x="0px" y="0px"
	 width="24px" height="24px" viewBox="0 0 24 24" style="enable-background:new 0 0 24 24;" xml:space="preserve">
<path style="fill:#603913;" d="M17.954,11.806v3.855h1.344v-3.855c-0.219,0.04-0.441,0.068-0.672,0.068S18.173,11.845,17.954,11.806
	z"/>
<path style="fill:#00A651;" d="M22.414,8.085c0-1.159-1.09-1.836-1.352-2.878c-0.078-0.314,0.189-0.627,0.189-0.971
	c0-1.451-1.176-2.627-2.627-2.627s-2.627,1.176-2.627,2.627c0,0.344,0.27,0.657,0.189,0.971c-0.26,1.042-1.35,1.719-1.35,2.878
	c0,1.862,1.346,3.402,3.115,3.72c0.219,0.04,0.441,0.068,0.672,0.068s0.453-0.028,0.672-0.068
	C21.068,11.488,22.414,9.948,22.414,8.085z"/>
<g style="opacity:0.75;">
	<path style="fill:#535353;" d="M19.826,14.677v1.37c0,0.289-0.227,0.522-0.502,0.522h-1.559c-0.277,0-0.5-0.233-0.5-0.522v-1.839
		c-1.52-0.213-3.025-0.298-4.835-0.243v2.082c0,0.289-0.224,0.522-0.501,0.522h-1.214c-0.278,0-0.502-0.233-0.502-0.522v-1.946
		c-5.806,0.556-10.22,2.519-10.126,4.637c0.102,2.31,5.519,3.931,12.099,3.613c6.58-0.317,11.83-2.449,11.728-4.76
		C23.859,16.357,22.279,15.326,19.826,14.677z"/>
</g>
<g>
	<path style="fill:#12B52D;" d="M19.734,14.328v1.276c0,0.269-0.223,0.488-0.496,0.488h-1.332c-0.275,0-0.496-0.22-0.496-0.488
		v-1.714c-1.502-0.198-3.195-0.276-4.984-0.227v1.94c0,0.269-0.222,0.488-0.496,0.488h-1.2c-0.274,0-0.496-0.22-0.496-0.488v-1.813
		c-5.739,0.517-10.102,2.348-10.009,4.321c0.101,2.153,5.455,3.661,11.959,3.365c6.503-0.295,11.691-2.281,11.591-4.434
		C23.721,15.895,22.16,14.934,19.734,14.328z"/>
</g>
<path style="fill:#603913;" d="M10.719,12.729v2.933h1.21v-2.933c-0.195,0.042-0.397,0.066-0.605,0.066S10.915,12.771,10.719,12.729
	z"/>
<path style="fill:#00A651;" d="M14.189,9.93c0-0.876-0.824-1.389-1.021-2.177c-0.059-0.238,0.145-0.475,0.145-0.735
	c0-1.098-0.89-1.987-1.988-1.987S9.337,5.92,9.337,7.018c0,0.26,0.203,0.497,0.144,0.735C9.284,8.541,8.459,9.054,8.459,9.93
	c0,1.375,0.969,2.521,2.261,2.799c0.195,0.042,0.397,0.066,0.605,0.066s0.41-0.024,0.605-0.066
	C13.222,12.451,14.189,11.305,14.189,9.93z"/>
</svg>
