<?xml version="1.0" encoding="utf-8"?>
<!-- Generator: Adobe Illustrator 16.0.0, SVG Export Plug-In . SVG Version: 6.00 Build 0)  -->
<!DOCTYPE svg PUBLIC "-//W3C//DTD SVG 1.1//EN" "http://www.w3.org/Graphics/SVG/1.1/DTD/svg11.dtd">
<svg version="1.1" id="Layer_3" xmlns="http://www.w3.org/2000/svg" xmlns:xlink="http://www.w3.org/1999/xlink" x="0px" y="0px"
	 width="24px" height="24px" viewBox="0 0 24 24" style="enable-background:new 0 0 24 24;" xml:space="preserve">
<path style="fill:#EAA001;" d="M4.675,10.314L12,7.47L3.319,4.29v6.551v6.755c0.426,0.165,0.873,0.322,1.356,0.453V10.314z"/>
<path style="fill:#E0454B;" d="M17.634,18.443v-6.272h3.746v-2.02h-3.746V7.117h-2.019v3.034H11.87v2.02h3.746v6.595
	c0.463-0.054,0.92-0.115,1.363-0.195C17.201,18.53,17.416,18.486,17.634,18.443z"/>
<path style="fill:#E0454B;" d="M23.941,14.859c-0.014,0.102-0.043,0.224-0.114,0.35c-0.065,0.128-0.111,0.282-0.233,0.427
	c-0.105,0.151-0.219,0.319-0.389,0.466c-0.149,0.164-0.334,0.315-0.546,0.463c-0.409,0.31-0.932,0.571-1.5,0.847
	c-0.586,0.244-1.23,0.486-1.938,0.672c-0.503,0.142-1.039,0.254-1.588,0.36c-0.218,0.043-0.433,0.087-0.655,0.127
	c-0.443,0.08-0.9,0.142-1.363,0.195c-0.355,0.041-0.714,0.079-1.076,0.109c-0.832,0.064-1.695,0.087-2.532,0.087
	c-0.868-0.002-1.718-0.023-2.546-0.087c-0.835-0.07-1.655-0.163-2.439-0.305s-1.541-0.292-2.243-0.489
	c-0.036-0.01-0.068-0.022-0.104-0.032c-0.483-0.131-0.931-0.288-1.356-0.453c-0.16-0.063-0.326-0.122-0.478-0.186
	c-0.569-0.275-1.091-0.537-1.5-0.846c-0.212-0.147-0.397-0.3-0.546-0.463c-0.17-0.147-0.282-0.315-0.389-0.466
	c-0.122-0.144-0.169-0.302-0.234-0.431c-0.071-0.128-0.1-0.246-0.113-0.347C0.021,14.66,0,14.555,0,14.555s0.006,0.108,0.019,0.311
	c0,0.104,0.013,0.229,0.068,0.369c0.047,0.142,0.083,0.316,0.194,0.477c0.095,0.168,0.199,0.358,0.359,0.528
	c0.142,0.188,0.32,0.367,0.525,0.542c0.397,0.368,0.912,0.695,1.492,1.009c0.591,0.29,1.245,0.581,1.96,0.814
	c0.711,0.246,1.479,0.457,2.285,0.605c0.804,0.161,1.643,0.273,2.497,0.362c0.863,0.082,1.736,0.124,2.592,0.138
	c0.888-0.016,1.749-0.056,2.607-0.139c0.854-0.089,1.693-0.201,2.497-0.362c0.806-0.148,1.573-0.36,2.285-0.605
	c0.715-0.233,1.369-0.524,1.96-0.814c0.581-0.313,1.095-0.641,1.492-1.009c0.205-0.175,0.383-0.353,0.525-0.541
	c0.16-0.17,0.264-0.36,0.359-0.529c0.11-0.158,0.148-0.337,0.194-0.479c0.056-0.142,0.068-0.265,0.068-0.367
	c0.012-0.202,0.019-0.31,0.019-0.31S23.979,14.661,23.941,14.859z"/>
</svg>
