<?xml version="1.0" encoding="utf-8"?>
<!-- Generator: Adobe Illustrator 16.0.0, SVG Export Plug-In . SVG Version: 6.00 Build 0)  -->
<!DOCTYPE svg PUBLIC "-//W3C//DTD SVG 1.1//EN" "http://www.w3.org/Graphics/SVG/1.1/DTD/svg11.dtd">
<svg version="1.1" id="Layer_2" xmlns="http://www.w3.org/2000/svg" xmlns:xlink="http://www.w3.org/1999/xlink" x="0px" y="0px"
	 width="23.832px" height="24px" viewBox="0 0 23.832 24" style="enable-background:new 0 0 23.832 24;" xml:space="preserve">
<g>
	<path style="fill:#E0454B;" d="M9.717,11.472c-0.326-0.087-0.543-0.126-0.639-0.131c-0.011,0.004-0.03,0.017-0.044,0.024v1.229
		c0.231-0.331,0.458-0.646,0.684-0.947L9.717,11.472L9.717,11.472z"/>
	<path style="fill:#E0454B;" d="M9.717,0H9.034v9.078c0.201,0,0.433,0.028,0.684,0.07L9.717,0L9.717,0z"/>
	<path style="fill:#E0454B;" d="M0.168,14.809v0.685h7.023c0.133-0.228,0.267-0.455,0.405-0.685H0.168z"/>
	<path style="fill:#E0454B;" d="M24,22.945l-8.863-4.963c0.202,0.322,0.336,0.649,0.348,0.978L24,23.729V22.945z"/>
</g>
<path style="fill:none;" d="M23.762,9.582l0.631-0.63c-0.142-0.115-0.303-0.2-0.479-0.253l-0.517,0.52L23.762,9.582z"/>
<rect x="23.502" y="10.055" transform="matrix(-0.7071 -0.7071 0.7071 -0.7071 33.2701 34.4083)" style="fill:none;" width="0.518" height="0.517"/>
<path style="fill:none;" d="M12.68,19.426c-0.14-0.421-1.51-1.494-2.469-1.898c-1.725,0.605-3.446,4.601-4.556,6.474h6.4
	C12.201,22.711,12.557,21.031,12.68,19.426z"/>
<path style="fill:none;" d="M21.518,10.526l-0.352-0.351c-0.141,0.071-0.273,0.163-0.396,0.271l0.416,0.415L21.518,10.526z"/>
<rect x="21.448" y="11.79" transform="matrix(-0.7066 -0.7076 0.7076 -0.7066 28.4955 35.8662)" style="fill:none;" width="0.471" height="0.471"/>
<rect x="20.952" y="11.291" transform="matrix(-0.7066 -0.7076 0.7076 -0.7066 27.9983 34.6626)" style="fill:none;" width="0.467" height="0.472"/>
<path style="fill:none;" d="M24.309,10.131l0.522-0.522c-0.054-0.176-0.138-0.338-0.254-0.478l-0.636,0.634L24.309,10.131z"/>
<path style="fill:none;" d="M20.209,12.175c0.048,0.156,0.124,0.3,0.229,0.429l0.58-0.579l-0.33-0.33L20.209,12.175z"/>
<rect x="21.448" y="10.791" transform="matrix(-0.7066 -0.7076 0.7076 -0.7066 29.2008 34.1602)" style="fill:none;" width="0.469" height="0.471"/>
<path style="fill:none;" d="M23.605,8.64c-0.045-0.003-0.09-0.012-0.137-0.012c-0.189,0-0.382,0.034-0.566,0.097l0.311,0.311
	L23.605,8.64z"/>
<path style="fill:none;" d="M24.891,9.916l-0.397,0.397l0.309,0.309c0.05-0.146,0.081-0.295,0.093-0.448
	C24.898,10.086,24.896,10,24.891,9.916z"/>
<path style="fill:none;" d="M23.943,10.863l0.453,0.453c0.117-0.135,0.219-0.28,0.297-0.436l-0.385-0.382L23.943,10.863z"/>
<path style="fill:none;" d="M23.396,11.413l0.383,0.381c0.152-0.078,0.301-0.177,0.435-0.296l-0.452-0.452L23.396,11.413z"/>
<path style="fill:none;" d="M20.234,11.244c-0.072,0.217-0.101,0.439-0.08,0.652l0.363-0.367L20.234,11.244z"/>
<path style="fill:none;" d="M21.02,11.028l-0.416-0.417c-0.108,0.124-0.199,0.258-0.271,0.397l0.354,0.353L21.02,11.028z"/>
<path style="fill:none;" d="M20.104,12.529c-0.053,0.305-0.117,0.568-0.164,0.738c0.172-0.047,0.435-0.111,0.736-0.164
	c-0.119-0.066-0.23-0.147-0.326-0.246C20.251,12.76,20.171,12.648,20.104,12.529z"/>
<path style="fill:none;" d="M21.328,13.052c0.04,0.003,0.078,0.011,0.117,0.011c0.176,0,0.35-0.031,0.519-0.088l-0.28-0.281
	L21.328,13.052z"/>
<path style="fill:none;" d="M21.182,12.192l-0.574,0.576c0.129,0.104,0.276,0.184,0.439,0.23l0.471-0.471L21.182,12.192z"/>
<circle style="fill:#EAA001;" cx="14.465" cy="9.252" r="1.633"/>
<path style="fill:none;" d="M9.034,13.402c-0.296,0.439-0.6,0.912-0.904,1.406h0.904V13.402z"/>
<path style="fill:none;" d="M7.718,15.492c-0.091,0.154-0.182,0.307-0.271,0.463C5.645,19.109,4.399,22.871,4.203,24h1.452
	c1.11-1.873,2.832-5.867,4.556-6.473c0.959,0.404,2.33,1.478,2.469,1.897c-0.123,1.605-0.479,3.285-0.625,4.574h1.66
	c0.629-1.517,1.32-3.776,1.32-4.991c0-0.109-0.027-0.222-0.063-0.335l-5.687-3.182L7.718,15.492L7.718,15.492z"/>
<path style="fill:none;" d="M14.035,17.367c-0.848-0.844-1.925-1.596-1.925-1.854c0-0.433,0.865-1.091,1.556-1.73
	c0.492,1.162,1.217,2.504,2.045,2.794c0.112,0.039,0.236,0.058,0.368,0.058c0.7,0,1.638-0.501,2.354-0.963
	c0.23-0.148,0.338-0.413,0.303-0.667l-0.204,0.204c-0.066,0.068-0.155,0.104-0.249,0.104c-0.098,0-0.186-0.035-0.251-0.104
	c-0.067-0.064-0.104-0.154-0.104-0.25c0-0.094,0.036-0.184,0.104-0.25l0.249-0.249c-0.076-0.024-0.156-0.04-0.236-0.04
	c-0.12,0-0.24,0.032-0.352,0.104c-0.612,0.395-1.375,0.752-1.527,0.766c-0.371-0.159-1.186-1.711-1.707-3.258
	c-0.047-0.141-0.145-0.247-0.256-0.327c-0.12-0.188-0.258-0.356-0.385-0.473c-0.219-0.202-0.705-0.519-0.985-0.616
	c-0.288-0.098-0.629-0.321-1.04-0.378c-0.602-0.233-1.387-0.502-2.076-0.629v1.395c0.259,0.064,0.558,0.154,0.873,0.259
	c-0.26,0.324-0.557,0.719-0.873,1.159v2.532L14.035,17.367z"/>
<path style="fill:none;" d="M9.023,9.532c-0.133,0-0.256,0.011-0.365,0.035c-0.884,0.196-2.223,1.623-2.757,2.228
	c-0.25,0.283-0.224,0.714,0.06,0.965c0.13,0.114,0.292,0.172,0.452,0.172c0.189,0,0.377-0.078,0.513-0.23
	c0.781-0.884,1.73-1.725,2.027-1.798c0.022-0.005,0.051-0.006,0.081-0.007V9.533C9.03,9.533,9.027,9.532,9.023,9.532z"/>
<path style="fill:none;" d="M9.825,11.5c-0.04-0.011-0.071-0.019-0.108-0.029v0.177C9.752,11.601,9.79,11.547,9.825,11.5z"/>
<path style="fill:#EAA001;" d="M18.532,15.209c-0.066,0.068-0.155,0.104-0.249,0.104c-0.098,0-0.186-0.035-0.251-0.104
	c-0.067-0.064-0.104-0.154-0.104-0.25c0-0.094,0.036-0.184,0.104-0.25l0.249-0.249c-0.076-0.024-0.156-0.04-0.236-0.04
	c-0.12,0-0.24,0.032-0.352,0.104c-0.612,0.395-1.375,0.752-1.527,0.766c-0.371-0.159-1.186-1.711-1.707-3.258
	c-0.047-0.141-0.145-0.247-0.256-0.327c-0.12-0.188-0.258-0.356-0.385-0.473c-0.219-0.202-0.705-0.519-0.985-0.616
	c-0.288-0.098-0.629-0.321-1.04-0.378c-0.602-0.233-1.387-0.502-2.076-0.629l0,0c0,0-0.001,0-0.002,0
	C9.476,9.563,9.25,9.536,9.045,9.535c-0.003,0-0.008-0.001-0.012-0.001l0,0c-0.003,0-0.007-0.001-0.01-0.001
	c-0.133,0-0.256,0.011-0.365,0.035c-0.884,0.196-2.223,1.623-2.757,2.228c-0.25,0.283-0.224,0.714,0.06,0.965
	c0.13,0.114,0.292,0.171,0.452,0.171c0.189,0,0.377-0.078,0.513-0.229c0.781-0.884,1.73-1.725,2.027-1.798
	c0.022-0.005,0.051-0.006,0.081-0.007l0,0c0.01,0,0.018-0.002,0.029-0.002c0.076,0,0.171,0.01,0.281,0.029l0,0
	c0.11,0.019,0.235,0.046,0.371,0.079c0.26,0.064,0.56,0.154,0.875,0.259c-0.26,0.324-0.557,0.719-0.873,1.159l0,0v0.001
	C9.498,12.727,9.27,13.053,9.036,13.4c-0.001,0.002-0.001,0.002-0.002,0.005l0,0c-0.296,0.438-0.6,0.911-0.904,1.405l0,0
	c-0.002,0.004-0.005,0.008-0.007,0.013c-0.227,0.368-0.453,0.745-0.675,1.134C5.645,19.109,4.399,22.871,4.203,24h1.452
	c1.11-1.873,2.832-5.867,4.556-6.473c0.959,0.404,2.33,1.478,2.469,1.897c-0.123,1.605-0.479,3.285-0.625,4.574h1.66
	c0.629-1.517,1.32-3.776,1.32-4.991c0-0.109-0.027-0.222-0.063-0.335l0,0v-0.001c-0.035-0.104-0.082-0.21-0.143-0.316
	c-0.002-0.004-0.003-0.006-0.005-0.01c-0.183-0.322-0.466-0.654-0.785-0.975c-0.002-0.002-0.003-0.003-0.005-0.005h-0.001
	c-0.847-0.845-1.924-1.597-1.924-1.854c0-0.432,0.865-1.09,1.556-1.729c0.492,1.161,1.217,2.504,2.045,2.794
	c0.112,0.039,0.236,0.058,0.368,0.058c0.7,0,1.638-0.501,2.354-0.963c0.23-0.147,0.338-0.413,0.303-0.667L18.532,15.209z"/>
<path style="fill:#EAA001;" d="M23.016,10.191c-0.281-0.283-0.672-0.438-1.098-0.438c-0.507,0-1.018,0.221-1.4,0.605
	c-0.48,0.48-0.678,1.124-0.578,1.693l-0.004-0.001c-0.064,0.627-0.233,1.204-0.272,1.33l-0.646,0.646l-0.066-0.065
	c-0.021-0.022-0.053-0.035-0.083-0.035c-0.032,0-0.062,0.013-0.084,0.035l-0.501,0.501c0.142,0.048,0.271,0.132,0.357,0.268
	c0.057,0.088,0.086,0.182,0.098,0.277l0.546-0.545c0.046-0.046,0.046-0.121,0-0.167l-0.101-0.101l0.646-0.646
	c0.126-0.039,0.705-0.208,1.333-0.272c0.093,0.016,0.188,0.023,0.285,0.023c0.508,0,1.019-0.221,1.401-0.605
	c0.354-0.354,0.567-0.806,0.603-1.275C23.482,10.94,23.33,10.506,23.016,10.191z M23.159,10.883l-0.478,0.476l-0.334-0.334
	l0.58-0.578C23.034,10.575,23.109,10.722,23.159,10.883z M20.854,11.528l0.332-0.333l0.33,0.331l-0.334,0.333L20.854,11.528z
	 M21.018,12.025l-0.58,0.579c-0.104-0.128-0.181-0.272-0.229-0.429l0.479-0.479L21.018,12.025z M21.352,11.027l0.332-0.334
	l0.332,0.332l-0.332,0.334L21.352,11.027z M21.684,11.692l0.334,0.334l-0.334,0.333l-0.334-0.334L21.684,11.692z M21.85,11.525
	l0.334-0.333l0.334,0.334l-0.334,0.333L21.85,11.525z M22.759,10.284l-0.575,0.575l-0.332-0.332l0.471-0.473
	C22.482,10.102,22.63,10.179,22.759,10.284z M21.918,9.989c0.043,0,0.083,0.008,0.124,0.011l-0.358,0.36l-0.281-0.283
	C21.57,10.02,21.745,9.989,21.918,9.989z M21.166,10.175l0.352,0.351l-0.332,0.334l-0.416-0.415
	C20.893,10.338,21.025,10.247,21.166,10.175z M20.604,10.612l0.416,0.417l-0.332,0.333l-0.354-0.353
	C20.402,10.87,20.494,10.736,20.604,10.612z M20.234,11.244l0.283,0.285l-0.363,0.367C20.135,11.683,20.162,11.461,20.234,11.244z
	 M19.939,13.27c0.047-0.172,0.111-0.436,0.164-0.739c0.066,0.118,0.146,0.229,0.246,0.329c0.096,0.098,0.207,0.179,0.326,0.244
	C20.374,13.156,20.111,13.223,19.939,13.27z M21.047,12.998c-0.163-0.048-0.311-0.127-0.439-0.23l0.574-0.576l0.336,0.335
	L21.047,12.998z M21.445,13.063c-0.039,0-0.077-0.008-0.117-0.011l0.355-0.358l0.279,0.281
	C21.795,13.03,21.621,13.063,21.445,13.063z M22.199,12.875l-0.35-0.348l0.334-0.334l0.412,0.413
	C22.475,12.713,22.339,12.805,22.199,12.875z M22.764,12.438l-0.412-0.413l0.332-0.333l0.351,0.349
	C22.962,12.183,22.87,12.316,22.764,12.438z M22.85,11.525l0.362-0.362c0.007,0.077,0.009,0.155,0.003,0.235
	c-0.01,0.139-0.039,0.275-0.084,0.409L22.85,11.525z"/>
<path style="fill:#EAA001;" d="M18.639,14.727c-0.086-0.135-0.216-0.219-0.356-0.267l-0.249,0.249
	c-0.067,0.066-0.104,0.156-0.104,0.25c0,0.096,0.035,0.186,0.104,0.25c0.066,0.068,0.154,0.104,0.251,0.104
	c0.094,0,0.183-0.035,0.249-0.104l0.205-0.204C18.725,14.908,18.695,14.814,18.639,14.727z"/>
<circle style="fill:#E0454B;" cx="18.747" cy="8.45" r="0.802"/>
</svg>
