<?xml version="1.0" encoding="utf-8"?>
<!-- Generator: Adobe Illustrator 16.0.0, SVG Export Plug-In . SVG Version: 6.00 Build 0)  -->
<!DOCTYPE svg PUBLIC "-//W3C//DTD SVG 1.1//EN" "http://www.w3.org/Graphics/SVG/1.1/DTD/svg11.dtd">
<svg version="1.1" id="Layer_3" xmlns="http://www.w3.org/2000/svg" xmlns:xlink="http://www.w3.org/1999/xlink" x="0px" y="0px"
	 width="24px" height="24px" viewBox="0 0 24 24" style="enable-background:new 0 0 24 24;" xml:space="preserve">
<g>
	<path style="fill:#EAA001;" d="M22.178,23.735h-20.4c-0.847,0-1.535-0.689-1.535-1.536V1.8c0-0.847,0.688-1.536,1.535-1.536h20.4
		c0.847,0,1.535,0.689,1.535,1.536v20.399C23.713,23.046,23.024,23.735,22.178,23.735z M1.778,1.358
		c-0.244,0-0.442,0.198-0.442,0.442v20.399c0,0.244,0.198,0.443,0.442,0.443h20.4c0.243,0,0.442-0.199,0.442-0.443V1.8
		c0-0.244-0.199-0.442-0.442-0.442H1.778z"/>
</g>
<g>
	<path style="fill:#E0454B;" d="M6.318,12.442c0,0.491-0.397,0.888-0.888,0.888l0,0c-0.49,0-0.888-0.397-0.888-0.888V5.2
		c0-0.49,0.398-0.888,0.888-0.888l0,0c0.491,0,0.888,0.398,0.888,0.888V12.442z"/>
	<path style="fill:#E0454B;" d="M9.552,13.752c0,0.491-0.397,0.888-0.888,0.888l0,0c-0.49,0-0.888-0.396-0.888-0.888V3.89
		c0-0.491,0.398-0.888,0.888-0.888l0,0c0.491,0,0.888,0.397,0.888,0.888V13.752z"/>
	<path style="fill:#E0454B;" d="M12.835,12.612c0,0.491-0.397,0.889-0.888,0.889l0,0c-0.49,0-0.888-0.397-0.888-0.889V5.029
		c0-0.491,0.398-0.889,0.888-0.889l0,0c0.491,0,0.888,0.398,0.888,0.889V12.612z"/>
	<path style="fill:#E0454B;" d="M16.135,13.638c0,0.491-0.398,0.888-0.889,0.888l0,0c-0.49,0-0.888-0.396-0.888-0.888V4.004
		c0-0.491,0.397-0.888,0.888-0.888l0,0c0.49,0,0.889,0.397,0.889,0.888V13.638z"/>
	<path style="fill:#E0454B;" d="M19.414,12.431c0,0.49-0.398,0.888-0.889,0.888l0,0c-0.489,0-0.888-0.397-0.888-0.888v-7.22
		c0-0.49,0.398-0.888,0.888-0.888l0,0c0.49,0,0.889,0.398,0.889,0.888V12.431z"/>
</g>
<g>
	<circle style="fill:#EAA001;" cx="7.799" cy="16.874" r="0.888"/>
	<circle style="fill:#EAA001;" cx="12.011" cy="16.874" r="0.888"/>
	<circle style="fill:#EAA001;" cx="16.156" cy="16.874" r="0.889"/>
	<circle style="fill:#EAA001;" cx="9.928" cy="19.334" r="0.889"/>
	<circle style="fill:#EAA001;" cx="14.027" cy="19.334" r="0.889"/>
</g>
</svg>
