<?xml version="1.0" encoding="utf-8"?>
<!-- Generator: Adobe Illustrator 16.0.0, SVG Export Plug-In . SVG Version: 6.00 Build 0)  -->
<!DOCTYPE svg PUBLIC "-//W3C//DTD SVG 1.1//EN" "http://www.w3.org/Graphics/SVG/1.1/DTD/svg11.dtd">
<svg version="1.1" id="Layer_4" xmlns="http://www.w3.org/2000/svg" xmlns:xlink="http://www.w3.org/1999/xlink" x="0px" y="0px"
	 width="24px" height="24px" viewBox="0 0 24 24" style="enable-background:new 0 0 24 24;" xml:space="preserve">
<g>
	<path style="fill:#E0454B;" d="M9.682,3.037c-0.37,0.025-0.919,0.071-1.534,0.288C7.831,3.418,7.512,3.57,7.167,3.732
		C6.842,3.919,6.481,4.109,6.156,4.366C5.807,4.603,5.498,4.9,5.166,5.196C4.869,5.519,4.544,5.84,4.283,6.208
		c-0.566,0.71-1.004,1.513-1.364,2.291C2.766,8.895,2.576,9.275,2.472,9.652c-0.11,0.374-0.248,0.73-0.313,1.065
		c-0.164,0.668-0.27,1.235-0.313,1.633c-0.056,0.399-0.088,0.628-0.088,0.628H0.276l3.149,3.149l3.149-3.149H4.758
		c0,0-0.016-0.188-0.043-0.519c-0.042-0.334-0.059-0.806-0.051-1.378c-0.011-0.29,0.038-0.59,0.056-0.92
		C4.731,9.829,4.818,9.5,4.867,9.141c0.148-0.698,0.354-1.448,0.691-2.144c0.148-0.362,0.358-0.686,0.548-1.024
		C6.33,5.664,6.539,5.339,6.792,5.071C7.025,4.779,7.298,4.549,7.55,4.313c0.269-0.209,0.526-0.415,0.791-0.561
		C8.858,3.426,9.344,3.271,9.69,3.166c0.361-0.066,0.568-0.104,0.568-0.104S10.049,3.053,9.682,3.037z"/>
	<path style="fill:#EAA001;" d="M14.318,20.963c0.369-0.025,0.92-0.071,1.533-0.289c0.318-0.092,0.637-0.244,0.98-0.406
		c0.326-0.188,0.688-0.377,1.012-0.635c0.35-0.235,0.658-0.533,0.99-0.83c0.297-0.322,0.623-0.643,0.883-1.011
		c0.566-0.71,1.006-1.513,1.365-2.291c0.152-0.396,0.342-0.776,0.445-1.153c0.111-0.375,0.248-0.73,0.314-1.065
		c0.164-0.669,0.27-1.235,0.313-1.633c0.057-0.399,0.088-0.628,0.088-0.628h1.482l-3.15-3.149l-3.148,3.149h1.816
		c0,0,0.016,0.188,0.043,0.519c0.041,0.334,0.059,0.806,0.051,1.378c0.012,0.289-0.037,0.59-0.055,0.92
		c-0.012,0.333-0.1,0.662-0.148,1.021c-0.146,0.697-0.354,1.447-0.691,2.144c-0.148,0.362-0.357,0.685-0.547,1.024
		c-0.225,0.309-0.434,0.633-0.686,0.9c-0.234,0.293-0.508,0.523-0.76,0.758c-0.268,0.209-0.525,0.416-0.791,0.562
		c-0.516,0.327-1.002,0.481-1.348,0.587c-0.361,0.066-0.568,0.104-0.568,0.104S13.951,20.947,14.318,20.963z"/>
</g>
<path style="fill:#0F8EA1;" d="M11.559,5.627c-0.15,2.858-2.67,5.002-3.488,7.149c-0.007,0.02,0,0.036-0.004,0.058
	c-0.147,0.424-0.246,0.879-0.246,1.36c0,2.307,1.873,4.179,4.179,4.179s4.179-1.878,4.179-4.185
	C16.179,11.288,14.455,8.259,11.559,5.627z M14.6,16.183c-0.173,0.256-0.349,0.449-0.503,0.602c-0.136,0.13-0.201,0.184-0.201,0.184
	l-0.011,0.009c-0.194,0.158-0.479,0.129-0.637-0.065c-0.157-0.193-0.129-0.479,0.065-0.636c0.013-0.01,0.025-0.02,0.039-0.028
	c0,0,0.02-0.014,0.057-0.038c0.033-0.022,0.104-0.063,0.152-0.103c0.094-0.071,0.266-0.205,0.444-0.401
	c0.366-0.378,0.787-0.984,0.993-1.672c0.104-0.344,0.137-0.704,0.119-1.044c-0.031-0.339-0.123-0.651-0.235-0.907
	c-0.236-0.512-0.525-0.783-0.508-0.795c-0.017,0.014,0.309,0.235,0.631,0.728c0.157,0.247,0.305,0.563,0.394,0.931
	c0.077,0.368,0.1,0.778,0.041,1.181C15.324,14.935,14.956,15.681,14.6,16.183z"/>
<path style="fill:#FFFFFF;" d="M15.399,12.945c-0.089-0.367-0.236-0.684-0.394-0.931c-0.322-0.493-0.647-0.713-0.631-0.728
	c-0.018,0.012,0.271,0.283,0.508,0.795c0.112,0.256,0.204,0.568,0.235,0.907c0.018,0.34-0.016,0.7-0.119,1.044
	c-0.206,0.688-0.627,1.294-0.993,1.672c-0.179,0.196-0.351,0.33-0.444,0.401c-0.048,0.04-0.119,0.08-0.152,0.103
	c-0.037,0.024-0.057,0.038-0.057,0.038c-0.014,0.009-0.026,0.019-0.039,0.028c-0.194,0.157-0.223,0.442-0.065,0.636
	c0.158,0.194,0.442,0.224,0.637,0.065l0.011-0.009c0,0,0.065-0.054,0.201-0.184c0.154-0.152,0.33-0.346,0.503-0.602
	c0.356-0.502,0.725-1.248,0.841-2.057C15.499,13.724,15.477,13.313,15.399,12.945z"/>
</svg>
