<?xml version="1.0" encoding="utf-8"?>
<!-- Generator: Adobe Illustrator 16.0.0, SVG Export Plug-In . SVG Version: 6.00 Build 0)  -->
<!DOCTYPE svg PUBLIC "-//W3C//DTD SVG 1.1//EN" "http://www.w3.org/Graphics/SVG/1.1/DTD/svg11.dtd">
<svg version="1.1" id="Layer_2" xmlns="http://www.w3.org/2000/svg" xmlns:xlink="http://www.w3.org/1999/xlink" x="0px" y="0px"
	 width="23.832px" height="24px" viewBox="0 0 23.832 24" style="enable-background:new 0 0 23.832 24;" xml:space="preserve">
<g>
	<rect x="12.23" y="7.175" style="fill:#EAA001;" width="2.065" height="6.301"/>
	<path style="fill:#EAA001;" d="M14.295,4.065c0.01-1.2-0.783-2.996-3.008-3.027C8.999,1.007,8.125,2.813,8.1,4.035
		c0,0.007,0,0.014,0,0.022v1.247h2.065V4.075c0.001-0.031,0.028-0.292,0.156-0.528c0.114-0.207,0.319-0.443,0.907-0.443
		c0.012,0,0.021,0,0.03,0c0.785,0.012,0.962,0.525,0.972,0.956v1.245h2.065V4.065z"/>
	<path style="fill:#EAA001;" d="M8.1,8.762c-0.003,0.033-0.029,0.294-0.157,0.53C7.829,9.499,7.624,9.735,7.037,9.735
		c-0.01,0-0.021,0-0.032,0C6.22,9.724,6.043,9.209,6.035,8.78V7.175H3.97v1.597c-0.01,1.201,0.782,2.996,3.007,3.029
		c2.288,0.03,3.162-1.775,3.188-2.999c0-0.007,0-0.013,0-0.021V7.175H8.1V8.762z"/>
	<rect x="3.97" y="0.497" style="fill:#EAA001;" width="2.065" height="4.808"/>
	<polygon style="fill:#E0454B;" points="6.487,7.175 6.487,5.304 6.035,5.304 3.97,5.304 3.454,5.304 3.454,7.175 3.97,7.175 
		6.035,7.175 	"/>
	<polygon style="fill:#E0454B;" points="7.583,5.304 7.583,7.175 8.1,7.175 10.165,7.175 10.616,7.175 10.616,5.304 10.165,5.304 
		8.1,5.304 	"/>
	<polygon style="fill:#E0454B;" points="14.748,5.304 14.295,5.304 12.23,5.304 11.713,5.304 11.713,7.175 12.23,7.175 
		14.295,7.175 14.748,7.175 	"/>
	<g>
		<path style="fill:#E0454B;" d="M8.908,13.186c-0.225,0.137-0.561,0.338-0.881,0.672c-0.173,0.16-0.327,0.357-0.496,0.57
			c-0.147,0.221-0.318,0.455-0.443,0.725c-0.146,0.262-0.249,0.549-0.366,0.842c-0.087,0.299-0.192,0.607-0.241,0.924
			c-0.135,0.631-0.159,1.283-0.14,1.893c0.028,0.299,0.028,0.602,0.082,0.875c0.047,0.273,0.073,0.543,0.139,0.775
			c0.107,0.479,0.219,0.873,0.32,1.141c0.091,0.271,0.143,0.426,0.143,0.426l-0.943,0.471l3.003,1.006l1.002-3.004l-1.154,0.576
			c0,0-0.07-0.115-0.192-0.316c-0.133-0.199-0.293-0.494-0.471-0.861c-0.097-0.18-0.161-0.387-0.257-0.604
			C7.916,19.08,7.868,18.844,7.785,18.6c-0.129-0.49-0.234-1.033-0.241-1.584c-0.021-0.277,0.009-0.551,0.024-0.824
			c0.043-0.27,0.074-0.541,0.148-0.795c0.056-0.26,0.156-0.492,0.243-0.721c0.104-0.219,0.203-0.432,0.325-0.607
			c0.225-0.373,0.485-0.625,0.672-0.803c0.209-0.156,0.328-0.244,0.328-0.244S9.149,13.08,8.908,13.186z"/>
		<path style="fill:#EAA001;" d="M17.555,23.121c0.225-0.137,0.561-0.338,0.881-0.672c0.174-0.16,0.328-0.359,0.496-0.57
			c0.148-0.223,0.316-0.459,0.441-0.725c0.148-0.262,0.248-0.549,0.367-0.844c0.086-0.301,0.193-0.605,0.24-0.924
			c0.135-0.633,0.158-1.281,0.141-1.891c-0.029-0.299-0.029-0.602-0.084-0.873c-0.047-0.275-0.074-0.543-0.137-0.779
			c-0.109-0.477-0.221-0.871-0.322-1.139c-0.09-0.271-0.141-0.428-0.141-0.428l0.941-0.469l-3.004-1.004l-1.002,3.004l1.156-0.578
			c0,0,0.068,0.115,0.191,0.316c0.131,0.199,0.293,0.494,0.471,0.861c0.098,0.18,0.164,0.387,0.256,0.604
			c0.098,0.215,0.146,0.453,0.23,0.693c0.129,0.492,0.232,1.035,0.24,1.584c0.021,0.281-0.01,0.551-0.023,0.828
			c-0.043,0.268-0.074,0.539-0.148,0.789c-0.057,0.262-0.156,0.496-0.244,0.725c-0.104,0.219-0.201,0.432-0.324,0.607
			c-0.227,0.373-0.486,0.625-0.672,0.803c-0.211,0.154-0.326,0.246-0.326,0.246S17.314,23.227,17.555,23.121z"/>
	</g>
	<g>
		<path style="fill:#0F8EA1;" d="M12.998,14.787c-0.08,1.51-1.41,2.643-1.841,3.777c-0.003,0.01,0,0.018-0.003,0.029
			c-0.077,0.225-0.128,0.465-0.128,0.717c0,1.219,0.988,2.209,2.205,2.209c1.219,0,2.207-0.992,2.207-2.211
			C15.438,17.777,14.525,16.178,12.998,14.787z M14.605,20.363c-0.092,0.135-0.186,0.236-0.266,0.318
			c-0.074,0.066-0.107,0.096-0.107,0.096l-0.004,0.004c-0.104,0.086-0.256,0.068-0.338-0.033c-0.084-0.104-0.068-0.254,0.033-0.336
			c0.008-0.004,0.014-0.012,0.021-0.016c0,0,0.012-0.006,0.031-0.02c0.016-0.012,0.053-0.033,0.078-0.055
			c0.051-0.037,0.143-0.107,0.234-0.211c0.193-0.201,0.416-0.52,0.523-0.883c0.057-0.182,0.074-0.373,0.064-0.553
			c-0.018-0.178-0.064-0.344-0.125-0.479c-0.123-0.27-0.275-0.412-0.266-0.42c-0.01,0.008,0.162,0.123,0.332,0.385
			c0.082,0.131,0.162,0.297,0.207,0.492c0.043,0.193,0.053,0.41,0.021,0.623C14.986,19.703,14.791,20.098,14.605,20.363z"/>
		<path style="fill:#FFFFFF;" d="M15.025,18.652c-0.045-0.193-0.123-0.361-0.207-0.492c-0.17-0.26-0.342-0.375-0.332-0.385
			c-0.01,0.008,0.141,0.15,0.266,0.42c0.061,0.135,0.107,0.301,0.125,0.48c0.01,0.18-0.008,0.369-0.064,0.551
			c-0.107,0.363-0.33,0.684-0.523,0.883c-0.094,0.104-0.184,0.176-0.234,0.213c-0.025,0.021-0.063,0.041-0.078,0.053
			c-0.02,0.014-0.031,0.021-0.031,0.021c-0.008,0.004-0.014,0.01-0.021,0.016c-0.102,0.082-0.117,0.232-0.033,0.336
			c0.082,0.102,0.232,0.117,0.338,0.033l0.004-0.004c0,0,0.033-0.029,0.107-0.1c0.08-0.08,0.174-0.182,0.266-0.316
			c0.186-0.266,0.381-0.658,0.441-1.086C15.078,19.063,15.068,18.848,15.025,18.652z"/>
	</g>
</g>
</svg>
