<?xml version="1.0" encoding="utf-8"?>
<!-- Generator: Adobe Illustrator 16.0.0, SVG Export Plug-In . SVG Version: 6.00 Build 0)  -->
<!DOCTYPE svg PUBLIC "-//W3C//DTD SVG 1.1//EN" "http://www.w3.org/Graphics/SVG/1.1/DTD/svg11.dtd">
<svg version="1.1" id="Layer_3" xmlns="http://www.w3.org/2000/svg" xmlns:xlink="http://www.w3.org/1999/xlink" x="0px" y="0px"
	 width="23.832px" height="24px" viewBox="0 0 23.832 24" style="enable-background:new 0 0 23.832 24;" xml:space="preserve">
<g>
	<path style="fill:#EAA001;" d="M1.708,15.545V8.456C1.625,8.467,1.543,8.481,1.458,8.481c-0.481,0-0.916-0.186-1.25-0.481v7.999
		c0.334-0.293,0.769-0.479,1.249-0.479C1.542,15.52,1.625,15.534,1.708,15.545z"/>
	<path style="fill:none;" d="M20.506,6.837H3.328c-0.113,0.844-0.776,1.507-1.62,1.619v7.089c0.844,0.112,1.507,0.773,1.618,1.618
		h17.18c0.111-0.845,0.773-1.506,1.617-1.618V8.456C21.279,8.343,20.617,7.681,20.506,6.837z"/>
	<path style="fill:#EAA001;" d="M20.506,17.163H3.326c0.011,0.083,0.024,0.164,0.024,0.25c0,0.481-0.185,0.916-0.48,1.25h0.001
		h18.09c-0.295-0.334-0.48-0.769-0.48-1.25C20.48,17.327,20.494,17.246,20.506,17.163z"/>
	<path style="fill:#EAA001;" d="M22.375,8.481c-0.086,0-0.168-0.014-0.252-0.025v7.089c0.084-0.011,0.164-0.025,0.25-0.025
		c0.48,0,0.916,0.187,1.25,0.479c0,0.001,0,0.001,0,0.001v0.697c0,1.086-0.879,1.966-1.965,1.966l0,0
		c1.086,0,1.967-0.88,1.967-1.966V16c0,0-0.002,0-0.002-0.001V8.001C23.289,8.296,22.855,8.481,22.375,8.481z"/>
	<path style="fill:#EAA001;" d="M3.328,6.837h17.178c-0.012-0.083-0.025-0.165-0.025-0.25c0-0.481,0.186-0.916,0.48-1.25H2.872
		c0.295,0.334,0.48,0.769,0.48,1.25C3.352,6.672,3.338,6.754,3.328,6.837z"/>
	<path style="fill:#E0454B;" d="M1.708,8.456c0.844-0.112,1.507-0.775,1.62-1.619c0.011-0.083,0.024-0.165,0.024-0.25
		c0-0.481-0.186-0.916-0.48-1.25H2.871H2.173c-1.086,0-1.965,0.88-1.965,1.965V8c0.334,0.295,0.769,0.481,1.25,0.481
		C1.543,8.481,1.625,8.467,1.708,8.456z"/>
	<path style="fill:#E0454B;" d="M20.506,6.837c0.111,0.844,0.773,1.506,1.617,1.619c0.084,0.011,0.166,0.025,0.252,0.025
		c0.48,0,0.914-0.185,1.248-0.48C23.623,8,23.625,8,23.625,8V7.302c0-1.085-0.881-1.965-1.967-1.965h-0.697
		c-0.295,0.334-0.48,0.769-0.48,1.25C20.48,6.672,20.494,6.754,20.506,6.837z"/>
	<path style="fill:#E0454B;" d="M3.326,17.163c-0.111-0.845-0.774-1.506-1.618-1.618c-0.083-0.011-0.165-0.025-0.25-0.025
		c-0.48,0-0.915,0.188-1.249,0.479C0.208,16,0.208,16,0.208,16v0.697c0,0.16,0.025,0.314,0.063,0.466
		c0.008,0.032,0.018,0.063,0.026,0.097c0.088,0.293,0.24,0.555,0.443,0.772c0.021,0.022,0.043,0.045,0.064,0.067
		c0.264,0.258,0.596,0.445,0.972,0.522c0.129,0.024,0.262,0.04,0.396,0.04h0.001H2.87c0.296-0.334,0.48-0.77,0.48-1.25
		C3.35,17.327,3.336,17.246,3.326,17.163z"/>
	<path style="fill:#E0454B;" d="M23.623,16.697V16c0,0,0,0,0-0.001c-0.334-0.294-0.77-0.479-1.25-0.479
		c-0.086,0-0.166,0.016-0.25,0.025c-0.844,0.112-1.506,0.773-1.617,1.618c-0.012,0.083-0.025,0.164-0.025,0.25
		c0,0.481,0.186,0.916,0.48,1.25l0,0h0.697C22.744,18.663,23.623,17.783,23.623,16.697z"/>
	<path style="fill:#E0454B;" d="M13.17,6.84c0-0.001,0.002-0.002,0.002-0.004h-0.004c-0.039-0.046-0.066-0.098-0.117-0.14
		C13,6.653,12.941,6.619,12.885,6.582c-0.573-0.37-1.366-0.37-1.94,0c-0.056,0.036-0.114,0.07-0.165,0.113
		c-0.049,0.042-0.076,0.094-0.116,0.14h-0.004c0,0.001,0.001,0.003,0.001,0.004c0,0-0.001,0.001-0.001,0.001h0.001
		c0.035,0.221,0.146,0.436,0.352,0.605c0.04,0.034,0.086,0.06,0.131,0.088c0.456,0.288,1.087,0.288,1.543,0
		c0.045-0.028,0.09-0.055,0.131-0.089c0.205-0.169,0.316-0.384,0.352-0.605h0.002C13.172,6.841,13.172,6.84,13.17,6.84z"/>
	<path style="fill:#E0454B;" d="M13.17,17.169c0,0.001,0.002,0.003,0.002,0.004h-0.004c-0.039,0.046-0.066,0.099-0.117,0.14
		c-0.051,0.043-0.109,0.078-0.166,0.114c-0.573,0.37-1.366,0.37-1.94-0.001c-0.056-0.035-0.114-0.07-0.165-0.113
		c-0.049-0.041-0.076-0.094-0.116-0.14h-0.004c0-0.001,0.001-0.003,0.001-0.004c0-0.001-0.001-0.001-0.001-0.001h0.001
		c0.035-0.222,0.146-0.437,0.352-0.605c0.04-0.034,0.086-0.061,0.131-0.089c0.456-0.288,1.087-0.288,1.543-0.001
		c0.045,0.029,0.09,0.056,0.131,0.09C13.023,16.732,13.135,16.946,13.17,17.169l0.002-0.001
		C13.172,17.168,13.172,17.168,13.17,17.169z"/>
</g>
<path style="fill:#EAA001;" d="M0.464,17.26c-0.009-0.031-0.018-0.064-0.026-0.097C0.446,17.195,0.455,17.229,0.464,17.26z"/>
<path style="fill:#EAA001;" d="M0.973,18.1c-0.022-0.021-0.044-0.045-0.065-0.066C0.929,18.057,0.95,18.077,0.973,18.1z"/>
<path style="fill:none;" d="M8.192,21.325c0.484,0,0.874-0.392,0.874-0.872s-0.39-0.87-0.874-0.87c-0.113,0-0.219,0.024-0.317,0.063
	v1.612C7.974,21.3,8.08,21.325,8.192,21.325z"/>
<path style="fill:#EAA001;" d="M7.854,21.257l0.021,0.013v-0.009C7.868,21.259,7.86,21.26,7.854,21.257z"/>
<path style="fill:#9B9B9B;" d="M19.054,9.847v4.298l-3.643-2.147L19.054,9.847 M19.085,9.512c-0.025,0-0.053,0.007-0.076,0.016
	c-0.014,0.006-0.025,0.015-0.041,0.022l-3.807,2.247v0.001c0.023-0.009,0.051-0.014,0.077-0.014c-0.028,0-0.054,0.006-0.077,0.015
	l0,0c-0.08,0.031-0.138,0.108-0.138,0.198c0,0.087,0.053,0.161,0.127,0.194c0.002,0.001,0.004,0.002,0.005,0.002
	c0.002,0.001,0.003,0.001,0.006,0.002l0,0c0.023,0.009,0.049,0.016,0.076,0.016h0.001h-0.001c-0.027,0-0.054-0.005-0.076-0.016
	v0.002l3.771,2.226c0.021,0.024,0.055,0.041,0.088,0.053c0.021,0.006,0.042,0.015,0.063,0.015c0.119,0,0.215-0.097,0.215-0.216
	V9.726C19.298,9.606,19.204,9.512,19.085,9.512L19.085,9.512z"/>
<path style="fill:#0F8EA1;" d="M2.253,23.826c-0.231,0.23-0.605,0.23-0.837,0.001l0,0c-0.231-0.231-0.23-0.604,0.001-0.838
	l13.89-13.412c0.101-0.1,0.261-0.1,0.359-0.001l0,0c0.101,0.1,0.1,0.261,0,0.36L2.253,23.826z"/>
<circle style="fill:#E0454B;" cx="16.856" cy="12.001" r="0.403"/>
<circle style="fill:#FF6600;" cx="17.565" cy="11.598" r="0.403"/>
<circle style="fill:#0F8EA1;" cx="17.565" cy="12.404" r="0.403"/>
<circle style="fill:#006600;" cx="18.273" cy="11.194" r="0.403"/>
<circle style="fill:#660066;" cx="18.273" cy="12.001" r="0.403"/>
<circle style="fill:#FFCE00;" cx="18.273" cy="12.808" r="0.403"/>
</svg>
