<?xml version="1.0" encoding="utf-8"?>
<!-- Generator: Adobe Illustrator 16.0.0, SVG Export Plug-In . SVG Version: 6.00 Build 0)  -->
<!DOCTYPE svg PUBLIC "-//W3C//DTD SVG 1.1//EN" "http://www.w3.org/Graphics/SVG/1.1/DTD/svg11.dtd">
<svg version="1.1" id="Layer_2" xmlns="http://www.w3.org/2000/svg" xmlns:xlink="http://www.w3.org/1999/xlink" x="0px" y="0px"
	 width="23.832px" height="24px" viewBox="0.168 0 23.832 24" style="enable-background:new 0.168 0 23.832 24;"
	 xml:space="preserve">
<path style="fill:#E0454B;" d="M18.75,16.26c-0.713-0.848-1.555-1.582-2.494-2.18c-2.244,4.619-7.245,7.381-12.433,6.602
	c0.868,0.828,1.859,1.521,2.944,2.063C14.805,23.824,18.75,16.26,18.75,16.26z"/>
<path style="fill:#EAA001;" d="M5.147,15.402c1.027-0.17,2.024-0.492,2.966-0.947c-1.325-1.975-2.029-4.262-2.029-6.664
	c0-1.733,0.362-3.406,1.076-4.973C7.192,2.743,7.653,1.698,8.563,0.53C7.602,0.826,6.696,1.25,5.854,1.766
	c-1.174,1.292-1.77,2.645-1.78,2.667C3.417,5.877,3.084,7.412,3.084,9C3.084,11.323,3.8,13.529,5.147,15.402z"/>
<path style="fill:#0F8EA1;" d="M12.513,4.275c-0.355,0.98-0.563,2.011-0.628,3.056c5.051-0.42,9.917,2.399,11.94,7.146
	c0.168-0.801,0.26-1.627,0.26-2.477c0-0.375-0.021-0.744-0.057-1.111C22.088,6.511,17.373,3.72,12.513,4.275z"/>
<path style="fill:#E0454B;" d="M11.87,8.336c0.035,1.09,0.234,2.172,0.599,3.228c4.038,0.715,7.452,3.311,9.165,7.676
	c0.715-0.941,1.293-1.988,1.707-3.119C22.023,11.331,17.258,7.844,11.87,8.336z"/>
<path style="fill:#0F8EA1;" d="M8.075,3.224c-0.658,1.445-0.99,2.979-0.99,4.568c0,2.232,0.664,4.357,1.911,6.183
	c0.934-0.563,1.78-1.268,2.522-2.102C11.084,10.607,10.855,9.308,10.855,8c0-2.778,0.925-5.43,2.939-7.863
	C13.234,0.057,12.666,0,12.084,0c-0.63,0-1.243,0.063-1.848,0.157C8.811,1.556,8.085,3.2,8.075,3.224z"/>
<path style="fill:#E0454B;" d="M19.285,16.941c-2.021,4.191-6.193,6.461-9.604,6.816C10.458,23.916,11.261,24,12.084,24
	c3.478,0,6.607-1.498,8.802-3.873C20.467,18.865,19.928,17.84,19.285,16.941z"/>
<path style="fill:#EAA001;" d="M4.018,15.525C2.753,13.584,2.084,11.346,2.084,9c0-1.733,0.362-3.406,1.076-4.973
	C3.163,4.021,3.171,4.002,3.18,3.987C1.263,6.114,0.084,8.918,0.084,12c0,1.113,0.164,2.185,0.448,3.208
	C1.795,15.51,2.923,15.592,4.018,15.525z"/>
<path style="fill:#0F8EA1;" d="M12.963,3.226c4.418-0.298,8.334,2.005,10.354,4.593c-1.377-3.686-4.51-6.513-8.381-7.462
	C14.061,1.305,13.439,2.24,12.963,3.226z"/>
<path style="fill:#EAA001;" d="M0.898,16.311c0.434,1.121,1.028,2.16,1.759,3.092c4.947,1.447,10.415-0.982,12.729-5.82
	c-0.973-0.498-2.021-0.85-3.126-1.041C9.551,15.58,5.591,17.148,0.898,16.311z"/>
<polygon points="12.083,11.999 12.083,11.998 12.083,11.998 "/>
</svg>
