<?xml version="1.0" encoding="utf-8"?>
<!-- Generator: Adobe Illustrator 16.0.0, SVG Export Plug-In . SVG Version: 6.00 Build 0)  -->
<!DOCTYPE svg PUBLIC "-//W3C//DTD SVG 1.1//EN" "http://www.w3.org/Graphics/SVG/1.1/DTD/svg11.dtd">
<svg version="1.1" id="Layer_3" xmlns="http://www.w3.org/2000/svg" xmlns:xlink="http://www.w3.org/1999/xlink" x="0px" y="0px"
	 width="24px" height="24px" viewBox="0 0 24 24" style="enable-background:new 0 0 24 24;" xml:space="preserve">
<path style="fill-rule:evenodd;clip-rule:evenodd;fill:#FFFFFF;" d="M3.86,20.883c1.522,0,3.02,0,4.515,0
	c0.205,0.75,0.149,0.871-0.544,1.168c-0.543,0.231-1.088,0.64-1.632,0.638c-0.562,0-1.125-0.394-1.685-0.625
	C3.791,21.766,3.792,21.762,3.86,20.883z"/>
<g>
	<path style="fill-rule:evenodd;clip-rule:evenodd;fill:#E0454B;" d="M14.641,12.124c0.141,0.384,0.316,0.933,0.549,1.458
		c0.072,0.163,0.281,0.333,0.457,0.374c1.504,0.354,2.992,0.758,4.371,1.478c0.973,0.506,1.861,1.117,2.475,2.048
		c0.188,0.283,0.336,0.606,0.428,0.933c0.357,1.276,0.66,2.569,1.033,3.841c0.125,0.437-0.02,0.586-0.4,0.639
		c-1.012,0.141-2.023,0.354-3.039,0.399c-2.555,0.112-5.111,0.188-7.664,0.202c-2.616,0.015-5.232-0.018-7.846-0.111
		c-1.439-0.052-2.872-0.264-4.307-0.417c-0.222-0.023-0.437-0.117-0.694-0.189c0.311-1.153,0.61-2.262,0.909-3.371
		c0.029-0.111,0.076-0.222,0.089-0.335c0.182-1.644,1.288-2.592,2.582-3.369c1.604-0.963,3.389-1.438,5.259-1.811
		c0.129-0.531,0.27-1.086,0.396-1.643c0.015-0.065-0.024-0.177-0.076-0.215c-0.59-0.444-0.84-1.093-1.039-1.758
		c-0.527-1.763-0.786-3.55-0.332-5.375c0.067-0.27-0.024-0.367-0.265-0.475c-0.458-0.204-0.93-0.413-1.324-0.713
		c-0.705-0.538-0.693-1.21-0.01-1.776C6.854,1.389,7.65,1.12,8.471,0.937c2.785-0.622,5.556-0.618,8.287,0.281
		c0.459,0.15,0.906,0.391,1.295,0.677c0.773,0.568,0.777,1.282,0.014,1.851c-0.396,0.296-0.869,0.506-1.332,0.698
		c-0.273,0.114-0.395,0.224-0.326,0.53c0.434,1.92-0.074,3.725-0.758,5.485C15.434,11.017,15.027,11.501,14.641,12.124z
		 M8.591,14.55c-0.112,2.886,1.233,5.13,2.595,7.385c0.083-1.177,0.07-2.342,0.092-3.505c0.005-0.276,0.094-0.562,0.198-0.82
		c0.15-0.374,0.352-0.729,0.531-1.092c-0.034-0.021-0.068-0.044-0.102-0.066c-0.204,0.242-0.407,0.484-0.663,0.789
		C10.348,16.333,9.514,15.486,8.591,14.55z M13.109,21.983c1.305-2.165,2.16-4.452,2.252-7.087
		c-0.805,0.806-1.529,1.536-2.326,2.338c-0.23-0.296-0.424-0.544-0.618-0.791c-0.031,0.023-0.062,0.047-0.093,0.071
		c0.125,0.233,0.23,0.482,0.381,0.699c0.334,0.483,0.436,1,0.416,1.586C13.082,19.86,13.109,20.923,13.109,21.983z M3.86,20.883
		c-0.068,0.879-0.07,0.883,0.654,1.181c0.56,0.231,1.124,0.625,1.685,0.625c0.544,0.002,1.089-0.406,1.632-0.638
		c0.694-0.297,0.75-0.418,0.544-1.168C6.88,20.883,5.383,20.883,3.86,20.883z M13.08,3.291c0-0.488-0.416-0.914-0.904-0.926
		c-0.501-0.014-0.949,0.423-0.949,0.926c0,0.504,0.445,0.939,0.948,0.926C12.666,4.204,13.08,3.779,13.08,3.291z"/>
	<path style="fill-rule:evenodd;clip-rule:evenodd;fill:#FFFFFF;" d="M8.591,14.55c0.923,0.937,1.757,1.783,2.65,2.69
		c0.256-0.305,0.459-0.547,0.663-0.789c0.034,0.022,0.068,0.045,0.102,0.066c-0.179,0.363-0.38,0.718-0.531,1.092
		c-0.104,0.259-0.193,0.544-0.198,0.82c-0.021,1.163-0.009,2.328-0.092,3.505C9.824,19.68,8.479,17.436,8.591,14.55z"/>
	<path style="fill-rule:evenodd;clip-rule:evenodd;fill:#FFFFFF;" d="M13.109,21.983c0-1.061-0.027-2.123,0.012-3.184
		c0.02-0.586-0.082-1.103-0.416-1.586c-0.15-0.217-0.255-0.466-0.381-0.699c0.031-0.024,0.062-0.048,0.093-0.071
		c0.194,0.247,0.388,0.495,0.618,0.791c0.797-0.802,1.521-1.532,2.326-2.338C15.27,17.531,14.414,19.818,13.109,21.983z"/>
	<path style="fill-rule:evenodd;clip-rule:evenodd;fill:#FFFFFF;" d="M13.08,3.291c0,0.489-0.414,0.914-0.904,0.926
		c-0.503,0.014-0.949-0.421-0.948-0.926c0-0.503,0.448-0.94,0.949-0.926C12.664,2.377,13.08,2.803,13.08,3.291z"/>
</g>
</svg>
