<?xml version="1.0" encoding="utf-8"?>
<!-- Generator: Adobe Illustrator 16.0.0, SVG Export Plug-In . SVG Version: 6.00 Build 0)  -->
<!DOCTYPE svg PUBLIC "-//W3C//DTD SVG 1.1//EN" "http://www.w3.org/Graphics/SVG/1.1/DTD/svg11.dtd">
<svg version="1.1" id="Layer_3" xmlns="http://www.w3.org/2000/svg" xmlns:xlink="http://www.w3.org/1999/xlink" x="0px" y="0px"
	 width="24px" height="24px" viewBox="0 0 24 24" style="enable-background:new 0 0 24 24;" xml:space="preserve">
<path style="fill:#E0454B;" d="M15.069,0.656H1.382c-0.552,0-1,0.448-1,1v20.688c0,0.553,0.448,1,1,1h13.688c0.553,0,1-0.447,1-1
	V1.656C16.069,1.104,15.622,0.656,15.069,0.656z M8.211,4.01c0.967,0,1.75,0.784,1.75,1.75s-0.783,1.75-1.75,1.75
	c-0.966,0-1.75-0.784-1.75-1.75S7.245,4.01,8.211,4.01z M14.021,13.012c-0.146,0.146-0.338,0.221-0.53,0.221
	s-0.384-0.074-0.53-0.221l-2.332-2.331v2.184c0,0.017-0.009,0.029-0.009,0.045c0,0.021,0.009,0.038,0.009,0.06v5.859
	c0,0.643-0.389,1.162-0.868,1.162H9.579c-0.479,0-0.868-0.52-0.868-1.162v-4.964h-1v4.964c0,0.643-0.389,1.162-0.868,1.162H6.662
	c-0.479,0-0.868-0.52-0.868-1.162v-5.859c0-0.021,0.009-0.039,0.01-0.06c-0.001-0.016-0.01-0.028-0.01-0.045v-2.155l-2.303,2.302
	c-0.146,0.146-0.338,0.221-0.53,0.221c-0.191,0-0.384-0.074-0.53-0.221c-0.293-0.293-0.293-0.767,0-1.06L6.12,8.263
	C6.277,8.105,6.487,8.04,6.694,8.051c0.034-0.003,0.064-0.02,0.1-0.02h2.834c0.04,0,0.075,0.019,0.114,0.023
	c0.211-0.017,0.427,0.047,0.589,0.208l3.689,3.689C14.313,12.245,14.313,12.719,14.021,13.012z"/>
<g>
	<circle style="fill:#EAA001;" cx="8.211" cy="5.76" r="1.75"/>
	<path style="fill:#EAA001;" d="M10.331,8.263c-0.162-0.162-0.378-0.225-0.589-0.208C9.703,8.05,9.668,8.031,9.628,8.031H6.794
		c-0.035,0-0.065,0.017-0.1,0.02C6.487,8.04,6.277,8.105,6.12,8.263l-3.689,3.689c-0.293,0.293-0.293,0.767,0,1.06
		c0.146,0.146,0.339,0.221,0.53,0.221c0.192,0,0.384-0.074,0.53-0.221l2.303-2.302v2.155c0,0.017,0.009,0.029,0.01,0.045
		c-0.001,0.021-0.01,0.038-0.01,0.06v5.859c0,0.643,0.389,1.162,0.868,1.162h0.181c0.479,0,0.868-0.52,0.868-1.162v-4.964h1v4.964
		c0,0.643,0.389,1.162,0.868,1.162H9.76c0.479,0,0.868-0.52,0.868-1.162v-5.859c0-0.021-0.009-0.039-0.009-0.06
		c0-0.016,0.009-0.028,0.009-0.045v-2.184l2.332,2.331c0.146,0.146,0.338,0.221,0.53,0.221s0.384-0.074,0.53-0.221
		c0.293-0.293,0.293-0.767,0-1.06L10.331,8.263z"/>
</g>
<polygon style="fill:#EAA001;" points="16.958,4.853 20.288,0.656 23.618,4.853 "/>
<polygon style="fill:#EAA001;" points="16.958,19.147 20.288,23.344 23.618,19.147 "/>
</svg>
