<?xml version="1.0" encoding="utf-8"?>
<!-- Generator: Adobe Illustrator 16.0.0, SVG Export Plug-In . SVG Version: 6.00 Build 0)  -->
<!DOCTYPE svg PUBLIC "-//W3C//DTD SVG 1.1//EN" "http://www.w3.org/Graphics/SVG/1.1/DTD/svg11.dtd">
<svg version="1.1" id="Layer_3" xmlns="http://www.w3.org/2000/svg" xmlns:xlink="http://www.w3.org/1999/xlink" x="0px" y="0px"
	 width="23.832px" height="24px" viewBox="0 0 23.832 24" style="enable-background:new 0 0 23.832 24;" xml:space="preserve">
<g>
	<g>
		<path style="fill:#EAA001;" d="M19.411,4.651c0.188-0.032,0.452-0.056,0.824-0.056c0.375,0,0.644,0.071,0.823,0.216
			c0.172,0.136,0.288,0.359,0.288,0.623s-0.088,0.488-0.248,0.64c-0.208,0.196-0.516,0.284-0.876,0.284
			c-0.08,0-0.151-0.004-0.208-0.012V7.31h-0.604V4.651z M20.015,5.875c0.053,0.012,0.116,0.016,0.204,0.016
			c0.324,0,0.523-0.164,0.523-0.439c0-0.248-0.172-0.396-0.476-0.396c-0.124,0-0.208,0.013-0.252,0.024V5.875z"/>
	</g>
	<path style="fill-rule:evenodd;clip-rule:evenodd;fill:#E0454B;" d="M23.152,5.874c0-1.706-1.387-3.094-3.094-3.094
		s-3.094,1.388-3.094,3.094c0,1.614,1.247,2.93,2.828,3.066v11.981h0.531V8.94C21.905,8.804,23.152,7.488,23.152,5.874z
		 M20.059,8.304c-1.339,0-2.429-1.091-2.429-2.43s1.09-2.43,2.429-2.43s2.429,1.091,2.429,2.43S21.397,8.304,20.059,8.304z"/>
	<path style="fill:#EAA001;" d="M17.533,12.921c-0.512-0.723-1.638-4.406-2.199-4.938c-0.279-0.265-0.616-0.48-0.988-0.57
		c-1.754-0.421-7.357-0.01-7.732-0.032c-1.1-0.063-1.883,0.259-2.372,1.365c-0.114,0.259-1.077,2.528-1.339,3.174
		c-0.118,0.302-0.215,0.619-0.441,0.862c-0.471,0.502-0.656,1.109-0.679,1.779c0.004,0.656-0.017,1.311-0.006,1.967
		c0.01,0.611,0.141,1.193,0.492,1.707c0.537,0.371,0.678,0.896,0.613,1.516C2.855,20,2.866,20.256,2.918,20.506
		c0.07,0.338,0.203,0.625,0.594,0.682c0.467,0.041,0.935,0.043,1.4,0.004c0.301-0.025,0.625-0.072,0.669-0.479
		c0.004-0.566,0.019-1.133,0.007-1.699c-0.006-0.273,0.068-0.391,0.367-0.387c1.588,0.018,6.6,0.018,7.416,0.029
		c0.943,0.014,0.906,0.143,0.926,1.107c0.006,0.367-0.117,0.779,0.254,1.064c0.701,0.389,1.441,0.203,2.168,0.131
		c0.277-0.037,0.285-0.676,0.289-0.893c0.01-0.73-0.205-1.541,0.719-1.934c0.059-0.025,0.092-0.107,0.137-0.162
		c0.307-0.816,0.324-1.672,0.346-2.527C18.15,14.559,18.242,13.633,17.533,12.921z M5.007,16.633
		c-0.573-0.031-1.017-0.521-0.986-1.094c0.028-0.547,0.497-0.984,1.044-0.973c0.563,0.01,1.045,0.506,1.027,1.059
		C6.075,16.172,5.546,16.662,5.007,16.633z M15.068,16.635c-0.529-0.002-1.014-0.473-1.035-1.004
		c-0.021-0.553,0.455-1.051,1.021-1.064c0.57-0.014,1.049,0.451,1.053,1.023C16.111,16.156,15.633,16.639,15.068,16.635z
		 M16.072,12.799c-0.424,0.014-0.797,0.074-0.85-0.563c-0.037-0.443-0.473-0.542-0.889-0.541c-1.166,0.002-2.331-0.003-3.497-0.005
		c-0.482,0.162-0.657,0.531-0.671,1.007c-0.057,0.141-0.18,0.094-0.281,0.094c-1.94,0.003-3.881,0.004-5.821,0.004
		c-0.122,0-0.261,0.039-0.347-0.098c-0.135-0.253,0.036-0.464,0.113-0.675c0.371-1.011,0.766-2.013,1.146-3.02
		c0.211-0.557,0.637-0.891,1.198-0.896C8.771,8.08,10.917,8.1,13.512,8.1c1.281,0,1.451,0.477,1.613,0.943
		c0.143,0.413,0.977,2.62,1.256,3.311C16.506,12.664,16.396,12.788,16.072,12.799z"/>
	<path style="fill:#0F8EA1;" d="M15.055,14.566c-0.566,0.014-1.043,0.512-1.021,1.064c0.021,0.531,0.506,1.002,1.035,1.004
		c0.564,0.004,1.043-0.479,1.039-1.045C16.104,15.018,15.625,14.553,15.055,14.566z"/>
	<path style="fill:#0F8EA1;" d="M5.064,14.566c-0.547-0.012-1.016,0.426-1.044,0.973c-0.03,0.572,0.413,1.063,0.986,1.094
		c0.539,0.029,1.068-0.461,1.085-1.008C6.109,15.072,5.628,14.576,5.064,14.566z"/>
	<path style="fill:#E0454B;" d="M15.125,9.043C14.963,8.576,14.793,8.1,13.512,8.1c-2.595,0-4.741-0.02-7.337,0.007
		c-0.562,0.006-0.987,0.34-1.198,0.896c-0.381,1.007-0.775,2.009-1.146,3.02c-0.077,0.211-0.248,0.422-0.113,0.675
		c0.086,0.137,0.225,0.098,0.347,0.098c1.94,0,3.881-0.001,5.821-0.004c0.102,0,0.225,0.047,0.281-0.094
		c0.014-0.476,0.188-0.845,0.671-1.007c1.166,0.002,2.331,0.007,3.497,0.005c0.416-0.001,0.852,0.098,0.889,0.541
		c0.053,0.637,0.426,0.576,0.85,0.563c0.324-0.011,0.434-0.135,0.309-0.445C16.102,11.663,15.268,9.456,15.125,9.043z"/>
	<path style="fill-rule:evenodd;clip-rule:evenodd;fill:#EAA001;" d="M2.867,12.307c0,0.276-0.224,0.5-0.5,0.5H1.18
		c-0.276,0-0.5-0.224-0.5-0.5v-0.5c0-0.276,0.224-0.5,0.5-0.5h1.188c0.276,0,0.5,0.224,0.5,0.5V12.307z"/>
</g>
</svg>
