<?xml version="1.0" encoding="utf-8"?>
<!-- Generator: Adobe Illustrator 16.0.0, SVG Export Plug-In . SVG Version: 6.00 Build 0)  -->
<!DOCTYPE svg PUBLIC "-//W3C//DTD SVG 1.1//EN" "http://www.w3.org/Graphics/SVG/1.1/DTD/svg11.dtd">
<svg version="1.1" id="Layer_2" xmlns="http://www.w3.org/2000/svg" xmlns:xlink="http://www.w3.org/1999/xlink" x="0px" y="0px"
	 width="23.832px" height="24px" viewBox="0 0 23.832 24" style="enable-background:new 0 0 23.832 24;" xml:space="preserve">
<g>
	<path style="fill-rule:evenodd;clip-rule:evenodd;fill:#0F8EA1;" d="M4.247,13.262c0.049,0.281,0.071,0.537,0.143,0.779
		c0.077,0.264,0.203,0.514,0.3,0.771c0.036,0.094,0.087,0.113,0.182,0.104c0.366-0.039,0.736-0.057,1.101-0.111
		c0.59-0.088,0.931,0.486,0.801,0.926c-0.09,0.305-0.15,0.617-0.225,0.93c-0.112,0.465-0.216,0.932-0.339,1.396
		c-0.106,0.4-0.386,0.529-0.755,0.541c-0.35,0.008-0.639-0.268-0.685-0.607c-0.017-0.131,0.004-0.271,0.032-0.4
		c0.085-0.396,0.184-0.785,0.282-1.205c-0.291,0.033-0.557,0.059-0.822,0.096c-0.387,0.059-0.729-0.084-0.926-0.428
		C2.85,15.205,2.57,14.285,2.49,13.309c-0.019-0.221-0.017-0.441-0.024-0.662c-0.015-0.423,0.023-0.83,0.44-1.091
		c-0.829-0.339-1.104-1.091-0.94-1.735C2.13,9.172,2.741,8.714,3.398,8.743c0.714,0.029,1.271,0.522,1.387,1.225
		c0.111,0.685-0.285,1.314-1.052,1.612c0.1,0.052,0.179,0.082,0.246,0.13c0.398,0.28,0.799,0.555,1.186,0.849
		c0.123,0.096,0.219,0.096,0.344,0.035c0.284-0.129,0.565-0.27,0.859-0.378c0.382-0.143,0.759,0.163,0.708,0.56
		c-0.021,0.176-0.108,0.322-0.269,0.396c-0.425,0.203-0.854,0.404-1.292,0.582c-0.092,0.039-0.234,0.014-0.333-0.029
		C4.881,13.592,4.59,13.434,4.247,13.262z"/>
	<path style="fill-rule:evenodd;clip-rule:evenodd;fill:#EAA001;" d="M19.139,10.008c0.076,0.275,0.162,0.516,0.201,0.766
		c0.043,0.272,0.035,0.55,0.057,0.826c0.01,0.101-0.029,0.14-0.119,0.171c-0.348,0.121-0.689,0.264-1.043,0.369
		c-0.57,0.171-0.635,0.835-0.33,1.177c0.211,0.238,0.398,0.496,0.6,0.746c0.299,0.375,0.594,0.752,0.902,1.119
		c0.266,0.316,0.576,0.314,0.912,0.168c0.32-0.143,0.465-0.514,0.361-0.842c-0.039-0.125-0.119-0.242-0.199-0.346
		c-0.246-0.324-0.5-0.635-0.77-0.973c0.279-0.094,0.529-0.184,0.785-0.264c0.377-0.111,0.623-0.387,0.656-0.78
		c0.078-0.975-0.061-1.925-0.404-2.843c-0.078-0.208-0.174-0.407-0.262-0.61c-0.166-0.389-0.375-0.741-0.863-0.799
		c0.605-0.66,0.535-1.458,0.111-1.971c-0.424-0.516-1.172-0.67-1.754-0.364c-0.633,0.331-0.928,1.014-0.734,1.699
		c0.191,0.667,0.818,1.067,1.641,1.01c-0.07,0.09-0.129,0.151-0.168,0.223c-0.24,0.423-0.486,0.843-0.711,1.274
		c-0.072,0.138-0.156,0.179-0.297,0.179c-0.313,0.002-0.625-0.004-0.938,0.022c-0.408,0.034-0.619,0.472-0.402,0.809
		c0.096,0.15,0.234,0.245,0.412,0.245c0.471,0.003,0.945,0.001,1.416-0.023c0.1-0.004,0.217-0.088,0.289-0.169
		C18.703,10.576,18.9,10.31,19.139,10.008z"/>
	<g>
		<path style="fill:#E0454B;" d="M3.249,17.652c0.415-0.094,0.814-0.184,1.214-0.275c0.036-0.008,0.085-0.041,0.092-0.072
			c0.065-0.24,0.123-0.482,0.186-0.744c-0.565,0.125-1.106,0.246-1.654,0.369C3.142,17.17,3.192,17.395,3.249,17.652z"/>
		<path style="fill:#E0454B;" d="M21.75,12.832c-0.547,0.123-1.088,0.244-1.654,0.371c0.168,0.211,0.324,0.404,0.484,0.594
			c0.021,0.025,0.08,0.033,0.115,0.025c0.4-0.086,0.801-0.176,1.217-0.268C21.854,13.297,21.803,13.072,21.75,12.832z"/>
		<path style="fill:#E0454B;" d="M18.014,13.668l-0.234,0.053l-0.303-1.356c-0.064-0.295-0.141-0.588-0.197-0.885
			c-0.023-0.113-0.08-0.164-0.209-0.156c-0.158,0.01-0.316-0.008-0.504-0.016c0.189,0.845,0.377,1.683,0.568,2.533
			c-0.404,0.092-1.518,0.34-2.504,0.563c-0.004-0.133-0.006-0.215-0.008-0.215c-0.012-0.059-0.309-2.017-1.867-2.017
			c-1.762,0-2.01,1.505-2.127,1.953c0,0,0,0.467,0,1.094c-0.97,0.219-1.942,0.436-2.936,0.658c-0.19-0.85-0.377-1.688-0.567-2.533
			c-0.165,0.086-0.301,0.17-0.447,0.229c-0.122,0.049-0.15,0.119-0.123,0.23c0.074,0.293,0.13,0.59,0.198,0.885
			c0,0,0.304,1.355,0.304,1.355l-0.234,0.053c0,0-0.169,0.736-0.155,0.799c1.293-0.289,2.647-0.592,3.96-0.885
			c0,0.945,0,1.969,0,2.363c1.353,0,2.682,0,4.023,0c0-0.697-0.006-2.184-0.014-3.184c1.363-0.305,3.123-0.697,3.855-0.861
			C18.48,14.262,18.014,13.668,18.014,13.668z"/>
	</g>
</g>
</svg>
