<?xml version="1.0" encoding="utf-8"?>
<!-- Generator: Adobe Illustrator 16.0.0, SVG Export Plug-In . SVG Version: 6.00 Build 0)  -->
<!DOCTYPE svg PUBLIC "-//W3C//DTD SVG 1.1//EN" "http://www.w3.org/Graphics/SVG/1.1/DTD/svg11.dtd">
<svg version="1.1" id="Layer_3" xmlns="http://www.w3.org/2000/svg" xmlns:xlink="http://www.w3.org/1999/xlink" x="0px" y="0px"
	 width="24px" height="24px" viewBox="0 0 24 24" style="enable-background:new 0 0 24 24;" xml:space="preserve">
<path style="fill:#E0454B;" d="M23.988,11.529c-0.104-2.606-1.038-5-2.555-6.923c-3.502,0.566-6.617,1.72-9.623,4.072
	c0.892,0.777,1.756,1.648,2.562,2.638c1.356-0.822,2.94-1.304,4.642-1.304C20.971,10.013,22.928,10.714,23.988,11.529z"/>
<path style="fill:#E0454B;" d="M9.057,6.6c0.659,0.426,1.321,0.9,1.977,1.422c2.902-2.316,6.326-3.768,9.63-4.304
	c-2.185-2.277-5.252-3.705-8.649-3.705c-0.339,0-0.671,0.022-1,0.051C11.111,2.558,10.583,4.678,9.057,6.6z"/>
<path style="fill:#E0454B;" d="M11.021,9.324C7.3,12.55,5.271,16.472,3.828,20.763c2.033,1.902,4.721,3.103,7.688,3.225
	c-1.01-1.527-1.502-3.236-1.502-4.975c0-2.901,1.385-5.479,3.523-7.127C12.747,10.925,11.898,10.077,11.021,9.324z"/>
<path style="fill:#EAA001;" d="M14.146,12.677c-1.9,1.465-3.133,3.757-3.133,6.336c0,2.496,1.033,3.965,1.692,4.965
	c1.923-0.11,3.723-0.67,5.299-1.584C17.419,18.822,16.482,15.831,14.146,12.677z"/>
<path style="fill:#E0454B;" d="M10.232,8.675c-0.611-0.48-1.229-0.924-1.846-1.316C6.36,9.395,3.605,10.392,0.22,9.837
	c-0.13,0.707-0.208,1.433-0.208,2.176c0,3.048,1.151,5.826,3.031,7.945C4.499,15.62,6.787,11.71,10.232,8.675z"/>
<path style="fill:#EAA001;" d="M19.014,11.013c-1.472,0-2.848,0.406-4.033,1.103c2.197,2.978,3.354,6.099,3.941,9.692
	c2.878-2.037,4.814-5.303,5.053-9.029C22.607,11.727,21.139,11.013,19.014,11.013z"/>
<path style="fill:#EAA001;" d="M8.2,6.075c1.565-1.909,1.834-3.741,1.813-5.882C7.389,0.636,5.054,1.929,3.3,3.786
	C4.301,4.169,5.981,4.763,8.2,6.075z"/>
<path style="fill:#EAA001;" d="M7.496,6.821C5.941,5.92,4.442,5.266,3.189,4.813C3.006,4.743,2.808,4.668,2.603,4.59
	C1.616,5.839,0.877,7.285,0.446,8.861C3.281,9.323,5.659,8.558,7.496,6.821z"/>
</svg>
