<?xml version="1.0" encoding="utf-8"?>
<!-- Generator: Adobe Illustrator 16.0.0, SVG Export Plug-In . SVG Version: 6.00 Build 0)  -->
<!DOCTYPE svg PUBLIC "-//W3C//DTD SVG 1.1//EN" "http://www.w3.org/Graphics/SVG/1.1/DTD/svg11.dtd">
<svg version="1.1" id="Layer_3" xmlns="http://www.w3.org/2000/svg" xmlns:xlink="http://www.w3.org/1999/xlink" x="0px" y="0px"
	 width="24px" height="24px" viewBox="0 0 24 24" style="enable-background:new 0 0 24 24;" xml:space="preserve">
<g>
	<rect y="22.302" style="fill:#E0454B;" width="24" height="1.698"/>
	<g>
		<path style="fill:none;" d="M9.013,13.57c-0.441,0.902-0.885,1.808-1.352,2.762c0.398,0.316,0.816,0.646,1.234,0.979
			C9,17.271,9.103,17.234,9.208,17.197c-0.002-1.198-0.002-2.396-0.002-3.592C9.143,13.593,9.078,13.583,9.013,13.57z"/>
		<path style="fill:none;" d="M15.294,13.605c0,1.196,0,2.394-0.002,3.592c0.105,0.037,0.209,0.074,0.313,0.113
			c0.418-0.332,0.836-0.662,1.234-0.979c-0.467-0.954-0.91-1.859-1.352-2.762C15.423,13.583,15.358,13.593,15.294,13.605z"/>
		<path style="fill:#EAA001;" d="M20.999,15.967c-2.084,0.114-4.105-1.93-3.928-3.995c0.164-1.872-0.34-2.787-2.07-3.426
			c-0.959-0.354-1.559-0.883-1.574-1.941c-0.002-0.12-0.002-0.258,0.025-0.367c0.063-0.086,0.121-0.176,0.172-0.275
			c0.172-0.336,0.275-0.738,0.275-1.171c0-0.07-0.012-0.136-0.018-0.204c-0.02-0.261-0.072-0.506-0.158-0.731
			c-0.268-0.702-0.818-1.188-1.462-1.194c-0.004,0-0.008-0.001-0.012-0.001s-0.007,0.001-0.011,0.001
			c-0.645,0.006-1.196,0.493-1.463,1.194c-0.085,0.225-0.138,0.47-0.157,0.731c-0.006,0.068-0.017,0.134-0.017,0.204
			c0,0.434,0.101,0.835,0.272,1.171c0.051,0.099,0.109,0.189,0.172,0.275c0.027,0.109,0.028,0.248,0.027,0.367
			C11.057,7.663,10.458,8.192,9.5,8.546C7.77,9.185,7.266,10.1,7.429,11.972c0.179,2.065-1.844,4.109-3.928,3.995
			c-0.992-0.055-2.477,0.045-3.252,0.898c1.492,0,3.424,0,4.813,0c0.347,2.072,1.756,3.439,3.478,4.552
			c1.154,0.747,2.692,1.018,3.636,1.021c0.979,0.003,2.629-0.273,3.783-1.021c1.723-1.112,3.131-2.479,3.479-4.552
			c1.389,0,2.799,0,4.291,0C22.954,16.012,21.991,15.912,20.999,15.967z M8.896,17.311c-0.418-0.332-0.836-0.662-1.234-0.979
			c0.467-0.954,0.91-1.859,1.352-2.762c0.064,0.013,0.13,0.022,0.193,0.035c0,1.196,0,2.394,0.002,3.592
			C9.103,17.234,9,17.271,8.896,17.311z M15.604,17.311c-0.104-0.039-0.207-0.076-0.313-0.113c0.002-1.198,0.002-2.396,0.002-3.592
			c0.064-0.013,0.129-0.022,0.193-0.035c0.441,0.902,0.885,1.808,1.352,2.762C16.44,16.648,16.022,16.979,15.604,17.311z"/>
	</g>
</g>
</svg>
