<?xml version="1.0" encoding="utf-8"?>
<!-- Generator: Adobe Illustrator 16.0.0, SVG Export Plug-In . SVG Version: 6.00 Build 0)  -->
<!DOCTYPE svg PUBLIC "-//W3C//DTD SVG 1.1//EN" "http://www.w3.org/Graphics/SVG/1.1/DTD/svg11.dtd">
<svg version="1.1" id="Layer_2" xmlns="http://www.w3.org/2000/svg" xmlns:xlink="http://www.w3.org/1999/xlink" x="0px" y="0px"
	 width="24px" height="24px" viewBox="0 0 24 24" style="enable-background:new 0 0 24 24;" xml:space="preserve">
<polygon style="fill:#E0454B;" points="8.868,5.62 6.404,6.809 5.987,9.512 4.094,7.537 1.394,7.975 2.688,5.564 1.437,3.131 
	4.129,3.618 6.057,1.677 6.426,4.387 "/>
<polygon style="fill:#0F8EA1;" points="8.478,15.601 6.313,16.645 5.947,19.02 4.284,17.284 1.912,17.669 3.049,15.552 1.95,13.414 
	4.315,13.842 6.008,12.136 6.332,14.518 "/>
<polygon style="fill:#EBA50E;" points="11.76,5.62 14.225,6.809 14.642,9.512 16.533,7.537 19.235,7.975 17.939,5.564 19.192,3.131 
	16.5,3.618 14.571,1.677 14.203,4.387 "/>
<circle cx="3.471" cy="1.092" r="1.091"/>
<circle cx="10.253" cy="3.274" r="1.091"/>
<circle cx="3.003" cy="10.603" r="1.091"/>
<g>
	<path style="fill:#EBA50E;" d="M14.349,24.229c-0.247,0-0.465-0.179-0.506-0.431c-0.476-2.987-2.414-4.88-5.76-5.623
		c-0.276-0.062-0.45-0.335-0.389-0.61c0.062-0.276,0.337-0.446,0.611-0.39c3.743,0.832,6.008,3.066,6.55,6.461
		c0.044,0.28-0.146,0.542-0.425,0.587C14.402,24.228,14.375,24.229,14.349,24.229z"/>
</g>
<g>
	<path style="fill:#E0454B;" d="M22.095,24.229c-0.079,0-0.159-0.018-0.234-0.057c-2.655-1.363-5.857-10.311-5.272-14.729
		c0.038-0.28,0.3-0.476,0.575-0.44c0.28,0.037,0.478,0.294,0.44,0.575c-0.562,4.239,2.616,12.6,4.725,13.683
		c0.251,0.129,0.352,0.438,0.222,0.689C22.459,24.129,22.279,24.229,22.095,24.229z"/>
</g>
<g>
	<path style="fill:#0F8EA1;" d="M16.916,24.229c-0.002,0-0.003,0-0.006,0c-0.281-0.003-0.51-0.233-0.507-0.517
		c0.03-3.195-1.452-12.813-8.41-15c-0.27-0.085-0.42-0.373-0.335-0.642C7.744,7.802,8.032,7.653,8.3,7.736
		c7.549,2.374,9.159,12.593,9.127,15.987C17.425,24.004,17.196,24.229,16.916,24.229z"/>
</g>
</svg>
