<?xml version="1.0" encoding="utf-8"?>
<!-- Generator: Adobe Illustrator 16.0.0, SVG Export Plug-In . SVG Version: 6.00 Build 0)  -->
<!DOCTYPE svg PUBLIC "-//W3C//DTD SVG 1.1//EN" "http://www.w3.org/Graphics/SVG/1.1/DTD/svg11.dtd">
<svg version="1.1" id="Layer_3" xmlns="http://www.w3.org/2000/svg" xmlns:xlink="http://www.w3.org/1999/xlink" x="0px" y="0px"
	 width="24px" height="24px" viewBox="0 0 24 24" style="enable-background:new 0 0 24 24;" xml:space="preserve">
<path style="fill-rule:evenodd;clip-rule:evenodd;fill:#C43943;" d="M4.82,8.909c0,1.288-0.887,2.333-1.981,2.333H2.013
	c-1.094,0-1.981-1.045-1.981-2.333H4.82z"/>
<path style="fill-rule:evenodd;clip-rule:evenodd;fill:#C98702;" d="M9.609,8.909c0,1.288-0.887,2.333-1.981,2.333H6.801
	c-1.094,0-1.981-1.045-1.981-2.333H9.609z"/>
<path style="fill-rule:evenodd;clip-rule:evenodd;fill:#C43943;" d="M14.397,8.909c0,1.288-0.888,2.333-1.981,2.333H11.59
	c-1.094,0-1.981-1.045-1.981-2.333H14.397z"/>
<path style="fill-rule:evenodd;clip-rule:evenodd;fill:#C43943;" d="M23.977,8.909c0,1.288-0.888,2.333-1.981,2.333h-0.826
	c-1.093,0-1.981-1.045-1.981-2.333H23.977z"/>
<path style="fill-rule:evenodd;clip-rule:evenodd;fill:#C98702;" d="M19.188,8.909c0,1.288-0.889,2.333-1.981,2.333h-0.827
	c-1.094,0-1.981-1.045-1.981-2.333H19.188z"/>
<g id="Layer_4">
	<polygon style="fill:#EAA001;" points="6.6,2.97 7.48,0 4.464,0 0.07,8.885 0.07,8.909 4.837,8.909 	"/>
	<polygon style="fill:#EAA001;" points="14.396,8.909 13.513,0 10.497,0 9.617,8.909 	"/>
	<polygon style="fill:#EAA001;" points="16.53,0 19.176,8.909 23.953,8.909 19.547,0 	"/>
	<polygon style="fill:#E0454B;" points="4.838,8.909 9.617,8.909 10.497,0 7.481,0 6.6,2.97 	"/>
	<polygon style="fill:#E0454B;" points="19.174,8.909 16.529,0 13.513,0 14.396,8.909 	"/>
</g>
<g>
	<polygon style="fill:#E0454B;" points="24.037,22.526 13.486,22.526 13.486,14.974 9.281,14.974 9.281,22.526 0.07,22.526 
		0.07,21.526 8.281,21.526 8.281,13.974 14.486,13.974 14.486,21.526 24.037,21.526 	"/>
</g>
</svg>
