<?xml version="1.0" encoding="utf-8"?>
<!-- Generator: Adobe Illustrator 16.0.0, SVG Export Plug-In . SVG Version: 6.00 Build 0)  -->
<!DOCTYPE svg PUBLIC "-//W3C//DTD SVG 1.1//EN" "http://www.w3.org/Graphics/SVG/1.1/DTD/svg11.dtd">
<svg version="1.1" id="Layer_3" xmlns="http://www.w3.org/2000/svg" xmlns:xlink="http://www.w3.org/1999/xlink" x="0px" y="0px"
	 width="23.832px" height="24px" viewBox="0 0 23.832 24" style="enable-background:new 0 0 23.832 24;" xml:space="preserve">
<g>
	<path style="fill-rule:evenodd;clip-rule:evenodd;fill:#EAA001;" d="M3.219,9.358c0-1.998-0.004-3.995,0.001-5.992
		c0.005-1.871,1.148-3.018,3.004-3.019c3.801-0.002,7.6-0.002,11.401,0c1.841,0.001,2.978,1.125,2.982,2.977
		c0.011,4.03,0.011,8.06,0,12.09c-0.005,1.797-1.178,2.951-2.967,2.953c-3.818,0.004-7.636,0.004-11.454,0
		c-1.773-0.004-2.957-1.186-2.965-2.965C3.212,13.389,3.219,11.373,3.219,9.358z M4.719,9.316c0,1.892-0.004,3.783,0.001,5.676
		c0.003,1.215,0.587,1.809,1.78,1.809c3.606,0.004,7.213,0.004,10.82,0c1.181,0,1.778-0.572,1.782-1.752
		c0.011-3.784,0.011-7.567,0-11.352C19.1,2.483,18.509,1.913,17.3,1.912c-3.589-0.003-7.178-0.004-10.768,0
		C5.308,1.913,4.722,2.51,4.719,3.747C4.716,5.604,4.719,7.459,4.719,9.316z"/>
	<path style="fill-rule:evenodd;clip-rule:evenodd;fill:#E0454B;" d="M6.704,15.334c0-1.25-0.016-2.99,0.008-4.206
		c0.007-0.404,0.278-0.652,0.693-0.655c1.22-0.01,2.44-0.011,3.659,0.003c0.442,0.004,0.696,0.279,0.703,0.707
		c0.018,1.199,0.006,2.92,0.006,4.159c-0.416,0-0.795,0-1.221,0c0-0.543,0-1.621,0-2.217c0.112-0.027,0.258-0.064,0.407-0.1
		c-0.603-0.59-1.191-1.165-1.706-1.668c-0.571,0.499-1.186,1.038-1.868,1.635c0.254,0.066,0.384,0.1,0.534,0.139
		c0,0.549,0,1.613,0,2.203C7.533,15.334,7.157,15.334,6.704,15.334z"/>
	<g>
		<path style="fill:#0F8EA1;" d="M15.49,10.875c-0.42,0-0.814,0-1.215,0c0,0.424,0,0.808,0,1.212c0.419,0,0.813,0,1.215,0
			C15.49,11.666,15.49,11.283,15.49,10.875z"/>
		<path style="fill:#0F8EA1;" d="M13.859,10.872c-0.405,0-0.78,0-1.173,0c0,0.429,0,0.82,0,1.212c0.419,0,0.794,0,1.173,0
			C13.859,11.661,13.859,11.281,13.859,10.872z"/>
		<path style="fill:#0F8EA1;" d="M13.864,12.5c-0.422,0-0.785,0-1.185,0c0,0.418,0,0.811,0,1.227c0.408,0,0.783,0,1.185,0
			C13.864,13.314,13.864,12.936,13.864,12.5z"/>
		<path style="fill:#0F8EA1;" d="M15.49,12.513c-0.438,0-0.816,0-1.195,0c0,0.431,0,0.823,0,1.212c0.42,0,0.798,0,1.195,0
			C15.49,13.307,15.49,12.928,15.49,12.513z"/>
		<path style="fill:#0F8EA1;" d="M12.687,15.342c0.408,0,0.783,0,1.185,0c0-0.414,0-0.793,0-1.227c-0.422,0-0.785,0-1.185,0
			C12.687,14.533,12.687,14.926,12.687,15.342z"/>
		<path style="fill:#0F8EA1;" d="M14.301,15.338c0.42,0,0.799,0,1.197,0c0-0.416,0-0.795,0-1.211c-0.439,0-0.818,0-1.197,0
			C14.301,14.559,14.301,14.949,14.301,15.338z"/>
		<path style="fill:#0F8EA1;" d="M17.126,10.881c-0.42,0-0.813,0-1.214,0c0,0.424,0,0.808,0,1.213c0.418,0,0.813,0,1.214,0
			C17.126,11.672,17.126,11.289,17.126,10.881z"/>
		<path style="fill:#0F8EA1;" d="M17.126,12.52c-0.438,0-0.816,0-1.195,0c0,0.43,0,0.822,0,1.211c0.42,0,0.799,0,1.195,0
			C17.126,13.314,17.126,12.934,17.126,12.52z"/>
		<path style="fill:#0F8EA1;" d="M15.937,14.135c0,0.43,0,0.822,0,1.211c0.421,0,0.799,0,1.197,0c0-0.418,0-0.797,0-1.211
			C16.694,14.135,16.315,14.135,15.937,14.135z"/>
	</g>
	<path style="fill:#E0454B;" d="M17.753,3.582c0-0.118-0.095-0.212-0.212-0.212H6.291c-0.117,0-0.212,0.095-0.212,0.212v5.811
		c0,0.117,0.096,0.212,0.212,0.212h5.864v0.6c0,0.118,0.095,0.212,0.212,0.212h5.174c0.117,0,0.212-0.095,0.212-0.212V9.419
		c0-0.004-0.001-0.009-0.001-0.013c0-0.005,0.001-0.009,0.001-0.014V3.582z M17.117,8.06c-0.004,0.495-0.104,0.593-0.589,0.596
		c-0.772,0.004-1.546,0.001-2.319,0c-0.787,0-1.576-0.01-2.363,0.004c-0.395,0.008-0.562-0.169-0.561-0.547
		c0.002-1.08,0.004-2.16,0-3.239c-0.002-0.407,0.185-0.565,0.592-0.562c1.547,0.013,3.093,0.002,4.639,0.006
		c0.49,0.002,0.598,0.105,0.601,0.589C17.123,5.958,17.123,7.009,17.117,8.06z"/>
</g>
<g>
	<path style="fill:#E0454B;" d="M7.027,22.816H5.481l-0.276,0.838H4.06l1.583-4.316h1.223l1.586,4.316H7.307L7.027,22.816z
		 M5.734,22.045h1.041L6.263,20.5H6.242L5.734,22.045z"/>
	<path style="fill:#E0454B;" d="M12.521,20.109h-1.293v3.545h-1.142v-3.545H8.803v-0.771h3.719V20.109z"/>
	<path style="fill:#E0454B;" d="M15.078,19.338l1.099,3.021h0.021l1.111-3.021h1.502v4.316h-1.142v-1.07l0.107-1.971l-0.02-0.004
		l-1.183,3.045h-0.768l-1.169-3.018l-0.021,0.004l0.107,1.943v1.07h-1.142v-4.316H15.078z"/>
</g>
</svg>
