<?xml version="1.0" encoding="utf-8"?>
<!-- Generator: Adobe Illustrator 16.0.0, SVG Export Plug-In . SVG Version: 6.00 Build 0)  -->
<!DOCTYPE svg PUBLIC "-//W3C//DTD SVG 1.1//EN" "http://www.w3.org/Graphics/SVG/1.1/DTD/svg11.dtd">
<svg version="1.1" id="Layer_2" xmlns="http://www.w3.org/2000/svg" xmlns:xlink="http://www.w3.org/1999/xlink" x="0px" y="0px"
	 width="23.832px" height="24px" viewBox="0.168 0 23.832 24" style="enable-background:new 0.168 0 23.832 24;"
	 xml:space="preserve">
<g>
	<path style="fill:#E0454B;" d="M10.467,3.36c0-0.484-0.304-0.574-0.679-0.574c-0.374,0-0.678,0.09-0.678,0.574v6.959h1.356V3.36z"
		/>
	<path style="fill:#E0454B;" d="M12.762,3.36c0-0.484-0.303-0.574-0.677-0.574s-0.678,0.09-0.678,0.574v6.959h1.355V3.36z"/>
	<path style="fill:#E0454B;" d="M15.059,3.36c0-0.484-0.304-0.574-0.681-0.574c-0.374,0-0.679,0.09-0.679,0.574v6.959h1.359V3.36z"
		/>
	<path style="fill:#EAA001;" d="M12.084,2.44c0,0.191-0.154,0.345-0.345,0.345h-1.605c-0.191,0-0.344-0.154-0.344-0.345l0,0
		c0-0.191,0.153-0.345,0.344-0.345h1.605C11.93,2.095,12.084,2.25,12.084,2.44L12.084,2.44z"/>
	<path style="fill:#EAA001;" d="M14.381,2.44c0,0.191-0.155,0.345-0.346,0.345h-1.606c-0.191,0-0.345-0.154-0.345-0.345l0,0
		c0-0.191,0.154-0.345,0.345-0.345h1.606C14.226,2.095,14.381,2.25,14.381,2.44L14.381,2.44z"/>
</g>
<polygon style="fill:#EAA001;" points="17.821,10.319 15.057,10.319 13.699,10.319 12.762,10.319 11.406,10.319 10.467,10.319 
	9.11,10.319 6.348,10.319 2.06,23.973 22.109,23.973 "/>
</svg>
