<?xml version="1.0" encoding="utf-8"?>
<!-- Generator: Adobe Illustrator 16.0.0, SVG Export Plug-In . SVG Version: 6.00 Build 0)  -->
<!DOCTYPE svg PUBLIC "-//W3C//DTD SVG 1.1//EN" "http://www.w3.org/Graphics/SVG/1.1/DTD/svg11.dtd">
<svg version="1.1" id="Layer_2" xmlns="http://www.w3.org/2000/svg" xmlns:xlink="http://www.w3.org/1999/xlink" x="0px" y="0px"
	 width="24px" height="24px" viewBox="0 0 24 24" style="enable-background:new 0 0 24 24;" xml:space="preserve">
<path style="fill:#E0454B;" d="M21.65,0.909c-0.561,0-1.02,0.458-1.02,1.02v13.608H5.409c-0.563,0-1.02,0.457-1.02,1.02
	s0.458,1.02,1.02,1.02H21.65c0.563,0,1.021-0.457,1.021-1.02V1.929C22.672,1.367,22.213,0.909,21.65,0.909z"/>
<path style="fill:#EAA001;" d="M18.252,10.702c0-0.751-0.609-1.36-1.359-1.36H2.009c-0.751,0-1.36,0.609-1.36,1.36
	s0.609,1.359,1.36,1.359h13.522v2.796h2.721V10.702z"/>
<path style="fill:#EAA001;" d="M15.531,22.412c0,0.75,0.609,1.359,1.361,1.359c0.75,0,1.359-0.609,1.359-1.359v-4.156h-2.721V22.412
	z"/>
<path style="fill:#FFFFFF;" d="M21.65,0.229c-0.938,0-1.699,0.763-1.699,1.7v12.929h-1.699h-2.721H5.409
	c-0.938,0-1.7,0.762-1.7,1.699s0.762,1.699,1.7,1.699h10.123h2.721h3.398c0.938,0,1.701-0.762,1.701-1.699V1.929
	C23.352,0.992,22.588,0.229,21.65,0.229z M22.672,16.557c0,0.563-0.459,1.02-1.021,1.02h-3.398h-2.721H5.409
	c-0.563,0-1.02-0.457-1.02-1.02s0.458-1.02,1.02-1.02h10.123h2.721h2.379V1.929c0-0.562,0.459-1.02,1.02-1.02
	c0.563,0,1.021,0.458,1.021,1.02V16.557z"/>
</svg>
