<?xml version="1.0" encoding="utf-8"?>
<!-- Generator: Adobe Illustrator 16.0.0, SVG Export Plug-In . SVG Version: 6.00 Build 0)  -->
<!DOCTYPE svg PUBLIC "-//W3C//DTD SVG 1.1//EN" "http://www.w3.org/Graphics/SVG/1.1/DTD/svg11.dtd">
<svg version="1.1" id="Layer_2" xmlns="http://www.w3.org/2000/svg" xmlns:xlink="http://www.w3.org/1999/xlink" x="0px" y="0px"
	 width="24px" height="24px" viewBox="0 0 24 24" style="enable-background:new 0 0 24 24;" xml:space="preserve">
<path style="fill:none;" d="M6.575,18.821c1.015,0,1.839-0.825,1.839-1.841h-3.68C4.734,17.996,5.56,18.821,6.575,18.821z"/>
<path style="fill:#FFFFFF;" d="M6.575,14.633c-1.294,0-2.348,1.054-2.348,2.348c0,1.295,1.053,2.348,2.348,2.348
	s2.348-1.053,2.348-2.348C8.923,15.687,7.87,14.633,6.575,14.633z M6.575,18.821c-1.015,0-1.841-0.825-1.841-1.841
	c0-1.014,0.826-1.84,1.841-1.84c1.015,0,1.839,0.826,1.839,1.84C8.415,17.996,7.59,18.821,6.575,18.821z"/>
<path style="fill:#EAA001;" d="M6.575,19.328c-2.418,0-4.378,1.962-4.378,4.379h8.756C10.953,21.29,8.993,19.328,6.575,19.328z"/>
<circle style="fill:#EAA001;" cx="6.575" cy="16.981" r="1.84"/>
<path style="fill:none;" d="M17.426,18.821c1.015,0,1.84-0.825,1.84-1.841h-3.682C15.584,17.996,16.409,18.821,17.426,18.821z"/>
<path style="fill:none;" d="M17.426,18.821c1.015,0,1.84-0.825,1.84-1.841h-3.682C15.584,17.996,16.409,18.821,17.426,18.821z"/>
<path style="fill:#E0454B;" d="M22.819,0.293H1.182c-0.561,0-1.016,0.455-1.016,1.016v14.657c0,0.561,0.455,1.015,1.016,1.015h3.046
	c0-1.294,1.053-2.348,2.348-2.348s2.348,1.054,2.348,2.348h6.155c0-1.294,1.053-2.348,2.348-2.348s2.348,1.054,2.348,2.348h3.046
	c0.561,0,1.015-0.454,1.015-1.015V1.309C23.834,0.748,23.38,0.293,22.819,0.293z"/>
<path style="fill:#FFFFFF;" d="M17.426,14.633c-1.295,0-2.348,1.054-2.348,2.348c0,1.295,1.053,2.348,2.348,2.348
	s2.348-1.053,2.348-2.348C19.773,15.687,18.721,14.633,17.426,14.633z M17.426,18.821c-1.017,0-1.842-0.825-1.842-1.841
	c0-1.014,0.825-1.84,1.842-1.84c1.015,0,1.84,0.826,1.84,1.84C19.266,17.996,18.44,18.821,17.426,18.821z"/>
<path style="fill:#EAA001;" d="M17.426,19.328c-2.419,0-4.379,1.962-4.379,4.379h8.756C21.803,21.29,19.844,19.328,17.426,19.328z"
	/>
<circle style="fill:#EAA001;" cx="17.426" cy="16.981" r="1.84"/>
</svg>
