<?xml version="1.0" encoding="utf-8"?>
<!-- Generator: Adobe Illustrator 16.0.0, SVG Export Plug-In . SVG Version: 6.00 Build 0)  -->
<!DOCTYPE svg PUBLIC "-//W3C//DTD SVG 1.1//EN" "http://www.w3.org/Graphics/SVG/1.1/DTD/svg11.dtd">
<svg version="1.1" id="Layer_2" xmlns="http://www.w3.org/2000/svg" xmlns:xlink="http://www.w3.org/1999/xlink" x="0px" y="0px"
	 width="24px" height="24px" viewBox="0 0 24 24" style="enable-background:new 0 0 24 24;" xml:space="preserve">
<path style="fill:#EAA001;" d="M1.805,6.441C2.109,7.26,2.86,7.737,3.484,7.504l6.91-2.57c0.625-0.231,0.882-1.083,0.577-1.902
	l-0.055-0.149l-0.08-0.214L10.8,2.568C10.494,1.749,9.743,1.271,9.12,1.503l-6.912,2.57C1.585,4.307,1.327,5.158,1.632,5.978
	l0.036,0.1l0.081,0.214L1.805,6.441z"/>
<path style="fill:#F7A90B;" d="M12.54,2.361c-0.026-0.068-0.102-0.104-0.171-0.078l-0.806,0.3l0.092,0.248l0.682-0.254l0.829,2.228
	L1.2,9.254L0.372,7.027l0.683-0.253L0.961,6.525l-0.805,0.3C0.088,6.851,0.053,6.927,0.078,6.996L0.999,9.47
	C1.025,9.538,1.102,9.574,1.17,9.549L6.81,7.45l4.625,12.434c0.096,0.259,0.38,0.388,0.637,0.292
	c0.257-0.096,0.389-0.38,0.292-0.638l-1.547-4.158l0.887-0.521l-0.383-0.394l-0.749,0.253L7.74,7.104l5.642-2.099
	c0.067-0.025,0.104-0.102,0.077-0.17L12.54,2.361z"/>
<g>
	<circle style="fill:#E0454B;" cx="17.55" cy="7.772" r="1.852"/>
	<path style="fill:#E0454B;" d="M19.794,10.42c-0.172-0.17-0.399-0.238-0.623-0.22c-0.042-0.005-0.079-0.025-0.121-0.025h-2.999
		c-0.037,0-0.07,0.018-0.105,0.022c-0.219-0.013-0.44,0.057-0.607,0.223l-3.904,3.903c-0.31,0.311-0.31,0.813,0,1.122
		c0.155,0.154,0.358,0.234,0.561,0.234c0.204,0,0.407-0.08,0.562-0.234l2.438-2.438v2.281c0,0.018,0.009,0.031,0.01,0.047
		c-0.001,0.021-0.01,0.04-0.01,0.063V21.6c0,0.681,0.41,1.229,0.919,1.229h0.19c0.508,0,0.918-0.55,0.918-1.229v-5.254h1.06V21.6
		c0,0.681,0.411,1.229,0.918,1.229h0.192c0.507,0,0.918-0.55,0.918-1.229v-6.201c0-0.022-0.01-0.041-0.01-0.063
		c0-0.016,0.01-0.029,0.01-0.047v-2.313l2.469,2.469c0.154,0.154,0.357,0.232,0.561,0.232c0.204,0,0.406-0.078,0.563-0.232
		c0.311-0.312,0.311-0.813,0-1.123L19.794,10.42z"/>
</g>
</svg>
