<?xml version="1.0" encoding="utf-8"?>
<!-- Generator: Adobe Illustrator 16.0.0, SVG Export Plug-In . SVG Version: 6.00 Build 0)  -->
<!DOCTYPE svg PUBLIC "-//W3C//DTD SVG 1.1//EN" "http://www.w3.org/Graphics/SVG/1.1/DTD/svg11.dtd">
<svg version="1.1" id="Layer_2" xmlns="http://www.w3.org/2000/svg" xmlns:xlink="http://www.w3.org/1999/xlink" x="0px" y="0px"
	 width="23.832px" height="24px" viewBox="0.168 0 23.832 24" style="enable-background:new 0.168 0 23.832 24;"
	 xml:space="preserve">
<path style="fill:#E0454B;" d="M22.568,0.563H1.6c-0.526,0-0.953,0.427-0.953,0.953v20.969c0,0.526,0.427,0.953,0.953,0.953h20.968
	c0.526,0,0.953-0.427,0.953-0.953V1.516C23.521,0.989,23.095,0.563,22.568,0.563z M21.864,20.896c-0.495,0-0.896,0.401-0.896,0.896
	c0,0.262,0.12,0.485,0.301,0.646H2.876c0.18-0.16,0.3-0.384,0.3-0.646c0-0.495-0.401-0.896-0.896-0.896
	c-0.248,0-0.472,0.101-0.634,0.263V2.826c0.162,0.163,0.386,0.263,0.634,0.263c0.495,0,0.896-0.401,0.896-0.896
	c0-0.246-0.1-0.468-0.26-0.63h18.312c-0.161,0.162-0.261,0.384-0.261,0.63c0,0.495,0.401,0.896,0.896,0.896
	c0.263,0,0.493-0.118,0.657-0.298v18.404C22.357,21.014,22.127,20.896,21.864,20.896z M1.647,22.409
	c0.011,0.012,0.026,0.018,0.038,0.028H1.647V22.409z"/>
<path style="fill:#E0454B;" d="M1.719,21.563v0.859h0.797C2.071,22.381,1.719,22.019,1.719,21.563z"/>
<g>
	<path style="fill:#EAA001;" d="M5.167,4.771h0.042c-0.276,0-0.5-0.224-0.5-0.5s0.224-0.5,0.5-0.5H5.167c-0.276,0-0.5,0.224-0.5,0.5
		S4.89,4.771,5.167,4.771z"/>
	<path style="fill:#EAA001;" d="M5.709,4.271c0,0.276-0.224,0.5-0.5,0.5h13.708c0.008,0,0.014-0.004,0.021-0.004
		c-0.267-0.011-0.479-0.227-0.479-0.496s0.213-0.484,0.479-0.496c-0.008,0-0.014-0.004-0.021-0.004H5.209
		C5.485,3.771,5.709,3.995,5.709,4.271z"/>
	<path style="fill:#EAA001;" d="M18.459,19.729c0-0.275,0.224-0.5,0.5-0.5H5.25c-0.007,0-0.014,0.004-0.021,0.004
		c0.267,0.012,0.479,0.229,0.479,0.496c0,0.27-0.213,0.484-0.479,0.496c0.007,0,0.014,0.004,0.021,0.004h13.708
		C18.683,20.229,18.459,20.006,18.459,19.729z"/>
	<path style="fill:#EAA001;" d="M19.001,19.229h-0.042c0.276,0,0.5,0.225,0.5,0.5c0,0.277-0.224,0.5-0.5,0.5h0.042
		c0.276,0,0.5-0.223,0.5-0.5C19.501,19.453,19.277,19.229,19.001,19.229z"/>
	<path style="fill:#EAA001;" d="M4.355,18.375c0.276,0,0.5,0.225,0.5,0.5V5.125c0,0.276-0.224,0.5-0.5,0.5s-0.5-0.224-0.5-0.5v13.75
		C3.855,18.6,4.079,18.375,4.355,18.375z"/>
	<path style="fill:#EAA001;" d="M4.355,19.375c0.276,0,0.5-0.223,0.5-0.5C4.855,19.152,4.631,19.375,4.355,19.375z"/>
	<path style="fill:#EAA001;" d="M3.855,18.875c0,0.277,0.224,0.5,0.5,0.5C4.079,19.375,3.855,19.152,3.855,18.875z"/>
	<path style="fill:#EAA001;" d="M19.813,5.625c-0.276,0-0.5-0.224-0.5-0.5v13.707c0,0.008,0.004,0.014,0.004,0.021
		c0.013-0.266,0.228-0.479,0.496-0.479s0.483,0.213,0.496,0.479c0-0.008,0.004-0.014,0.004-0.021V5.125
		C20.313,5.402,20.09,5.625,19.813,5.625z"/>
	<path style="fill:#EAA001;" d="M19.813,4.583c-0.275,0-0.5,0.224-0.5,0.5v0.043c0-0.276,0.224-0.5,0.5-0.5s0.5,0.224,0.5,0.5V5.083
		C20.313,4.806,20.091,4.583,19.813,4.583z"/>
	<circle style="fill:#E0454B;" cx="4.355" cy="5.125" r="0.5"/>
	<circle style="fill:#E0454B;" cx="4.355" cy="18.875" r="0.5"/>
	<path style="fill:#E0454B;" d="M19.813,18.375c-0.269,0-0.483,0.213-0.496,0.479c0,0.008-0.004,0.014-0.004,0.021
		c0,0.277,0.224,0.5,0.5,0.5s0.5-0.223,0.5-0.5c0-0.008-0.004-0.014-0.004-0.021C20.297,18.588,20.082,18.375,19.813,18.375z"/>
	<circle style="fill:#E0454B;" cx="19.813" cy="5.125" r="0.5"/>
	<path style="fill:#E0454B;" d="M5.709,19.729c0-0.268-0.213-0.484-0.479-0.496c-0.007,0-0.013-0.004-0.021-0.004
		c-0.276,0-0.5,0.225-0.5,0.5c0,0.277,0.224,0.5,0.5,0.5c0.007,0,0.014-0.004,0.021-0.004C5.496,20.213,5.709,19.998,5.709,19.729z"
		/>
	<circle style="fill:#E0454B;" cx="18.959" cy="19.729" r="0.5"/>
	<path style="fill:#E0454B;" d="M18.459,4.271c0,0.269,0.213,0.484,0.479,0.496c0.007,0,0.013,0.004,0.021,0.004
		c0.276,0,0.5-0.224,0.5-0.5s-0.224-0.5-0.5-0.5c-0.008,0-0.014,0.004-0.021,0.004C18.672,3.787,18.459,4.002,18.459,4.271z"/>
	<circle style="fill:#E0454B;" cx="5.209" cy="4.271" r="0.5"/>
</g>
<path style="fill:#E0454B;" d="M12.084,9.48c1.39,0,2.52,1.13,2.52,2.52c0,1.39-1.13,2.52-2.52,2.52c-1.389,0-2.519-1.13-2.519-2.52
	C9.565,10.611,10.695,9.48,12.084,9.48 M12.084,8.98c-1.667,0-3.019,1.352-3.019,3.02c0,1.668,1.352,3.02,3.019,3.02
	c1.668,0,3.02-1.352,3.02-3.02C15.104,10.333,13.752,8.98,12.084,8.98L12.084,8.98z"/>
<path style="fill:#EAA001;" d="M13.904,11.875h-1.518l0.613-0.613c0.049-0.049,0.049-0.128,0-0.177s-0.129-0.049-0.178,0
	l-0.612,0.612V10.18c0-0.069-0.056-0.125-0.125-0.125s-0.125,0.056-0.125,0.125v1.518l-0.613-0.612
	c-0.049-0.049-0.128-0.049-0.177,0s-0.049,0.128,0,0.177l0.612,0.613h-1.518c-0.069,0-0.125,0.056-0.125,0.125
	s0.056,0.125,0.125,0.125h1.518l-0.612,0.612c-0.049,0.049-0.049,0.129,0,0.178c0.024,0.024,0.056,0.036,0.088,0.036
	s0.064-0.012,0.088-0.036l0.613-0.613v1.518c0,0.069,0.056,0.125,0.125,0.125s0.125-0.056,0.125-0.125v-1.518l0.612,0.613
	c0.024,0.024,0.057,0.036,0.089,0.036s0.064-0.012,0.089-0.036c0.049-0.049,0.049-0.129,0-0.178l-0.613-0.612h1.518
	c0.069,0,0.125-0.056,0.125-0.125S13.974,11.875,13.904,11.875z"/>
<g>
	<g>
		<path style="fill:#E0454B;" d="M7.748,7.738c-0.019,0-0.039-0.007-0.053-0.022L3.531,3.553c-0.029-0.029-0.029-0.077,0-0.106
			s0.077-0.029,0.106,0L7.801,7.61c0.029,0.029,0.029,0.077,0,0.106C7.786,7.731,7.767,7.738,7.748,7.738z"/>
	</g>
	<g>
		<path style="fill:#E0454B;" d="M16.459,7.738c-0.02,0-0.038-0.007-0.053-0.022c-0.029-0.029-0.029-0.077,0-0.106l4.164-4.164
			c0.029-0.029,0.076-0.029,0.105,0s0.029,0.077,0,0.106l-4.164,4.164C16.497,7.73,16.479,7.738,16.459,7.738z"/>
	</g>
	<g>
		<path style="fill:#E0454B;" d="M3.564,20.621c-0.019,0-0.039-0.008-0.053-0.022c-0.029-0.029-0.029-0.076,0-0.105l4.164-4.164
			c0.029-0.029,0.077-0.029,0.106,0s0.029,0.076,0,0.105l-4.164,4.164C3.603,20.613,3.583,20.621,3.564,20.621z"/>
	</g>
	<g>
		<path style="fill:#E0454B;" d="M20.604,20.621c-0.02,0-0.038-0.008-0.053-0.022l-4.164-4.164c-0.029-0.029-0.029-0.076,0-0.105
			s0.076-0.029,0.105,0l4.164,4.164c0.029,0.029,0.029,0.076,0,0.105C20.642,20.613,20.623,20.621,20.604,20.621z"/>
	</g>
</g>
</svg>
