<?xml version="1.0" encoding="utf-8"?>
<!-- Generator: Adobe Illustrator 16.0.0, SVG Export Plug-In . SVG Version: 6.00 Build 0)  -->
<!DOCTYPE svg PUBLIC "-//W3C//DTD SVG 1.1//EN" "http://www.w3.org/Graphics/SVG/1.1/DTD/svg11.dtd">
<svg version="1.1" id="Layer_3" xmlns="http://www.w3.org/2000/svg" xmlns:xlink="http://www.w3.org/1999/xlink" x="0px" y="0px"
	 width="24px" height="24px" viewBox="0 0 24 24" style="enable-background:new 0 0 24 24;" xml:space="preserve">
<path style="fill:#E0454B;" d="M11.5,15.449c-1.691-0.245-3-1.69-3-3.449s1.309-3.204,3-3.449V4H1C0.724,4,0.5,4.224,0.5,4.5V7H5
	c0.276,0,0.5,0.225,0.5,0.5v9c0,0.133-0.053,0.26-0.147,0.354C5.26,16.947,5.133,17,5,17H0.5v2.5C0.5,19.775,0.724,20,1,20h10.5
	V15.449z"/>
<path style="fill:#EBA50E;" d="M19,17c-0.275,0-0.5-0.225-0.5-0.5v-9C18.5,7.224,18.725,7,19,7h4.5V4.5C23.5,4.224,23.275,4,23,4
	H12.5v4.551c1.691,0.245,3,1.69,3,3.449s-1.309,3.204-3,3.449V20H23c0.275,0,0.5-0.225,0.5-0.5V17H19z"/>
</svg>
