<?xml version="1.0" encoding="utf-8"?>
<!-- Generator: Adobe Illustrator 16.0.0, SVG Export Plug-In . SVG Version: 6.00 Build 0)  -->
<!DOCTYPE svg PUBLIC "-//W3C//DTD SVG 1.1//EN" "http://www.w3.org/Graphics/SVG/1.1/DTD/svg11.dtd">
<svg version="1.1" id="Layer_3" xmlns="http://www.w3.org/2000/svg" xmlns:xlink="http://www.w3.org/1999/xlink" x="0px" y="0px"
	 width="24px" height="24px" viewBox="0 0 24 24" style="enable-background:new 0 0 24 24;" xml:space="preserve">
<circle style="fill:#E0454B;" cx="5.151" cy="3.279" r="3"/>
<g>
	<path style="fill:#EAA001;" d="M4.706,8.938C4.674,9.255,4.657,9.581,4.657,9.906c0,1.526,0.37,2.965,1.013,4.244l-4.594,4.596
		c-0.472,0.473-0.733,1.101-0.733,1.769s0.261,1.295,0.733,1.768l0.707,0.706c0.473,0.473,1.101,0.732,1.768,0.732
		s1.296-0.26,1.767-0.732l4.596-4.594c1.279,0.643,2.718,1.013,4.244,1.013c0.334,0,0.664-0.018,0.988-0.052L4.706,8.938z"/>
	<path style="fill:#EAA001;" d="M14.157,0.406c-1.936,0-3.735,0.585-5.238,1.582C9.06,2.396,9.151,2.825,9.151,3.279
		c0,2.206-1.794,4-4,4c-0.039,0-0.075-0.011-0.113-0.012C4.993,7.421,4.954,7.579,4.917,7.735l11.43,11.406
		c4.184-0.993,7.311-4.752,7.311-9.235C23.657,4.668,19.396,0.406,14.157,0.406z"/>
</g>
</svg>
