<?xml version="1.0" encoding="utf-8"?>
<!-- Generator: Adobe Illustrator 16.0.0, SVG Export Plug-In . SVG Version: 6.00 Build 0)  -->
<!DOCTYPE svg PUBLIC "-//W3C//DTD SVG 1.1//EN" "http://www.w3.org/Graphics/SVG/1.1/DTD/svg11.dtd">
<svg version="1.1" id="Layer_3" xmlns="http://www.w3.org/2000/svg" xmlns:xlink="http://www.w3.org/1999/xlink" x="0px" y="0px"
	 width="23.832px" height="24px" viewBox="0 0 23.832 24" enable-background="new 0 0 23.832 24" xml:space="preserve">
<g>
	<path fill="#EAA001" d="M5.721,23.491c-1.368,0-2.654-0.534-3.624-1.504c-0.968-0.966-1.501-2.253-1.501-3.623
		s0.533-2.658,1.501-3.626l0.265-0.266l-0.619-0.619c-0.118-0.118-0.184-0.274-0.184-0.441s0.065-0.323,0.184-0.441l2.828-2.829
		c0.119-0.118,0.276-0.184,0.442-0.184c0.166,0,0.323,0.065,0.441,0.184l0.619,0.621l4.772-4.775l-0.619-0.619
		c-0.118-0.118-0.184-0.275-0.184-0.442c0-0.167,0.065-0.324,0.184-0.442l2.829-2.829c0.118-0.118,0.275-0.184,0.441-0.184
		s0.322,0.065,0.44,0.184l0.619,0.619l0.266-0.265c0.967-0.968,2.254-1.5,3.623-1.5c1.371,0,2.659,0.533,3.626,1.5
		c0.967,0.966,1.499,2.254,1.499,3.625c0,1.371-0.532,2.658-1.498,3.623l-0.265,0.263l0.615,0.623
		c0.121,0.121,0.187,0.277,0.187,0.443s-0.065,0.323-0.185,0.441l-2.827,2.831c-0.117,0.117-0.274,0.183-0.44,0.183
		c-0.168,0-0.324-0.064-0.44-0.182l-0.621-0.621l-4.772,4.772l0.618,0.619c0.244,0.244,0.243,0.641,0,0.885l-2.828,2.826
		c-0.118,0.118-0.275,0.184-0.442,0.184c-0.166,0-0.323-0.065-0.443-0.185l-0.618-0.618l-0.266,0.266
		C8.378,22.957,7.091,23.491,5.721,23.491z M8.018,19.777l2.651,2.651l3.357-3.356l-2.651-2.653l-1.061,1.061l-3.712-3.712
		l1.061-1.061l-2.651-2.651l-3.358,3.358l2.651,2.651l1.062-1.063l3.711,3.714L8.018,19.777z M16.502,11.292l2.652,2.65l3.36-3.357
		l-2.651-2.652L18.8,8.996l-3.713-3.713L16.15,4.22l-2.653-2.651l-3.358,3.359L12.79,7.58l1.062-1.062l3.711,3.714L16.502,11.292z"
		/>
	<path fill="#966000" d="M18.445,0.885c1.271,0,2.465,0.494,3.361,1.391c0.896,0.896,1.389,2.089,1.389,3.36
		c0,1.271-0.493,2.463-1.389,3.357L21.63,9.17l-1.236-1.237l-0.53-0.53l-0.53,0.53L18.8,8.465l-3.183-3.184L16.15,4.75l0.531-0.531
		L16.15,3.689l-1.239-1.238l0.176-0.176C15.983,1.379,17.177,0.885,18.445,0.885 M11.022,6.342L12.26,7.58l0.53,0.531l0.53-0.531
		l0.531-0.531l3.181,3.184l-0.53,0.529l-0.531,0.531l0.531,0.531l1.24,1.239l-0.177,0.178l-4.242,4.242l-0.179,0.178l-1.239-1.24
		l-0.53-0.53l-0.531,0.53l-0.531,0.53l-3.181-3.182l0.53-0.53l0.53-0.53l-0.53-0.53L6.427,10.94l0.178-0.178l4.242-4.244
		L11.022,6.342 M2.537,14.828l1.238,1.237l0.53,0.53l0.53-0.53l0.532-0.532l3.181,3.184l-0.53,0.53l-0.53,0.53l0.53,0.53
		l1.239,1.239L9.08,21.723c-0.896,0.898-2.09,1.394-3.359,1.394c-1.267,0-2.46-0.495-3.359-1.395
		c-0.897-0.895-1.391-2.087-1.391-3.357s0.494-2.464,1.391-3.361L2.537,14.828 M18.445,0.135c-1.469,0-2.85,0.571-3.889,1.61
		l-0.354-0.354c-0.195-0.196-0.451-0.293-0.706-0.293c-0.256,0-0.511,0.098-0.707,0.293L9.962,4.22
		c-0.391,0.391-0.391,1.023,0,1.414l0.354,0.354l-4.242,4.244L5.72,9.877C5.524,9.682,5.269,9.583,5.014,9.583
		c-0.256,0-0.512,0.098-0.708,0.293l-2.828,2.828c-0.391,0.391-0.391,1.023,0,1.414l0.354,0.354
		c-1.039,1.039-1.611,2.42-1.611,3.892c0,1.469,0.572,2.852,1.611,3.889c1.039,1.039,2.42,1.613,3.889,1.613
		c1.469,0,2.851-0.572,3.89-1.613l0.354,0.354c0.195,0.193,0.451,0.293,0.707,0.293c0.257,0,0.513-0.1,0.707-0.293l2.828-2.827
		c0.391-0.392,0.391-1.023,0-1.414l-0.354-0.354l4.242-4.242l0.354,0.354c0.192,0.194,0.448,0.293,0.707,0.293
		c0.256,0,0.512-0.099,0.706-0.293l2.826-2.829c0.394-0.391,0.394-1.023,0-1.414l-0.353-0.357c1.039-1.038,1.608-2.419,1.608-3.888
		c0-1.469-0.569-2.852-1.608-3.891S19.917,0.135,18.445,0.135L18.445,0.135z M12.79,7.05l-2.121-2.122l2.828-2.829L15.62,4.22
		l-1.063,1.062v0.001L18.8,9.526l1.063-1.063l2.121,2.122l-2.83,2.827l-2.122-2.12l1.061-1.059l-4.241-4.245L12.79,7.05L12.79,7.05z
		 M4.305,15.535l-2.121-2.121l2.828-2.828l2.121,2.121l-1.061,1.061l4.242,4.242l1.061-1.061l2.121,2.123l-2.827,2.826l-2.121-2.121
		l1.062-1.062H9.607l-4.24-4.243L4.305,15.535L4.305,15.535z"/>
</g>
<polygon fill="#E0454B" points="10.315,18.01 6.073,13.768 7.134,12.707 5.013,10.586 2.185,13.414 4.306,15.535 5.367,14.473 
	9.607,18.717 9.609,18.717 8.548,19.777 10.669,21.898 13.497,19.072 11.376,16.949 "/>
<polygon fill="#E0454B" points="18.8,9.526 14.559,5.282 14.559,5.281 15.62,4.22 13.497,2.099 10.669,4.928 12.79,7.05 
	13.852,5.988 18.093,10.233 17.032,11.292 19.154,13.412 21.982,10.585 19.861,8.463 "/>
</svg>
