<?xml version="1.0" encoding="utf-8"?>
<!-- Generator: Adobe Illustrator 16.0.0, SVG Export Plug-In . SVG Version: 6.00 Build 0)  -->
<!DOCTYPE svg PUBLIC "-//W3C//DTD SVG 1.1//EN" "http://www.w3.org/Graphics/SVG/1.1/DTD/svg11.dtd">
<svg version="1.1" id="Layer_6" xmlns="http://www.w3.org/2000/svg" xmlns:xlink="http://www.w3.org/1999/xlink" x="0px" y="0px"
	 width="24px" height="24px" viewBox="0 0 24 24" style="enable-background:new 0 0 24 24;" xml:space="preserve">
<g>
	<path style="fill:none;" d="M17.664,4.814v1.282c0.051,0.004,0.1,0.017,0.146,0.041l2.291,1.176V6.025
		c-0.049-0.003-0.1-0.011-0.146-0.035L17.664,4.814z"/>
	<path style="fill:#E0454B;" d="M17.811,6.138c-0.047-0.024-0.096-0.037-0.146-0.041v0.809l2.291,1.176
		c0.047,0.024,0.098,0.032,0.146,0.035V7.313L17.811,6.138z"/>
	<path style="fill:#E0454B;" d="M19.955,5.99c0.047,0.024,0.098,0.032,0.146,0.035V5.223l-2.291-1.176
		c-0.047-0.024-0.096-0.037-0.146-0.041v0.809L19.955,5.99z"/>
	<path style="fill:#E0454B;" d="M20.533,2.278c-0.027-0.047-0.662-1.148-1.66-1.148c-1.271,0-1.959,0.815-1.959,1.583v5.458
		c0,0.207,0.168,0.375,0.375,0.375s0.375-0.168,0.375-0.375V6.905V6.097V4.814V4.006V2.713c0-0.322,0.328-0.833,1.209-0.833
		c0.465,0,0.885,0.555,1.008,0.769c0.102,0.181,0.332,0.243,0.512,0.14C20.572,2.687,20.635,2.458,20.533,2.278z"/>
	<path style="fill:#E0454B;" d="M23.721,4.403c-0.027-0.047-0.662-1.148-1.66-1.148c-1.271,0-1.959,0.815-1.959,1.583v0.385v0.803
		v1.288v0.803v2.18c0,0.207,0.168,0.375,0.375,0.375s0.375-0.168,0.375-0.375V4.838c0-0.322,0.328-0.833,1.209-0.833
		c0.465,0,0.885,0.555,1.008,0.769c0.104,0.181,0.334,0.242,0.512,0.14C23.76,4.812,23.822,4.583,23.721,4.403z"/>
</g>
<g>
	<polygon style="fill:#EAA001;" points="8.271,22.87 -0.062,12.205 0.726,11.59 8.475,21.507 23.488,10.98 24.063,11.799 	"/>
</g>
<path style="fill:#0F8EA1;" d="M15.033,6.666L0.96,11.335l7.581,9.403l14.294-10.07L15.033,6.666z M3.486,12.077l11.422-3.789
	l5.035,2.582L8.827,18.702L3.486,12.077z"/>
</svg>
