<?xml version="1.0" encoding="utf-8"?>
<!-- Generator: Adobe Illustrator 19.2.1, SVG Export Plug-In . SVG Version: 6.00 Build 0)  -->
<svg version="1.1" xmlns="http://www.w3.org/2000/svg" xmlns:xlink="http://www.w3.org/1999/xlink" x="0px" y="0px" width="24px"
	 height="24px" viewBox="0 0 24 24" enable-background="new 0 0 24 24" xml:space="preserve">
<g id="Filled_Icons">
	<path d="M23.5,0.004h-23c-0.276,0-0.5,0.224-0.5,0.5v23c0,0.276,0.224,0.5,0.5,0.5h23c0.276,0,0.5-0.224,0.5-0.5v-23
		C24,0.228,23.776,0.004,23.5,0.004z M18.354,15.354C18.256,15.451,18.128,15.5,18,15.5s-0.256-0.049-0.354-0.146L12,9.707
		l-5.647,5.647c-0.195,0.195-0.512,0.195-0.707,0s-0.195-0.512,0-0.707l6-6c0.195-0.195,0.512-0.195,0.707,0l6,6
		C18.549,14.842,18.549,15.158,18.354,15.354z"/>
</g>
<g id="Frames-24px">
	<rect fill="none" width="24" height="24"/>
</g>
</svg>
