<?xml version="1.0" encoding="utf-8"?>
<!-- Generator: Adobe Illustrator 16.0.0, SVG Export Plug-In . SVG Version: 6.00 Build 0)  -->
<!DOCTYPE svg PUBLIC "-//W3C//DTD SVG 1.1//EN" "http://www.w3.org/Graphics/SVG/1.1/DTD/svg11.dtd">
<svg version="1.1" id="Layer_2" xmlns="http://www.w3.org/2000/svg" xmlns:xlink="http://www.w3.org/1999/xlink" x="0px" y="0px"
	 width="24px" height="24px" viewBox="0 0 24 24" style="enable-background:new 0 0 24 24;" xml:space="preserve">
<g>
	<g>
		<path style="fill:#E0454B;" d="M22.852,8.896c-0.127,0-0.256-0.031-0.375-0.101L12,2.745L1.523,8.796
			C1.166,9.004,0.707,8.881,0.5,8.521C0.292,8.164,0.416,7.705,0.773,7.498L12,1.013l11.226,6.485
			c0.358,0.207,0.481,0.666,0.274,1.023C23.361,8.763,23.109,8.896,22.852,8.896z"/>
	</g>
	<polygon style="fill:#E0454B;" points="12,3.564 3.344,8.564 3.344,22.128 20.656,22.128 20.656,8.564 	"/>
	<path style="fill-rule:evenodd;clip-rule:evenodd;fill:#FFFFFF;" d="M9.582,14.213c0.201,0,0.405,0.006,0.609-0.001
		c0.479-0.016,0.944-0.086,1.359-0.346c0.417-0.261,0.658-0.637,0.706-1.13c0.002-0.022,0-0.045,0-0.084
		c-1.006,0.021-2.005,0.044-3.028,0.067c0.04-0.079,0.069-0.144,0.104-0.205c0.107-0.193,0.219-0.384,0.322-0.58
		c0.039-0.071,0.084-0.096,0.164-0.098c0.721-0.011,1.443-0.028,2.165-0.042c0.038-0.001,0.075-0.006,0.13-0.01
		c-0.078-0.189-0.194-0.329-0.341-0.444c-0.278-0.22-0.609-0.317-0.952-0.335c-0.495-0.025-0.992-0.014-1.488-0.018
		c-0.042-0.001-0.084,0-0.142,0c0.013-0.037,0.019-0.064,0.032-0.089c0.13-0.234,0.258-0.469,0.396-0.698
		c0.024-0.04,0.088-0.077,0.135-0.078c1.625-0.033,3.25-0.062,4.876-0.091c0.032,0,0.065,0.003,0.117,0.006
		c-0.052,0.097-0.096,0.181-0.142,0.265c-0.093,0.167-0.189,0.33-0.275,0.499c-0.039,0.073-0.088,0.094-0.166,0.095
		c-0.365,0.003-0.729,0.012-1.094,0.019c-0.042,0.001-0.084,0.004-0.146,0.007c0.063,0.091,0.121,0.162,0.16,0.242
		c0.079,0.163,0.152,0.33,0.216,0.5c0.028,0.075,0.061,0.101,0.141,0.099c0.408-0.013,0.815-0.02,1.222-0.028
		c0.042-0.001,0.083,0,0.149,0c-0.11,0.203-0.229,0.377-0.305,0.568c-0.101,0.256-0.267,0.345-0.534,0.312
		c-0.156-0.019-0.318,0.007-0.476,0.006c-0.078,0-0.108,0.027-0.12,0.104c-0.09,0.671-0.437,1.185-0.983,1.567
		c-0.421,0.296-0.895,0.458-1.4,0.532c-0.045,0.008-0.091,0.015-0.17,0.027c1.105,1.359,2.196,2.701,3.305,4.063
		c-0.173,0.008-0.319,0.015-0.464,0.021c-0.263,0.01-0.527,0.016-0.791,0.03c-0.087,0.005-0.144-0.021-0.198-0.087
		c-0.706-0.881-1.415-1.76-2.123-2.638c-0.29-0.359-0.579-0.719-0.874-1.075c-0.064-0.079-0.101-0.158-0.098-0.262
		C9.584,14.683,9.582,14.462,9.582,14.213z"/>
	<g>
		<path style="fill-rule:evenodd;clip-rule:evenodd;fill:#C0E233;" d="M18.818,17.542c-1.623,0-2.938,1.315-2.938,2.938
			s1.314,2.938,2.938,2.938c1.621,0,2.938-1.315,2.938-2.938S20.439,17.542,18.818,17.542z M20.604,19.692l-2.084,2.146
			c-0.022,0.023-0.1,0.107-0.177,0.109s-0.155-0.079-0.179-0.102l-1.125-1.052c-0.099-0.096-0.102-0.238-0.006-0.338
			c0.096-0.099,0.254-0.094,0.354,0.002l0.942,0.911l1.911-2.022c0.094-0.1,0.252-0.104,0.354-0.009
			C20.694,19.434,20.698,19.593,20.604,19.692z"/>
	</g>
</g>
</svg>
