<?xml version="1.0" encoding="utf-8"?>
<!-- Generator: Adobe Illustrator 16.0.0, SVG Export Plug-In . SVG Version: 6.00 Build 0)  -->
<!DOCTYPE svg PUBLIC "-//W3C//DTD SVG 1.1//EN" "http://www.w3.org/Graphics/SVG/1.1/DTD/svg11.dtd">
<svg version="1.1" id="Layer_1" xmlns="http://www.w3.org/2000/svg" xmlns:xlink="http://www.w3.org/1999/xlink" x="0px" y="0px"
	 width="30px" height="30px" viewBox="0 0 30 30" enable-background="new 0 0 30 30" xml:space="preserve">
<polygon display="none" fill="#CCCCCC" points="8.682,19.385 8.682,7.5 1.181,0 -0.006,0 -0.006,28.072 "/>
<polygon display="none" fill="#CCCCCC" points="30.005,28.632 30.005,28.889 21.604,20.486 9.899,20.486 0.385,30 30.006,30 
	30.006,28.633 "/>
<g>
	<path fill="#E0454B" d="M4.553,7.5V30h1.25V7.5c0-3.446,2.803-6.25,6.25-6.25c3.446,0,6.25,2.804,6.25,6.25v0.063
		c-2.805,0.316-5,2.674-5,5.562v1.25c0,0.345,0.281,0.625,0.625,0.625h10c0.344,0,0.625-0.28,0.625-0.625v-1.25
		c0-2.888-2.195-5.247-5-5.562V7.5c0-4.135-3.363-7.5-7.5-7.5C7.918,0,4.553,3.365,4.553,7.5z"/>
	<path fill="#0F8EA1" d="M18.303,18.75v2.5c0,0.344,0.28,0.625,0.625,0.625c0.346,0,0.625-0.281,0.625-0.625v-2.5
		c0-0.344-0.279-0.625-0.625-0.625C18.583,18.125,18.303,18.406,18.303,18.75z"/>
	<path fill="#0F8EA1" d="M18.303,26.25v2.5c0,0.344,0.28,0.625,0.625,0.625c0.346,0,0.625-0.281,0.625-0.625v-2.5
		c0-0.344-0.279-0.625-0.625-0.625C18.583,25.625,18.303,25.906,18.303,26.25z"/>
	<path fill="#0F8EA1" d="M14.223,21.902c0.035,0.004,0.068,0.007,0.1,0.007c0.304,0,0.567-0.22,0.619-0.527l0.393-2.47
		c0.054-0.34-0.178-0.66-0.519-0.714c-0.342-0.06-0.661,0.179-0.717,0.518l-0.393,2.47C13.648,21.525,13.883,21.846,14.223,21.902z"
		/>
	<path fill="#0F8EA1" d="M12.916,26.121l-0.393,2.471c-0.057,0.34,0.176,0.661,0.518,0.715c0.032,0.006,0.066,0.008,0.1,0.008
		c0.301,0,0.566-0.22,0.615-0.525l0.395-2.471c0.053-0.34-0.178-0.66-0.518-0.715C13.291,25.547,12.969,25.781,12.916,26.121z"/>
	<path fill="#0F8EA1" d="M22.625,18.913l0.395,2.47c0.051,0.307,0.317,0.527,0.619,0.527c0.031,0,0.064-0.003,0.098-0.008
		c0.342-0.058,0.574-0.377,0.519-0.717l-0.396-2.471c-0.055-0.341-0.373-0.576-0.717-0.518
		C22.803,18.252,22.57,18.572,22.625,18.913z"/>
	<path fill="#0F8EA1" d="M23.811,26.318l0.396,2.47c0.048,0.306,0.313,0.526,0.614,0.526c0.033,0,0.068-0.002,0.101-0.008
		c0.341-0.058,0.573-0.375,0.521-0.718l-0.396-2.468c-0.054-0.341-0.376-0.573-0.716-0.52
		C23.986,25.656,23.755,25.979,23.811,26.318z"/>
</g>
</svg>
