<?xml version="1.0" encoding="utf-8"?>
<!-- Generator: Adobe Illustrator 16.0.0, SVG Export Plug-In . SVG Version: 6.00 Build 0)  -->
<!DOCTYPE svg PUBLIC "-//W3C//DTD SVG 1.1//EN" "http://www.w3.org/Graphics/SVG/1.1/DTD/svg11.dtd">
<svg version="1.1" id="Filled_Icons" xmlns="http://www.w3.org/2000/svg" xmlns:xlink="http://www.w3.org/1999/xlink" x="0px"
	 y="0px" width="24px" height="24px" viewBox="0 0 24 24" enable-background="new 0 0 24 24" xml:space="preserve">
<path d="M23.757,10.953c-0.283-0.328-0.744-0.24-1.267,0.018c-0.466,0.229-1.068,0.528-1.875,0.416
	c-0.628-0.085-1.084-0.749-1.613-1.519c-0.712-1.034-1.598-2.322-3.313-2.704c-0.474-0.104-0.92-0.158-1.326-0.158
	c-1.193,0-1.941,0.464-2.376,0.985C11.552,7.47,10.804,7.006,9.61,7.006c-0.407,0-0.852,0.054-1.326,0.158
	C6.567,7.546,5.682,8.834,4.97,9.868c-0.529,0.77-0.985,1.434-1.613,1.519c-0.809,0.111-1.409-0.188-1.875-0.417
	c-0.521-0.256-0.984-0.345-1.267-0.017c-0.27,0.312-0.281,0.795-0.057,2.354c0.306,2.125,1.671,4.658,6.438,4.658
	c2.647,0,4.59-1.742,5.391-2.606c0.8,0.864,2.743,2.606,5.391,2.606c4.766,0,6.131-2.533,6.438-4.658
	C24.039,11.748,24.027,11.265,23.757,10.953z"/>
</svg>
