<?xml version="1.0" encoding="utf-8"?>
<!-- Generator: Adobe Illustrator 16.0.0, SVG Export Plug-In . SVG Version: 6.00 Build 0)  -->
<!DOCTYPE svg PUBLIC "-//W3C//DTD SVG 1.1//EN" "http://www.w3.org/Graphics/SVG/1.1/DTD/svg11.dtd">
<svg version="1.1" id="Outline_Icons" xmlns="http://www.w3.org/2000/svg" xmlns:xlink="http://www.w3.org/1999/xlink" x="0px"
	 y="0px" width="24px" height="24px" viewBox="0 0 24 24" enable-background="new 0 0 24 24" xml:space="preserve">
<path d="M21.098,13.951c1.201-2.188,1.505-4.564,1.522-4.705c0.029-0.243-0.122-0.472-0.357-0.54
	c-0.07-0.02-1.597-0.443-3.451-0.281c-0.038-2.116-0.566-3.819-0.603-3.935c-0.083-0.257-0.354-0.401-0.613-0.329
	c-0.069,0.021-1.568,0.46-3.123,1.586c-0.896-1.817-2.036-3.015-2.115-3.096c-0.188-0.193-0.529-0.193-0.718,0
	c-0.079,0.081-1.217,1.277-2.114,3.093C7.974,4.619,6.475,4.182,6.404,4.161C6.146,4.09,5.874,4.233,5.791,4.49
	C5.754,4.605,5.227,6.308,5.188,8.424c-1.854-0.162-3.38,0.262-3.451,0.282C1.502,8.774,1.352,9.003,1.38,9.246
	c0.017,0.138,0.307,2.434,1.455,4.587C1.33,14.811,0.5,16.03,0.5,17.312c0,3.26,4.836,5.718,11.25,5.718
	c2.104,0,4.836-0.324,5.987-0.943C17.899,22,18,21.83,18,21.646V19h4.875c0.262,0,0.479-0.202,0.499-0.463
	C23.51,16.701,22.717,15.127,21.098,13.951z M18.789,9.428c1.16-0.119,2.207,0.029,2.767,0.141c-0.214,1.179-0.979,4.42-3.093,6.061
	c-1.465,1.137-3.313,1.279-4.634,1.193c1.36-0.699,3.197-1.98,4.188-4.123C18.505,11.643,18.722,10.508,18.789,9.428z M17.39,5.291
	c0.298,1.217,0.899,4.434-0.282,6.988c-0.81,1.752-2.314,2.87-3.506,3.523c0.897-1.342,1.95-3.416,1.95-5.782
	c0-1.205-0.276-2.333-0.663-3.329C15.852,5.961,16.829,5.508,17.39,5.291z M12,3.761c0.779,0.947,2.553,3.419,2.553,6.26
	c0,2.842-1.774,5.313-2.553,6.261c-0.779-0.947-2.553-3.419-2.553-6.261C9.447,7.18,11.221,4.708,12,3.761z M6.61,5.291
	c0.562,0.217,1.537,0.672,2.5,1.402c-0.387,0.996-0.662,2.123-0.662,3.327c0,2.368,1.055,4.444,1.953,5.786
	c-1.19-0.651-2.696-1.769-3.509-3.527C5.711,9.726,6.312,6.508,6.61,5.291z M5.211,9.426c0.067,1.081,0.284,2.217,0.772,3.273
	c0.992,2.145,2.83,3.426,4.191,4.125c-1.319,0.088-3.167-0.054-4.637-1.194c-2.109-1.638-2.876-4.882-3.092-6.062
	C3.004,9.458,4.049,9.308,5.211,9.426z M17.5,18c-0.276,0-0.5,0.224-0.5,0.5v2.826c-1.022,0.403-3.215,0.704-5.25,0.704
	c-5.652,0-10.25-2.116-10.25-4.718c0-0.925,0.656-1.846,1.85-2.626c0.431,0.644,0.946,1.245,1.574,1.733
	c1.468,1.139,3.21,1.432,4.616,1.432c1.185,0,2.121-0.207,2.46-0.293c0.339,0.086,1.275,0.293,2.46,0.293
	c1.405,0,3.148-0.293,4.616-1.433c0.591-0.459,1.083-1.019,1.499-1.619c1.162,0.862,1.773,1.935,1.812,3.2H17.5z"/>
</svg>
