<?xml version="1.0" encoding="utf-8"?>
<!-- Generator: Adobe Illustrator 16.0.0, SVG Export Plug-In . SVG Version: 6.00 Build 0)  -->
<!DOCTYPE svg PUBLIC "-//W3C//DTD SVG 1.1//EN" "http://www.w3.org/Graphics/SVG/1.1/DTD/svg11.dtd">
<svg version="1.1" id="Outline_Icons" xmlns="http://www.w3.org/2000/svg" xmlns:xlink="http://www.w3.org/1999/xlink" x="0px"
	 y="0px" width="24px" height="24px" viewBox="0 0 24 24" enable-background="new 0 0 24 24" xml:space="preserve">
<path d="M22.798,16.17L9.931,3.584C9.178,2.849,8.185,2.443,7.133,2.443c-1.085,0-2.101,0.427-2.859,1.202L0.428,7.577
	C0.147,7.864-0.004,8.243,0,8.645c0.005,0.4,0.166,0.774,0.451,1.054c0.573,0.561,1.561,0.551,2.122-0.023l3.001-3.068l0.293-0.003
	l0.567,0.555l-3.496,3.574c-0.193,0.197-0.189,0.514,0.008,0.707c0.097,0.095,0.224,0.143,0.35,0.143c0.13,0,0.259-0.05,0.357-0.15
	l3.496-3.574L7.877,8.57l-3.508,3.56c-0.194,0.196-0.192,0.513,0.005,0.707c0.098,0.096,0.224,0.144,0.351,0.144
	c0.129,0,0.258-0.05,0.356-0.149l3.511-3.562l0.706,0.69l-3.5,3.57c-0.193,0.197-0.19,0.514,0.007,0.707
	c0.098,0.095,0.224,0.143,0.35,0.143c0.129,0,0.259-0.05,0.357-0.15l3.5-3.57l0.726,0.709l-3.509,3.56
	c-0.194,0.196-0.192,0.513,0.005,0.707c0.098,0.096,0.224,0.144,0.351,0.144c0.129,0,0.258-0.05,0.356-0.149l3.511-3.562
	l0.693,0.678l-3.489,3.583c-0.192,0.197-0.188,0.515,0.01,0.707c0.097,0.095,0.223,0.142,0.349,0.142c0.13,0,0.26-0.051,0.358-0.151
	l3.487-3.581l0.575,0.562l0.003,0.293l-3.001,3.068c-0.281,0.286-0.433,0.665-0.429,1.066c0.004,0.4,0.165,0.775,0.451,1.055
	c0.574,0.562,1.562,0.549,2.122-0.023l3.001-3.068l0.293-0.003l3.426,3.352c0.47,0.46,1.091,0.713,1.748,0.713
	c0.678,0,1.312-0.267,1.787-0.752C23.8,18.721,23.783,17.135,22.798,16.17z M22.122,19.007C21.561,19.58,20.574,19.59,20,19.03
	l-3.574-3.496c-0.093-0.092-0.219-0.143-0.35-0.143c-0.001,0-0.003,0-0.005,0l-0.707,0.007c-0.133,0.001-0.26,0.056-0.353,0.15
	l-3.146,3.217c-0.188,0.192-0.516,0.194-0.708,0.008c-0.095-0.093-0.148-0.218-0.149-0.352c-0.001-0.133,0.049-0.26,0.143-0.355
	l3.146-3.217c0.093-0.095,0.144-0.223,0.143-0.355l-0.008-0.707c-0.001-0.132-0.056-0.259-0.15-0.352L13.2,12.378
	c0-0.001,0-0.001,0-0.001s0,0,0,0l-1.4-1.37c-0.001-0.001-0.001-0.002-0.002-0.003s-0.002-0.001-0.003-0.002l-1.438-1.407
	c0,0,0-0.001-0.001-0.001s-0.001,0-0.001-0.001L8.937,8.207l0,0c0,0,0,0,0,0L6.418,5.744C6.324,5.651,6.198,5.612,6.064,5.602
	L5.357,5.608c-0.133,0.001-0.26,0.056-0.353,0.15L1.858,8.976C1.671,9.168,1.344,9.174,1.15,8.982C1.055,8.89,1.001,8.766,1,8.633
	C0.999,8.499,1.049,8.372,1.143,8.276l3.846-3.932c1.121-1.144,3.097-1.167,4.243-0.046l12.867,12.586
	C22.689,17.464,22.7,18.416,22.122,19.007z"/>
</svg>
