<?xml version="1.0" encoding="utf-8"?>
<!-- Generator: Adobe Illustrator 16.0.0, SVG Export Plug-In . SVG Version: 6.00 Build 0)  -->
<!DOCTYPE svg PUBLIC "-//W3C//DTD SVG 1.1//EN" "http://www.w3.org/Graphics/SVG/1.1/DTD/svg11.dtd">
<svg version="1.1" id="Outline_Icons" xmlns="http://www.w3.org/2000/svg" xmlns:xlink="http://www.w3.org/1999/xlink" x="0px"
	 y="0px" width="24px" height="24px" viewBox="0 0 24 24" enable-background="new 0 0 24 24" xml:space="preserve">
<path d="M23.757,10.946c-0.284-0.326-0.744-0.24-1.267,0.018c-0.466,0.229-1.068,0.524-1.875,0.417
	c-0.628-0.085-1.085-0.75-1.614-1.519c-0.711-1.035-1.597-2.322-3.313-2.704C15.215,7.053,14.769,7,14.363,7
	c-1.193,0-1.942,0.463-2.376,0.984C11.552,7.463,10.804,7,9.61,7C9.204,7,8.758,7.053,8.284,7.158
	C6.567,7.54,5.682,8.828,4.97,9.862c-0.529,0.77-0.986,1.434-1.613,1.519c-0.81,0.109-1.409-0.188-1.875-0.417
	c-0.521-0.258-0.984-0.345-1.266-0.018c-0.27,0.312-0.282,0.796-0.057,2.354c0.306,2.125,1.671,4.658,6.438,4.658
	c2.647,0,4.59-1.742,5.391-2.605c0.8,0.863,2.743,2.605,5.391,2.605c4.766,0,6.131-2.533,6.438-4.658
	C24.039,11.742,24.027,11.259,23.757,10.946z M22.824,13.158c-0.368,2.558-2.15,3.801-5.447,3.801c-2.938,0-4.971-2.648-4.991-2.676
	c-0.094-0.125-0.243-0.198-0.399-0.198s-0.305,0.073-0.399,0.198c-0.021,0.027-2.054,2.676-4.991,2.676
	c-3.297,0-5.079-1.243-5.447-3.801c-0.097-0.669-0.137-1.073-0.147-1.316c0.013,0.007,0.026,0.014,0.039,0.02
	c0.515,0.253,1.341,0.661,2.45,0.51c1.066-0.144,1.667-1.018,2.303-1.942C6.47,9.446,7.168,8.431,8.501,8.135
	C8.903,8.045,9.276,8,9.61,8c1.612,0,1.861,1.052,1.883,1.166c0.04,0.239,0.246,0.412,0.487,0.415c0.002,0,0.004,0,0.006,0
	c0.239,0,0.446-0.173,0.492-0.409C12.501,9.052,12.751,8,14.363,8c0.333,0,0.707,0.045,1.109,0.135
	c1.332,0.296,2.031,1.312,2.706,2.294c0.636,0.925,1.237,1.799,2.304,1.942c1.111,0.152,1.935-0.256,2.45-0.51
	c0.013-0.006,0.026-0.013,0.04-0.02C22.961,12.085,22.921,12.489,22.824,13.158z"/>
</svg>
