<?xml version="1.0" encoding="utf-8"?>
<!-- Generator: Adobe Illustrator 16.0.0, SVG Export Plug-In . SVG Version: 6.00 Build 0)  -->
<!DOCTYPE svg PUBLIC "-//W3C//DTD SVG 1.1//EN" "http://www.w3.org/Graphics/SVG/1.1/DTD/svg11.dtd">
<svg version="1.1" id="Layer_1" xmlns="http://www.w3.org/2000/svg" xmlns:xlink="http://www.w3.org/1999/xlink" x="0px" y="0px"
	 width="30px" height="30px" viewBox="0 0 30 30" style="enable-background:new 0 0 30 30;" xml:space="preserve">
<g>
	<path style="fill:#E0454B;" d="M0.285,6.319c0-0.625,0.434-1.375,1.087-1.375c0.619,0,1.049,0.818,1.049,1.471
		c0.072,2.566,0.03,5.139,0.03,7.707c0,0.414,0,0.827,0,1.397c0.573,0,1.017,0,1.466,0c7.977,0,15.954,0,23.933,0.003
		c1.658,0,1.857,0.205,1.861,1.854c0.005,2.52,0.003,5.043,0.003,7.623c-0.754,0-1.382,0-2.143,0c0-1.034,0-2.018,0-3.064
		c-8.387,0-16.654,0-25.083,0c0,0.997,0,2.003,0,3.121c-0.843,0-1.523,0-2.205,0C0.285,18.537,0.285,12.842,0.285,6.319z"/>
	<path style="fill:#E9A122;" d="M10.762,14.038c0-1.442-0.061-2.817,0.045-4.183c0.022-0.311,0.612-0.827,0.946-0.83
		c3.91-0.053,7.821-0.029,11.73-0.003c0.455,0.003,0.917,0.117,1.36,0.23c2.615,0.663,3.492,1.961,3.178,4.785
		C22.315,14.038,16.597,14.038,10.762,14.038z"/>
	<path style="fill:#E9A122;" d="M6.806,7.077c1.457,0.009,2.642,1.175,2.65,2.616c0.007,1.457-1.274,2.717-2.728,2.676
		c-1.446-0.039-2.58-1.235-2.566-2.699C4.178,8.204,5.337,7.07,6.806,7.077z"/>
	<path style="fill:#108EA1;" d="M6.747,14.799c-0.576,0-1.167,0.079-1.717-0.033c-0.315-0.065-0.564-0.452-0.843-0.693
		c0.256-0.231,0.507-0.644,0.777-0.657c1.222-0.075,2.455-0.075,3.674,0c0.28,0.016,0.534,0.426,0.801,0.657
		c-0.285,0.244-0.538,0.638-0.857,0.701c-0.593,0.114-1.221,0.034-1.834,0.034C6.747,14.803,6.747,14.8,6.747,14.799z"/>
</g>
</svg>
