<?xml version="1.0" encoding="UTF-8" standalone="no"?>
<svg
   xmlns:dc="http://purl.org/dc/elements/1.1/"
   xmlns:cc="http://creativecommons.org/ns#"
   xmlns:rdf="http://www.w3.org/1999/02/22-rdf-syntax-ns#"
   xmlns:svg="http://www.w3.org/2000/svg"
   xmlns="http://www.w3.org/2000/svg"
   xmlns:sodipodi="http://sodipodi.sourceforge.net/DTD/sodipodi-0.dtd"
   xmlns:inkscape="http://www.inkscape.org/namespaces/inkscape"
   width="24px"
   height="24px"
   viewBox="0 0 24 24"
   id="svg3520"
   version="1.1"
   inkscape:version="0.91 r13725"
   sodipodi:docname="bedroom.svg">
  <metadata
     id="metadata3530">
    <rdf:RDF>
      <cc:Work
         rdf:about="">
        <dc:format>image/svg+xml</dc:format>
        <dc:type
           rdf:resource="http://purl.org/dc/dcmitype/StillImage" />
      </cc:Work>
    </rdf:RDF>
  </metadata>
  <defs
     id="defs3528" />
  <sodipodi:namedview
     pagecolor="#ffffff"
     bordercolor="#666666"
     borderopacity="1"
     objecttolerance="10"
     gridtolerance="10"
     guidetolerance="10"
     inkscape:pageopacity="0"
     inkscape:pageshadow="2"
     inkscape:window-width="1919"
     inkscape:window-height="1050"
     id="namedview3526"
     showgrid="false"
     inkscape:zoom="9.8333333"
     inkscape:cx="12"
     inkscape:cy="12"
     inkscape:window-x="1"
     inkscape:window-y="0"
     inkscape:window-maximized="1"
     inkscape:current-layer="g3522" />
    <path
       style="color:#000000;height:normal;font-family:sans-serif;text-indent:0;text-align:start;text-decoration:none;text-decoration-line:none;text-decoration-style:solid;text-decoration-color:#000000;letter-spacing:normal;word-spacing:normal;text-transform:none;direction:ltr;block-progression:tb;writing-mode:lr-tb;baseline-shift:baseline;text-anchor:start;white-space:normal;clip-rule:nonzero;display:inline;overflow:visible;visibility:visible;opacity:1;isolation:auto;mix-blend-mode:normal;color-interpolation:sRGB;color-interpolation-filters:linearRGB;solid-color:#000000;solid-opacity:1;fill:#000000;fill-opacity:1;fill-rule:nonzero;stroke:none;stroke-width:1;stroke-linecap:butt;stroke-linejoin:miter;stroke-miterlimit:10;stroke-dasharray:none;stroke-dashoffset:0;stroke-opacity:1;color-rendering:auto;image-rendering:auto;shape-rendering:auto;text-rendering:auto;enable-background:accumulate"
       d="M 1,4.5 A 0.50005,0.50005 0 0 0 0.5,5 l 0,15 A 0.50005,0.50005 0 0 0 1,20.5 l 2,0 A 0.50005,0.50005 0 0 0 3.5,20 l 0,-2.5 17,0 0,2.5 a 0.50005,0.50005 0 0 0 0.5,0.5 l 2,0 A 0.50005,0.50005 0 0 0 23.5,20 l 0,-9 C 23.5,8.5200151 21.479985,6.5 19,6.5 l -8,0 A 0.50005,0.50005 0 0 0 10.5,7 l 0,3 0,3.5 -3.5,0 -3.5,0 0,-3.5 0,-5 A 0.50005,0.50005 0 0 0 3,4.5 l -2,0 z M 3.5,10 c 0,1.929076 1.5709237,3.5 3.5,3.5 1.9290763,0 3.5,-1.570924 3.5,-3.5 C 10.5,8.0709237 8.9290763,6.5 7,6.5 5.0709237,6.5 3.5,8.0709237 3.5,10 Z m -2,-4.5 1,0 0,8.5 A 0.50005,0.50005 0 0 0 3,14.5 l 8,0 A 0.50005,0.50005 0 0 0 11.5,14 l 0,-6.5 7.5,0 c 1.940015,0 3.5,1.5599849 3.5,3.5 l 0,8.5 -1,0 0,-2.5 A 0.50005,0.50005 0 0 0 21,16.5 l -18,0 A 0.50005,0.50005 0 0 0 2.5,17 l 0,2.5 -1,0 0,-14 z M 7,7.5 C 8.3909237,7.5 9.5,8.6090763 9.5,10 9.5,11.390924 8.3909237,12.5 7,12.5 5.6090763,12.5 4.5,11.390924 4.5,10 4.5,8.6090763 5.6090763,7.5 7,7.5 Z"
       id="path3524"
       inkscape:connector-curvature="0" />
</svg>
