<?xml version="1.0" encoding="utf-8"?>
<!-- Generator: Adobe Illustrator 16.0.0, SVG Export Plug-In . SVG Version: 6.00 Build 0)  -->
<!DOCTYPE svg PUBLIC "-//W3C//DTD SVG 1.1//EN" "http://www.w3.org/Graphics/SVG/1.1/DTD/svg11.dtd">
<svg version="1.1" id="Layer_1" xmlns="http://www.w3.org/2000/svg" xmlns:xlink="http://www.w3.org/1999/xlink" x="0px" y="0px"
	 width="24px" height="24px" viewBox="0 0 24 24" enable-background="new 0 0 24 24" xml:space="preserve">
<path fill="#C1C1C1" d="M0.379,4.509C0.765,4.343,1.313,3.937,1.5,4.064c0.317,0.215,0.556,0.762,0.567,1.175
	c0.056,2.028,0.024,4.059,0.024,6.087c0,0.326,0,0.652,0,1.103c0.452,0,0.803,0,1.157,0c6.3,0,12.6,0,18.9,0.003
	c1.31,0,1.468,0.162,1.47,1.462c0.003,1.989,0.001,3.982,0.001,6.021c-0.594,0-1.09,0-1.689,0c0-0.817,0-1.593,0-2.42
	c-6.625,0-13.153,0-19.81,0c0,0.788,0,1.582,0,2.465c-0.665,0-1.202,0-1.74,0C0.379,14.813,0.379,9.66,0.379,4.509z"/>
<path fill="#C1C1C1" d="M8.654,11.26c0-1.139-0.048-2.226,0.035-3.303C8.708,7.711,9.173,7.303,9.437,7.3
	c3.088-0.04,6.178-0.022,9.265-0.001c0.358,0.002,0.723,0.093,1.073,0.182c2.064,0.523,2.757,1.547,2.51,3.779
	C17.777,11.26,13.261,11.26,8.654,11.26z"/>
<path fill="#C1C1C1" d="M5.529,5.762C6.68,5.769,7.615,6.69,7.622,7.827C7.628,8.98,6.615,9.974,5.467,9.942
	C4.326,9.911,3.43,8.967,3.442,7.811C3.454,6.654,4.369,5.757,5.529,5.762z"/>
<path fill="#C1C1C1" d="M5.482,11.859c-0.454,0-0.922,0.065-1.356-0.025c-0.249-0.052-0.446-0.358-0.666-0.549
	c0.203-0.181,0.4-0.507,0.614-0.519c0.965-0.058,1.938-0.058,2.902,0c0.22,0.014,0.421,0.337,0.632,0.519
	c-0.224,0.194-0.425,0.506-0.677,0.556c-0.468,0.089-0.964,0.026-1.448,0.026C5.482,11.864,5.482,11.861,5.482,11.859z"/>
</svg>
