<?xml version="1.0" encoding="utf-8"?>
<!-- Generator: Adobe Illustrator 16.0.0, SVG Export Plug-In . SVG Version: 6.00 Build 0)  -->
<!DOCTYPE svg PUBLIC "-//W3C//DTD SVG 1.1//EN" "http://www.w3.org/Graphics/SVG/1.1/DTD/svg11.dtd">
<svg version="1.1" id="Layer_1" xmlns="http://www.w3.org/2000/svg" xmlns:xlink="http://www.w3.org/1999/xlink" x="0px" y="0px"
	 width="24px" height="24px" viewBox="0 0 24 24" style="enable-background:new 0 0 24 24;" xml:space="preserve">
<path d="M19,4h-1V2h-2v2H8V2H6v2H5C3.89,4,3.01,4.9,3.01,6L3,20c0,1.1,0.89,2,2,2h14c1.1,0,2-0.9,2-2V6C21,4.9,20.1,4,19,4z M19,20
	H5V9h14V20z"/>
<polygon points="14.59,10.5 12,13.09 9.41,10.5 8,11.911 10.59,14.5 8,17.09 9.41,18.5 12,15.91 14.59,18.5 16,17.09 13.41,14.5 
	16,11.911 "/>
</svg>
