<?xml version="1.0" encoding="utf-8"?>
<!-- Generator: Adobe Illustrator 16.0.0, SVG Export Plug-In . SVG Version: 6.00 Build 0)  -->
<!DOCTYPE svg PUBLIC "-//W3C//DTD SVG 1.1//EN" "http://www.w3.org/Graphics/SVG/1.1/DTD/svg11.dtd">
<svg version="1.1" id="Layer_1" xmlns="http://www.w3.org/2000/svg" xmlns:xlink="http://www.w3.org/1999/xlink" x="0px" y="0px"
	 width="24px" height="24px" viewBox="0 0 24 24" enable-background="new 0 0 24 24" xml:space="preserve">
<g>
	<path fill="#010101" d="M13.025,4.044c1.457,0.183,2.791,0.759,3.896,1.619l1.43-1.43c-1.48-1.213-3.316-2.009-5.326-2.208V4.044z"
		/>
	<path fill="#010101" d="M18.336,16.871l1.43,1.43c1.213-1.48,2.01-3.314,2.209-5.326h-2.02
		C19.773,14.432,19.197,15.766,18.336,16.871z"/>
	<path fill="#010101" d="M19.955,10.975h2.02c-0.199-2.011-0.996-3.846-2.209-5.327l-1.43,1.43
		C19.197,8.183,19.773,9.518,19.955,10.975z"/>
	<path fill="#010101" d="M16.922,18.285c-1.105,0.861-2.439,1.438-3.896,1.619c-0.328,0.041-0.661,0.07-1,0.07
		c-0.34,0-0.672-0.029-1-0.07c-1.458-0.182-2.792-0.758-3.897-1.619c-0.529-0.41-1.003-0.885-1.414-1.414
		c-0.86-1.105-1.437-2.439-1.619-3.896c-0.041-0.328-0.069-0.66-0.069-1c0-0.339,0.028-0.672,0.069-1
		c0.183-1.457,0.759-2.792,1.619-3.897c0.411-0.528,0.885-1.003,1.414-1.414c1.105-0.86,2.439-1.437,3.897-1.619V2.025
		C9.014,2.225,7.18,3.021,5.698,4.233C5.181,4.656,4.707,5.13,4.284,5.647c-1.213,1.481-2.009,3.316-2.209,5.327
		c-0.032,0.329-0.05,0.663-0.05,1c0,0.338,0.018,0.671,0.05,1c0.2,2.012,0.996,3.846,2.208,5.328
		c0.424,0.516,0.897,0.99,1.414,1.414c1.482,1.211,3.316,2.008,5.328,2.207c0.329,0.033,0.662,0.051,1,0.051
		c0.337,0,0.671-0.018,1-0.051c2.01-0.199,3.846-0.996,5.326-2.209L16.922,18.285z"/>
</g>
<g>
	<circle fill="#010101" cx="7.13" cy="12" r="0.846"/>
	<circle fill="#010101" cx="11.256" cy="12" r="1.236"/>
	<circle fill="#010101" cx="16.156" cy="12" r="1.56"/>
</g>
</svg>
