<?xml version="1.0" encoding="utf-8"?>
<!-- Generator: Adobe Illustrator 16.0.0, SVG Export Plug-In . SVG Version: 6.00 Build 0)  -->
<!DOCTYPE svg PUBLIC "-//W3C//DTD SVG 1.1//EN" "http://www.w3.org/Graphics/SVG/1.1/DTD/svg11.dtd">
<svg version="1.1" id="Layer_1" xmlns="http://www.w3.org/2000/svg" xmlns:xlink="http://www.w3.org/1999/xlink" x="0px" y="0px"
	 width="30px" height="30px" viewBox="0 0 30 30" style="enable-background:new 0 0 30 30;" xml:space="preserve">
<rect x="8.916" y="0.156" style="fill:#E0464B;" width="12.219" height="7.99"/>
<polygon style="fill:#E0464B;" points="29.81,15.362 0.24,15.362 7.449,8.825 22.601,8.825 "/>
<path style="fill:#EAA124;" d="M0.156,16.086v5.068h29.688v-5.068H0.156z M10.431,19.373H2.492v-1.507h7.938V19.373z M19.986,19.373
	h-7.938v-1.507h7.938V19.373z M23.746,19.373c-0.416,0-0.754-0.339-0.754-0.753c0-0.416,0.338-0.755,0.754-0.755
	S24.5,18.204,24.5,18.62C24.5,19.034,24.162,19.373,23.746,19.373z M26.566,19.373c-0.416,0-0.754-0.339-0.754-0.753
	c0-0.416,0.338-0.755,0.754-0.755s0.754,0.339,0.754,0.755C27.32,19.034,26.982,19.373,26.566,19.373z"/>
<rect x="2.492" y="17.866" style="fill:#FFFFFF;" width="7.938" height="1.507"/>
<rect x="12.048" y="17.866" style="fill:#FFFFFF;" width="7.938" height="1.507"/>
<circle style="fill:#FFFFFF;" cx="23.746" cy="18.62" r="0.753"/>
<circle style="fill:#FFFFFF;" cx="26.566" cy="18.62" r="0.753"/>
<path style="fill:#E0464B;" d="M10.012,22.142c0,0-0.155,0.525-0.244,1.271c-0.044,0.372-0.07,0.798-0.006,1.214
	c0.029,0.206,0.089,0.409,0.172,0.597c0.073,0.189,0.19,0.363,0.335,0.513c0.218,0.265,0.318,0.439,0.482,0.658
	c0.156,0.197,0.232,0.602,0.317,0.877c0.032,0.291,0.008,0.566-0.02,0.815c-0.068,0.241-0.119,0.474-0.212,0.662
	c-0.375,0.771-0.825,1.095-0.825,1.095s0.042-0.127,0.112-0.348c0.076-0.216,0.138-0.536,0.193-0.898
	c0.029-0.18,0.01-0.374,0.032-0.57c-0.024-0.192-0.057-0.397-0.093-0.585c-0.105-0.169-0.081-0.299-0.238-0.509
	c-0.149-0.187-0.337-0.447-0.457-0.578c-0.203-0.235-0.373-0.512-0.472-0.803c-0.119-0.286-0.142-0.59-0.151-0.865
	c-0.005-0.561,0.143-1.044,0.313-1.421C9.604,22.51,10.012,22.142,10.012,22.142z"/>
<path style="fill:#E0464B;" d="M15.027,22.142c0,0-0.157,0.525-0.245,1.271c-0.044,0.372-0.071,0.798-0.005,1.214
	c0.029,0.208,0.088,0.412,0.171,0.598c0.074,0.191,0.191,0.363,0.336,0.513c0.218,0.265,0.318,0.439,0.482,0.66
	c0.156,0.195,0.232,0.6,0.317,0.875c0.032,0.291,0.008,0.566-0.02,0.816c-0.068,0.242-0.119,0.474-0.213,0.663
	c-0.372,0.769-0.824,1.089-0.824,1.089s0.041-0.126,0.112-0.346c0.076-0.217,0.137-0.537,0.193-0.897
	c0.029-0.181,0.01-0.377,0.032-0.572c-0.025-0.191-0.057-0.397-0.091-0.583c-0.105-0.17-0.083-0.3-0.24-0.511
	c-0.149-0.186-0.335-0.446-0.458-0.576c-0.203-0.236-0.372-0.513-0.472-0.803c-0.118-0.288-0.143-0.591-0.152-0.866
	c-0.005-0.561,0.145-1.044,0.313-1.423C14.618,22.51,15.027,22.142,15.027,22.142z"/>
<path style="fill:#E0464B;" d="M19.986,22.142c0,0-0.154,0.525-0.245,1.271c-0.044,0.372-0.068,0.798-0.005,1.214
	c0.029,0.208,0.089,0.412,0.174,0.598c0.073,0.191,0.188,0.363,0.333,0.513c0.221,0.265,0.321,0.439,0.484,0.66
	c0.157,0.195,0.233,0.6,0.318,0.875c0.032,0.291,0.008,0.566-0.02,0.816c-0.068,0.242-0.122,0.474-0.215,0.663
	c-0.372,0.769-0.823,1.089-0.823,1.089s0.042-0.126,0.113-0.346c0.075-0.217,0.135-0.537,0.193-0.897
	c0.026-0.181,0.01-0.377,0.031-0.572c-0.026-0.191-0.059-0.397-0.09-0.583c-0.105-0.17-0.084-0.3-0.24-0.511
	c-0.149-0.186-0.335-0.446-0.458-0.576c-0.203-0.236-0.372-0.513-0.472-0.803c-0.118-0.288-0.143-0.591-0.152-0.866
	c-0.005-0.561,0.145-1.044,0.313-1.423C19.58,22.51,19.986,22.142,19.986,22.142z"/>
</svg>
