<?xml version="1.0" encoding="utf-8"?>
<!-- Generator: Adobe Illustrator 16.0.0, SVG Export Plug-In . SVG Version: 6.00 Build 0)  -->
<!DOCTYPE svg PUBLIC "-//W3C//DTD SVG 1.1//EN" "http://www.w3.org/Graphics/SVG/1.1/DTD/svg11.dtd">
<svg version="1.1" id="Outline_Icons" xmlns="http://www.w3.org/2000/svg" xmlns:xlink="http://www.w3.org/1999/xlink" x="0px"
	 y="0px" width="24px" height="24px" viewBox="0 0 24 24" enable-background="new 0 0 24 24" xml:space="preserve">
<path d="M23.03,16.553L12.364,11.22c0.066-0.183,0.18-0.349,0.303-0.401c1.221-0.519,2.14-2.067,2.14-2.818c0-1.654-1.346-3-3-3
	s-3,1.346-3,3c0,0.276,0.224,0.5,0.5,0.5s0.5-0.224,0.5-0.5c0-1.103,0.897-2,2-2s2,0.897,2,2c0,0.302-0.635,1.518-1.53,1.898
	c-0.516,0.219-0.824,0.762-0.924,1.27L0.521,16.59c-0.453,0.314-0.632,0.884-0.454,1.448C0.247,18.613,0.745,19,1.307,19h21
	c0.561,0,1.059-0.387,1.239-0.961C23.723,17.475,23.545,16.905,23.03,16.553z M22.592,17.739C22.562,17.836,22.467,18,22.307,18h-21
	c-0.161,0-0.255-0.164-0.285-0.261c-0.018-0.054-0.062-0.236,0.009-0.292l10.776-5.389l10.714,5.352
	C22.653,17.503,22.608,17.686,22.592,17.739z"/>
</svg>
