<?xml version="1.0" encoding="utf-8"?>
<!-- Generator: Adobe Illustrator 16.0.0, SVG Export Plug-In . SVG Version: 6.00 Build 0)  -->
<!DOCTYPE svg PUBLIC "-//W3C//DTD SVG 1.1//EN" "http://www.w3.org/Graphics/SVG/1.1/DTD/svg11.dtd">
<svg version="1.1" id="Outline_Icons" xmlns="http://www.w3.org/2000/svg" xmlns:xlink="http://www.w3.org/1999/xlink" x="0px"
	 y="0px" width="24px" height="24px" viewBox="0 0 24 24" enable-background="new 0 0 24 24" xml:space="preserve">
<g>
	<path d="M10.178,19.724c0.096,0.096,0.223,0.146,0.354,0.146c0.061,0,0.123-0.011,0.181-0.034l8.941-3.481
		c0.656-0.165,1.134-0.628,1.312-1.271c0.198-0.718-0.024-1.511-0.58-2.067l-1.142-1.142l1.306-1.152
		c0.206-0.182,0.227-0.495,0.047-0.703L18.51,7.615c0.348-0.068,0.675-0.227,0.948-0.468l3.853-3.5
		c0.402-0.354,0.641-0.843,0.674-1.375c0.034-0.524-0.147-1.053-0.496-1.448c-0.701-0.794-2.02-0.884-2.827-0.172l-3.856,3.501
		c-0.395,0.349-0.639,0.85-0.671,1.373C16.1,6.053,16.281,6.58,16.629,6.976c0.003,0.003,0.006,0.005,0.009,0.008
		c0,0.001,0,0.001,0,0.001l2.878,3.316l-0.981,0.866l-1.65-1.65c-0.41-0.41-0.968-0.645-1.531-0.645
		c-0.877,0-1.586,0.538-1.789,1.316l-3.5,9C9.993,19.374,10.038,19.583,10.178,19.724z M17.473,4.897l3.855-3.5
		c0.183-0.161,0.417-0.25,0.661-0.25c0.287,0,0.56,0.123,0.75,0.339c0.174,0.197,0.265,0.461,0.248,0.724
		c-0.017,0.267-0.136,0.51-0.342,0.691L18.79,6.402c-0.183,0.162-0.417,0.251-0.66,0.251c-0.287,0-0.561-0.124-0.751-0.34
		c-0.174-0.197-0.264-0.46-0.247-0.725C17.148,5.327,17.271,5.076,17.473,4.897z M14.515,10.498
		c0.154-0.581,0.681-0.626,0.839-0.626c0.3,0,0.6,0.128,0.824,0.352l1.605,1.606l-1.645,1.451c-0.208,0.183-0.227,0.499-0.044,0.706
		c0.099,0.111,0.237,0.169,0.375,0.169c0.118,0,0.236-0.041,0.331-0.125l1.692-1.493l1.186,1.186
		c0.298,0.298,0.425,0.728,0.324,1.095c-0.046,0.167-0.185,0.465-0.651,0.586l-7.941,3.088L14.515,10.498z"/>
	<path d="M23.5,18h-4.984v1H23v4h-6v-4h-1v4H9v-4.5C9,18.224,8.776,18,8.5,18H5v-4h5v-1H9V9h2.5H13V8h-1V3.5
		C12,3.224,11.776,3,11.5,3h-11C0.224,3,0,3.224,0,3.5v5v5V14v4.5V19v4.5C0,23.776,0.224,24,0.5,24h23c0.276,0,0.5-0.224,0.5-0.5v-5
		C24,18.224,23.776,18,23.5,18z M8,13H1V9h7V13z M11,8H5V4h6V8z M1,4h3v4H1V4z M4,14v4H1v-4H4z M8,23H1v-4h7V23z"/>
</g>
</svg>
