<?xml version="1.0" encoding="utf-8"?>
<!-- Generator: Adobe Illustrator 16.0.0, SVG Export Plug-In . SVG Version: 6.00 Build 0)  -->
<!DOCTYPE svg PUBLIC "-//W3C//DTD SVG 1.1//EN" "http://www.w3.org/Graphics/SVG/1.1/DTD/svg11.dtd">
<svg version="1.1" id="Outline_Icons" xmlns="http://www.w3.org/2000/svg" xmlns:xlink="http://www.w3.org/1999/xlink" x="0px"
	 y="0px" width="24px" height="24px" viewBox="0 0 24 24" enable-background="new 0 0 24 24" xml:space="preserve">
<g>
	<path d="M21.5,7h-19C1.122,7,0,8.122,0,9.5v6C0,16.878,1.122,18,2.5,18H5v4.5C5,22.776,5.224,23,5.5,23h13
		c0.276,0,0.5-0.224,0.5-0.5V18h2.5c1.378,0,2.5-1.122,2.5-2.5v-6C24,8.122,22.878,7,21.5,7z M18,22H6v-7h12V22z M23,15.5
		c0,0.827-0.673,1.5-1.5,1.5H19v-2.5c0-0.276-0.224-0.5-0.5-0.5h-13C5.224,14,5,14.224,5,14.5V17H2.5C1.673,17,1,16.327,1,15.5v-6
		C1,8.673,1.673,8,2.5,8h19C22.327,8,23,8.673,23,9.5V15.5z"/>
	<path d="M5.5,6C5.776,6,6,5.776,6,5.5V2h9v2.5C15,4.776,15.224,5,15.5,5H18v0.5C18,5.776,18.224,6,18.5,6S19,5.776,19,5.5v-1
		c0-0.067-0.014-0.132-0.039-0.192c-0.025-0.061-0.062-0.116-0.108-0.162l-2.999-2.999c-0.046-0.045-0.101-0.083-0.162-0.107
		C15.632,1.014,15.567,1,15.5,1h-10C5.224,1,5,1.224,5,1.5v4C5,5.776,5.224,6,5.5,6z M16,2.707L17.293,4H16V2.707z"/>
	<path d="M3.5,9C2.673,9,2,9.673,2,10.5S2.673,12,3.5,12S5,11.327,5,10.5S4.327,9,3.5,9z M3.5,11C3.224,11,3,10.776,3,10.5
		C3,10.224,3.224,10,3.5,10S4,10.224,4,10.5C4,10.776,3.776,11,3.5,11z"/>
	<path d="M16.5,16h-9C7.224,16,7,16.224,7,16.5S7.224,17,7.5,17h9c0.276,0,0.5-0.224,0.5-0.5S16.776,16,16.5,16z"/>
	<path d="M16.5,18h-9C7.224,18,7,18.224,7,18.5S7.224,19,7.5,19h9c0.276,0,0.5-0.224,0.5-0.5S16.776,18,16.5,18z"/>
	<path d="M16.5,20h-9C7.224,20,7,20.224,7,20.5S7.224,21,7.5,21h9c0.276,0,0.5-0.224,0.5-0.5S16.776,20,16.5,20z"/>
</g>
</svg>
