<?xml version="1.0" encoding="utf-8"?>
<!-- Generator: Adobe Illustrator 16.0.0, SVG Export Plug-In . SVG Version: 6.00 Build 0)  -->
<!DOCTYPE svg PUBLIC "-//W3C//DTD SVG 1.1//EN" "http://www.w3.org/Graphics/SVG/1.1/DTD/svg11.dtd">
<svg version="1.1" id="Outline_Icons" xmlns="http://www.w3.org/2000/svg" xmlns:xlink="http://www.w3.org/1999/xlink" x="0px"
	 y="0px" width="24px" height="24px" viewBox="0 0 24 24" enable-background="new 0 0 24 24" xml:space="preserve">
<path d="M23.854,23.146l-9.009-9.009C16.181,12.635,17,10.664,17,8.5C17,3.813,13.187,0,8.5,0S0,3.813,0,8.5
	C0,13.187,3.813,17,8.5,17c2.164,0,4.135-0.819,5.637-2.156l9.009,9.009C23.244,23.951,23.372,24,23.5,24s0.256-0.049,0.354-0.146
	C24.049,23.659,24.049,23.342,23.854,23.146z M1,8.5C1,4.365,4.364,1,8.5,1S16,4.365,16,8.5c0,4.136-3.364,7.5-7.5,7.5
	S1,12.636,1,8.5z"/>
</svg>
