<?xml version="1.0" encoding="utf-8"?>
<!-- Generator: Adobe Illustrator 16.0.0, SVG Export Plug-In . SVG Version: 6.00 Build 0)  -->
<!DOCTYPE svg PUBLIC "-//W3C//DTD SVG 1.1//EN" "http://www.w3.org/Graphics/SVG/1.1/DTD/svg11.dtd">
<svg version="1.1" id="Outline_Icons" xmlns="http://www.w3.org/2000/svg" xmlns:xlink="http://www.w3.org/1999/xlink" x="0px"
	 y="0px" width="24px" height="24px" viewBox="0 0 24 24" enable-background="new 0 0 24 24" xml:space="preserve">
<path d="M23.952,0.287C23.87,0.112,23.693,0,23.5,0h-23C0.307,0,0.13,0.112,0.048,0.287c-0.083,0.175-0.057,0.382,0.066,0.532
	L10,12.771V23.5c0,0.202,0.122,0.385,0.309,0.462C10.37,23.988,10.436,24,10.5,24c0.13,0,0.258-0.051,0.354-0.146l3-3
	C13.947,20.76,14,20.633,14,20.5v-7.729l9.886-11.952C24.009,0.669,24.035,0.462,23.952,0.287z M13.114,12.271
	C13.041,12.361,13,12.474,13,12.59v7.703l-2,2V12.59c0-0.116-0.041-0.229-0.114-0.319L1.562,1h20.875L13.114,12.271z"/>
</svg>
