<?xml version="1.0" encoding="utf-8"?>
<!-- Generator: Adobe Illustrator 16.0.0, SVG Export Plug-In . SVG Version: 6.00 Build 0)  -->
<!DOCTYPE svg PUBLIC "-//W3C//DTD SVG 1.1//EN" "http://www.w3.org/Graphics/SVG/1.1/DTD/svg11.dtd">
<svg version="1.1" id="Outline_Icons" xmlns="http://www.w3.org/2000/svg" xmlns:xlink="http://www.w3.org/1999/xlink" x="0px"
	 y="0px" width="24px" height="24px" viewBox="0 0 24 24" enable-background="new 0 0 24 24" xml:space="preserve">
<path d="M20.5,4H20V0.5C20,0.224,19.776,0,19.5,0h-14C4.121,0,3,1.122,3,2.5v19C3,22.878,4.121,24,5.5,24h15
	c0.276,0,0.5-0.224,0.5-0.5v-19C21,4.224,20.776,4,20.5,4z M5.5,1H19v3h-1V3.5C18,3.224,17.776,3,17.5,3h-6
	C11.224,3,11,3.224,11,3.5V4H5.5C4.673,4,4,3.327,4,2.5S4.673,1,5.5,1z M12,4h5v10.293l-2.146-2.146
	C14.756,12.049,14.628,12,14.5,12s-0.256,0.049-0.354,0.146L12,14.293V4z M20,23H5.5C4.673,23,4,22.327,4,21.5V4.487
	C4.419,4.805,4.935,5,5.5,5H11v10.5c0,0.202,0.122,0.385,0.309,0.462c0.186,0.078,0.401,0.035,0.545-0.108l2.646-2.646l2.646,2.646
	C17.242,15.949,17.37,16,17.5,16c0.064,0,0.13-0.012,0.191-0.038C17.878,15.885,18,15.702,18,15.5V5h2V23z"/>
</svg>
