<?xml version="1.0" encoding="utf-8"?>
<!-- Generator: Adobe Illustrator 16.0.0, SVG Export Plug-In . SVG Version: 6.00 Build 0)  -->
<!DOCTYPE svg PUBLIC "-//W3C//DTD SVG 1.1//EN" "http://www.w3.org/Graphics/SVG/1.1/DTD/svg11.dtd">
<svg version="1.1" id="Filled_Icons" xmlns="http://www.w3.org/2000/svg" xmlns:xlink="http://www.w3.org/1999/xlink" x="0px"
	 y="0px" width="24px" height="24px" viewBox="0 0 24 24" enable-background="new 0 0 24 24" xml:space="preserve">
<path d="M20.5,4H20V0.5C20,0.224,19.776,0,19.5,0h-14C4.121,0,3,1.122,3,2.5v19C3,22.878,4.121,24,5.5,24h15
	c0.276,0,0.5-0.224,0.5-0.5v-19C21,4.224,20.776,4,20.5,4z M17,14.293l-2.5-2.5l-2.5,2.5V4h5V14.293z M19,4h-1V3h-7v1H5.5
	C4.673,4,4,3.327,4,2.5S4.673,1,5.5,1H19V4z"/>
</svg>
