<?xml version="1.0" encoding="utf-8"?>
<!-- Generator: Adobe Illustrator 16.0.0, SVG Export Plug-In . SVG Version: 6.00 Build 0)  -->
<!DOCTYPE svg PUBLIC "-//W3C//DTD SVG 1.1//EN" "http://www.w3.org/Graphics/SVG/1.1/DTD/svg11.dtd">
<svg version="1.1" id="Outline_Icons" xmlns="http://www.w3.org/2000/svg" xmlns:xlink="http://www.w3.org/1999/xlink" x="0px"
	 y="0px" width="24px" height="24px" viewBox="0 0 24 24" enable-background="new 0 0 24 24" xml:space="preserve">
<g>
	<path d="M14.5,0h-6C8.224,0,8,0.224,8,0.5v6C8,6.776,8.224,7,8.5,7h6C14.776,7,15,6.776,15,6.5v-6C15,0.224,14.776,0,14.5,0z M14,6
		H9V1h5V6z"/>
	<path d="M6.5,0h-6C0.224,0,0,0.224,0,0.5v6C0,6.776,0.224,7,0.5,7h6C6.776,7,7,6.776,7,6.5v-6C7,0.224,6.776,0,6.5,0z M6,6H1V1h5V6
		z"/>
	<path d="M22.5,0h-6C16.224,0,16,0.224,16,0.5v6C16,6.776,16.224,7,16.5,7h6C22.776,7,23,6.776,23,6.5v-6C23,0.224,22.776,0,22.5,0z
		 M22,6h-5V1h5V6z"/>
	<path d="M14.5,8h-6C8.224,8,8,8.224,8,8.5v6C8,14.776,8.224,15,8.5,15h6c0.276,0,0.5-0.224,0.5-0.5v-6C15,8.224,14.776,8,14.5,8z
		 M14,14H9V9h5V14z"/>
	<path d="M6.5,8h-6C0.224,8,0,8.224,0,8.5v6C0,14.776,0.224,15,0.5,15h6C6.776,15,7,14.776,7,14.5v-6C7,8.224,6.776,8,6.5,8z M6,14
		H1V9h5V14z"/>
	<path d="M22.5,8h-6C16.224,8,16,8.224,16,8.5v6c0,0.276,0.224,0.5,0.5,0.5h6c0.276,0,0.5-0.224,0.5-0.5v-6
		C23,8.224,22.776,8,22.5,8z M22,14h-5V9h5V14z"/>
	<path d="M14.5,16h-6C8.224,16,8,16.224,8,16.5v6C8,22.776,8.224,23,8.5,23h6c0.276,0,0.5-0.224,0.5-0.5v-6
		C15,16.224,14.776,16,14.5,16z M14,22H9v-5h5V22z"/>
	<path d="M6.5,16h-6C0.224,16,0,16.224,0,16.5v6C0,22.776,0.224,23,0.5,23h6C6.776,23,7,22.776,7,22.5v-6C7,16.224,6.776,16,6.5,16z
		 M6,22H1v-5h5V22z"/>
	<path d="M22.5,16h-6c-0.276,0-0.5,0.224-0.5,0.5v6c0,0.276,0.224,0.5,0.5,0.5h6c0.276,0,0.5-0.224,0.5-0.5v-6
		C23,16.224,22.776,16,22.5,16z M22,22h-5v-5h5V22z"/>
</g>
</svg>
