<?xml version="1.0" encoding="utf-8"?>
<!-- Generator: Adobe Illustrator 16.0.0, SVG Export Plug-In . SVG Version: 6.00 Build 0)  -->
<!DOCTYPE svg PUBLIC "-//W3C//DTD SVG 1.1//EN" "http://www.w3.org/Graphics/SVG/1.1/DTD/svg11.dtd">
<svg version="1.1" id="Outline_Icons" xmlns="http://www.w3.org/2000/svg" xmlns:xlink="http://www.w3.org/1999/xlink" x="0px"
	 y="0px" width="24px" height="24px" viewBox="0 0 24 24" enable-background="new 0 0 24 24" xml:space="preserve">
<g>
	<path d="M3.5,2h-1C2.224,2,2,2.224,2,2.5v1C2,3.776,2.224,4,2.5,4S3,3.776,3,3.5V3h0.5C3.776,3,4,2.776,4,2.5S3.776,2,3.5,2z"/>
	<path d="M21.5,2h-1C20.224,2,20,2.224,20,2.5S20.224,3,20.5,3H21v0.5C21,3.776,21.224,4,21.5,4S22,3.776,22,3.5v-1
		C22,2.224,21.776,2,21.5,2z"/>
	<path d="M2.5,7C2.776,7,3,6.776,3,6.5v-1C3,5.224,2.776,5,2.5,5S2,5.224,2,5.5v1C2,6.776,2.224,7,2.5,7z"/>
	<path d="M5.5,3h1C6.776,3,7,2.776,7,2.5S6.776,2,6.5,2h-1C5.224,2,5,2.224,5,2.5S5.224,3,5.5,3z"/>
	<path d="M6.5,21h-1C5.224,21,5,21.224,5,21.5S5.224,22,5.5,22h1C6.776,22,7,21.776,7,21.5S6.776,21,6.5,21z"/>
	<path d="M8.5,3h1C9.776,3,10,2.776,10,2.5S9.776,2,9.5,2h-1C8.224,2,8,2.224,8,2.5S8.224,3,8.5,3z"/>
	<path d="M11.5,3h1C12.776,3,13,2.776,13,2.5S12.776,2,12.5,2h-1C11.224,2,11,2.224,11,2.5S11.224,3,11.5,3z"/>
	<path d="M14.5,3h1C15.776,3,16,2.776,16,2.5S15.776,2,15.5,2h-1C14.224,2,14,2.224,14,2.5S14.224,3,14.5,3z"/>
	<path d="M18.5,2h-1C17.224,2,17,2.224,17,2.5S17.224,3,17.5,3h1C18.776,3,19,2.776,19,2.5S18.776,2,18.5,2z"/>
	<path d="M9.5,21h-1C8.224,21,8,21.224,8,21.5S8.224,22,8.5,22h1c0.276,0,0.5-0.224,0.5-0.5S9.776,21,9.5,21z"/>
	<path d="M12.5,21h-1c-0.276,0-0.5,0.224-0.5,0.5s0.224,0.5,0.5,0.5h1c0.276,0,0.5-0.224,0.5-0.5S12.776,21,12.5,21z"/>
	<path d="M15.5,21h-1c-0.276,0-0.5,0.224-0.5,0.5s0.224,0.5,0.5,0.5h1c0.276,0,0.5-0.224,0.5-0.5S15.776,21,15.5,21z"/>
	<path d="M18.5,21h-1c-0.276,0-0.5,0.224-0.5,0.5s0.224,0.5,0.5,0.5h1c0.276,0,0.5-0.224,0.5-0.5S18.776,21,18.5,21z"/>
	<path d="M21.5,20c-0.276,0-0.5,0.224-0.5,0.5V21h-0.5c-0.276,0-0.5,0.224-0.5,0.5s0.224,0.5,0.5,0.5h1c0.276,0,0.5-0.224,0.5-0.5
		v-1C22,20.224,21.776,20,21.5,20z"/>
	<path d="M21.5,17c-0.276,0-0.5,0.224-0.5,0.5v1c0,0.276,0.224,0.5,0.5,0.5s0.5-0.224,0.5-0.5v-1C22,17.224,21.776,17,21.5,17z"/>
	<path d="M3.5,21H3v-0.5C3,20.224,2.776,20,2.5,20S2,20.224,2,20.5v1C2,21.776,2.224,22,2.5,22h1C3.776,22,4,21.776,4,21.5
		S3.776,21,3.5,21z"/>
	<path d="M2.5,19C2.776,19,3,18.776,3,18.5v-1C3,17.224,2.776,17,2.5,17S2,17.224,2,17.5v1C2,18.776,2.224,19,2.5,19z"/>
	<path d="M21.5,14c-0.276,0-0.5,0.224-0.5,0.5v1c0,0.276,0.224,0.5,0.5,0.5s0.5-0.224,0.5-0.5v-1C22,14.224,21.776,14,21.5,14z"/>
	<path d="M21.5,11c-0.276,0-0.5,0.224-0.5,0.5v1c0,0.276,0.224,0.5,0.5,0.5s0.5-0.224,0.5-0.5v-1C22,11.224,21.776,11,21.5,11z"/>
	<path d="M21.5,8C21.224,8,21,8.224,21,8.5v1c0,0.276,0.224,0.5,0.5,0.5S22,9.776,22,9.5v-1C22,8.224,21.776,8,21.5,8z"/>
	<path d="M2.5,16C2.776,16,3,15.776,3,15.5v-1C3,14.224,2.776,14,2.5,14S2,14.224,2,14.5v1C2,15.776,2.224,16,2.5,16z"/>
	<path d="M2.5,13C2.776,13,3,12.776,3,12.5v-1C3,11.224,2.776,11,2.5,11S2,11.224,2,11.5v1C2,12.776,2.224,13,2.5,13z"/>
	<path d="M2.5,10C2.776,10,3,9.776,3,9.5v-1C3,8.224,2.776,8,2.5,8S2,8.224,2,8.5v1C2,9.776,2.224,10,2.5,10z"/>
	<path d="M21.5,5C21.224,5,21,5.224,21,5.5v1C21,6.776,21.224,7,21.5,7S22,6.776,22,6.5v-1C22,5.224,21.776,5,21.5,5z"/>
	<path d="M6,6.5v11C6,17.776,6.224,18,6.5,18h11c0.276,0,0.5-0.224,0.5-0.5v-11C18,6.224,17.776,6,17.5,6h-11C6.224,6,6,6.224,6,6.5
		z M7,7h10v10H7V7z"/>
</g>
</svg>
