<?xml version="1.0" encoding="utf-8"?>
<!-- Generator: Adobe Illustrator 16.0.0, SVG Export Plug-In . SVG Version: 6.00 Build 0)  -->
<!DOCTYPE svg PUBLIC "-//W3C//DTD SVG 1.1//EN" "http://www.w3.org/Graphics/SVG/1.1/DTD/svg11.dtd">
<svg version="1.1" id="Outline_Icons" xmlns="http://www.w3.org/2000/svg" xmlns:xlink="http://www.w3.org/1999/xlink" x="0px"
	 y="0px" width="24px" height="24px" viewBox="0 0 24 24" enable-background="new 0 0 24 24" xml:space="preserve">
<g>
	<path d="M5.5,4C5.776,4,6,3.776,6,3.5v-3C6,0.224,5.776,0,5.5,0S5,0.224,5,0.5v3C5,3.776,5.224,4,5.5,4z"/>
	<path d="M3.5,5h-3C0.224,5,0,5.224,0,5.5S0.224,6,0.5,6h3C3.776,6,4,5.776,4,5.5S3.776,5,3.5,5z"/>
	<path d="M3.5,18h-3C0.224,18,0,18.224,0,18.5S0.224,19,0.5,19h3C3.776,19,4,18.776,4,18.5S3.776,18,3.5,18z"/>
	<path d="M18.5,0C18.224,0,18,0.224,18,0.5v3C18,3.776,18.224,4,18.5,4S19,3.776,19,3.5v-3C19,0.224,18.776,0,18.5,0z"/>
	<path d="M5.5,20C5.224,20,5,20.224,5,20.5v3C5,23.776,5.224,24,5.5,24S6,23.776,6,23.5v-3C6,20.224,5.776,20,5.5,20z"/>
	<path d="M18.5,20c-0.276,0-0.5,0.224-0.5,0.5v3c0,0.276,0.224,0.5,0.5,0.5s0.5-0.224,0.5-0.5v-3C19,20.224,18.776,20,18.5,20z"/>
	<path d="M20.5,6h3C23.776,6,24,5.776,24,5.5S23.776,5,23.5,5h-3C20.224,5,20,5.224,20,5.5S20.224,6,20.5,6z"/>
	<path d="M23.5,18h-3c-0.276,0-0.5,0.224-0.5,0.5s0.224,0.5,0.5,0.5h3c0.276,0,0.5-0.224,0.5-0.5S23.776,18,23.5,18z"/>
	<path d="M18.5,5h-13C5.224,5,5,5.224,5,5.5v13C5,18.776,5.224,19,5.5,19h13c0.276,0,0.5-0.224,0.5-0.5v-13
		C19,5.224,18.776,5,18.5,5z M18,18H6V6h12V18z"/>
</g>
</svg>
