<?xml version="1.0" encoding="utf-8"?>
<!-- Generator: Adobe Illustrator 16.0.0, SVG Export Plug-In . SVG Version: 6.00 Build 0)  -->
<!DOCTYPE svg PUBLIC "-//W3C//DTD SVG 1.1//EN" "http://www.w3.org/Graphics/SVG/1.1/DTD/svg11.dtd">
<svg version="1.1" id="Outline_Icons" xmlns="http://www.w3.org/2000/svg" xmlns:xlink="http://www.w3.org/1999/xlink" x="0px"
	 y="0px" width="24px" height="24px" viewBox="0 0 24 24" enable-background="new 0 0 24 24" xml:space="preserve">
<g>
	<circle cx="21.5" cy="2.5" r="0.5"/>
	<circle cx="19.5" cy="2.5" r="0.5"/>
	<circle cx="17.5" cy="2.5" r="0.5"/>
	<circle cx="15.5" cy="2.5" r="0.5"/>
	<circle cx="21.5" cy="22.5" r="0.5"/>
	<circle cx="19.5" cy="22.5" r="0.5"/>
	<circle cx="17.5" cy="22.5" r="0.5"/>
	<circle cx="15.5" cy="22.5" r="0.5"/>
	<circle cx="13.5" cy="2.5" r="0.5"/>
	<circle cx="13.5" cy="22.5" r="0.5"/>
	<circle cx="23.5" cy="2.5" r="0.5"/>
	<circle cx="23.5" cy="4.5" r="0.5"/>
	<circle cx="23.5" cy="6.5" r="0.5"/>
	<circle cx="23.5" cy="8.5" r="0.5"/>
	<circle cx="23.5" cy="10.5" r="0.5"/>
	<circle cx="23.5" cy="12.5" r="0.5"/>
	<circle cx="23.5" cy="14.5" r="0.5"/>
	<circle cx="23.5" cy="16.5" r="0.5"/>
	<circle cx="23.5" cy="18.5" r="0.5"/>
	<circle cx="23.5" cy="20.5" r="0.5"/>
	<circle cx="23.5" cy="22.5" r="0.5"/>
	<path d="M9.5,22H1V3h8.5C9.776,3,10,2.776,10,2.5S9.776,2,9.5,2h-9C0.224,2,0,2.224,0,2.5v20C0,22.776,0.224,23,0.5,23h9
		c0.276,0,0.5-0.224,0.5-0.5S9.776,22,9.5,22z"/>
	<path d="M11.5,13c-0.276,0-0.5,0.224-0.5,0.5v10c0,0.276,0.224,0.5,0.5,0.5s0.5-0.224,0.5-0.5v-10C12,13.224,11.776,13,11.5,13z"/>
	<path d="M11.5,8C11.776,8,12,7.776,12,7.5v-7C12,0.224,11.776,0,11.5,0S11,0.224,11,0.5v7C11,7.776,11.224,8,11.5,8z"/>
	<path d="M18.605,12.925c-0.001-0.01,0.001-0.018-0.001-0.027l-0.96-3.984c-0.064-0.269-0.334-0.433-0.603-0.369
		c-0.269,0.065-0.434,0.334-0.369,0.603l0.63,2.613C15.59,10.624,13.579,10,11.5,10c-2.537,0-4.986,0.917-6.896,2.582
		c-0.208,0.181-0.23,0.497-0.048,0.705c0.182,0.208,0.498,0.229,0.706,0.048C6.989,11.829,9.205,11,11.5,11
		c1.99,0,3.915,0.626,5.519,1.771l-3.014,0.743c-0.268,0.067-0.432,0.337-0.366,0.605c0.056,0.228,0.26,0.38,0.485,0.38
		c0.04,0,0.08-0.004,0.12-0.014l3.994-0.985c0.104-0.026,0.186-0.088,0.251-0.164c0.001-0.001,0.002-0.001,0.003-0.002
		s0.001-0.002,0.002-0.003c0.036-0.043,0.064-0.091,0.083-0.145c0.006-0.015,0.013-0.029,0.017-0.044
		c0.01-0.035,0.013-0.071,0.015-0.108C18.611,12.996,18.611,12.962,18.605,12.925z"/>
</g>
</svg>
