<?xml version="1.0" encoding="utf-8"?>
<!-- Generator: Adobe Illustrator 16.0.0, SVG Export Plug-In . SVG Version: 6.00 Build 0)  -->
<!DOCTYPE svg PUBLIC "-//W3C//DTD SVG 1.1//EN" "http://www.w3.org/Graphics/SVG/1.1/DTD/svg11.dtd">
<svg version="1.1" id="Layer_2" xmlns="http://www.w3.org/2000/svg" xmlns:xlink="http://www.w3.org/1999/xlink" x="0px" y="0px"
	 width="24px" height="24px" viewBox="0 0 24 24" style="enable-background:new 0 0 24 24;" xml:space="preserve">
<g>
	<path style="fill:#FFFFFF;" d="M13.498,16.229H5.151c-0.241,0-0.438-0.195-0.438-0.438s0.196-0.438,0.438-0.438h8.347
		c0.242,0,0.438,0.195,0.438,0.438S13.74,16.229,13.498,16.229z"/>
</g>
<g>
	<polygon style="fill:#EAA001;" points="11.606,4.608 3.133,4.608 3.133,20.927 15.309,20.927 15.309,7.5 11.606,7.5 	"/>
	<g style="opacity:0.3;">
		<defs>
			<filter id="Adobe_OpacityMaskFilter" filterUnits="userSpaceOnUse" x="11.323" y="4.608" width="3.944" height="3.079">
				<feFlood  style="flood-color:white;flood-opacity:1" result="back"/>
				<feBlend  in="SourceGraphic" in2="back" mode="normal"/>
			</filter>
		</defs>
		<mask maskUnits="userSpaceOnUse" x="11.323" y="4.608" width="3.944" height="3.079" id="SVGID_2_">
			<g style="filter:url(#Adobe_OpacityMaskFilter);">
				<image style="overflow:visible;" width="9" height="8" xlink:href="A27BB7DC.jpg"  transform="matrix(1 0 0 1 8.5 2.5)">
				</image>
			</g>
		</mask>
		<g style="mask:url(#SVGID_2_);">
			<g>
				<defs>
					<filter id="Adobe_OpacityMaskFilter_1_" filterUnits="userSpaceOnUse" x="11.323" y="4.608" width="3.944" height="3.079">
						<feColorMatrix  type="matrix" values="1 0 0 0 0  0 1 0 0 0  0 0 1 0 0  0 0 0 1 0"/>
					</filter>
				</defs>
				<mask maskUnits="userSpaceOnUse" x="11.323" y="4.608" width="3.944" height="3.079" id="SVGID_9_">
					<g style="filter:url(#Adobe_OpacityMaskFilter_1_);">
						
							<image style="overflow:visible;enable-background:new    ;" width="9" height="8" xlink:href="A27BB7DA.jpg"  transform="matrix(1 0 0 1 8.5005 2.374)">
						</image>
					</g>
				</mask>
				<g style="mask:url(#SVGID_9_);">
					<g>
						<g>
							<polygon style="fill:#3A3A3A;" points="11.323,4.608 11.323,4.608 11.323,7.687 15.268,7.687 11.324,4.608 							"/>
						</g>
					</g>
				</g>
			</g>
		</g>
	</g>
	<g>
		<path style="fill:#FFFFFF;" d="M10.729,9.587H5.151c-0.241,0-0.438-0.196-0.438-0.438c0-0.242,0.196-0.438,0.438-0.438h5.578
			c0.242,0,0.438,0.196,0.438,0.438C11.167,9.391,10.971,9.587,10.729,9.587z"/>
	</g>
	<g>
		<path style="fill:#FFFFFF;" d="M13.498,11.833H5.151c-0.241,0-0.438-0.196-0.438-0.438s0.196-0.438,0.438-0.438h8.347
			c0.242,0,0.438,0.196,0.438,0.438S13.74,11.833,13.498,11.833z"/>
	</g>
	<g>
		<path style="fill:#FFFFFF;" d="M13.498,14.08H5.151c-0.241,0-0.438-0.196-0.438-0.438c0-0.242,0.196-0.438,0.438-0.438h8.347
			c0.242,0,0.438,0.194,0.438,0.438C13.936,13.884,13.74,14.08,13.498,14.08z"/>
	</g>
	<polygon style="fill:#0F8EA1;" points="11.606,4.608 11.606,4.608 11.606,7.5 15.309,7.5 	"/>
</g>
<g>
	<g>
		
			<image style="overflow:visible;opacity:0.26;enable-background:new    ;" width="19" height="23" xlink:href="A27BB7D9.png"  transform="matrix(1 0 0 1 2.5005 0.5)">
		</image>
		<g>
			<polygon style="fill:#E0454B;" points="16.414,1.838 7.94,1.838 7.94,18.156 20.116,18.156 20.116,4.729 16.414,4.729 			"/>
		</g>
	</g>
	<g>
		<defs>
			<filter id="Adobe_OpacityMaskFilter_2_" filterUnits="userSpaceOnUse" x="16.131" y="1.963" width="3.944" height="3.079">
				<feFlood  style="flood-color:white;flood-opacity:1" result="back"/>
				<feBlend  in="SourceGraphic" in2="back" mode="normal"/>
			</filter>
		</defs>
		<mask maskUnits="userSpaceOnUse" x="16.131" y="1.963" width="3.944" height="3.079" id="SVGID_3_">
			<g style="filter:url(#Adobe_OpacityMaskFilter_2_);">
				<image style="overflow:visible;" width="9" height="8" xlink:href="A27BB7D0.jpg"  transform="matrix(1 0 0 1 13.5 -0.5)">
				</image>
			</g>
		</mask>
		<g style="mask:url(#SVGID_3_);">
			<g>
				<defs>
					<filter id="Adobe_OpacityMaskFilter_3_" filterUnits="userSpaceOnUse" x="16.131" y="1.963" width="3.944" height="3.079">
						<feColorMatrix  type="matrix" values="1 0 0 0 0  0 1 0 0 0  0 0 1 0 0  0 0 0 1 0"/>
					</filter>
				</defs>
				<mask maskUnits="userSpaceOnUse" x="16.131" y="1.963" width="3.944" height="3.079" id="SVGID_10_">
					<g style="filter:url(#Adobe_OpacityMaskFilter_3_);">
						
							<image style="overflow:visible;enable-background:new    ;" width="9" height="8" xlink:href="A27BB7D5.jpg"  transform="matrix(1 0 0 1 13.5 -0.5)">
						</image>
					</g>
				</mask>
				<g style="mask:url(#SVGID_10_);">
					<g>
						<g>
							<polygon style="fill:#3A3A3A;" points="16.131,1.963 16.131,1.964 16.131,5.042 20.075,5.042 16.133,1.964 							"/>
						</g>
					</g>
				</g>
			</g>
		</g>
	</g>
	<polygon style="fill:#0F8EA1;" points="16.414,1.838 16.414,1.838 16.414,4.729 20.116,4.729 	"/>
	<g>
		<path style="fill:#FFFFFF;" d="M9.959,6.816h5.578c0.242,0,0.438-0.196,0.438-0.438S15.779,5.94,15.537,5.94H9.959
			c-0.242,0-0.438,0.196-0.438,0.438S9.718,6.816,9.959,6.816z"/>
		<path style="fill:#FFFFFF;" d="M9.959,9.062h8.348c0.24,0,0.438-0.196,0.438-0.438c0-0.241-0.196-0.438-0.438-0.438H9.959
			c-0.242,0-0.438,0.196-0.438,0.438C9.522,8.866,9.718,9.062,9.959,9.062z"/>
		<path style="fill:#FFFFFF;" d="M18.307,10.434H9.959c-0.242,0-0.438,0.196-0.438,0.438s0.196,0.437,0.438,0.437h8.348
			c0.24,0,0.438-0.195,0.438-0.437S18.548,10.434,18.307,10.434z"/>
		<path style="fill:#FFFFFF;" d="M18.307,12.583H9.959c-0.242,0-0.438,0.194-0.438,0.438c0,0.24,0.196,0.438,0.438,0.438h8.348
			c0.24,0,0.438-0.195,0.438-0.438C18.744,12.777,18.548,12.583,18.307,12.583z"/>
	</g>
</g>
</svg>
