<?xml version="1.0" encoding="utf-8"?>
<!-- Generator: Adobe Illustrator 16.0.0, SVG Export Plug-In . SVG Version: 6.00 Build 0)  -->
<!DOCTYPE svg PUBLIC "-//W3C//DTD SVG 1.1//EN" "http://www.w3.org/Graphics/SVG/1.1/DTD/svg11.dtd">
<svg version="1.1" id="Outline_Icons" xmlns="http://www.w3.org/2000/svg" xmlns:xlink="http://www.w3.org/1999/xlink" x="0px"
	 y="0px" width="24px" height="24px" viewBox="0 0 24 24" enable-background="new 0 0 24 24" xml:space="preserve">
<g>
	<path d="M21.5,12c-0.665,0-1.283,0.179-1.835,0.467l0.765-4.979c0.289-1.876-0.255-3.778-1.491-5.219
		C17.702,0.827,15.904,0,14.005,0H9.992C8.094,0,6.296,0.827,5.059,2.268C3.822,3.71,3.279,5.612,3.568,7.487l0.767,4.979
		C3.783,12.179,3.165,12,2.5,12C1.121,12,0,13.122,0,14.5c0,1.015,0.604,1.92,1.539,2.31C1.819,16.925,2,17.197,2,17.5v2
		C2,21.43,3.57,23,5.5,23H6v0.5C6,23.776,6.224,24,6.5,24S7,23.776,7,23.5V23h10v0.5c0,0.276,0.224,0.5,0.5,0.5s0.5-0.224,0.5-0.5
		V23h0.5c1.93,0,3.5-1.57,3.5-3.5v-2c0-0.303,0.18-0.576,0.46-0.69c0.936-0.39,1.54-1.296,1.54-2.31C24,13.122,22.879,12,21.5,12z
		 M5.818,2.919C6.864,1.7,8.386,1,9.992,1h4.013c1.607,0,3.129,0.7,4.175,1.919s1.506,2.828,1.262,4.416l-0.926,6.03
		C17.892,14.07,17.5,14.986,17.5,16v0.73C16.614,16.414,14.901,16,12,16s-4.614,0.414-5.5,0.73V16c0-1.014-0.392-1.93-1.015-2.635
		l-0.929-6.03C4.313,5.749,4.771,4.139,5.818,2.919z M22.076,15.885C21.423,16.156,21,16.79,21,17.5v2c0,1.378-1.121,2.5-2.5,2.5
		h-13C4.121,22,3,20.878,3,19.5v-2c0-0.709-0.423-1.343-1.077-1.615C1.362,15.652,1,15.109,1,14.5C1,13.673,1.673,13,2.5,13
		c1.654,0,3,1.346,3,3v1.5c0,0.183,0.102,0.349,0.262,0.437c0.16,0.088,0.357,0.081,0.511-0.018C6.287,17.91,7.769,17,12,17
		s5.713,0.91,5.723,0.916c0.154,0.103,0.351,0.112,0.514,0.025c0.162-0.087,0.264-0.255,0.264-0.441V16c0-1.654,1.346-3,3-3
		c0.827,0,1.5,0.673,1.5,1.5C23,15.108,22.637,15.652,22.076,15.885z"/>
	<path d="M8.584,10.277C8.681,10.422,8.839,10.5,9,10.5c0.096,0,0.192-0.027,0.277-0.084l0.9-0.6C10.491,10.512,11.188,11,12,11
		s1.509-0.488,1.822-1.185l0.9,0.6C14.808,10.473,14.904,10.5,15,10.5c0.161,0,0.319-0.078,0.416-0.223
		c0.153-0.23,0.091-0.54-0.139-0.693L14.401,9l0.876-0.584c0.229-0.153,0.292-0.462,0.139-0.692
		c-0.154-0.231-0.467-0.292-0.693-0.139l-0.9,0.602C13.509,7.489,12.812,7,12,7s-1.509,0.489-1.822,1.186l-0.9-0.602
		C9.05,7.432,8.738,7.492,8.584,7.723c-0.153,0.23-0.091,0.54,0.139,0.692L9.599,9L8.723,9.584
		C8.493,9.737,8.431,10.047,8.584,10.277z M12,8c0.552,0,1,0.449,1,1s-0.448,1-1,1s-1-0.449-1-1S11.448,8,12,8z"/>
</g>
</svg>
