<?xml version="1.0" encoding="utf-8"?>
<!-- Generator: Adobe Illustrator 16.0.0, SVG Export Plug-In . SVG Version: 6.00 Build 0)  -->
<!DOCTYPE svg PUBLIC "-//W3C//DTD SVG 1.1//EN" "http://www.w3.org/Graphics/SVG/1.1/DTD/svg11.dtd">
<svg version="1.1" id="Outline_Icons" xmlns="http://www.w3.org/2000/svg" xmlns:xlink="http://www.w3.org/1999/xlink" x="0px"
	 y="0px" width="24px" height="24px" viewBox="0 0 24 24" enable-background="new 0 0 24 24" xml:space="preserve">
<path d="M22,13.5c0-2.481-2.019-4.5-4.5-4.5h-11C4.019,9,2,11.019,2,13.5c-1.103,0-2,0.897-2,2v4c0,1.207,0.86,2.217,2,2.449V23.5
	C2,23.776,2.224,24,2.5,24S3,23.776,3,23.5V22h18v1.5c0,0.276,0.224,0.5,0.5,0.5s0.5-0.224,0.5-0.5v-1.551
	c1.14-0.232,2-1.243,2-2.449v-4C24,14.397,23.103,13.5,22,13.5z M21,13.5v0.278c-0.595,0.346-1,0.985-1,1.722v1
	c0,0.276-0.225,0.5-0.5,0.5H12v-7h5.5C19.43,10,21,11.57,21,13.5z M3,13.5C3,11.57,4.57,10,6.5,10H11v7H4.5
	C4.225,17,4,16.776,4,16.5v-1c0-0.737-0.405-1.375-1-1.722V13.5z M23,19.5c0,0.827-0.673,1.5-1.5,1.5h-19C1.673,21,1,20.327,1,19.5
	v-4c0-0.551,0.448-1,1-1s1,0.449,1,1v1C3,17.327,3.673,18,4.5,18h15c0.827,0,1.5-0.673,1.5-1.5v-1c0-0.551,0.448-1,1-1s1,0.449,1,1
	V19.5z"/>
</svg>
