<?xml version="1.0" encoding="utf-8"?>
<!-- Generator: Adobe Illustrator 16.0.0, SVG Export Plug-In . SVG Version: 6.00 Build 0)  -->
<!DOCTYPE svg PUBLIC "-//W3C//DTD SVG 1.1//EN" "http://www.w3.org/Graphics/SVG/1.1/DTD/svg11.dtd">
<svg version="1.1" id="Outline_Icons" xmlns="http://www.w3.org/2000/svg" xmlns:xlink="http://www.w3.org/1999/xlink" x="0px"
	 y="0px" width="24px" height="24px" viewBox="0 0 24 24" style="enable-background:new 0 0 24 24;" xml:space="preserve">
<g>
	<polygon style="fill:#EAA001;" points="15,12 3,12 3,13 3.5,13 15,13 	"/>
	<path style="fill:#EAA001;" d="M4.007,14c0.131,2.229,1.984,4,4.243,4c0.146,0,0.284,0.063,0.379,0.174
		c0.095,0.11,0.137,0.256,0.116,0.4L8.081,23H17v-5.501c0-0.167,0.083-0.324,0.223-0.417L20,15.232V14h-4.5H4.007z"/>
	<path style="fill:none;" d="M4.007,14c0.131,2.229,1.984,4,4.243,4c0.146,0,0.284,0.063,0.379,0.174
		c0.095,0.11,0.137,0.256,0.116,0.4L8.081,23H17v-5.501c0-0.167,0.083-0.324,0.223-0.417L20,15.232V14h-4.5H4.007z"/>
	<polygon style="fill:none;" points="15,12 3,12 3,13 3.5,13 15,13 	"/>
	<path style="fill:#E0454B;" d="M19.5,0h-2C16.122,0,15,1.122,15,2.5V11H2.5C2.224,11,2,11.224,2,11.5v2C2,13.775,2.224,14,2.5,14
		h0.523c0.125,2.585,2.109,4.689,4.651,4.969l-0.669,4.457c-0.021,0.145,0.021,0.29,0.116,0.4C7.216,23.938,7.354,24,7.5,24h10
		c0.275,0,0.5-0.225,0.5-0.5v-5.734l2.777-1.85C20.917,15.823,21,15.667,21,15.5v-1.592c0.581-0.208,1-0.758,1-1.408v-10
		C22,1.122,20.878,0,19.5,0z M3,13v-1h12v1H3.5H3z M20,15.232l-2.777,1.85C17.083,17.175,17,17.332,17,17.499V23H8.081l0.664-4.426
		c0.021-0.145-0.021-0.29-0.116-0.4C8.534,18.063,8.396,18,8.25,18c-2.259,0-4.112-1.771-4.243-4H15.5H20V15.232z M21,12.5
		c0,0.275-0.225,0.5-0.5,0.5H16v-1.5v-9C16,1.673,16.673,1,17.5,1h2C20.327,1,21,1.673,21,2.5V12.5z"/>
	<g>
		<circle style="fill:#EAA001;" cx="19" cy="4" r="0.5"/>
		<path style="fill:#EAA001;" d="M19.5,1h-2C16.673,1,16,1.673,16,2.5v9V13h4.5c0.275,0,0.5-0.225,0.5-0.5v-10
			C21,1.673,20.327,1,19.5,1z M19,5.5c-0.827,0-1.5-0.673-1.5-1.5s0.673-1.5,1.5-1.5s1.5,0.673,1.5,1.5S19.827,5.5,19,5.5z"/>
	</g>
	<path style="fill:#E0454B;" d="M19,2.5c-0.827,0-1.5,0.673-1.5,1.5s0.673,1.5,1.5,1.5s1.5-0.673,1.5-1.5S19.827,2.5,19,2.5z
		 M19,4.5c-0.275,0-0.5-0.224-0.5-0.5s0.225-0.5,0.5-0.5s0.5,0.224,0.5,0.5S19.275,4.5,19,4.5z"/>
</g>
</svg>
