<?xml version="1.0" encoding="utf-8"?>
<!-- Generator: Adobe Illustrator 16.0.0, SVG Export Plug-In . SVG Version: 6.00 Build 0)  -->
<!DOCTYPE svg PUBLIC "-//W3C//DTD SVG 1.1//EN" "http://www.w3.org/Graphics/SVG/1.1/DTD/svg11.dtd">
<svg version="1.1" id="Outline_Icons" xmlns="http://www.w3.org/2000/svg" xmlns:xlink="http://www.w3.org/1999/xlink" x="0px"
	 y="0px" width="24px" height="24px" viewBox="0 0 24 24" enable-background="new 0 0 24 24" xml:space="preserve">
<g>
	<path d="M21.5,0h-2C18.122,0,17,1.122,17,2.5V11H4.5C4.224,11,4,11.224,4,11.5v2C4,13.776,4.224,14,4.5,14h0.523
		c0.125,2.585,2.109,4.69,4.651,4.969l-0.669,4.457c-0.021,0.144,0.021,0.29,0.116,0.4C9.216,23.937,9.354,24,9.5,24h10
		c0.276,0,0.5-0.224,0.5-0.5v-5.734l2.777-1.85C22.917,15.823,23,15.667,23,15.5v-1.592c0.581-0.208,1-0.757,1-1.408v-10
		C24,1.122,22.878,0,21.5,0z M5,12h12v1H5.5H5V12z M22,15.232l-2.777,1.85C19.083,17.175,19,17.332,19,17.499V23h-8.919l0.664-4.426
		c0.021-0.144-0.021-0.29-0.116-0.4C10.534,18.063,10.396,18,10.25,18c-2.259,0-4.112-1.772-4.243-4H17.5H22V15.232z M23,12.5
		c0,0.276-0.224,0.5-0.5,0.5H18v-1.5v-9C18,1.673,18.673,1,19.5,1h2C22.327,1,23,1.673,23,2.5V12.5z"/>
	<path d="M21,2.5c-0.827,0-1.5,0.673-1.5,1.5s0.673,1.5,1.5,1.5s1.5-0.673,1.5-1.5S21.827,2.5,21,2.5z M21,4.5
		c-0.276,0-0.5-0.224-0.5-0.5s0.224-0.5,0.5-0.5s0.5,0.224,0.5,0.5S21.276,4.5,21,4.5z"/>
</g>
</svg>
