<?xml version="1.0" encoding="utf-8"?>
<!-- Generator: Adobe Illustrator 16.0.0, SVG Export Plug-In . SVG Version: 6.00 Build 0)  -->
<!DOCTYPE svg PUBLIC "-//W3C//DTD SVG 1.1//EN" "http://www.w3.org/Graphics/SVG/1.1/DTD/svg11.dtd">
<svg version="1.1" id="Outline_Icons" xmlns="http://www.w3.org/2000/svg" xmlns:xlink="http://www.w3.org/1999/xlink" x="0px"
	 y="0px" width="24px" height="24px" viewBox="0 0 24 24" enable-background="new 0 0 24 24" xml:space="preserve">
<g>
	<path d="M23.5,14H22V2.954c0-0.982-0.579-1.878-1.476-2.281c-0.897-0.402-1.951-0.24-2.707,0.433l-0.585,0.586
		c-1.105-0.75-2.703-0.648-3.667,0.316l-0.559,0.559c-0.195,0.195-0.195,0.512,0,0.707l3.352,3.353
		c0.094,0.094,0.221,0.146,0.354,0.146s0.26-0.053,0.354-0.146l0.559-0.559c0.998-0.998,1.1-2.552,0.317-3.671l0.562-0.564
		c0.439-0.391,1.072-0.489,1.61-0.248C20.652,1.827,21,2.364,21,2.954V14h-7v-0.5c0-0.827-0.673-1.5-1.5-1.5h-5
		C6.673,12,6,12.673,6,13.5V14H0.5C0.224,14,0,14.224,0,14.5C0,19.738,4.262,24,9.5,24h5c5.238,0,9.5-4.262,9.5-9.5
		C24,14.224,23.776,14,23.5,14z M16.917,5.36l-0.205,0.205L14.067,2.92l0.205-0.205c0.707-0.707,1.938-0.707,2.645,0
		C17.646,3.444,17.646,4.631,16.917,5.36z M7,13.5C7,13.224,7.224,13,7.5,13h5c0.276,0,0.5,0.224,0.5,0.5V19H7V13.5z M14.5,23h-5
		c-4.519,0-8.226-3.545-8.485-8H6v4.5C6,19.776,6.224,20,6.5,20h7c0.276,0,0.5-0.224,0.5-0.5V15h8.985
		C22.726,19.455,19.019,23,14.5,23z"/>
	<path d="M9.592,4.919c0.07,0,0.141-0.015,0.209-0.046l1.816-0.838c0.25-0.116,0.36-0.413,0.245-0.664
		c-0.116-0.25-0.412-0.36-0.664-0.245L9.382,3.965c-0.25,0.116-0.36,0.413-0.245,0.664C9.222,4.812,9.403,4.919,9.592,4.919z"/>
	<path d="M15.107,10.42c0.194,0,0.379-0.114,0.46-0.304l0.786-1.84c0.108-0.254-0.01-0.548-0.264-0.656
		c-0.252-0.108-0.548,0.009-0.656,0.264l-0.786,1.84c-0.108,0.254,0.01,0.548,0.264,0.656C14.975,10.407,15.041,10.42,15.107,10.42z
		"/>
	<path d="M11.434,8.055c0.098,0.099,0.227,0.148,0.355,0.148c0.127,0,0.254-0.048,0.352-0.145l1.422-1.406
		c0.196-0.194,0.198-0.511,0.004-0.707c-0.194-0.197-0.51-0.198-0.707-0.004l-1.422,1.406C11.241,7.542,11.239,7.858,11.434,8.055z"
		/>
</g>
</svg>
