<?xml version="1.0" encoding="utf-8"?>
<!-- Generator: Adobe Illustrator 16.0.0, SVG Export Plug-In . SVG Version: 6.00 Build 0)  -->
<!DOCTYPE svg PUBLIC "-//W3C//DTD SVG 1.1//EN" "http://www.w3.org/Graphics/SVG/1.1/DTD/svg11.dtd">
<svg version="1.1" id="Outline_Icons" xmlns="http://www.w3.org/2000/svg" xmlns:xlink="http://www.w3.org/1999/xlink" x="0px"
	 y="0px" width="24px" height="24px" viewBox="0 0 24 24" enable-background="new 0 0 24 24" xml:space="preserve">
<path d="M23.991,16.456c-0.001-0.013,0.004-0.025,0.002-0.038L22,4.459V2c0-1.103-0.897-2-2-2H4C2.897,0,2,0.897,2,2v2.458
	L0.007,16.418c-0.002,0.013,0.003,0.025,0.002,0.038C0.007,16.472,0,16.484,0,16.5V21c0,1.103,0.897,2,2,2h1v0.5
	C3,23.776,3.224,24,3.5,24S4,23.776,4,23.5V23h16v0.5c0,0.276,0.224,0.5,0.5,0.5s0.5-0.224,0.5-0.5V23h1c1.103,0,2-0.897,2-2v-4.5
	C24,16.484,23.993,16.472,23.991,16.456z M2.923,5h1.281L4.005,6.431c-0.02,0.143,0.023,0.288,0.118,0.397
	C4.218,6.938,4.355,7,4.5,7h6.042c0.272,0,0.494-0.218,0.5-0.49l0.029-1.396h2.108l0.029,1.396C13.215,6.782,13.437,7,13.709,7
	h6.042c0.145,0,0.282-0.062,0.377-0.172c0.095-0.109,0.138-0.253,0.118-0.397L20.047,5h1.03l0.5,3H2.423L2.923,5z M5.074,6l0.278-2
	h4.741l-0.042,2H5.074z M14.157,4h4.741l0.278,2h-4.978L14.157,4z M4,1h16c0.551,0,1,0.449,1,1v2h-1.092l-0.079-0.569
	C19.795,3.184,19.583,3,19.334,3h-5.688c-0.134,0-0.263,0.054-0.357,0.15c-0.094,0.096-0.146,0.226-0.143,0.36l0.013,0.604h-2.067
	l0.013-0.604c0.003-0.134-0.049-0.264-0.143-0.36C10.868,3.054,10.739,3,10.604,3H4.917c-0.25,0-0.461,0.184-0.495,0.431L4.343,4H3
	V2C3,1.449,3.449,1,4,1z M2.257,9h19.486l1.167,7H1.09L2.257,9z M23,21c0,0.551-0.449,1-1,1H2c-0.551,0-1-0.448-1-1v-4h22V21z"/>
</svg>
