<?xml version="1.0" encoding="utf-8"?>
<!-- Generator: Adobe Illustrator 16.0.0, SVG Export Plug-In . SVG Version: 6.00 Build 0)  -->
<!DOCTYPE svg PUBLIC "-//W3C//DTD SVG 1.1//EN" "http://www.w3.org/Graphics/SVG/1.1/DTD/svg11.dtd">
<svg version="1.1" id="Layer_3" xmlns="http://www.w3.org/2000/svg" xmlns:xlink="http://www.w3.org/1999/xlink" x="0px" y="0px"
	 width="24px" height="24px" viewBox="0 0 24 24" style="enable-background:new 0 0 24 24;" xml:space="preserve">
<g>
	<path style="fill:#0F8EA1;" d="M9.592,4.691c0.07,0,0.143-0.016,0.21-0.045l1.816-0.838c0.251-0.116,0.36-0.412,0.245-0.663
		c-0.116-0.251-0.412-0.361-0.664-0.245L9.382,3.737c-0.25,0.117-0.36,0.413-0.243,0.664C9.223,4.584,9.402,4.691,9.592,4.691z"/>
	<path style="fill:#0F8EA1;" d="M15.105,10.192c0.193,0,0.379-0.113,0.461-0.303l0.785-1.841c0.107-0.253-0.012-0.548-0.266-0.655
		c-0.252-0.109-0.547,0.009-0.654,0.264l-0.785,1.839c-0.107,0.254,0.008,0.548,0.264,0.656
		C14.975,10.18,15.041,10.192,15.105,10.192z"/>
	<path style="fill:#0F8EA1;" d="M11.435,7.827c0.097,0.101,0.227,0.148,0.354,0.148s0.254-0.048,0.353-0.145l1.42-1.407
		c0.195-0.193,0.199-0.511,0.004-0.707c-0.192-0.196-0.51-0.196-0.707-0.003l-1.42,1.405C11.241,7.314,11.239,7.63,11.435,7.827z"/>
</g>
<path style="fill:#E0454B;" d="M23.5,13.771H22V2.727c0-0.982-0.578-1.877-1.477-2.281c-0.896-0.402-1.951-0.24-2.707,0.433
	l-0.584,0.587c-1.105-0.75-2.703-0.647-3.668,0.316L13.004,2.34c-0.193,0.196-0.193,0.513,0,0.708l3.354,3.353
	c0.096,0.094,0.223,0.146,0.354,0.146s0.262-0.053,0.354-0.146l0.561-0.559c0.998-0.999,1.1-2.552,0.316-3.671l0.563-0.563
	c0.438-0.393,1.07-0.489,1.609-0.247C20.652,1.6,21,2.138,21,2.727v11.046h-6v5.5c0,0.828-0.672,1.5-1.5,1.5h-7
	c-0.829,0-1.5-0.672-1.5-1.5v-5.5H0.5c-0.275,0-0.5,0.225-0.5,0.5c0,5.236,4.263,9.5,9.5,9.5h5c5.238,0,9.5-4.264,9.5-9.5
	C24,13.997,23.775,13.771,23.5,13.771z"/>
<path style="fill:#EAA001;" d="M6.5,19.771h7c0.275,0,0.5-0.226,0.5-0.5v-6c0-0.828-0.673-1.5-1.5-1.5h-5
	c-0.827,0-1.5,0.673-1.5,1.5v6C6,19.548,6.225,19.771,6.5,19.771z"/>
</svg>
