<?xml version="1.0" encoding="utf-8"?>
<!-- Generator: Adobe Illustrator 16.0.0, SVG Export Plug-In . SVG Version: 6.00 Build 0)  -->
<!DOCTYPE svg PUBLIC "-//W3C//DTD SVG 1.1//EN" "http://www.w3.org/Graphics/SVG/1.1/DTD/svg11.dtd">
<svg version="1.1" id="Layer_3" xmlns="http://www.w3.org/2000/svg" xmlns:xlink="http://www.w3.org/1999/xlink" x="0px" y="0px"
	 width="24px" height="24px" viewBox="0 0 24 24" style="enable-background:new 0 0 24 24;" xml:space="preserve">
<g>
	<path style="fill-rule:evenodd;clip-rule:evenodd;fill:#EAA001;" d="M9.188,15.596c1.85,0,3.651,0,5.456,0
		c0.22,1.199-0.859,2.521-2.215,2.712C10.7,18.554,9.392,17.486,9.188,15.596z"/>
	<path style="fill-rule:evenodd;clip-rule:evenodd;fill:#E0454B;" d="M5.433,12.518c-0.063,1.128-0.821,1.863-1.862,1.855
		c-1.055-0.006-1.785-0.738-1.822-1.855C2.961,12.518,4.174,12.518,5.433,12.518z"/>
	<path style="fill:#EAA001;" d="M0.133,11.88h6.917c0,0-0.981-3.979-2.049-4.677c-0.605-0.397-2.292-0.401-2.896,0
		C1.046,7.904,0.133,11.88,0.133,11.88z"/>
	<g>
		<path style="fill:#0F8EA1;" d="M5.331,17.636c-1.656,0-2.094-1.914-2.094-2.926c0-0.188,0.152-0.34,0.341-0.34
			c0.188,0,0.34,0.152,0.34,0.34l0,0c0,0.022,0.021,2.245,1.414,2.245c0.763,0,1.241-1.205,1.703-2.372
			c0.561-1.415,1.141-2.876,2.423-2.876c0.582,0,1.359,0.27,1.76,1.554c0.218,0.7,0.221,1.388,0.221,1.417
			c0,0.188-0.152,0.34-0.34,0.34l0,0c-0.188,0-0.34-0.152-0.34-0.34c-0.001-0.022-0.021-2.292-1.301-2.292
			c-0.821,0-1.314,1.245-1.791,2.447C7.121,16.212,6.556,17.636,5.331,17.636z"/>
	</g>
	<circle style="fill-rule:evenodd;clip-rule:evenodd;fill:#0F8EA1;" cx="3.591" cy="12.2" r="0.319"/>
	<path style="fill-rule:evenodd;clip-rule:evenodd;fill:#E0454B;" d="M18.567,12.518c0.063,1.128,0.82,1.863,1.861,1.855
		c1.055-0.006,1.786-0.738,1.822-1.855C21.039,12.518,19.826,12.518,18.567,12.518z"/>
	<path style="fill:#EAA001;" d="M23.867,11.88h-6.916c0,0,0.98-3.979,2.049-4.677c0.605-0.397,2.293-0.401,2.896,0
		C22.954,7.904,23.867,11.88,23.867,11.88z"/>
	<g>
		<path style="fill:#0F8EA1;" d="M18.669,17.636c1.657,0,2.095-1.914,2.095-2.926c0-0.188-0.152-0.34-0.342-0.34
			c-0.186,0-0.338,0.152-0.338,0.34l0,0c0,0.022-0.022,2.245-1.415,2.245c-0.764,0-1.241-1.205-1.703-2.372
			c-0.561-1.415-1.141-2.876-2.424-2.876c-0.581,0-1.358,0.27-1.76,1.554c-0.219,0.7-0.221,1.388-0.221,1.417
			c0,0.188,0.152,0.34,0.341,0.34l0,0c0.187,0,0.339-0.152,0.339-0.34c0-0.022,0.021-2.292,1.301-2.292
			c0.821,0,1.314,1.245,1.791,2.447C16.879,16.212,17.445,17.636,18.669,17.636z"/>
	</g>
	<circle style="fill-rule:evenodd;clip-rule:evenodd;fill:#0F8EA1;" cx="20.409" cy="12.2" r="0.319"/>
	<path style="fill-rule:evenodd;clip-rule:evenodd;fill:#0F8EA1;" d="M14.366,2.931H9.473v0.367h0.697
		c-0.02,0.797,0.341,1.316,0.956,1.573c0.432,0.18,0.486,0.414,0.484,0.814c-0.012,2.826,0.001,5.652,0.001,8.477
		c0,0.413-0.011,0.813,0.69,0.604c0-0.227,0-0.468,0-0.71c0-2.78,0.005-5.56-0.006-8.339c-0.002-0.412,0.058-0.674,0.496-0.886
		c0.581-0.281,0.926-0.806,0.875-1.533h0.7V2.931z"/>
	<g>
		<g>
			<rect x="11.794" y="19.464" style="fill:#EAA001;" width="0.25" height="1.203"/>
		</g>
		<g>
			
				<rect x="12.579" y="20.021" transform="matrix(0.3422 0.9396 -0.9396 0.3422 27.8201 0.5516)" style="fill:#EAA001;" width="1.875" height="0.25"/>
		</g>
		<g>
			
				<rect x="13.998" y="18.928" transform="matrix(0.6429 0.766 -0.766 0.6429 19.8242 -4.4126)" style="fill:#EAA001;" width="1.293" height="0.25"/>
		</g>
		<g>
			
				<rect x="14.705" y="17.964" transform="matrix(0.8661 0.4999 -0.4999 0.8661 11.1388 -5.3978)" style="fill:#EAA001;" width="1.875" height="0.25"/>
		</g>
		<g>
			
				<rect x="10.24" y="19.208" transform="matrix(0.9393 0.343 -0.343 0.9393 7.5386 -2.3333)" style="fill:#EAA001;" width="0.251" height="1.875"/>
		</g>
		<g>
			
				<rect x="9.113" y="18.406" transform="matrix(0.7669 0.6417 -0.6417 0.7669 14.3796 -1.4876)" style="fill:#EAA001;" width="0.25" height="1.293"/>
		</g>
		<g>
			
				<rect x="8.114" y="17.151" transform="matrix(0.4995 0.8663 -0.8663 0.4995 19.7942 1.9162)" style="fill:#EAA001;" width="0.25" height="1.875"/>
		</g>
	</g>
</g>
</svg>
