<?xml version="1.0" encoding="utf-8"?>
<!-- Generator: Adobe Illustrator 16.0.0, SVG Export Plug-In . SVG Version: 6.00 Build 0)  -->
<!DOCTYPE svg PUBLIC "-//W3C//DTD SVG 1.1//EN" "http://www.w3.org/Graphics/SVG/1.1/DTD/svg11.dtd">
<svg version="1.1" id="Layer_1" xmlns="http://www.w3.org/2000/svg" xmlns:xlink="http://www.w3.org/1999/xlink" x="0px" y="0px"
	 width="24px" height="24px" viewBox="0 0 24 24" style="enable-background:new 0 0 24 24;" xml:space="preserve">
<g id="Layer_3">
	<rect y="17.131" style="fill:#E8E8E8;" width="24" height="6.869"/>
</g>
<g>
	<rect style="fill:#FFFFFF;" width="24" height="17.131"/>
	<g id="Layer_4">
		<g>
			<polygon style="fill:#E0454B;" points="0,4.009 0,17.131 4.947,17.131 3.174,4.461 			"/>
			<polygon style="fill:#E9A122;" points="3.688,4.535 5.451,17.131 15.816,17.131 17.884,6.557 			"/>
			<polygon style="fill:#108EA1;" points="19.166,0 0,0 0,3.209 0,3.52 17.977,6.081 			"/>
			<polygon style="fill:#E0454B;" points="24,0 19.676,0 16.326,17.131 24,17.131 			"/>
		</g>
	</g>
</g>
<g>
	<g>
		<g>
			<path style="fill:#898989;" d="M15.387,15.237v2.153h1.953v-2.153H15.387z M16.039,17.236H15.48v-0.801h0.559V17.236
				L16.039,17.236z M16.643,17.235h-0.559v-0.802h0.559V17.235z M17.244,17.235h-0.557v-0.802h0.557V17.235z M17.248,16.278h-1.766
				v-0.367h1.766V16.278L17.248,16.278z M17.248,15.759h-1.766V15.39h1.766V15.759L17.248,15.759z"/>
			<path style="fill:#DCDBDB;" d="M15.482,15.759h1.766V15.39h-1.766V15.759z M16.152,15.536h0.422v0.146h-0.422V15.536z"/>
			<path style="fill:#DCDBDB;" d="M15.482,16.278h1.766v-0.367h-1.766V16.278z M16.152,16.054h0.422V16.2h-0.422V16.054z"/>
			<rect x="15.48" y="16.436" style="fill:#F3F3F3;" width="0.559" height="0.801"/>
			<rect x="16.084" y="16.434" style="fill:#F3F3F3;" width="0.559" height="0.802"/>
			<rect x="16.688" y="16.434" style="fill:#F3F3F3;" width="0.558" height="0.802"/>
			<rect x="16.152" y="16.054" style="fill:#898989;" width="0.422" height="0.146"/>
			<rect x="16.152" y="15.536" style="fill:#898989;" width="0.422" height="0.146"/>
		</g>
		<g>
			<path style="fill:#898989;" d="M6.66,15.237v2.153h1.953v-2.153H6.66z M7.311,17.236H6.752v-0.801h0.559V17.236L7.311,17.236z
				 M7.916,17.235H7.357v-0.802h0.559V17.235z M8.517,17.235H7.96v-0.802h0.557V17.235z M8.521,16.278H6.755v-0.367H8.52
				L8.521,16.278L8.521,16.278z M8.521,15.759H6.755V15.39H8.52L8.521,15.759L8.521,15.759z"/>
			<path style="fill:#DCDBDB;" d="M6.755,15.759H8.52V15.39H6.755V15.759z M7.425,15.536h0.421v0.146H7.425V15.536z"/>
			<path style="fill:#DCDBDB;" d="M6.755,16.278H8.52v-0.367H6.755V16.278z M7.425,16.054h0.421V16.2H7.425V16.054z"/>
			<rect x="6.752" y="16.436" style="fill:#F3F3F3;" width="0.559" height="0.801"/>
			<rect x="7.357" y="16.434" style="fill:#F3F3F3;" width="0.559" height="0.802"/>
			<rect x="7.96" y="16.434" style="fill:#F3F3F3;" width="0.557" height="0.802"/>
			<rect x="7.425" y="16.054" style="fill:#898989;" width="0.421" height="0.146"/>
			<rect x="7.425" y="15.536" style="fill:#898989;" width="0.421" height="0.146"/>
		</g>
	</g>
	<g>
		<path style="fill:#898989;" d="M15.166,18.439l-0.51-3.065v-0.652c0-0.293-0.238-0.531-0.531-0.531h-4.25
			c-0.293,0-0.531,0.238-0.531,0.531v0.652l-0.511,3.065H15.166z"/>
		<polygon style="fill:#FFFFFF;" points="13.832,15.251 13.906,15.784 12.531,15.784 12.531,15.251 		"/>
		<polygon style="fill:#FFFFFF;" points="10.234,15.251 11.468,15.251 11.468,15.784 10.161,15.784 		"/>
		<path style="fill:#FFFFFF;" d="M9.588,15.518h0.341l-0.053,0.38c-0.006,0.039,0.006,0.077,0.031,0.105
			c0.025,0.029,0.062,0.046,0.1,0.046h1.605c0.072,0,0.12-0.058,0.121-0.13v-0.401h0.531l0.003,0.401
			c0.002,0.072,0.061,0.13,0.133,0.13h1.659c0.037,0,0.073-0.017,0.1-0.046c0.025-0.028,0.037-0.066,0.031-0.105l-0.053-0.38h0.272
			l0.133,0.797H9.456L9.588,15.518z"/>
		<path style="fill:#898989;" d="M8.812,18.706v1.063c0,0.293,0.238,0.531,0.531,0.531h0.266v0.133c0,0.072,0.06,0.133,0.133,0.133
			c0.073,0,0.133-0.061,0.133-0.133V20.3h4.25v0.133c0,0.072,0.059,0.133,0.133,0.133c0.072,0,0.133-0.061,0.133-0.133V20.3h0.267
			c0.293,0,0.53-0.238,0.53-0.531v-1.063H8.812z"/>
	</g>
</g>
</svg>
