<?xml version="1.0" encoding="utf-8"?>
<!-- Generator: Adobe Illustrator 16.0.0, SVG Export Plug-In . SVG Version: 6.00 Build 0)  -->
<!DOCTYPE svg PUBLIC "-//W3C//DTD SVG 1.1//EN" "http://www.w3.org/Graphics/SVG/1.1/DTD/svg11.dtd">
<svg version="1.1" id="Layer_2" xmlns="http://www.w3.org/2000/svg" xmlns:xlink="http://www.w3.org/1999/xlink" x="0px" y="0px"
	 width="24px" height="24px" viewBox="0 0 24 24" style="enable-background:new 0 0 24 24;" xml:space="preserve">
<rect x="7.125" style="fill:#E0454B;" width="9.75" height="6.375"/>
<polygon style="fill:#E0454B;" points="23.797,12.133 0.203,12.133 5.955,6.917 18.045,6.917 "/>
<path style="fill:#EAA122;" d="M0.136,12.71v4.044h23.688V12.71H0.136z M8.333,15.333H2v-1.202h6.333V15.333z M15.959,15.333H9.625
	v-1.202h6.334V15.333z M18.959,15.333c-0.332,0-0.602-0.27-0.602-0.601c0-0.332,0.27-0.602,0.602-0.602s0.602,0.27,0.602,0.602
	C19.561,15.063,19.291,15.333,18.959,15.333z M21.209,15.333c-0.332,0-0.602-0.27-0.602-0.601c0-0.332,0.27-0.602,0.602-0.602
	s0.602,0.27,0.602,0.602C21.811,15.063,21.541,15.333,21.209,15.333z"/>
<rect x="2" y="14.131" style="fill:#FFFFFF;" width="6.333" height="1.202"/>
<rect x="9.625" y="14.131" style="fill:#FFFFFF;" width="6.334" height="1.202"/>
<circle style="fill:#FFFFFF;" cx="18.959" cy="14.732" r="0.601"/>
<circle style="fill:#FFFFFF;" cx="21.209" cy="14.732" r="0.601"/>
<path style="fill:#E0454B;" d="M8,17.542c0,0-0.124,0.419-0.195,1.015C7.77,18.853,7.749,19.193,7.8,19.525
	c0.023,0.165,0.071,0.327,0.138,0.476c0.058,0.152,0.151,0.29,0.266,0.409c0.174,0.211,0.255,0.351,0.386,0.526
	c0.125,0.157,0.186,0.479,0.253,0.699c0.026,0.232,0.006,0.452-0.015,0.651c-0.054,0.193-0.096,0.378-0.171,0.529
	C8.36,23.43,8,23.687,8,23.687s0.033-0.101,0.09-0.277c0.06-0.172,0.108-0.428,0.154-0.716c0.023-0.144,0.008-0.3,0.026-0.456
	c-0.021-0.153-0.046-0.317-0.074-0.466c-0.084-0.135-0.066-0.239-0.191-0.407c-0.119-0.148-0.268-0.356-0.365-0.46
	c-0.162-0.188-0.297-0.409-0.376-0.641c-0.095-0.229-0.113-0.471-0.121-0.691c-0.004-0.447,0.114-0.833,0.25-1.134
	C7.675,17.836,8,17.542,8,17.542z"/>
<path style="fill:#E0454B;" d="M12.001,17.542c0,0-0.124,0.419-0.195,1.015c-0.035,0.296-0.056,0.637-0.004,0.969
	c0.023,0.165,0.071,0.327,0.138,0.476c0.058,0.152,0.151,0.29,0.266,0.409c0.174,0.211,0.255,0.351,0.386,0.526
	c0.125,0.157,0.186,0.479,0.253,0.699c0.026,0.232,0.006,0.452-0.015,0.651c-0.054,0.193-0.096,0.378-0.171,0.529
	c-0.296,0.613-0.657,0.87-0.657,0.87s0.033-0.101,0.09-0.277c0.06-0.172,0.108-0.428,0.154-0.716c0.023-0.144,0.008-0.3,0.026-0.456
	c-0.021-0.153-0.046-0.317-0.074-0.466c-0.084-0.135-0.066-0.239-0.191-0.407c-0.119-0.148-0.268-0.356-0.365-0.46
	c-0.162-0.188-0.297-0.409-0.376-0.641c-0.095-0.229-0.113-0.471-0.121-0.691c-0.004-0.447,0.114-0.833,0.25-1.134
	C11.676,17.836,12.001,17.542,12.001,17.542z"/>
<path style="fill:#E0454B;" d="M15.959,17.542c0,0-0.123,0.419-0.195,1.015c-0.035,0.296-0.055,0.637-0.004,0.969
	c0.023,0.165,0.07,0.327,0.138,0.476c0.058,0.152,0.151,0.29,0.266,0.409c0.175,0.211,0.255,0.351,0.386,0.526
	c0.125,0.157,0.186,0.479,0.254,0.699c0.025,0.232,0.006,0.452-0.016,0.651c-0.054,0.193-0.096,0.378-0.171,0.529
	c-0.296,0.613-0.657,0.87-0.657,0.87s0.033-0.101,0.09-0.277c0.061-0.172,0.108-0.428,0.154-0.716
	c0.023-0.144,0.008-0.3,0.026-0.456c-0.021-0.153-0.046-0.317-0.073-0.466c-0.084-0.135-0.066-0.239-0.191-0.407
	c-0.119-0.148-0.268-0.356-0.365-0.46c-0.162-0.188-0.297-0.409-0.377-0.641c-0.094-0.229-0.112-0.471-0.12-0.691
	c-0.005-0.447,0.114-0.833,0.249-1.134C15.635,17.836,15.959,17.542,15.959,17.542z"/>
</svg>
