<?xml version="1.0" encoding="utf-8"?>
<!-- Generator: Adobe Illustrator 16.0.0, SVG Export Plug-In . SVG Version: 6.00 Build 0)  -->
<!DOCTYPE svg PUBLIC "-//W3C//DTD SVG 1.1//EN" "http://www.w3.org/Graphics/SVG/1.1/DTD/svg11.dtd">
<svg version="1.1" id="Layer_2" xmlns="http://www.w3.org/2000/svg" xmlns:xlink="http://www.w3.org/1999/xlink" x="0px" y="0px"
	 width="24px" height="24px" viewBox="0 0 24 24" style="enable-background:new 0 0 24 24;" xml:space="preserve">
<path style="fill:#E0454B;" d="M21.5,0.312h-19c-1.208,0-2.188,0.979-2.188,2.188v5.795h23.375V2.5
	C23.688,1.292,22.709,0.312,21.5,0.312z M2.813,2.5h18.375v0.813H2.813V2.5z M2.813,4.303h18.375v0.813H2.813V4.303z M18.406,7.625
	c-0.38,0-0.688-0.308-0.688-0.688s0.308-0.688,0.688-0.688s0.688,0.308,0.688,0.688S18.786,7.625,18.406,7.625z M20.594,7.625
	c-0.38,0-0.688-0.308-0.688-0.688s0.308-0.688,0.688-0.688s0.688,0.308,0.688,0.688S20.974,7.625,20.594,7.625z"/>
<rect x="2.813" y="2.5" style="fill:#FFFFFF;" width="18.375" height="0.813"/>
<rect x="2.813" y="4.303" style="fill:#FFFFFF;" width="18.375" height="0.813"/>
<circle style="fill:#FFFFFF;" cx="20.594" cy="6.938" r="0.688"/>
<circle style="fill:#FFFFFF;" cx="18.406" cy="6.938" r="0.688"/>
<path style="fill:#EAA122;" d="M0.313,8.864v4.511h2.436l1.558,2.901h15.386l1.559-2.901h2.436V8.864H0.313z M19.405,15.542H4.596
	l-1.209-2.167h17.228L19.405,15.542z"/>
<g>
	<path style="fill:#E0464B;" d="M8.021,17.188c0,0-0.124,0.419-0.195,1.015C7.791,18.5,7.77,18.84,7.82,19.172
		c0.023,0.164,0.071,0.326,0.138,0.476c0.058,0.151,0.151,0.29,0.266,0.409c0.174,0.211,0.255,0.351,0.386,0.525
		c0.125,0.157,0.186,0.479,0.253,0.699c0.026,0.232,0.006,0.452-0.015,0.651c-0.054,0.192-0.096,0.378-0.171,0.528
		c-0.297,0.615-0.657,0.873-0.657,0.873s0.033-0.102,0.09-0.277c0.06-0.172,0.108-0.428,0.154-0.717
		c0.023-0.144,0.008-0.299,0.026-0.455c-0.021-0.153-0.046-0.317-0.074-0.467c-0.084-0.135-0.066-0.238-0.191-0.406
		c-0.119-0.148-0.268-0.356-0.365-0.46c-0.162-0.188-0.297-0.409-0.376-0.642c-0.095-0.229-0.113-0.471-0.121-0.69
		c-0.004-0.447,0.114-0.833,0.25-1.134C7.695,17.482,8.021,17.188,8.021,17.188z"/>
	<path style="fill:#E0464B;" d="M12.021,17.188c0,0-0.124,0.419-0.195,1.015c-0.035,0.297-0.056,0.637-0.004,0.969
		c0.023,0.166,0.071,0.328,0.138,0.477c0.058,0.152,0.151,0.29,0.266,0.409c0.174,0.211,0.255,0.351,0.386,0.526
		c0.125,0.156,0.186,0.479,0.254,0.698c0.025,0.232,0.006,0.452-0.016,0.651c-0.055,0.193-0.096,0.378-0.171,0.529
		c-0.296,0.613-0.657,0.869-0.657,0.869s0.033-0.101,0.09-0.276c0.06-0.173,0.108-0.429,0.154-0.716
		c0.023-0.145,0.008-0.301,0.026-0.457c-0.021-0.152-0.046-0.316-0.074-0.465c-0.084-0.136-0.066-0.239-0.191-0.407
		c-0.119-0.148-0.268-0.356-0.365-0.46c-0.162-0.188-0.297-0.409-0.376-0.641c-0.095-0.229-0.113-0.472-0.121-0.691
		c-0.004-0.447,0.114-0.833,0.25-1.135C11.696,17.482,12.021,17.188,12.021,17.188z"/>
	<path style="fill:#E0464B;" d="M15.979,17.188c0,0-0.123,0.419-0.195,1.015c-0.035,0.297-0.055,0.637-0.004,0.969
		c0.023,0.166,0.07,0.328,0.139,0.477c0.058,0.152,0.15,0.29,0.266,0.409c0.175,0.211,0.255,0.351,0.386,0.526
		c0.125,0.156,0.187,0.479,0.255,0.698c0.024,0.232,0.006,0.452-0.017,0.651c-0.054,0.193-0.097,0.378-0.171,0.529
		c-0.297,0.613-0.657,0.869-0.657,0.869s0.033-0.101,0.09-0.276c0.062-0.173,0.108-0.429,0.154-0.716
		c0.022-0.145,0.008-0.301,0.026-0.457c-0.021-0.152-0.047-0.316-0.073-0.465c-0.085-0.136-0.066-0.239-0.191-0.407
		c-0.118-0.148-0.269-0.356-0.364-0.46c-0.162-0.188-0.297-0.409-0.377-0.641c-0.095-0.229-0.113-0.472-0.121-0.691
		c-0.004-0.447,0.114-0.833,0.25-1.135C15.655,17.482,15.979,17.188,15.979,17.188z"/>
</g>
</svg>
