<?xml version="1.0" encoding="utf-8"?>
<!-- Generator: Adobe Illustrator 16.0.0, SVG Export Plug-In . SVG Version: 6.00 Build 0)  -->
<!DOCTYPE svg PUBLIC "-//W3C//DTD SVG 1.1//EN" "http://www.w3.org/Graphics/SVG/1.1/DTD/svg11.dtd">
<svg version="1.1" id="Layer_2" xmlns="http://www.w3.org/2000/svg" xmlns:xlink="http://www.w3.org/1999/xlink" x="0px" y="0px"
	 width="24px" height="24px" viewBox="0 0 24 24" style="enable-background:new 0 0 24 24;" xml:space="preserve">
<path style="fill:#E0454B;" d="M0.022,3.714v16.571h24V3.714H0.022z M8.016,19.1H1.161v-6.167h6.854V19.1z M15.449,19.084H8.595
	v-6.167h6.854V19.084z M22.854,19.084H16v-6.167h6.854V19.084z M22.892,11.724H1.183V8.891h21.708V11.724z M22.892,7.724H1.183
	V4.891h21.708V7.724z"/>
<path style="fill:#EAA122;" d="M1.183,7.724h21.708V4.891H1.183V7.724z M9.438,6h5.167v1.125H9.438V6z"/>
<path style="fill:#EAA122;" d="M1.183,11.724h21.708V8.891H1.183V11.724z M9.438,10h5.167v1.125H9.438V10z"/>
<rect x="1.161" y="12.932" style="fill:#F3F3F3;" width="6.854" height="6.167"/>
<rect x="8.595" y="12.917" style="fill:#F3F3F3;" width="6.854" height="6.167"/>
<rect x="16" y="12.917" style="fill:#F3F3F3;" width="6.854" height="6.167"/>
<rect x="9.438" y="10" style="fill:#E0454B;" width="5.167" height="1.125"/>
<rect x="9.438" y="6" style="fill:#E0454B;" width="5.167" height="1.125"/>
</svg>
