<?xml version="1.0" encoding="utf-8"?>
<!-- Generator: Adobe Illustrator 16.0.0, SVG Export Plug-In . SVG Version: 6.00 Build 0)  -->
<!DOCTYPE svg PUBLIC "-//W3C//DTD SVG 1.1//EN" "http://www.w3.org/Graphics/SVG/1.1/DTD/svg11.dtd">
<svg version="1.1" id="Layer_2" xmlns="http://www.w3.org/2000/svg" xmlns:xlink="http://www.w3.org/1999/xlink" x="0px" y="0px"
	 width="24px" height="24px" viewBox="0 0 24 24" style="enable-background:new 0 0 24 24;" xml:space="preserve">
<rect x="5.151" y="9.419" style="fill:#E1454B;" width="1.75" height="14.681"/>
<polygon style="fill:#E1454B;" points="6.948,9.419 6.26,9.419 6.26,10.089 17.058,24.818 17.675,24.199 "/>
<polygon style="fill:#E1454B;" points="8.065,7.89 7.377,7.89 7.377,8.56 19.265,24.818 19.884,24.199 "/>
<polygon style="fill:#E1454B;" points="10.273,7.89 9.585,7.89 9.585,8.56 21.474,24.818 22.091,24.199 "/>
<polygon style="fill:#E1454B;" points="12.185,7.89 11.498,7.89 11.498,8.56 23.386,24.818 24.003,24.199 "/>
<polygon style="fill:#E1454B;" points="14.352,7.89 13.664,7.89 13.664,8.56 25.552,24.818 26.171,24.199 "/>
<polygon style="fill:#E1454B;" points="16.686,7.89 15.998,7.89 15.998,8.56 27.886,24.818 28.503,24.199 "/>
<path style="fill:#EBA123;" d="M17.207,3.268L5.89,2.652c-1.875,0-3.026,1.871-3.026,3.419S4.015,9.49,5.89,9.49l11.317-0.616
	c1.535,0,2.781-1.255,2.781-2.803S18.742,3.268,17.207,3.268z M5.176,8.404c-0.954,0-1.727-1.044-1.727-2.333
	s0.773-2.333,1.727-2.333c0.954,0,1.727,1.044,1.727,2.333S6.13,8.404,5.176,8.404z"/>
<ellipse style="fill:#FFFFFF;" cx="5.176" cy="6.071" rx="1.727" ry="2.333"/>
</svg>
