<?xml version="1.0" encoding="utf-8"?>
<!-- Generator: Adobe Illustrator 16.0.0, SVG Export Plug-In . SVG Version: 6.00 Build 0)  -->
<!DOCTYPE svg PUBLIC "-//W3C//DTD SVG 1.1//EN" "http://www.w3.org/Graphics/SVG/1.1/DTD/svg11.dtd">
<svg version="1.1" id="Layer_2" xmlns="http://www.w3.org/2000/svg" xmlns:xlink="http://www.w3.org/1999/xlink" x="0px" y="0px"
	 width="24px" height="24px" viewBox="0 0 24 24" style="enable-background:new 0 0 24 24;" xml:space="preserve">
<path style="fill:#E0454B;" d="M-0.021,13.695v10.332h24V13.695H-0.021z M6.5,21.377H1.469v-5.029H6.5V21.377z M16,21.391H8v-1.75h8
	V21.391z M16,18.111H8v-1.752h8V18.111z M22.5,21.377h-5.031v-5.029H22.5V21.377z"/>
<rect x="1.469" y="16.348" style="fill:#EAA122;" width="5.031" height="5.029"/>
<rect x="17.469" y="16.348" style="fill:#EAA122;" width="5.031" height="5.029"/>
<rect x="8" y="16.359" style="fill:#FFFFFF;" width="8" height="1.752"/>
<rect x="8" y="19.641" style="fill:#FFFFFF;" width="8" height="1.75"/>
<polygon style="fill:#C6C2B8;" points="19.75,11.418 19.75,2.5 4.208,2.5 4.208,11.418 10.958,11.418 10.958,13.043 8.688,13.043 
	8.688,13.668 10.958,13.668 13,13.668 15.271,13.668 15.271,13.043 13,13.043 13,11.418 "/>
</svg>
