<?xml version="1.0" encoding="utf-8"?>
<!-- Generator: Adobe Illustrator 17.1.0, SVG Export Plug-In . SVG Version: 6.00 Build 0)  -->
<!DOCTYPE svg PUBLIC "-//W3C//DTD SVG 1.1//EN" "http://www.w3.org/Graphics/SVG/1.1/DTD/svg11.dtd">
<svg version="1.1" id="Filled_Icons" xmlns="http://www.w3.org/2000/svg" xmlns:xlink="http://www.w3.org/1999/xlink" x="0px"
	 y="0px" width="24px" height="24px" viewBox="0 0 24 24" enable-background="new 0 0 24 24" xml:space="preserve">
<path d="M22.854,12.146l-11-11c-0.195-0.195-0.512-0.195-0.707,0l-11,11c-0.195,0.195-0.195,0.512,0,0.707l11,11
	C11.245,23.951,11.372,24,11.501,24c0.127,0,0.256-0.049,0.353-0.146l11-11C23.05,12.658,23.05,12.342,22.854,12.146z M11,7
	c0.001-0.276,0.225-0.5,0.501-0.5c0.275,0,0.5,0.224,0.499,0.5v8c0.001,0.276-0.224,0.5-0.499,0.5c-0.276,0-0.5-0.224-0.501-0.5V7z
	 M11.501,19.5c-0.553,0-1-0.447-1-1c0-0.552,0.447-1,1-1c0.551,0,1,0.448,1,1C12.501,19.053,12.052,19.5,11.501,19.5z"/>
</svg>
