<?xml version="1.0" encoding="utf-8"?>
<!-- Generator: Adobe Illustrator 16.0.0, SVG Export Plug-In . SVG Version: 6.00 Build 0)  -->
<!DOCTYPE svg PUBLIC "-//W3C//DTD SVG 1.1//EN" "http://www.w3.org/Graphics/SVG/1.1/DTD/svg11.dtd">
<svg version="1.1" id="Layer_3" xmlns="http://www.w3.org/2000/svg" xmlns:xlink="http://www.w3.org/1999/xlink" x="0px" y="0px"
	 width="24px" height="24px" viewBox="0 0 24 24" style="enable-background:new 0 0 24 24;" xml:space="preserve">
<rect y="19.802" style="fill:#E8E8E8;" width="24" height="4.198"/>
<g>
	<path style="fill:none;" d="M14.529,8.438c0.001-0.014,0.004-0.026,0.004-0.04c-0.001,0-0.002,0-0.004,0
		c0,0.014-0.004,0.026-0.004,0.04C14.527,8.438,14.528,8.438,14.529,8.438z"/>
	<path style="fill:none;" d="M12,11.005C12,11.005,12,11.005,12,11.005c-0.003-0.001-0.005,0-0.008,0
		c0,0.014,0.004,0.027,0.004,0.041c0.001,0,0.003,0,0.004,0l0,0c0-0.028,0.008-0.053,0.009-0.081c-0.002,0-0.003,0-0.005,0
		C12.004,10.979,12,10.991,12,11.005z"/>
	<path style="fill:none;" d="M9.475,8.479c0-0.028,0.007-0.053,0.008-0.081c-0.001,0-0.003,0-0.004,0
		c0,0.014-0.004,0.027-0.004,0.041c0,0,0,0,0-0.001c-0.003,0-0.006,0.001-0.009,0.001C9.467,8.452,9.47,8.465,9.47,8.479
		C9.472,8.479,9.473,8.479,9.475,8.479L9.475,8.479z"/>
	<path style="fill:none;" d="M14.525,8.438c0-0.014-0.004-0.026-0.004-0.04c-0.002,0-0.003,0-0.004,0
		c0,0.014,0.003,0.026,0.004,0.04C14.522,8.438,14.523,8.438,14.525,8.438z"/>
	<path style="fill:none;" d="M6.953,11.005c0,0.014-0.004,0.027-0.004,0.041c0-0.014-0.004-0.027-0.004-0.041
		c-0.001,0-0.003,0-0.004,0c0.001,0.028,0.008,0.054,0.008,0.082c0-0.028,0.008-0.054,0.009-0.082
		C6.956,11.005,6.955,11.005,6.953,11.005z"/>
	<path style="fill:none;" d="M17.056,10.965c0,0.014-0.004,0.026-0.004,0.041c0-0.014-0.004-0.027-0.004-0.041
		c-0.002,0-0.003,0-0.004,0c0.001,0.028,0.008,0.054,0.008,0.082c0-0.028,0.007-0.054,0.008-0.082
		C17.059,10.965,17.058,10.965,17.056,10.965z"/>
	<path style="fill:#E9A122;" d="M12,5.831c0-1.393,1.125-2.521,2.517-2.526C14.473,1.948,13.366,0.861,12,0.861
		c-1.367,0-2.473,1.087-2.518,2.444C10.874,3.309,12,4.438,12,5.831z"/>
	<path style="fill:#E9A122;" d="M12.005,5.871c0-0.014,0.003-0.026,0.004-0.04c-0.003,0-0.006-0.001-0.009-0.001
		s-0.005,0.001-0.008,0.001c0,0.013,0.004,0.026,0.004,0.04c0.001,0,0.003,0,0.004,0C12.002,5.871,12.003,5.871,12.005,5.871z"/>
	<path style="fill:#303030;" d="M12,5.831c0.003,0,0.006,0.001,0.009,0.001c0.044-1.357,1.149-2.445,2.517-2.445
		s2.474,1.088,2.519,2.445c0.002,0,0.005-0.001,0.008-0.001c0-1.396-1.131-2.527-2.526-2.527c-0.003,0-0.006,0.001-0.009,0.001
		C13.125,3.309,12,4.438,12,5.831z"/>
	<path style="fill:#303030;" d="M9.475,3.387c1.367,0,2.474,1.088,2.518,2.445c0.003,0,0.005-0.001,0.008-0.001
		c0-1.393-1.126-2.521-2.518-2.526c-0.003,0-0.005-0.001-0.008-0.001c-1.396,0-2.525,1.131-2.525,2.527
		c0.003,0,0.006,0.001,0.009,0.001C7.002,4.475,8.106,3.387,9.475,3.387z"/>
	<path style="fill:#108EA1;" d="M14.525,8.438L14.525,8.438L14.525,8.438c0-0.014,0.004-0.026,0.004-0.04c-0.001,0-0.003,0-0.004,0
		s-0.003,0-0.004,0C14.521,8.411,14.525,8.424,14.525,8.438z"/>
	<path style="fill:#108EA1;" d="M14.525,3.387c-1.367,0-2.473,1.088-2.517,2.445c-0.001,0.013-0.004,0.026-0.004,0.04
		c1.392,0.002,2.521,1.132,2.521,2.526c0-1.394,1.128-2.523,2.522-2.526c-0.001-0.014-0.004-0.026-0.004-0.04
		C16.999,4.475,15.893,3.387,14.525,3.387z"/>
	<path style="fill:#E0454B;" d="M9.475,8.438L9.475,8.438C9.475,8.438,9.475,8.438,9.475,8.438c0-0.013,0.004-0.026,0.004-0.04
		c-0.001,0-0.003,0-0.004,0c0-1.394,1.128-2.523,2.521-2.526c0-0.014-0.004-0.026-0.004-0.04c-0.044-1.357-1.15-2.445-2.518-2.445
		c-1.368,0-2.473,1.088-2.517,2.445c-0.001,0.027-0.009,0.053-0.009,0.08C8.345,5.912,9.475,7.042,9.475,8.438z"/>
	<path style="fill:#303030;" d="M17.056,10.965c0.002,0,0.003,0,0.004,0c0.045-1.357,1.151-2.445,2.517-2.445
		c1.369,0,2.473,1.088,2.518,2.445c0.002,0,0.005-0.001,0.008-0.001c0-1.396-1.128-2.527-2.525-2.527c-0.002,0-0.003,0-0.004,0
		c0,0.014,0.004,0.028,0.004,0.042C18.196,8.48,17.078,9.588,17.056,10.965z"/>
	<path style="fill:#303030;" d="M14.525,8.48c-1.381,0-2.499,1.108-2.521,2.485c0.002,0,0.003,0,0.005,0
		c0.044-1.357,1.15-2.445,2.517-2.445c1.368,0,2.474,1.088,2.519,2.445c0.001,0,0.002,0,0.004,0
		C17.025,9.588,15.906,8.48,14.525,8.48z"/>
	<path style="fill:#303030;" d="M14.525,8.438L14.525,8.438c-0.002,0-0.003,0-0.004,0c0,0.014,0.004,0.028,0.004,0.042
		c0-0.014,0.004-0.028,0.004-0.042C14.528,8.438,14.527,8.438,14.525,8.438L14.525,8.438z"/>
	<path style="fill:#E9A122;" d="M19.576,8.52c-1.365,0-2.472,1.088-2.517,2.445c-0.001,0.028-0.008,0.054-0.008,0.082
		c1.395,0,2.524,1.129,2.524,2.524c0-1.395,1.132-2.524,2.525-2.524c0-0.028-0.008-0.054-0.008-0.082
		C22.049,9.608,20.945,8.52,19.576,8.52z"/>
	<path style="fill:#108EA1;" d="M14.525,8.52c-1.366,0-2.473,1.088-2.517,2.445C12.008,10.993,12,11.018,12,11.046
		c1.397,0,2.525,1.129,2.525,2.525c0-1.395,1.131-2.524,2.526-2.524c0-0.028-0.007-0.054-0.008-0.082
		C16.999,9.608,15.894,8.52,14.525,8.52z"/>
	<path style="fill:#303030;" d="M14.525,8.397c0.001,0,0.003,0,0.004,0c0.002,0,0.003,0,0.004,0c0.045-1.356,1.15-2.445,2.519-2.445
		c1.366,0,2.472,1.088,2.517,2.445c0.002,0,0.005-0.001,0.008-0.001c0-1.395-1.13-2.526-2.524-2.526c-0.001,0-0.003,0-0.004,0
		C15.653,5.874,14.525,7.003,14.525,8.397z"/>
	<path style="fill:#303030;" d="M12,5.953c1.366,0,2.473,1.088,2.518,2.445c0.001,0,0.002,0,0.004,0c0.001,0,0.003,0,0.004,0
		c0-1.394-1.129-2.523-2.521-2.526c-0.002,0-0.003,0-0.005,0c-0.001,0-0.003,0-0.004,0c-1.394,0.002-2.521,1.132-2.521,2.526
		c0.001,0,0.003,0,0.004,0s0.003,0,0.004,0C9.527,7.042,10.633,5.953,12,5.953z"/>
	<path style="fill:#E0454B;" d="M17.052,5.953c-1.368,0-2.474,1.088-2.519,2.445c0,0.014-0.003,0.026-0.004,0.04
		c0,0.014-0.004,0.028-0.004,0.042c1.381,0,2.5,1.108,2.522,2.485c0,0.014,0.004,0.026,0.004,0.041c0-0.014,0.004-0.027,0.004-0.041
		c0.022-1.376,1.141-2.485,2.521-2.485c0-0.014-0.004-0.028-0.004-0.042c-0.001-0.014-0.004-0.026-0.004-0.04
		C19.523,7.042,18.418,5.953,17.052,5.953z"/>
	<path style="fill:#E9A122;" d="M14.518,8.398C14.473,7.042,13.366,5.953,12,5.953c-1.367,0-2.473,1.088-2.518,2.445
		C9.481,8.425,9.475,8.451,9.475,8.479c1.396,0,2.525,1.13,2.525,2.526l0,0c0,0,0,0,0,0.001c0-0.014,0.004-0.027,0.004-0.041
		c0.022-1.376,1.141-2.485,2.521-2.485c0-0.014-0.004-0.028-0.004-0.042C14.521,8.424,14.518,8.412,14.518,8.398z"/>
	<path style="fill:#303030;" d="M6.949,5.994c1.367,0,2.473,1.087,2.517,2.444c0.003,0,0.006-0.001,0.009-0.001l0,0
		c0-1.396-1.13-2.526-2.525-2.526l0,0c-1.396,0-2.525,1.13-2.525,2.526c0.003,0,0.005,0.001,0.008,0.001
		C4.476,7.082,5.582,5.994,6.949,5.994z"/>
	<path style="fill:#108EA1;" d="M6.949,11.004c0-1.394,1.127-2.523,2.521-2.525c0-0.014-0.003-0.027-0.004-0.041
		C9.422,7.082,8.316,5.994,6.949,5.994S4.476,7.082,4.432,8.438c0,0.014-0.004,0.026-0.004,0.041
		C5.821,8.481,6.949,9.61,6.949,11.004z"/>
	<path style="fill:#108EA1;" d="M6.945,11.005c0,0.014,0.004,0.027,0.004,0.041c0-0.014,0.004-0.027,0.004-0.041
		c-0.001,0-0.002,0-0.004,0C6.948,11.004,6.946,11.005,6.945,11.005z"/>
	<path style="fill:#303030;" d="M4.424,8.562c1.367,0,2.474,1.087,2.518,2.444c0.001,0,0.003,0,0.004,0s0.003,0,0.004,0
		c0-1.394-1.128-2.523-2.521-2.525c-0.001,0-0.003,0-0.004,0c-1.396,0-2.525,1.13-2.525,2.526c0.003,0,0.005,0.001,0.008,0.001
		C1.95,9.648,3.056,8.562,4.424,8.562z"/>
	<path style="fill:#E9A122;" d="M4.424,8.562c-1.368,0-2.474,1.087-2.518,2.444c-0.001,0.028-0.008,0.054-0.008,0.082
		c1.396,0,2.525,1.131,2.525,2.526c0-1.396,1.131-2.526,2.525-2.526c0-0.028-0.007-0.054-0.008-0.082
		C6.897,9.648,5.791,8.562,4.424,8.562z"/>
	<path style="fill:#303030;" d="M12,11.046L12,11.046c-0.001,0-0.003,0-0.004,0c0,0.014,0.004,0.027,0.004,0.041
		c-1.38,0-2.499,1.108-2.521,2.484c0.001,0,0.003,0.001,0.004,0.001c0.045-1.357,1.151-2.444,2.518-2.444
		c1.369,0,2.473,1.086,2.518,2.444c0.002,0,0.005-0.001,0.008-0.001C14.525,12.175,13.397,11.046,12,11.046z"/>
	<path style="fill:#E9A122;" d="M12,11.128c-1.366,0-2.473,1.086-2.518,2.444c-0.001,0.027-0.008,0.054-0.008,0.082
		c1.396,0,2.525,1.132,2.525,2.525c0-1.394,1.131-2.525,2.525-2.525c0-0.028-0.008-0.055-0.008-0.082
		C14.473,12.215,13.369,11.128,12,11.128z"/>
	<path style="fill:#303030;" d="M12,11.004c0-1.396-1.13-2.526-2.525-2.526l0,0c-0.002,0-0.003,0-0.005,0
		C8.076,8.481,6.949,9.61,6.949,11.004c0.002,0,0.003,0,0.004,0c0.002,0,0.003,0,0.005,0c0.044-1.357,1.148-2.444,2.517-2.444
		c1.367,0,2.474,1.087,2.518,2.444C11.995,11.005,11.997,11.004,12,11.004L12,11.004z"/>
	<path style="fill:#E0454B;" d="M12,11.087c0-0.014-0.004-0.027-0.004-0.041c0-0.014-0.004-0.027-0.004-0.041
		c-0.044-1.357-1.15-2.444-2.518-2.444c-1.368,0-2.473,1.087-2.517,2.444c-0.001,0.028-0.009,0.054-0.009,0.082
		c1.396,0,2.525,1.13,2.525,2.526c0-0.015,0.004-0.027,0.004-0.042C9.501,12.195,10.62,11.087,12,11.087z"/>
</g>
<path style="fill:#B2B3B3;" d="M15.605,18.444v3.418h7.941v-3.418H15.605z M17.763,20.985H16.1v-1.663h1.663V20.985z M20.907,20.99
	h-2.646v-0.579h2.646V20.99z M20.907,19.904h-2.646v-0.579h2.646V19.904z M23.058,20.985h-1.665v-1.663h1.665V20.985z"/>
<rect x="16.1" y="19.322" style="fill:#C4C4C3;" width="1.663" height="1.663"/>
<rect x="21.393" y="19.322" style="fill:#C4C4C3;" width="1.664" height="1.663"/>
<rect x="18.261" y="19.325" style="fill:#CFCECE;" width="2.646" height="0.581"/>
<rect x="18.261" y="20.411" style="fill:#CFCECE;" width="2.646" height="0.579"/>
<polygon style="fill:#C6C6C5;" points="22.147,17.69 22.147,14.74 17.006,14.74 17.006,17.69 19.238,17.69 19.238,18.229 
	18.488,18.229 18.488,18.435 19.238,18.435 19.914,18.435 20.666,18.435 20.666,18.229 19.914,18.229 19.914,17.69 "/>
</svg>
