<?xml version="1.0" encoding="utf-8"?>
<!-- Generator: Adobe Illustrator 16.0.0, SVG Export Plug-In . SVG Version: 6.00 Build 0)  -->
<!DOCTYPE svg PUBLIC "-//W3C//DTD SVG 1.1//EN" "http://www.w3.org/Graphics/SVG/1.1/DTD/svg11.dtd">
<svg version="1.1" id="Layer_2" xmlns="http://www.w3.org/2000/svg" xmlns:xlink="http://www.w3.org/1999/xlink" x="0px" y="0px"
	 width="24px" height="24px" viewBox="0 0 24 24" style="enable-background:new 0 0 24 24;" xml:space="preserve">
<path style="fill:#ECB01F;" d="M8.307,21.534c0.104,1.033,1.727,1.856,3.73,1.856c2.003,0,3.626-0.823,3.73-1.856
	c-1.076,0.131-2.35,0.21-3.729,0.21C10.657,21.744,9.383,21.665,8.307,21.534z"/>
<path style="fill:#E1454B;" d="M18.912,20.459V2.244c0-0.932-3.078-1.688-6.875-1.688S5.162,1.312,5.162,2.244
	c0,0.001,0,0.001,0,0.002v18.373l0.359,0.25c0.497,0.276,1.497,0.509,2.785,0.665c1.076,0.131,2.35,0.21,3.731,0.21
	c1.38,0,2.653-0.079,3.729-0.21c1.289-0.156,2.289-0.389,2.786-0.665l0.358-0.25v-0.152c0-0.002,0.001-0.003,0.001-0.004
	S18.912,20.461,18.912,20.459z M12.037,2.056c1.519,0,2.752,1.234,2.752,2.751s-1.233,2.751-2.752,2.751
	c-1.517,0-2.751-1.234-2.751-2.751S10.52,2.056,12.037,2.056z M10.459,17.666c0-0.181,0.037-0.352,0.093-0.513
	c0.001-0.008,0-0.015,0.001-0.022c0.221-1.024,1.484-2.793,1.484-2.793s1.359,2.003,1.519,2.905c0.002,0.009,0,0.015,0.001,0.022
	c0.034,0.129,0.058,0.262,0.058,0.4c0,0.871-0.706,1.578-1.578,1.578S10.459,18.537,10.459,17.666z"/>
<path style="fill:#E1454B;" d="M12.037,6.87c1.137,0,2.064-0.926,2.064-2.063s-0.928-2.063-2.064-2.063
	c-1.138,0-2.063,0.926-2.063,2.063S10.899,6.87,12.037,6.87z"/>
<path style="fill:#FFFFFF;" d="M12.037,7.558c1.519,0,2.752-1.234,2.752-2.751s-1.233-2.751-2.752-2.751
	c-1.517,0-2.751,1.234-2.751,2.751S10.52,7.558,12.037,7.558z M12.037,2.743c1.137,0,2.064,0.926,2.064,2.063
	S13.174,6.87,12.037,6.87c-1.138,0-2.063-0.926-2.063-2.063S10.899,2.743,12.037,2.743z"/>
<path style="fill:#FFFFFF;" d="M13.615,17.666c0-0.139-0.023-0.271-0.058-0.4c-0.001-0.008,0.001-0.014-0.001-0.022
	c-0.16-0.902-1.519-2.905-1.519-2.905s-1.263,1.769-1.484,2.793c-0.001,0.008,0,0.015-0.001,0.022
	c-0.056,0.161-0.093,0.332-0.093,0.513c0,0.871,0.707,1.578,1.578,1.578S13.615,18.537,13.615,17.666z M11.381,17.807
	c0-0.362,0.294-0.656,0.656-0.656s0.656,0.294,0.656,0.656s-0.294,0.656-0.656,0.656S11.381,18.169,11.381,17.807z"/>
<circle style="fill:#E1454B;" cx="12.038" cy="17.807" r="0.656"/>
</svg>
