<?xml version="1.0" encoding="utf-8"?>
<!-- Generator: Adobe Illustrator 16.0.0, SVG Export Plug-In . SVG Version: 6.00 Build 0)  -->
<!DOCTYPE svg PUBLIC "-//W3C//DTD SVG 1.1//EN" "http://www.w3.org/Graphics/SVG/1.1/DTD/svg11.dtd">
<svg version="1.1" id="Layer_2" xmlns="http://www.w3.org/2000/svg" xmlns:xlink="http://www.w3.org/1999/xlink" x="0px" y="0px"
	 width="24px" height="24px" viewBox="0 0 24 24" style="enable-background:new 0 0 24 24;" xml:space="preserve">
<rect x="0.015" style="fill:#EEFDFF;" width="23.985" height="19.688"/>
<rect y="19.688" style="fill:#EAEAEA;" width="24" height="4.313"/>
<g>
	<path style="fill:#ADADAD;" d="M13.068,17.462v4.429h10.289v-4.429H13.068z M15.863,20.755h-2.155V18.6h2.155V20.755z
		 M19.938,20.761h-3.43v-0.75h3.43V20.761z M19.938,19.354h-3.43v-0.75h3.43V19.354z M22.725,20.755h-2.158V18.6h2.158V20.755z"/>
	<rect x="13.708" y="18.6" style="fill:#C6C2B8;" width="2.155" height="2.155"/>
	<rect x="20.566" y="18.6" style="fill:#C6C2B8;" width="2.156" height="2.155"/>
	<rect x="16.508" y="18.604" style="fill:#CCCAC8;" width="3.43" height="0.752"/>
	<rect x="16.508" y="20.011" style="fill:#CCCAC8;" width="3.43" height="0.75"/>
	<polygon style="fill:#C6C2B8;" points="21.545,16.484 21.545,12.662 14.882,12.662 14.882,16.484 17.775,16.484 17.775,17.182 
		16.803,17.182 16.803,17.449 17.775,17.449 18.65,17.449 19.625,17.449 19.625,17.182 18.65,17.182 18.65,16.484 	"/>
</g>
<path style="fill:#292526;" d="M23.091,4.533c0.022,0.002,0.05,0.004,0.072,0.006c0.022,0.063,0.049,0.02,0.073,0.002
	c0.098-0.056,0.199-0.094,0.313-0.099c0.03-0.001,0.08-0.016,0.085,0.022c0.007,0.04,0.034,0.079,0.003,0.129
	c-0.035,0.057-0.094,0.098-0.109,0.167c-0.006,0.006-0.016,0.014-0.021,0.021c-0.022,0.007-0.047,0.014-0.052,0.043
	c-0.073,0.069-0.146,0.139-0.223,0.208c-0.098,0.087-0.23,0.132-0.328,0.262c0.158-0.012,0.287-0.022,0.416-0.031
	c0.037-0.002,0.074-0.004,0.111-0.004c0.051,0.001,0.105,0.044,0.106,0.07c0.001,0.059-0.063,0.04-0.104,0.05
	c-0.151,0.038-0.316,0.04-0.447,0.156c-0.021,0.019-0.061,0.055-0.094,0.036c-0.059-0.028-0.102-0.006-0.146,0.021
	c-0.161,0.097-0.225-0.08-0.331-0.128c-0.056-0.024-0.089-0.083-0.117-0.139c-0.021-0.047-0.053-0.093-0.065-0.144
	c-0.09-0.307-0.271-0.478-0.609-0.425c-0.016,0.002-0.031-0.002-0.049-0.017c0.091-0.031,0.184-0.022,0.275-0.017
	c0.096,0.006,0.194,0.049,0.282-0.026c0.183-0.029,0.202-0.019,0.282,0.148c0.061,0.125,0.074,0.129,0.167,0.034
	c0.117-0.121,0.245-0.226,0.386-0.316C23.007,4.554,23.049,4.543,23.091,4.533z"/>
<path style="fill:#E5E6EC;" d="M21.096,4.579c0.004-0.008,0.006-0.023,0.012-0.025c0.006-0.002,0.021,0.006,0.027,0.009
	c-0.002,0.01-0.004,0.024-0.014,0.027C21.117,4.593,21.105,4.583,21.096,4.579z"/>
<path style="fill:#292526;" d="M20.795,8.249c-0.283-0.036-0.568-0.07-0.855-0.105c-0.111-0.014-0.229-0.029-0.346-0.037
	c-0.107-0.005-0.152,0.033-0.162,0.163c-0.061,0.697-0.047,1.395-0.039,2.092c0,0.28,0.061,0.55,0.059,0.827
	c0,0.053,0.006,0.104,0.008,0.168c-0.127-0.023-0.152-0.095-0.156-0.198c-0.006-0.218,0.016-0.451-0.051-0.654
	c-0.063-0.193-0.131-0.381-0.16-0.583c0-0.005-0.002-0.011-0.006-0.017C18.957,9.76,18.957,9.76,18.977,9.52
	c0.004-0.047,0.006-0.094,0.008-0.162c-0.088,0.072-0.074,0.189-0.162,0.257c-0.057-0.186,0.047-0.342,0.053-0.511
	c-0.08,0.019-0.084,0.12-0.184,0.141c0.059-0.147,0.109-0.283,0.166-0.415c0.045-0.101-0.002-0.154-0.086-0.111
	c-0.127,0.064-0.17-0.168-0.291-0.06c-0.047-0.055-0.033-0.121-0.021-0.18c0.01-0.044,0.059-0.096,0.033-0.129
	c-0.211-0.285-0.072-0.733-0.441-0.947c-0.066-0.039-0.111-0.118-0.109-0.213c0.007-0.195-0.088-0.341-0.25-0.44
	c-0.146-0.092-0.293-0.203-0.477-0.223c-0.209-0.111-0.439-0.154-0.67-0.192c0.021-0.022,0.043-0.045,0.064-0.067
	c0.201-0.009,0.385,0.104,0.588,0.09V6.355c-0.006,0.021,0.008,0.026,0.025,0.025c0.26,0.134,0.521,0.252,0.824,0.221
	c0.271-0.026,0.498,0.045,0.648,0.296c0.031,0.055,0.029,0.104,0.043,0.157c0.018,0.048,0.027,0.108,0.098,0.114
	c0.035,0.002,0.063,0.002,0.088-0.039c0.133-0.223,0.359-0.341,0.557-0.492C19.646,6.58,19.803,6.485,20,6.554
	c0.145,0.052,0.248,0.181,0.178,0.324c-0.104,0.216-0.125,0.473-0.293,0.666c-0.021,0.027-0.068,0.119,0.053,0.154
	c0.355,0.098,0.703,0.221,1.061,0.32c0.16,0.045,0.34-0.019,0.5,0.059c0.02,0.011,0.037,0.021,0.063,0.036
	C21.303,8.185,21.055,8.244,20.795,8.249z"/>
<path style="fill:#292526;" d="M14.887,1.528c0.063-0.043,0.016-0.129,0.07-0.175c0.07-0.06,0.111-0.225,0.248-0.075
	c0.008,0.008,0.021,0.009,0.031,0.012c0.068,0.02,0.211-0.13,0.189,0.069c-0.016,0.105,0.055,0.176,0.059,0.274
	c0.01,0.154-0.064,0.259-0.104,0.386c-0.049,0.169,0.039,0.333,0.035,0.501c0,0.052-0.006,0.106,0.006,0.155
	c0.045,0.17,0.086,0.288,0.33,0.315c0.453,0.054,0.896,0.198,1.363,0.191c0.082,0,0.133,0.049,0.129,0.118
	c-0.002,0.091-0.084,0.056-0.137,0.053c-0.307-0.023-0.604,0.042-0.887,0.135c-0.158,0.051-0.318,0.133-0.449,0.248
	c-0.615,0.413-1.189,0.225-1.754-0.126c-0.152-0.097-0.314-0.177-0.479-0.263c-0.189-0.1-0.395-0.014-0.588,0.037
	c-0.204,0.052-0.398,0.134-0.626,0.266c0.059-0.134,0.141-0.176,0.222-0.208c0.238-0.091,0.477-0.178,0.721-0.254
	c0.117-0.039,0.207-0.103,0.285-0.199c0.207-0.262,0.402-0.298,0.695-0.142c0.1,0.051,0.197,0.176,0.295,0.141
	c0.102-0.039,0.033-0.189,0.057-0.289C14.699,2.309,14.732,1.905,14.887,1.528z"/>
<path style="fill:#E5E6EC;" d="M20.004,9.538c0.008,0.005,0.018,0.008,0.025,0.013c-0.002,0.01-0.006,0.023-0.012,0.026
	C20.012,9.579,20,9.57,19.992,9.565C19.996,9.558,19.998,9.547,20.004,9.538z"/>
<g>
	<path style="fill:#E0454B;" d="M6.279,11.846c0.068,0.064,0.133,0.097,0.241,0.069c0.143-0.039,0.272,0.028,0.385,0.125
		c0.108,0.094,0.056,0.131-0.04,0.164c-0.015,0.011-0.029,0.02-0.043,0.03c-0.069,0.012-0.138,0.026-0.229,0.042
		c0.119,0.075,0.129,0.2,0.18,0.304c0.037,0.076,0.023,0.148-0.039,0.21c-0.068,0.069-0.144,0.075-0.225,0.032
		c-0.066-0.036-0.131-0.076-0.202-0.117c-0.057,0.141-0.118,0.281-0.279,0.337c-0.018-0.036-0.049-0.044-0.085-0.034l0.003,0.002
		c-0.014-0.008-0.026-0.018-0.04-0.025c-0.005-0.008-0.012-0.014-0.022-0.016c-0.011-0.058-0.025-0.115-0.035-0.173
		c-0.008-0.048-0.027-0.084-0.08-0.063c-0.151,0.061-0.117-0.057-0.117-0.125c0.001-0.222,0.173-0.366,0.259-0.549
		c0.009-0.021,0.021-0.04,0.035-0.06c0.132-0.004,0.213-0.123,0.334-0.156L6.279,11.846L6.279,11.846z M6.301,12.25
		c-0.009-0.037-0.032-0.054-0.062-0.054c-0.067,0.001-0.13,0.029-0.155,0.091c-0.019,0.044,0.034,0.046,0.067,0.054
		C6.234,12.361,6.249,12.277,6.301,12.25z"/>
	<path style="fill:#EAA001;" d="M4.727,6.826c0.009-0.055,0.018-0.109,0.027-0.167C4.816,6.668,4.831,6.726,4.872,6.75
		c0.044,0.129,0.129,0.178,0.27,0.174c0.222-0.007,0.45-0.008,0.622,0.212c-0.073,0-0.127-0.001-0.183,0.001
		C5.517,7.14,5.473,7.149,5.477,7.239c0.011,0.216-0.134,0.332-0.352,0.259C4.988,7.453,4.936,7.497,4.892,7.606
		C4.866,7.674,4.826,7.732,4.753,7.76C4.627,7.807,4.581,7.764,4.581,7.627c0.001-0.21,0.017-0.408,0.182-0.569
		C4.847,6.977,4.788,6.896,4.727,6.826z"/>
	<path style="fill:#D0D1D5;" d="M6.279,11.84c-0.121,0.033-0.202,0.152-0.334,0.156C6,11.824,6.141,11.835,6.279,11.84z"/>
	<path style="fill:#E0454B;" d="M6.802,1.389C6.758,1.344,6.697,1.371,6.646,1.353C6.662,1.239,6.52,1.246,6.492,1.156
		C6.467,1.075,6.416,0.995,6.562,1.02c0.102,0.016,0.101-0.057,0.127-0.111C6.743,0.8,6.803,0.766,6.875,0.892
		c0.065,0.115,0.16,0.019,0.24,0.039C7.15,0.96,7.164,1,7.155,1.043C7.131,1.174,7.182,1.248,7.317,1.268
		c0.06,0.01,0.112,0.04,0.148,0.092c0.013,0.018,0.031,0.058,0.014,0.059C7.283,1.437,7.368,1.595,7.337,1.695
		C7.33,1.715,7.305,1.73,7.289,1.745C7.185,1.731,7.08,1.623,6.98,1.77C6.958,1.801,6.884,1.761,6.867,1.7L6.802,1.389z"/>
	<path style="fill:#0F8EA1;" d="M17.193,6.358c-0.203,0.014-0.387-0.099-0.588-0.09c0.008-0.048,0.041-0.116-0.047-0.115
		c-0.068,0.002-0.111,0.073-0.123,0.128c-0.021,0.094,0.063,0.047,0.104,0.054c0.229,0.038,0.461,0.081,0.67,0.192
		c-0.041,0.188-0.188,0.104-0.289,0.101c-0.094-0.004-0.121,0.003-0.129,0.106C16.787,6.848,16.789,6.989,16.604,7
		c-0.088,0.006-0.148-0.021-0.172-0.089c-0.053-0.176-0.127-0.098-0.199-0.021c-0.063-0.035-0.064-0.103-0.104-0.147
		c0-0.089-0.002-0.179-0.002-0.271c-0.018-0.082,0.098-0.136,0.053-0.225C16.2,6.051,16.32,5.883,16.479,5.85
		c0.127-0.027,0.229-0.069,0.33-0.133c0.021,0,0.047-0.002,0.068-0.003c0.01,0.006,0.018,0.009,0.031,0.01
		c0.096,0.022,0.191,0.045,0.285,0.067c0.014,0.191-0.172,0.203-0.271,0.305c0.113,0.042,0.176,0.156,0.271,0.224
		C17.195,6.333,17.193,6.346,17.193,6.358z"/>
	<path style="fill:#E0454B;" d="M13.615,5.596c-0.04-0.083-0.1-0.12-0.194-0.103c-0.073,0.014-0.147-0.005-0.214-0.042
		c-0.005-0.008-0.005-0.017,0.002-0.022c0.292-0.06,0.368-0.287,0.449-0.532c0.043-0.122,0.133-0.252,0.301-0.252l-0.002-0.001
		c-0.045,0.059-0.045,0.131-0.063,0.199c-0.014,0.044-0.012,0.071,0.053,0.085c0.229,0.058,0.299,0.223,0.162,0.422
		c-0.064,0.098-0.08,0.155,0.02,0.225c0.119,0.086,0.164,0.2,0.109,0.344c-0.035,0.004-0.07,0.009-0.102,0.013
		c-0.031-0.017-0.063-0.034-0.094-0.05c-0.041-0.04-0.088-0.046-0.145-0.03C13.777,5.8,13.691,5.703,13.615,5.596z"/>
	<path style="fill:#E0454B;" d="M12.029,5.5c-0.148,0.05-0.293,0.072-0.423-0.042c-0.083-0.083-0.182-0.156-0.167-0.294
		c0.066-0.023,0.111,0.032,0.169,0.042c0.048-0.02,0.022-0.073,0.041-0.105c0.027-0.049,0.027-0.123,0.099-0.135
		c0.08-0.013,0.094,0.052,0.12,0.106c0.015,0.035,0.027,0.082,0.088,0.055c0.063-0.027,0.155-0.043,0.162,0.035
		c0.009,0.093,0.081,0.212-0.042,0.291C12.058,5.465,12.044,5.484,12.029,5.5z"/>
	<path style="fill:#0F8EA1;" d="M12.85,5.413C12.803,5.4,12.734,5.451,12.709,5.37c0.063-0.06,0.123-0.116,0.154-0.208
		c0.037-0.1,0.121-0.164,0.234-0.157c0.102,0.006,0.146,0.081,0.15,0.169c0.002,0.087-0.036,0.154-0.145,0.17
		C13.021,5.359,12.912,5.302,12.85,5.413z"/>
	<path style="fill:#E0454B;" d="M13.959,4.645c0,0,0,0-0.002-0.001L13.959,4.645z"/>
	<path style="fill:#E0454B;" d="M7.882,6.701C7.703,6.655,7.522,6.612,7.35,6.553C7.2,6.501,7.07,6.38,7.013,6.211
		C7.067,6.17,7.101,6.128,7.032,6.07c-0.037-0.032-0.058-0.074-0.07-0.122c-0.029-0.125,0.042-0.396,0.11-0.411
		c0.053-0.016,0.13,0.071,0.273,0.314c0.018-0.156,0.144-0.2,0.232-0.277c0.07-0.062,0.149-0.055,0.231-0.006
		c0.075,0.044,0.079,0.108,0.064,0.184c-0.013,0.076-0.019,0.153-0.029,0.23c0.088,0.024,0.183,0.002,0.263,0.051
		C8.168,6.07,8.22,6.103,8.218,6.194C8.216,6.276,8.197,6.329,8.121,6.363C8.049,6.397,7.946,6.419,8.053,6.531
		c0.048,0.048-0.004,0.072-0.04,0.091C7.968,6.645,7.905,6.64,7.882,6.701z M7.537,6.259c0.009-0.095-0.08-0.092-0.13-0.12
		C7.369,6.119,7.363,6.17,7.366,6.194c0.009,0.075,0.067,0.111,0.13,0.126C7.525,6.329,7.543,6.294,7.537,6.259z"/>
	<path style="fill:#EAA001;" d="M6.291,3.138c-0.082,0.056-0.164,0.113-0.246,0.17c0.164,0.101,0.339,0.198,0.32,0.437
		C6.343,3.778,6.321,3.811,6.298,3.844C6.274,3.85,6.249,3.855,6.225,3.86C6.213,3.861,6.2,3.861,6.188,3.861
		C6.147,3.854,6.106,3.85,6.066,3.839C5.969,3.813,5.918,3.841,5.93,3.95c0.013,0.117-0.024,0.217-0.138,0.255
		C5.667,4.247,5.575,4.193,5.531,4.064c-0.018-0.051-0.053-0.086-0.104-0.03C5.329,4.141,5.312,4.05,5.283,3.978
		C5.211,3.793,5.297,3.616,5.304,3.436c0.001-0.035,0.004-0.07,0.007-0.104C5.33,3.308,5.348,3.286,5.367,3.263
		c0.115-0.097,0.178-0.295,0.391-0.205c0.007,0.001,0.024-0.023,0.037-0.034c0.142-0.13,0.291-0.103,0.456-0.042
		C6.371,3.025,6.353,3.068,6.291,3.138z M5.765,3.378C5.764,3.366,5.735,3.36,5.71,3.36C5.623,3.356,5.602,3.435,5.565,3.488
		c-0.013,0.018,0.007,0.06,0.044,0.061C5.704,3.55,5.722,3.467,5.765,3.378z"/>
	<path style="fill:#D6D7DB;" d="M16.908,5.724c-0.014,0-0.021-0.004-0.031-0.01C16.898,5.686,16.904,5.7,16.908,5.724z"/>
	<path style="fill:#E0454B;" d="M17.219,6.381c-0.018,0.001-0.031-0.004-0.025-0.025C17.201,6.364,17.211,6.372,17.219,6.381z"/>
	<path style="fill:#E0454B;" d="M7.792,8.986c0.021,0,0.036,0.007,0.036,0.031c0.013,0.015,0.026,0.028,0.038,0.042L7.864,9.057
		c-0.007,0.037,0.001,0.062,0.041,0.08C8.002,9.181,8.03,9.262,8.017,9.362c-0.013,0.077,0,0.136,0.099,0.123L8.113,9.481
		c-0.016,0.146,0.048,0.294-0.03,0.44C8.03,10.02,7.992,10.058,7.915,9.95C7.86,9.874,7.804,9.8,7.744,9.718
		c-0.054,0.16-0.18,0.253-0.325,0.307C7.323,10.064,7.248,9.982,7.18,9.914c0-0.023,0-0.046,0-0.068
		c0.01-0.04,0.018-0.079,0.032-0.117C7.239,9.65,7.241,9.593,7.131,9.593C7.05,9.592,6.976,9.557,6.907,9.513
		C6.849,9.416,6.824,9.312,6.919,9.228c0.069-0.059,0.228-0.059,0.084-0.212C6.971,8.979,7.065,8.944,7.109,8.93
		c0.119-0.04,0.245,0,0.368-0.014C7.568,9.003,7.681,8.989,7.792,8.986z M7.712,9.347c-0.03-0.049-0.069-0.101-0.137-0.11
		C7.543,9.233,7.531,9.251,7.534,9.292c0.007,0.085,0.073,0.099,0.13,0.117C7.694,9.417,7.715,9.39,7.712,9.347z"/>
	<path style="fill:#0F8EA1;" d="M6.589,3.064c-0.028-0.07,0.066-0.251-0.148-0.152C6.38,2.939,6.38,2.858,6.377,2.816
		C6.366,2.667,6.448,2.547,6.52,2.426c0.024-0.04,0.068-0.066,0.055-0.122c0.028-0.019,0.052-0.041,0.05-0.078
		C6.637,2.213,6.648,2.199,6.66,2.187c0.08-0.045,0.175-0.062,0.241-0.135c0.007-0.008,0.022-0.017,0.032-0.015
		c0.232,0.067,0.504-0.051,0.712,0.161C7.743,2.297,7.706,2.327,7.606,2.36C7.523,2.387,7.438,2.416,7.34,2.447
		C7.451,2.525,7.472,2.648,7.513,2.76c0.028,0.08,0.002,0.146-0.064,0.203C7.385,3.02,7.321,3.015,7.253,2.983
		c-0.068-0.031-0.134-0.07-0.212-0.114c-0.044,0.126-0.083,0.272-0.23,0.304C6.732,3.19,6.638,3.15,6.589,3.064z M6.948,2.353
		C6.902,2.378,6.825,2.386,6.813,2.46C6.804,2.509,6.857,2.502,6.89,2.507c0.078,0.011,0.097-0.071,0.147-0.102
		C7.042,2.401,6.999,2.353,6.948,2.353z"/>
	<path style="fill:#0F8EA1;" d="M10.929,6.701C10.834,6.8,10.687,6.788,10.57,6.865c0.096,0.085,0.108,0.208,0.149,0.314
		c0.031,0.081-0.003,0.142-0.07,0.2c-0.067,0.061-0.126,0.045-0.192,0.012c-0.038-0.02-0.077-0.034-0.109-0.057
		c-0.075-0.058-0.105-0.055-0.141,0.048c-0.067,0.192-0.195,0.249-0.332,0.175c-0.11-0.059-0.063-0.179-0.1-0.266
		C9.586,7.335,9.55,7.289,9.601,7.09c0.022-0.083,0.097-0.148,0.078-0.245L9.677,6.849c0.028,0.007,0.035-0.01,0.039-0.033
		c0.1-0.132,0.193-0.269,0.36-0.333c0.078-0.031,0.144-0.089,0.222-0.008c0.032,0.032,0.076,0.03,0.117,0.019
		C10.64,6.43,10.799,6.532,10.929,6.701z M10.161,6.762c-0.057,0.028-0.133,0.039-0.14,0.117C10.016,6.926,10.067,6.923,10.1,6.92
		c0.067-0.008,0.115-0.051,0.128-0.116C10.232,6.775,10.191,6.763,10.161,6.762z"/>
	<path style="fill:#E0454B;" d="M4.168,4.783c0.083-0.028,0.175-0.037,0.235-0.111c0.007-0.008,0.02-0.015,0.031-0.017
		c0.042-0.004,0.09-0.024,0.121-0.008c0.195,0.1,0.457-0.057,0.619,0.177C5.231,4.903,5.23,4.928,5.15,4.962
		c-0.097,0.043-0.2,0.072-0.335,0.076c0.137,0.08,0.162,0.208,0.21,0.322c0.036,0.089,0.003,0.153-0.062,0.219
		C4.892,5.652,4.831,5.636,4.76,5.589C4.724,5.567,4.681,5.557,4.65,5.533C4.577,5.476,4.538,5.49,4.517,5.581
		C4.508,5.62,4.484,5.656,4.461,5.689C4.41,5.76,4.355,5.805,4.254,5.786C4.149,5.767,4.122,5.7,4.103,5.617
		c-0.015-0.055,0.008-0.16-0.1-0.107C3.889,5.567,3.899,5.483,3.896,5.428c-0.008-0.142,0.06-0.263,0.133-0.377
		c0.032-0.05,0.077-0.091,0.064-0.158C4.145,4.873,4.172,4.838,4.168,4.783z M4.56,5.018C4.475,4.925,4.41,4.991,4.349,5.043
		C4.326,5.062,4.328,5.102,4.361,5.115C4.462,5.157,4.5,5.069,4.56,5.018z"/>
	<path style="fill:#E0454B;" d="M13.924,8.144c0.201,0.055,0.371,0.058,0.5-0.158c0.102-0.171,0.25-0.311,0.477-0.324
		c0.023,0.064-0.041,0.079-0.063,0.111c-0.057,0.085-0.105,0.146,0.039,0.211c0.143,0.067,0.127,0.302-0.041,0.412
		c-0.123,0.08-0.123,0.156-0.053,0.244c0.084,0.107,0.016,0.23,0.059,0.338c-0.006,0-0.012,0.003-0.018,0.003
		c-0.004,0-0.012-0.003-0.016-0.005c-0.016,0.002-0.025,0.005-0.037,0.007c-0.213-0.112-0.414-0.233-0.477-0.49
		c-0.021-0.106-0.064-0.191-0.197-0.176C14.029,8.27,13.943,8.24,13.924,8.144z"/>
	<path style="fill:#EAA001;" d="M15.846,7.639c-0.188-0.072-0.256-0.209-0.221-0.402C15.623,7.1,15.623,7.1,15.523,7.083
		c0.086,0,0.182,0.024,0.229-0.084c0.027,0,0.059,0,0.088,0c0.029-0.002,0.045-0.02,0.051-0.048
		c0.064-0.002,0.127-0.003,0.191-0.005c0.033,0.034,0.125,0.06,0.031,0.119c-0.074,0.045-0.043,0.083-0.006,0.124
		c0.1,0.113,0.141,0.206-0.068,0.225c-0.057,0.005-0.059,0.045-0.061,0.089C15.975,7.585,15.924,7.625,15.846,7.639z"/>
	<path style="fill:#0F8EA1;" d="M14.703,9.237c0.098-0.013,0.191-0.032,0.289-0.039c0.104-0.007,0.133,0.046,0.092,0.14
		c-0.008,0.014-0.016,0.028-0.025,0.042c-0.035,0.061,0.023,0.092,0.039,0.14c0.021,0.062,0,0.143-0.063,0.127
		c-0.168-0.041-0.146,0.093-0.188,0.172c-0.095,0.063-0.13-0.094-0.216-0.055c-0.094-0.044-0.067-0.13-0.075-0.206
		c0-0.054,0.002-0.106,0.004-0.159C14.607,9.346,14.656,9.292,14.703,9.237z"/>
	<path style="fill:#D0D1D5;" d="M6.314,6.45C6.32,6.441,6.326,6.426,6.329,6.426c0.014,0.003,0.028,0.01,0.041,0.018
		c0.001,0-0.007,0.016-0.009,0.025C6.344,6.463,6.329,6.458,6.314,6.45z"/>
	<path style="fill:#D0D1D5;" d="M6.66,2.187C6.648,2.199,6.637,2.213,6.625,2.226C6.606,2.214,6.589,2.2,6.571,2.188
		C6.6,2.187,6.629,2.187,6.66,2.187z"/>
	<path style="fill:#DCDEE2;" d="M14.34,8.93c-0.016-0.004-0.027-0.008-0.039-0.013c-0.018-0.006-0.018-0.018-0.002-0.023
		c0.012-0.004,0.025,0,0.041,0.003C14.34,8.897,14.34,8.913,14.34,8.93z"/>
	<path style="fill:#D0D1D5;" d="M9.716,6.816c-0.003,0.022-0.01,0.04-0.039,0.033C9.678,6.824,9.696,6.819,9.716,6.816z"/>
	<path style="fill:#D0D1D5;" d="M6.883,7.117c-0.01-0.016-0.021-0.031,0.001-0.042C6.889,7.072,6.902,7.084,6.911,7.09
		C6.902,7.1,6.893,7.108,6.883,7.117z"/>
	<path style="fill:#0F8EA1;" d="M10.333,10.745c-0.068,0.052-0.098,0.157-0.229,0.117c-0.114-0.035-0.146-0.097-0.149-0.203
		c-0.002-0.056-0.021-0.111-0.099-0.069c-0.104,0.056-0.101-0.018-0.104-0.086c-0.011-0.157,0.078-0.279,0.15-0.406
		c0.043-0.032,0.042-0.08,0.04-0.128c0.103-0.07,0.206-0.142,0.312-0.212c0.014-0.009,0.031-0.018,0.047-0.023
		c0.033-0.01,0.064-0.029,0.101-0.01c0.221,0.109,0.557-0.063,0.677,0.284c-0.112,0.073-0.248,0.098-0.411,0.132
		c0.168,0.072,0.166,0.224,0.213,0.345c0.042,0.102-0.063,0.153-0.119,0.216c-0.053,0.062-0.101,0.016-0.154-0.009
		c-0.046-0.024-0.08-0.073-0.14-0.067c-0.13-0.051-0.096,0.069-0.127,0.122L10.333,10.745z M10.423,10.112
		c-0.085-0.109-0.152-0.047-0.216,0.006c-0.025,0.021-0.037,0.056-0.004,0.074C10.299,10.245,10.345,10.143,10.423,10.112z"/>
	<path style="fill:#EAA001;" d="M9.568,11.333c0.199,0.195,0.42,0.174,0.662,0.092c0.144-0.049,0.268,0.047,0.399,0.104
		c-0.016,0.02-0.022,0.038-0.029,0.037c-0.303-0.033-0.223,0.176-0.213,0.339c-0.09,0.121-0.213,0.167-0.356,0.142
		c-0.083-0.016-0.099,0.025-0.118,0.089c-0.02,0.072-0.026,0.15-0.083,0.211c-0.051,0.056-0.12,0.091-0.18,0.082
		c-0.065-0.012-0.046-0.098-0.059-0.153c-0.049-0.2-0.058-0.392,0.049-0.581c0.043-0.073,0-0.145-0.084-0.195
		c-0.046,0.058,0.026,0.304-0.182,0.123c-0.042-0.037-0.078,0.037-0.113,0.062c-0.098,0.066-0.166,0.063-0.185-0.07
		c-0.004-0.033,0.011-0.088-0.027-0.093c-0.261-0.026-0.115-0.185-0.092-0.293c0.021-0.104,0.148-0.032,0.2-0.099l0.009-0.002h0.011
		c0.11,0.094,0.262,0.124,0.367,0.228C9.543,11.355,9.56,11.34,9.568,11.333z"/>
	<path style="fill:#EAA001;" d="M10.864,9.13c0.014-0.181,0.122-0.277,0.255-0.353c0.034-0.021,0.081-0.034,0.119-0.009
		c0.053,0.035,0.01,0.073-0.007,0.108c-0.041,0.091,0.048,0.079,0.083,0.097c0.145,0.074,0.152,0.121,0.021,0.214
		c-0.021,0.016-0.07,0.016-0.055,0.054c0.098,0.263-0.159,0.222-0.233,0.209C10.894,9.421,10.914,9.237,10.864,9.13z"/>
	<path style="fill:#0F8EA1;" d="M7.634,7.395c0.128,0.051,0.227,0.083,0.317,0.128c0.098,0.05,0.148,0.14,0.119,0.25
		C8.049,7.856,7.977,7.891,7.894,7.888C7.773,7.881,7.733,7.792,7.733,7.694C7.735,7.594,7.667,7.522,7.634,7.395z"/>
	<path style="fill:#E0454B;" d="M14.631,9.983c0.039-0.007,0.057-0.039,0.072-0.068c0.078,0.026,0.121-0.008,0.143-0.081
		C15,9.781,15.156,9.94,15.309,9.835c0.119,0.031,0.23,0.072,0.322,0.165c0.088,0.088,0.053,0.114-0.033,0.14
		c-0.082,0.027-0.166,0.053-0.268,0.087c0.088,0.08,0.107,0.189,0.146,0.291c0.029,0.077,0.031,0.156-0.043,0.227
		c-0.074,0.072-0.146,0.059-0.225,0.017c-0.029-0.017-0.064-0.029-0.094-0.05c-0.076-0.055-0.104-0.049-0.145,0.051
		c-0.045,0.111-0.098,0.252-0.279,0.19c-0.082-0.025-0.131-0.072-0.131-0.148c0.012-0.187-0.084-0.137-0.191-0.071
		c-0.012-0.068-0.02-0.124-0.027-0.178C14.387,10.338,14.541,10.178,14.631,9.983z M14.941,10.127
		c-0.055,0.045-0.137,0.045-0.152,0.116c-0.016,0.063,0.041,0.057,0.082,0.055c0.072-0.004,0.105-0.06,0.129-0.118
		C15.004,10.171,14.963,10.146,14.941,10.127z"/>
	<path style="fill:#E0454B;" d="M15.551,9.052c-0.104,0.055-0.197,0.084-0.293-0.016c-0.043-0.05-0.115-0.047-0.18-0.05
		c-0.037-0.001-0.096,0.016-0.102-0.038c-0.006-0.052,0.043-0.06,0.086-0.063c0.027,0,0.057-0.01,0.07-0.041
		c0.088,0.012,0.102-0.063,0.141-0.111c0.088,0.019,0.172,0.037,0.26,0.055l0.012,0.009c0.063,0.083,0.029,0.169,0.008,0.253
		L15.551,9.052L15.551,9.052z"/>
	<path style="fill:#E0454B;" d="M4.66,3.575c0.095,0,0.189-0.001,0.286-0.003C4.974,3.639,5.05,3.611,5.095,3.65
		C5.152,3.7,5.192,3.774,5.114,3.802C5.016,3.838,5.009,3.891,5.013,3.971c0.002,0.037-0.003,0.091-0.038,0.09
		C4.832,4.058,4.661,4.084,4.552,4.017C4.41,3.931,4.456,3.791,4.63,3.635C4.646,3.621,4.651,3.596,4.66,3.575z"/>
	<path style="fill:#EAA001;" d="M12.715,15.023c-0.259-0.004-0.407-0.141-0.419-0.361c-0.002-0.037,0.009-0.087,0.03-0.114
		c0.031-0.034,0.068,0.004,0.089,0.025c0.057,0.063,0.086,0.019,0.124-0.021c0.086-0.092,0.17-0.155,0.221,0.026
		c0.01,0.031,0.035,0.051,0.063,0.058c0.235,0.048,0.104,0.22,0.088,0.324C12.898,15.035,12.773,15.025,12.715,15.023z"/>
	<path style="fill:#DCDEE2;" d="M14.137,10.716c-0.016,0.014-0.027,0.024-0.039,0.035c-0.008-0.011-0.027-0.024-0.027-0.035
		c0-0.012,0.021-0.024,0.027-0.035C14.109,10.692,14.121,10.701,14.137,10.716z"/>
	<path style="fill:#D0D1D5;" d="M8.017,9.362c0.06,0.019,0.095,0.058,0.099,0.123C8.017,9.498,8.003,9.439,8.017,9.362z"/>
	<path style="fill:#DCDEE2;" d="M15.84,6.999c0.016-0.017,0.033-0.032,0.051-0.048C15.885,6.979,15.869,6.997,15.84,6.999z"/>
	<path style="fill:#DCDEE2;" d="M15.047,9.745c-0.01,0.004-0.021,0.013-0.029,0.01s-0.008-0.018-0.014-0.028
		c0.01-0.002,0.023-0.011,0.029-0.008C15.041,9.722,15.043,9.736,15.047,9.745z"/>
	<path style="fill:#EAA001;" d="M2.076,11.453c-0.113,0.09-0.021,0.152,0.028,0.216c0.018,0.023,0.059,0.025,0.074-0.005
		C2.232,11.552,2.122,11.516,2.076,11.453z"/>
	<path style="fill:none;" d="M0.379,7.708c0.033-0.023,0.108,0.014,0.105-0.053C0.482,7.586,0.423,7.566,0.356,7.571
		C0.307,7.574,0.25,7.583,0.259,7.641C0.268,7.683,0.314,7.729,0.379,7.708z"/>
	<path style="fill:none;" d="M0.724,3.83c0.005-0.081-0.063-0.087-0.105-0.118c-0.039,0-0.069,0.024-0.062,0.052
		c0.015,0.056,0.05,0.11,0.108,0.128C0.71,3.905,0.721,3.87,0.724,3.83z"/>
	<path style="fill:none;" d="M0.608,4.758c0.004,0.078,0.068,0.101,0.123,0.13C0.774,4.912,0.774,4.87,0.788,4.84
		C0.77,4.781,0.728,4.735,0.664,4.715C0.635,4.706,0.606,4.718,0.608,4.758z"/>
	<path style="fill:none;" d="M0.125,4.631c0.02-0.002,0.051-0.033,0.029-0.052c-0.155-0.124,0.009-0.158,0.062-0.223
		C0.162,4.327,0.104,4.311,0.049,4.285v0.381C0.073,4.65,0.095,4.633,0.125,4.631z"/>
	<path style="fill:none;" d="M6.329,6.426c-0.003,0-0.009,0.015-0.014,0.024C6.329,6.458,6.344,6.463,6.36,6.469
		c0-0.001,0.001-0.002,0.001-0.004c-0.002-0.004-0.006-0.006-0.009-0.01c0.004,0,0.008,0.001,0.012,0
		C6.367,6.451,6.37,6.444,6.369,6.444C6.357,6.436,6.343,6.43,6.329,6.426z"/>
	<path style="fill:none;" d="M14.34,8.896c-0.016-0.003-0.029-0.007-0.041-0.003c-0.016,0.005-0.016,0.017,0.002,0.023
		c0.004,0.001,0.01,0.003,0.014,0.004c0-0.001-0.002-0.001-0.002-0.002c0.006,0.002,0.012,0.005,0.017,0.007
		c0.004,0.001,0.008,0.003,0.013,0.004C14.34,8.913,14.34,8.897,14.34,8.896z"/>
	<path style="fill:#E0454B;" d="M0.054,8.219C0.139,8.195,0.189,8.125,0.258,8.08C0.429,8.375,0.45,8.398,0.583,8.352
		c0.254-0.089,0.129-0.314,0.169-0.496C0.827,7.876,0.895,7.9,0.966,7.913C1.137,7.94,1.156,7.92,1.099,7.76
		C1.048,7.621,0.971,7.505,0.812,7.476C0.753,7.465,0.725,7.432,0.693,7.385C0.614,7.269,0.457,7.23,0.358,7.256
		c-0.105,0.027-0.207,0.098-0.309,0.16V8.22C0.051,8.22,0.053,8.22,0.054,8.219z M0.356,7.571c0.067-0.004,0.126,0.015,0.129,0.084
		c0.002,0.067-0.073,0.03-0.105,0.053C0.315,7.729,0.269,7.683,0.26,7.64C0.25,7.583,0.307,7.574,0.356,7.571z"/>
	<path style="fill:#0F8EA1;" d="M0.747,4.451C0.574,4.405,0.392,4.387,0.215,4.355c-0.052,0.066-0.216,0.1-0.062,0.224
		c0.022,0.019-0.009,0.05-0.029,0.052C0.095,4.633,0.073,4.65,0.049,4.666v0.316c0.053,0.039,0.112,0.072,0.208,0.067
		c0.055-0.005,0.06,0.023,0.053,0.063C0.301,5.165,0.29,5.218,0.281,5.27C0.268,5.35,0.267,5.423,0.355,5.468
		C0.437,5.511,0.51,5.514,0.584,5.455C0.672,5.383,0.767,5.319,0.823,5.22c0.066,0.087,0.123,0.162,0.179,0.238
		c0.052,0.067,0.089,0.063,0.126-0.017C1.205,5.285,1.246,5.124,1.13,4.973c-0.062-0.08-0.036-0.125,0.027-0.175
		C1.038,4.661,0.932,4.501,0.747,4.451z M0.731,4.889c-0.055-0.03-0.119-0.052-0.123-0.13C0.606,4.718,0.635,4.706,0.664,4.715
		C0.728,4.735,0.77,4.781,0.788,4.84C0.774,4.87,0.774,4.912,0.731,4.889z"/>
	<path style="fill:#EAA001;" d="M2.532,11.399c0.031-0.083,0.054-0.157,0.084-0.228c0.035-0.077,0.016-0.132-0.047-0.187
		c-0.064-0.056-0.13-0.086-0.207-0.037c-0.102,0.065-0.234,0.081-0.292,0.221c-0.05-0.112-0.086-0.205-0.131-0.294
		c-0.035-0.067-0.067-0.07-0.133-0.011c-0.217,0.191-0.042,0.44-0.113,0.651c-0.016,0.046,0.018,0.09,0.042,0.132
		c0.149,0.263,0.411,0.348,0.679,0.417c0.081,0.021,0.162,0.007,0.255-0.043c-0.126-0.129-0.077-0.18,0.078-0.192
		c0.067-0.005,0.105-0.06,0.119-0.137c0.013-0.079-0.002-0.135-0.067-0.183C2.718,11.448,2.623,11.425,2.532,11.399z M2.178,11.664
		c-0.015,0.03-0.056,0.028-0.074,0.005c-0.049-0.064-0.141-0.126-0.028-0.216C2.122,11.516,2.232,11.552,2.178,11.664z"/>
	<path style="fill:#E0454B;" d="M0.523,6.776C0.62,6.76,0.707,6.779,0.794,6.83C0.872,6.872,0.963,6.9,1.035,6.81
		c0.052-0.065,0.068-0.152,0.017-0.214c-0.069-0.08-0.17-0.102-0.275-0.048C0.696,6.592,0.613,6.636,0.53,6.68
		C0.497,6.711,0.502,6.743,0.523,6.776z"/>
	<path style="fill:#0F8EA1;" d="M1.638,7.609c0.006,0.079,0.058,0.127,0.141,0.13C1.864,7.742,1.938,7.712,1.96,7.628
		c0.035-0.137-0.036-0.233-0.161-0.27C1.7,7.329,1.621,7.273,1.537,7.221C1.531,7.242,1.525,7.262,1.521,7.283
		C1.582,7.383,1.629,7.487,1.638,7.609z"/>
	<g>
		<path style="fill:#292526;" d="M16.18,6.248c-0.063,0.105-0.127,0.211-0.189,0.319c-0.002,0-0.002,0-0.002,0
			c-0.102,0.124-0.231,0.157-0.393,0.15c-0.226-0.012-0.447-0.003-0.705-0.003c0.104-0.086,0.19-0.141,0.228-0.241
			c0.014-0.045,0.039-0.098,0.012-0.136C15.096,6.29,15.039,6.317,15,6.339c-0.141,0.08-0.219,0.055-0.262-0.112
			c-0.018-0.067-0.068-0.192-0.174-0.052c-0.053,0.173-0.092,0.346,0.039,0.511c-0.133,0.065-0.242-0.002-0.354-0.017
			c-0.281-0.036-0.551-0.03-0.806,0.114c-0.164,0.095-0.34,0.088-0.521,0.075c-0.286-0.02-0.571-0.051-0.896-0.104
			c0.141-0.083,0.229-0.167,0.278-0.285c0.03-0.069,0.023-0.112-0.067-0.113c-0.226-0.003-0.43,0.043-0.554,0.252
			c-0.042,0.071-0.081,0.083-0.155,0.066c-0.375-0.089-0.732-0.239-1.114-0.302c-0.058-0.01-0.067-0.039-0.028-0.084
			c0.206-0.237,0.407-0.451,0.747-0.526c0.472-0.106,0.958-0.077,1.421-0.219c0.063-0.02,0.125-0.005,0.188,0.01
			c0.168,0.041,0.33,0.024,0.463-0.102C13.2,5.443,13.2,5.434,13.207,5.429c-0.119-0.031-0.242,0.076-0.357-0.017
			C12.803,5.4,12.734,5.451,12.709,5.37c-0.218,0.097-0.443,0.151-0.68,0.13c-0.148,0.05-0.293,0.072-0.423-0.042
			c-0.108,0.09-0.234,0.134-0.372,0.148c-0.283,0.032-0.541,0.104-0.739,0.337c-0.118,0.139-0.269,0.249-0.409,0.368
			c-0.063,0.053-0.129,0.113-0.238,0.11c0.08-0.204,0.098-0.393-0.002-0.579C9.811,5.781,9.777,5.749,9.711,5.814
			C9.563,5.963,9.465,6.131,9.493,6.351c0.035,0.261,0.03,0.264-0.241,0.326c-0.1,0.024-0.196,0.031-0.297,0.005
			C8.846,6.654,8.734,6.652,8.62,6.665C8.375,6.69,8.132,6.782,7.882,6.701C7.703,6.655,7.522,6.612,7.35,6.553
			C7.2,6.501,7.07,6.38,7.013,6.211c-0.294-0.142-0.601-0.24-0.93-0.25C6.027,5.998,5.965,5.996,5.905,5.998
			c-0.04,0.037-0.091,0.034-0.141,0.04C5.523,6.148,5.28,6.255,5.026,6.329C4.55,6.467,4.119,6.387,3.721,6.083
			C3.524,5.935,3.296,5.828,3.064,5.738c-0.369-0.145-0.69-0.356-0.978-0.663C2.39,5.026,2.598,4.802,2.879,4.74
			C3.062,4.7,3.242,4.677,3.42,4.747c0.217,0.084,0.451,0.09,0.673,0.146c0.051-0.02,0.079-0.055,0.074-0.11
			C3.8,4.711,3.432,4.64,3.037,4.563C3.21,4.377,3.393,4.219,3.523,4.017c0.024-0.04,0.073-0.033,0.113-0.039
			c0.189-0.029,0.317-0.144,0.415-0.3c0.021-0.034,0.063-0.069,0.033-0.11C4.058,3.526,4.008,3.55,3.97,3.555
			C3.916,3.562,3.865,3.574,3.813,3.583C3.794,3.609,3.77,3.612,3.744,3.597C3.755,3.582,3.767,3.566,3.776,3.55
			c0.198-0.273,0.21-0.273,0.513-0.131c0.105,0.05,0.219,0.081,0.328,0.12C4.631,3.551,4.646,3.563,4.66,3.575
			c0.095-0.001,0.189-0.002,0.286-0.003c0.122-0.079,0.244-0.16,0.366-0.24C5.33,3.308,5.348,3.286,5.367,3.263
			c-0.11,0.012-0.191,0.082-0.273,0.145C4.96,3.512,4.816,3.545,4.656,3.473c-0.168-0.08-0.337-0.158-0.52-0.244
			c0.093-0.097,0.2-0.143,0.304-0.166c0.388-0.085,0.692-0.317,1.002-0.541C5.606,2.405,5.769,2.289,5.97,2.239
			c0.211-0.052,0.409-0.014,0.605,0.063c0.028-0.019,0.052-0.041,0.05-0.078C6.606,2.214,6.589,2.2,6.571,2.188
			C6.483,2.163,6.41,2.113,6.338,2.062L6.337,2.066C6.195,2.035,6.062,2.09,5.926,2.111c-0.041,0.037-0.089,0.04-0.148,0.043
			C5.796,2.076,5.842,2.036,5.894,2c0.012-0.011,0.023-0.023,0.035-0.035c0.049-0.069,0.109-0.129,0.179-0.178
			C6.17,1.712,6.241,1.649,6.329,1.605C6.352,1.59,6.374,1.573,6.396,1.558c0.077-0.052,0.162-0.083,0.25-0.107
			c0.037-0.013,0.073-0.024,0.108-0.035c0.016-0.01,0.031-0.019,0.048-0.027C6.758,1.344,6.697,1.371,6.646,1.353
			C6.467,1.369,6.323,1.458,6.19,1.571C6.003,1.73,5.861,1.928,5.691,2.101c-0.137,0.141-0.28,0.275-0.483,0.357
			c0-0.081,0.002-0.14,0-0.198c-0.006-0.133-0.06-0.149-0.164-0.072C4.901,2.292,4.792,2.422,4.823,2.602
			c0.028,0.163-0.044,0.2-0.175,0.234C4.23,2.942,3.862,3.133,3.6,3.488C3.495,3.63,3.407,3.785,3.301,3.928
			C2.998,4.334,2.625,4.651,2.139,4.823C1.964,4.886,1.809,4.872,1.65,4.774C1.397,4.62,1.163,4.438,0.895,4.311
			c-0.15-0.071-0.311-0.12-0.448-0.225c-0.072-0.055-0.063-0.199-0.2-0.175c-0.069,0.01-0.133,0.004-0.198,0.003v0.371
			c0.054,0.026,0.112,0.042,0.166,0.071c0.177,0.031,0.359,0.049,0.532,0.096c0.186,0.05,0.292,0.209,0.41,0.347
			C1.58,5.141,1.998,5.49,2.464,5.774c0.078,0.047,0.06,0.102,0.061,0.166c0.01,0.346,0.181,0.549,0.519,0.613
			c0.042-0.187-0.021-0.357-0.101-0.555C3.179,6.064,3.36,6.17,3.542,6.275c0.377,0.22,0.756,0.44,1.185,0.551
			c0.009-0.055,0.018-0.109,0.027-0.167C4.816,6.668,4.831,6.726,4.872,6.75c0.267-0.105,0.533-0.213,0.801-0.315
			c0.074-0.027,0.152-0.018,0.225,0.021C6.079,6.554,6.249,6.668,6.372,6.84C6.41,6.87,6.473,6.889,6.427,6.957V6.96
			C6.49,6.935,6.505,6.982,6.525,7.022C6.55,7.059,6.576,7.095,6.6,7.132c0.168,0.225,0.284,0.474,0.355,0.744
			C7.016,8.109,7.087,8.34,7.189,8.56c0.096,0.118,0.192,0.238,0.288,0.356c0.091,0.087,0.204,0.073,0.315,0.07
			C7.427,8.7,7.207,8.343,7.181,7.865C7.166,7.591,6.993,7.363,6.883,7.117c-0.01-0.016-0.021-0.031,0.001-0.042
			C6.889,7.072,6.902,7.084,6.911,7.09c0.151,0.011,0.261,0.103,0.375,0.187c0.098,0.074,0.192,0.16,0.353,0.146
			C7.24,7.062,6.681,6.94,6.361,6.465c0,0.001-0.001,0.002-0.001,0.004C6.344,6.463,6.329,6.458,6.314,6.45
			C6.32,6.441,6.326,6.426,6.329,6.426c0.014,0.003,0.028,0.01,0.041,0.018c0,0-0.002,0.007-0.004,0.012
			c0.159-0.014,0.29,0.022,0.39,0.098C7.053,6.781,7.393,6.917,7.74,7.039c0.1,0.036,0.17,0.086,0.236,0.169
			c0.214,0.273,0.528,0.319,0.8,0.129c-0.05-0.095-0.142-0.155-0.244-0.262c0.422,0.008,0.788-0.096,1.146-0.23L9.677,6.849
			C9.678,6.824,9.696,6.82,9.716,6.816c0.1-0.132,0.193-0.269,0.36-0.333c0.078-0.031,0.144-0.089,0.222-0.008
			c0.032,0.032,0.076,0.03,0.117,0.019c0.226-0.063,0.384,0.039,0.515,0.208c0.128,0.006,0.245,0.048,0.347,0.12
			c0.368,0.263,0.771,0.448,1.218,0.533c0.054,0.048,0.123,0.013,0.179,0.033c0.098,0,0.186,0.03,0.258,0.101
			c0.086,0.07,0.172,0.141,0.254,0.211c0.113,0.075,0.227,0.154,0.316,0.253c0.307,0.209,0.521,0.486,0.635,0.845
			c0.096,0.302,0.174,0.611,0.35,0.884c0,0,0-0.001,0-0.002c0.048,0.101,0.097,0.202,0.146,0.303
			c0.039-0.006,0.058-0.038,0.072-0.068c-0.021-0.051-0.05-0.101-0.072-0.151c-0.094-0.043-0.067-0.13-0.075-0.205
			c0-0.054,0.002-0.105,0.004-0.158c-0.129-0.125-0.186-0.288-0.244-0.479c-0.004-0.001-0.01-0.003-0.015-0.004
			C14.284,8.912,14.284,8.9,14.3,8.895c0.013-0.004,0.025,0,0.041,0.003c0,0,0,0.017,0,0.033c-0.005-0.001-0.009-0.003-0.013-0.004
			c0.168,0.063,0.271,0.207,0.443,0.189c0.019-0.044,0.065-0.08,0.035-0.138c-0.013,0.002-0.022,0.005-0.035,0.007
			c-0.063,0.081-0.131,0.061-0.19,0c-0.205-0.192-0.39-0.396-0.481-0.666c-0.068-0.049-0.154-0.079-0.175-0.175
			c-0.267-0.346-0.657-0.533-0.991-0.795C12.8,7.245,12.65,7.2,12.473,7.194C12.211,7.185,11.977,7.072,11.77,6.9
			c0.305,0.046,0.608,0.047,0.912,0.074c0.305,0.024,0.604,0.074,0.887-0.118c0.236-0.156,0.518-0.083,0.779-0.061
			c0.465,0.038,0.871,0.247,1.279,0.442C15.623,7.1,15.623,7.1,15.523,7.083c-0.127-0.049-0.254-0.098-0.381-0.147
			c-0.041-0.018-0.098-0.037-0.086-0.096c0.014-0.058,0.066-0.067,0.113-0.053c0.188,0.061,0.379-0.004,0.563,0.031
			c0.154-0.019,0.23-0.134,0.311-0.247c-0.001,0-0.002,0-0.003,0c0.001,0,0.003,0,0.004,0c0.026-0.034,0.058-0.065,0.082-0.098
			C16.109,6.391,16.225,6.337,16.18,6.248z"/>
		<path style="fill:#292526;" d="M9.291,10c-0.43,0.13-0.59,0.111-0.806-0.266C8.406,9.596,8.312,9.465,8.216,9.338
			C8.124,9.216,8.019,9.105,7.864,9.056C7.857,9.094,7.865,9.119,7.905,9.137c0.098,0.044,0.126,0.125,0.112,0.225
			C8.076,9.381,8.112,9.42,8.115,9.484L8.113,9.481c0.133,0.171,0.263,0.346,0.398,0.516c0.059,0.074,0.069,0.129,0.002,0.213
			c-0.133,0.166-0.118,0.329,0.019,0.509c0.107-0.059,0.128-0.186,0.208-0.278c0.117,0.252,0.211,0.505,0.417,0.688l0.009-0.002
			h0.01c0.111,0.094,0.262,0.123,0.366,0.227c0,0,0.017-0.014,0.025-0.021c-0.064-0.099-0.166-0.153-0.262-0.213
			c-0.236-0.193-0.381-0.45-0.5-0.722c-0.072-0.169-0.037-0.222,0.138-0.212c0.213,0.013,0.411-0.038,0.606-0.114
			c0.124-0.048,0.241-0.053,0.354,0.026c0.043-0.032,0.042-0.08,0.04-0.128C9.722,9.921,9.52,9.933,9.291,10z"/>
		<polygon style="fill:#292526;" points="6.353,6.456 6.361,6.465 6.365,6.456 		"/>
		<polygon style="fill:#292526;" points="14.313,8.921 14.327,8.925 14.313,8.918 		"/>
		<path style="fill:#292526;" d="M0.062,6.778c0.061-0.08,0.137-0.024,0.205-0.021C0.352,6.761,0.434,6.82,0.523,6.776
			C0.502,6.743,0.497,6.711,0.53,6.68c-0.146,0-0.289-0.002-0.434-0.003l0,0C0.081,6.674,0.065,6.671,0.05,6.667v0.027
			c0.01,0,0.019-0.007,0.028-0.01c-0.01,0.004-0.019,0.01-0.029,0.011v0.081v0.14c0.122-0.093,0.225-0.029,0.32,0.058
			c0.035,0.031,0.046,0.127,0.067,0.127C0.525,7.1,0.475,7.027,0.482,6.982c0.002-0.009,0.042-0.017,0.063-0.015
			C0.598,6.972,0.65,6.985,0.704,6.994c0.165,0.084,0.337,0.162,0.478,0.289c0.02,0.018,0.052,0.023,0.076,0.035
			c0.067-0.164,0.173-0.037,0.263-0.035c0.005-0.021,0.011-0.041,0.017-0.062C1.283,7.065,0.966,7.092,0.71,6.943
			C0.493,6.889,0.278,6.834,0.062,6.778z"/>
	</g>
	<path style="fill:#E0454B;" d="M0.447,4.086C0.584,4.19,0.745,4.239,0.895,4.311c0.065-0.04,0.14-0.01,0.208-0.025
		c0.042-0.01,0.109-0.005,0.07-0.082c-0.056-0.106,0-0.13,0.092-0.145c0.088-0.015,0.112-0.084,0.13-0.167
		c0.021-0.091-0.032-0.129-0.087-0.173C1.237,3.661,1.151,3.644,1.058,3.63c0.032-0.08,0.063-0.148,0.09-0.221
		c0.029-0.077,0.026-0.144-0.045-0.205C1.03,3.141,0.958,3.13,0.879,3.179c-0.092,0.055-0.2,0.088-0.276,0.19
		c-0.03-0.066-0.049-0.115-0.076-0.161C0.49,3.146,0.482,3.03,0.398,3.043c-0.072,0.01-0.12,0.105-0.147,0.185
		c-0.01,0.023-0.011,0.047-0.015,0.07C0.205,3.502,0.29,3.706,0.247,3.911C0.383,3.887,0.375,4.031,0.447,4.086z M0.619,3.712
		c0.042,0.03,0.11,0.037,0.105,0.118C0.721,3.87,0.71,3.905,0.666,3.892C0.607,3.874,0.572,3.819,0.557,3.764
		C0.549,3.736,0.58,3.711,0.619,3.712z"/>
	<polygon style="fill:#EAEAEA;" points="-0.083,4.714 -0.079,4.712 -0.08,4.71 	"/>
	<path style="fill:#EAEAEA;" d="M-0.079,4.712c0.003,0.129,0.052,0.213,0.128,0.269V4.666C0.01,4.69-0.028,4.718-0.079,4.712z"/>
	<polygon style="fill:#EAEAEA;" points="-0.083,4.712 -0.083,4.714 -0.08,4.71 	"/>
	<path style="fill:#EAEAEA;" d="M-0.019,6.733c-0.005,0.035,0.034,0.042,0.068,0.043V6.695C0.019,6.698-0.013,6.697-0.019,6.733z"/>
</g>
</svg>
