<?xml version="1.0" encoding="utf-8"?>
<!-- Generator: Adobe Illustrator 16.0.0, SVG Export Plug-In . SVG Version: 6.00 Build 0)  -->
<!DOCTYPE svg PUBLIC "-//W3C//DTD SVG 1.1//EN" "http://www.w3.org/Graphics/SVG/1.1/DTD/svg11.dtd">
<svg version="1.1" id="Layer_2" xmlns="http://www.w3.org/2000/svg" xmlns:xlink="http://www.w3.org/1999/xlink" x="0px" y="0px"
	 width="24px" height="24px" viewBox="0 0 24 24" style="enable-background:new 0 0 24 24;" xml:space="preserve">
<polygon style="fill:#EAA122;" points="2.432,20.75 12.557,20.75 9.89,11.542 "/>
<polygon style="fill:#EAA122;" points="11.63,20.75 18.732,20.75 16.862,14.291 "/>
<polygon style="fill:#E0454B;" points="16.862,14.291 18.732,20.75 21.567,20.75 "/>
<polygon style="fill:#E0454B;" points="9.89,11.542 12.557,20.75 16.599,20.75 "/>
<circle style="fill:#EAA122;" cx="14.886" cy="8.01" r="1.708"/>
<g>
	<rect x="14.768" y="10.157" style="fill:#EAA122;" width="0.236" height="1.583"/>
	<rect x="14.768" y="4.282" style="fill:#EAA122;" width="0.236" height="1.583"/>
</g>
<g>
	<rect x="17.031" y="7.893" style="fill:#EAA122;" width="1.584" height="0.236"/>
	<rect x="11.157" y="7.893" style="fill:#EAA122;" width="1.583" height="0.236"/>
</g>
<g>
	
		<rect x="13.087" y="5.59" transform="matrix(-0.7194 0.6946 -0.6946 -0.7194 27.0121 1.5868)" style="fill:#EAA122;" width="0.197" height="1.32"/>
	
		<rect x="16.487" y="9.112" transform="matrix(-0.7182 0.6959 -0.6959 -0.7182 35.2971 5.2473)" style="fill:#EAA122;" width="0.197" height="1.319"/>
</g>
<g>
	
		<rect x="16.548" y="5.649" transform="matrix(-0.6971 -0.7169 0.7169 -0.6971 23.7284 22.6418)" style="fill:#EAA122;" width="0.198" height="1.321"/>
	
		<rect x="13.025" y="9.051" transform="matrix(-0.6947 -0.7193 0.7193 -0.6947 15.257 25.8968)" style="fill:#EAA122;" width="0.198" height="1.319"/>
</g>
</svg>
