<?xml version="1.0" encoding="utf-8"?>
<!-- Generator: Adobe Illustrator 16.0.0, SVG Export Plug-In . SVG Version: 6.00 Build 0)  -->
<!DOCTYPE svg PUBLIC "-//W3C//DTD SVG 1.1//EN" "http://www.w3.org/Graphics/SVG/1.1/DTD/svg11.dtd">
<svg version="1.1" id="Outline_Icons" xmlns="http://www.w3.org/2000/svg" xmlns:xlink="http://www.w3.org/1999/xlink" x="0px"
	 y="0px" width="24px" height="24px" viewBox="0 0 24 24" enable-background="new 0 0 24 24" xml:space="preserve">
<g>
	<path d="M11,7v8c0,0.276,0.224,0.5,0.5,0.5S12,15.276,12,15V7c0-0.276-0.224-0.5-0.5-0.5S11,6.724,11,7z"/>
	<path d="M22.854,12.146l-11-11c-0.195-0.195-0.512-0.195-0.707,0l-11,11c-0.195,0.195-0.195,0.512,0,0.707l11,11
		C11.244,23.951,11.372,24,11.5,24s0.256-0.049,0.354-0.146l11-11C23.049,12.658,23.049,12.342,22.854,12.146z M11.5,22.793
		L1.207,12.5L11.5,2.207L21.793,12.5L11.5,22.793z"/>
	<circle cx="11.5" cy="18.5" r="1"/>
</g>
</svg>
