<?xml version="1.0" encoding="utf-8"?>
<!-- Generator: Adobe Illustrator 16.0.0, SVG Export Plug-In . SVG Version: 6.00 Build 0)  -->
<!DOCTYPE svg PUBLIC "-//W3C//DTD SVG 1.1//EN" "http://www.w3.org/Graphics/SVG/1.1/DTD/svg11.dtd">
<svg version="1.1" id="Outline_Icons" xmlns="http://www.w3.org/2000/svg" xmlns:xlink="http://www.w3.org/1999/xlink" x="0px"
	 y="0px" width="24px" height="24px" viewBox="0 0 24 24" enable-background="new 0 0 24 24" xml:space="preserve">
<g>
	<path d="M11.696,1l-0.205,0.002C8.41,1.055,5.512,2.301,3.328,4.507C1.13,6.729-0.051,9.64,0.002,12.701
		c0.11,6.338,5.075,11.302,11.305,11.302l0.202-0.001c6.445-0.112,11.6-5.362,11.489-11.701C22.888,5.964,17.924,1,11.696,1z
		 M11.491,23.002l-0.185,0.001c-5.678,0-10.204-4.532-10.305-10.319c-0.049-2.79,1.03-5.444,3.037-7.473
		c1.999-2.021,4.651-3.16,7.47-3.209L11.696,2c5.677,0,10.201,4.532,10.302,10.318C22.099,18.106,17.385,22.899,11.491,23.002z"/>
	<path d="M11.5,14.5c0.276,0,0.5-0.224,0.5-0.5V7c0-0.276-0.224-0.5-0.5-0.5S11,6.724,11,7v7C11,14.276,11.224,14.5,11.5,14.5z"/>
	<circle cx="11.5" cy="17.5" r="1"/>
</g>
</svg>
