<?xml version="1.0" encoding="utf-8"?>
<!-- Generator: Adobe Illustrator 16.0.0, SVG Export Plug-In . SVG Version: 6.00 Build 0)  -->
<!DOCTYPE svg PUBLIC "-//W3C//DTD SVG 1.1//EN" "http://www.w3.org/Graphics/SVG/1.1/DTD/svg11.dtd">
<svg version="1.1" id="Layer_1" xmlns="http://www.w3.org/2000/svg" xmlns:xlink="http://www.w3.org/1999/xlink" x="0px" y="0px"
	 width="24px" height="24px" viewBox="0 0 24 24" style="enable-background:new 0 0 24 24;" xml:space="preserve">
<g id="Layer_2">
	<rect x="1.421" y="1.981" style="fill:#EAA122;" width="6.623" height="2.782"/>
	<rect x="1.421" y="1.981" style="fill:none;" width="6.623" height="2.782"/>
	<path style="fill:#E0454B;" d="M0.313,0.869v5.006h23.375V0.869H0.313z M8.044,4.763H1.421V1.981h6.623V4.763z M15.355,4.763H8.733
		V1.981h6.623V4.763L15.355,4.763z M22.582,4.763h-6.623V1.981h6.623V4.763z"/>
	<rect x="8.733" y="1.981" style="fill:#EAA122;" width="6.623" height="2.782"/>
	<rect x="15.959" y="1.981" style="fill:#EAA122;" width="6.623" height="2.782"/>
	<path style="fill:#E0454B;" d="M0.313,11.024V23.13h23.375V11.024H0.313z M8.044,22.016H1.421v-6.121h6.623V22.016z M8.044,14.78
		H1.421v-2.782h6.623V14.78z M15.355,22.016H8.732v-6.121h6.624V22.016z M15.355,14.78H8.733v-2.782h6.623V14.78L15.355,14.78z
		 M15.959,11.998h6.623v2.782h-6.623V11.998z M22.583,22.016H15.96v-6.121h6.623V22.016z"/>
	<g>
		<rect x="1.421" y="11.998" style="fill:#EAA122;" width="6.623" height="2.782"/>
		<rect x="8.733" y="11.998" style="fill:#EAA122;" width="6.623" height="2.782"/>
		<rect x="15.959" y="11.998" style="fill:#EAA122;" width="6.623" height="2.782"/>
	</g>
	<g>
		<rect x="15.96" y="15.895" style="fill:#FFFFFF;" width="6.623" height="6.121"/>
		<rect x="8.732" y="15.895" style="fill:#FFFFFF;" width="6.624" height="6.121"/>
		<rect x="1.421" y="15.895" style="fill:#FFFFFF;" width="6.623" height="6.121"/>
	</g>
</g>
</svg>
