<?xml version="1.0" encoding="utf-8"?>
<!-- Generator: Adobe Illustrator 17.1.0, SVG Export Plug-In . SVG Version: 6.00 Build 0)  -->
<!DOCTYPE svg PUBLIC "-//W3C//DTD SVG 1.1//EN" "http://www.w3.org/Graphics/SVG/1.1/DTD/svg11.dtd">
<svg version="1.1" id="Filled_Icons" xmlns="http://www.w3.org/2000/svg" xmlns:xlink="http://www.w3.org/1999/xlink" x="0px"
	 y="0px" width="24px" height="24px" viewBox="0 0 24 24" enable-background="new 0 0 24 24" xml:space="preserve">
<path d="M11.501,1c-6.342,0-11.5,5.158-11.5,11.5S5.159,24,11.501,24c6.341,0,11.5-5.158,11.5-11.5S17.842,1,11.501,1z M11.001,6
	c0.551,0,1,0.448,1,1c0,0.553-0.449,1-1,1c-0.553,0-1-0.447-1-1C10.001,6.448,10.448,6,11.001,6z M14.501,20h-6
	c-0.276,0-0.5-0.224-0.5-0.5s0.224-0.5,0.5-0.5H11v-8H9.501c-0.276,0-0.5-0.224-0.5-0.5s0.224-0.5,0.5-0.5h2
	c0.275,0,0.5,0.224,0.499,0.5V19h2.501c0.275,0,0.5,0.224,0.5,0.5S14.776,20,14.501,20z"/>
</svg>
