<?xml version="1.0" encoding="utf-8"?>
<!-- Generator: Adobe Illustrator 16.0.0, SVG Export Plug-In . SVG Version: 6.00 Build 0)  -->
<!DOCTYPE svg PUBLIC "-//W3C//DTD SVG 1.1//EN" "http://www.w3.org/Graphics/SVG/1.1/DTD/svg11.dtd">
<svg version="1.1" id="Outline_Icons" xmlns="http://www.w3.org/2000/svg" xmlns:xlink="http://www.w3.org/1999/xlink" x="0px"
	 y="0px" width="24px" height="24px" viewBox="0 0 24 24" enable-background="new 0 0 24 24" xml:space="preserve">
<path d="M22.836,1.437c-0.422-0.422-1.006-0.663-1.603-0.663l-0.141,0.004c-0.646,0.04-1.247,0.356-1.655,0.88l-2.716,3.675
	c-0.957-0.571-2.273-0.459-3.078,0.348l-9.192,9.191c-0.795,0.796-0.93,1.992-0.429,2.938l-3.092,2.055
	c-0.521,0.397-0.876,1.037-0.924,1.671c-0.05,0.688,0.171,1.338,0.606,1.783C1.036,23.751,1.627,24,2.233,24
	c0.009,0,0.105-0.002,0.114-0.003c0.629-0.031,1.306-0.391,1.74-0.937l2.12-2.957c0.416,0.29,0.907,0.45,1.425,0.45
	c0.668,0,1.295-0.26,1.768-0.732l9.192-9.192c0.473-0.473,0.732-1.101,0.732-1.768c0-0.473-0.136-0.923-0.38-1.314l3.679-2.721
	c0.514-0.399,0.831-0.999,0.871-1.646S23.295,1.896,22.836,1.437z M3.291,22.458c-0.24,0.301-0.649,0.523-0.994,0.541L2.233,23.5V23
	c-0.338,0-0.668-0.139-0.905-0.382c-0.231-0.237-0.353-0.614-0.323-1.009c0.026-0.352,0.234-0.725,0.505-0.932l3.132-2.08
	l0.473,0.473l0.349,0.357L3.291,22.458z M17.886,9.922l-9.192,9.192c-0.566,0.566-1.555,0.566-2.121,0l-0.74-0.739l-0.708-0.727
	c-0.54-0.588-0.535-1.5,0.034-2.07l9.192-9.191c0.283-0.283,0.659-0.439,1.061-0.439c0.4,0,0.777,0.156,1.061,0.439l1.414,1.414
	c0.283,0.283,0.439,0.659,0.439,1.061C18.325,9.262,18.169,9.639,17.886,9.922z M22.021,4.029l-3.732,2.76l-0.805-0.805l2.751-3.723
	c0.224-0.287,0.559-0.464,0.999-0.488c0.334,0,0.66,0.135,0.895,0.37c0.257,0.257,0.392,0.612,0.369,0.974
	S22.297,3.813,22.021,4.029z"/>
</svg>
