<?xml version="1.0" encoding="utf-8"?>
<!-- Generator: Adobe Illustrator 16.0.0, SVG Export Plug-In . SVG Version: 6.00 Build 0)  -->
<!DOCTYPE svg PUBLIC "-//W3C//DTD SVG 1.1//EN" "http://www.w3.org/Graphics/SVG/1.1/DTD/svg11.dtd">
<svg version="1.1" id="Outline_Icons" xmlns="http://www.w3.org/2000/svg" xmlns:xlink="http://www.w3.org/1999/xlink" x="0px"
	 y="0px" width="24px" height="24px" viewBox="0 0 24 24" enable-background="new 0 0 24 24" xml:space="preserve">
<g>
	<path d="M21.927,9.72l-9.063-9.563c-0.005-0.006-0.013-0.008-0.018-0.013c-0.024-0.023-0.053-0.04-0.081-0.058
		c-0.018-0.012-0.03-0.027-0.05-0.037c-0.003-0.002-0.006-0.001-0.009-0.002c-0.008-0.004-0.016-0.006-0.023-0.01
		c-0.031-0.012-0.064-0.016-0.098-0.021c-0.024-0.004-0.049-0.013-0.074-0.014C12.508,0.002,12.505,0,12.501,0H12.5
		c-0.003,0-0.006,0.002-0.01,0.002c-0.027,0-0.054,0.01-0.081,0.016c-0.031,0.006-0.062,0.008-0.091,0.02
		c-0.008,0.003-0.016,0.006-0.023,0.01c-0.004,0.001-0.007,0-0.01,0.002c-0.02,0.01-0.032,0.026-0.05,0.037
		c-0.028,0.019-0.056,0.033-0.08,0.057c-0.005,0.005-0.012,0.007-0.017,0.012L2.934,9.775c-0.528,0.584-0.752,1.395-0.598,2.167
		s0.671,1.435,1.383,1.771C4.12,13.903,4.552,14,5,14c1.042,0,1.962-0.534,2.5-1.344C8.038,13.466,8.958,14,10,14
		c0.769,0,1.469-0.294,2-0.771V24h1V13.229C13.531,13.706,14.231,14,15,14c1.042,0,1.962-0.534,2.5-1.344
		C18.038,13.466,18.958,14,20,14c0.307,0,0.609-0.046,0.9-0.138c0.828-0.262,1.471-0.948,1.677-1.79
		C22.784,11.229,22.53,10.323,21.927,9.72z M5,13c-0.3,0-0.587-0.064-0.854-0.19c-0.427-0.202-0.737-0.599-0.83-1.062
		s0.042-0.95,0.35-1.291l7.047-7.366l-3.664,7.695c-0.002,0.003-0.001,0.006-0.002,0.01c-0.015,0.031-0.019,0.066-0.026,0.102
		c-0.007,0.031-0.018,0.062-0.019,0.093C7.002,10.993,7,10.996,7,11C7,12.103,6.103,13,5,13z M10,13c-1.07,0-1.941-0.849-1.99-1.907
		L12,2.713V11C12,12.103,11.103,13,10,13z M15,13c-1.103,0-2-0.897-2-2V2.713l3.99,8.38C16.941,12.151,16.07,13,15,13z
		 M21.606,11.834c-0.124,0.506-0.51,0.918-1.006,1.075C20.407,12.97,20.205,13,20,13c-1.103,0-2-0.897-2-2
		c0-0.004-0.002-0.007-0.002-0.011c-0.001-0.031-0.012-0.062-0.019-0.093c-0.008-0.035-0.012-0.07-0.026-0.102
		c-0.001-0.004,0-0.007-0.002-0.01l-3.644-7.65l6.902,7.282C21.578,10.785,21.729,11.328,21.606,11.834z"/>
	<path d="M21.608,15.527c-0.272-0.059-0.537,0.111-0.597,0.38L20.1,20h-4.6c-0.276,0-0.5,0.224-0.5,0.5v2.984
		c0,0.276,0.224,0.5,0.5,0.5s0.5-0.224,0.5-0.5V21h4v2.5c0,0.276,0.224,0.5,0.5,0.5s0.5-0.224,0.5-0.5v-2.944l0.988-4.432
		C22.048,15.854,21.878,15.588,21.608,15.527z"/>
	<path d="M9.5,20H4.9l-0.912-4.093c-0.06-0.269-0.325-0.438-0.597-0.38c-0.27,0.061-0.439,0.327-0.38,0.597L4,20.556V23.5
		C4,23.776,4.224,24,4.5,24S5,23.776,5,23.5V21h4v2.484c0,0.276,0.224,0.5,0.5,0.5s0.5-0.224,0.5-0.5V20.5
		C10,20.224,9.776,20,9.5,20z"/>
</g>
</svg>
