<?xml version="1.0" encoding="utf-8"?>
<!-- Generator: Adobe Illustrator 16.0.0, SVG Export Plug-In . SVG Version: 6.00 Build 0)  -->
<!DOCTYPE svg PUBLIC "-//W3C//DTD SVG 1.1//EN" "http://www.w3.org/Graphics/SVG/1.1/DTD/svg11.dtd">
<svg version="1.1" id="Outline_Icons" xmlns="http://www.w3.org/2000/svg" xmlns:xlink="http://www.w3.org/1999/xlink" x="0px"
	 y="0px" width="24px" height="24px" viewBox="0 0 24 24" enable-background="new 0 0 24 24" xml:space="preserve">
<path d="M22.188,5.312c0-1.283-1.883-4.45-2.26-5.071c-0.182-0.299-0.674-0.299-0.855,0c-0.377,0.622-2.26,3.789-2.26,5.071
	c0,1.311,0.944,2.402,2.188,2.637V9.5c0,3.415-2.649,6.218-6,6.475V7.949c1.243-0.235,2.188-1.327,2.188-2.637
	c0-1.283-1.883-4.45-2.26-5.071c-0.182-0.299-0.674-0.299-0.855,0c-0.377,0.622-2.26,3.789-2.26,5.071
	c0,1.311,0.944,2.402,2.188,2.637v8.025c-3.351-0.257-6-3.06-6-6.475V7.949c1.243-0.235,2.188-1.327,2.188-2.637
	c0-1.283-1.883-4.45-2.26-5.071c-0.182-0.299-0.674-0.299-0.855,0c-0.377,0.622-2.26,3.789-2.26,5.071
	c0,1.311,0.944,2.402,2.188,2.637V9.5c0,3.967,3.098,7.215,7,7.475V23H8c-0.276,0-0.5,0.224-0.5,0.5S7.724,24,8,24h9
	c0.276,0,0.5-0.224,0.5-0.5S17.276,23,17,23h-4v-6.025c3.902-0.259,7-3.508,7-7.475V7.949C21.243,7.714,22.188,6.623,22.188,5.312z
	 M3.813,5.312c0-0.652,0.911-2.462,1.688-3.825C6.276,2.85,7.188,4.66,7.188,5.312C7.188,6.243,6.431,7,5.5,7
	S3.813,6.243,3.813,5.312z M10.813,5.312c0-0.652,0.911-2.462,1.688-3.825c0.776,1.363,1.688,3.173,1.688,3.825
	C14.188,6.243,13.431,7,12.5,7S10.813,6.243,10.813,5.312z M19.5,7c-0.931,0-1.688-0.757-1.688-1.688
	c0-0.652,0.911-2.462,1.688-3.825c0.776,1.363,1.688,3.173,1.688,3.825C21.188,6.243,20.431,7,19.5,7z"/>
</svg>
