<?xml version="1.0" encoding="utf-8"?>
<!-- Generator: Adobe Illustrator 16.0.3, SVG Export Plug-In . SVG Version: 6.00 Build 0)  -->
<!DOCTYPE svg PUBLIC "-//W3C//DTD SVG 1.1//EN" "http://www.w3.org/Graphics/SVG/1.1/DTD/svg11.dtd">
<svg version="1.1" xmlns="http://www.w3.org/2000/svg" xmlns:xlink="http://www.w3.org/1999/xlink" x="0px" y="0px" width="24px"
	 height="24px" viewBox="0 0 24 24" enable-background="new 0 0 24 24" xml:space="preserve">
<g id="Outline_Icons">
	<g>
		<path d="M15.5,6H9V4.5C9,4.224,8.776,4,8.5,4H6.541c-0.276,0-0.5,0.224-0.5,0.5S6.265,5,6.541,5H8v5.5C8,10.776,8.224,11,8.5,11h7
			c0.276,0,0.5-0.224,0.5-0.5v-4C16,6.224,15.776,6,15.5,6z M15,10H9V7h6V10z"/>
		<circle cx="9.5" cy="12.5" r="1"/>
		<circle cx="14.5" cy="12.5" r="1"/>
		<path d="M11.5,0C6.813,0,3,3.813,3,8.5c0,3.611,2.256,6.796,5.64,8.004l2.386,7.155C11.094,23.862,11.285,24,11.5,24
			s0.406-0.138,0.474-0.341l2.386-7.155C17.744,15.296,20,12.111,20,8.5C20,3.813,16.187,0,11.5,0z M13.81,15.635
			c-0.151,0.049-0.27,0.167-0.32,0.317l-1.99,5.967l-1.99-5.967c-0.05-0.151-0.169-0.269-0.32-0.317C6.086,14.629,4,11.762,4,8.5
			C4,4.365,7.364,1,11.5,1S19,4.365,19,8.5C19,11.762,16.914,14.629,13.81,15.635z"/>
	</g>
</g>
<g id="invisible_shape">
	<rect fill="none" width="24" height="24"/>
</g>
</svg>
