<?xml version="1.0" encoding="utf-8"?>
<!-- Generator: Adobe Illustrator 16.0.0, SVG Export Plug-In . SVG Version: 6.00 Build 0)  -->
<!DOCTYPE svg PUBLIC "-//W3C//DTD SVG 1.1//EN" "http://www.w3.org/Graphics/SVG/1.1/DTD/svg11.dtd">
<svg version="1.1" id="Outline_Icons" xmlns="http://www.w3.org/2000/svg" xmlns:xlink="http://www.w3.org/1999/xlink" x="0px"
	 y="0px" width="24px" height="24px" viewBox="0 0 24 24" enable-background="new 0 0 24 24" xml:space="preserve">
<path d="M23.854,0.146c-0.155-0.155-0.392-0.19-0.585-0.09l-23,12c-0.204,0.106-0.309,0.339-0.254,0.562
	C0.069,12.843,0.27,13,0.5,13H11v10.5c0,0.23,0.157,0.431,0.381,0.486C11.42,23.995,11.46,24,11.5,24
	c0.183,0,0.355-0.101,0.443-0.269l12-23C24.044,0.538,24.008,0.301,23.854,0.146z M12,21.461V12.5c0-0.276-0.224-0.5-0.5-0.5H2.539
	L22.321,1.679L12,21.461z"/>
</svg>
