<?xml version="1.0" encoding="utf-8"?>
<!-- Generator: Adobe Illustrator 16.0.0, SVG Export Plug-In . SVG Version: 6.00 Build 0)  -->
<!DOCTYPE svg PUBLIC "-//W3C//DTD SVG 1.1//EN" "http://www.w3.org/Graphics/SVG/1.1/DTD/svg11.dtd">
<svg version="1.1" id="Outline_Icons" xmlns="http://www.w3.org/2000/svg" xmlns:xlink="http://www.w3.org/1999/xlink" x="0px"
	 y="0px" width="24px" height="24px" viewBox="0 0 24 24" enable-background="new 0 0 24 24" xml:space="preserve">
<g>
	<path d="M12.146,16.146c-0.195,0.195-0.195,0.512,0,0.707C12.244,16.951,12.372,17,12.5,17s0.256-0.049,0.354-0.146l4-4
		c0.046-0.046,0.083-0.102,0.108-0.163c0.051-0.122,0.051-0.26,0-0.382c-0.025-0.062-0.062-0.117-0.108-0.163l-4-4
		c-0.195-0.195-0.512-0.195-0.707,0s-0.195,0.512,0,0.707L15.293,12H1.5C1.224,12,1,12.224,1,12.5S1.224,13,1.5,13h13.793
		L12.146,16.146z"/>
	<path d="M12.5,1C8.001,1,3.89,3.647,2.027,7.744C1.913,7.995,2.024,8.292,2.275,8.406C2.53,8.521,2.824,8.409,2.938,8.158
		C4.639,4.417,8.392,2,12.5,2C18.29,2,23,6.71,23,12.5S18.29,23,12.5,23c-4.131,0-7.894-2.437-9.586-6.207
		c-0.113-0.252-0.409-0.364-0.661-0.251c-0.252,0.113-0.365,0.409-0.251,0.661C3.854,21.332,7.976,24,12.5,24
		C18.841,24,24,18.841,24,12.5S18.841,1,12.5,1z"/>
</g>
</svg>
