<?xml version="1.0" encoding="utf-8"?>
<!-- Generator: Adobe Illustrator 16.0.0, SVG Export Plug-In . SVG Version: 6.00 Build 0)  -->
<!DOCTYPE svg PUBLIC "-//W3C//DTD SVG 1.1//EN" "http://www.w3.org/Graphics/SVG/1.1/DTD/svg11.dtd">
<svg version="1.1" id="Outline_Icons" xmlns="http://www.w3.org/2000/svg" xmlns:xlink="http://www.w3.org/1999/xlink" x="0px"
	 y="0px" width="24px" height="24px" viewBox="0 0 24 24" enable-background="new 0 0 24 24" xml:space="preserve">
<g>
	<path d="M12,0C5.383,0,0,5.383,0,12s5.383,12,12,12s12-5.383,12-12S18.617,0,12,0z M12,23C5.935,23,1,18.066,1,12
		C1,5.935,5.935,1,12,1s11,4.935,11,11C23,18.066,18.065,23,12,23z"/>
	<path d="M14,12c1.103,0,2-0.897,2-2c0-1.103-0.897-2-2-2h-3V7c0-1.103-0.897-2-2-2S7,5.897,7,7v6.5c0,2.482,2.019,4.5,4.5,4.5H14
		c1.103,0,2-0.897,2-2c0-1.103-0.897-2-2-2h-1.5c-0.827,0-1.5-0.673-1.5-1.5V12H14z M12.5,15H14c0.552,0,1,0.449,1,1s-0.448,1-1,1
		h-2.5C9.57,17,8,15.43,8,13.5V7c0-0.551,0.448-1,1-1s1,0.449,1,1v1.5C10,8.776,10.224,9,10.5,9H14c0.552,0,1,0.449,1,1
		s-0.448,1-1,1h-3.5c-0.276,0-0.5,0.224-0.5,0.5v1C10,13.878,11.121,15,12.5,15z"/>
</g>
</svg>
