<?xml version="1.0" encoding="utf-8"?>
<!-- Generator: Adobe Illustrator 16.0.0, SVG Export Plug-In . SVG Version: 6.00 Build 0)  -->
<!DOCTYPE svg PUBLIC "-//W3C//DTD SVG 1.1//EN" "http://www.w3.org/Graphics/SVG/1.1/DTD/svg11.dtd">
<svg version="1.1" id="Outline_Icons" xmlns="http://www.w3.org/2000/svg" xmlns:xlink="http://www.w3.org/1999/xlink" x="0px"
	 y="0px" width="24px" height="24px" viewBox="0 0 24 24" enable-background="new 0 0 24 24" xml:space="preserve">
<g>
	<path d="M12,0C5.383,0,0,5.383,0,12s5.383,12,12,12s12-5.383,12-12S18.617,0,12,0z M12,23C5.935,23,1,18.066,1,12
		C1,5.935,5.935,1,12,1s11,4.935,11,11C23,18.066,18.065,23,12,23z"/>
	<path d="M17.288,12h-3.44c-0.276,0-0.5,0.224-0.5,0.5s0.224,0.5,0.5,0.5h2.567l-0.347,0.591C16.023,13.668,16,13.755,16,13.844
		v2.342c-2.218,1.007-5.542,1.246-7.527-0.095c-1.219-0.821-2.496-2.475-2.426-4.653c0.062-1.935,1.315-3.799,3.194-4.748
		c1.997-1.011,4.865-0.837,6.683,0.335l-0.77,0.785c-0.193,0.196-0.189,0.514,0.008,0.708c0.196,0.191,0.513,0.189,0.707-0.009
		l1.173-1.196c0.098-0.1,0.149-0.235,0.142-0.376c-0.007-0.14-0.072-0.27-0.18-0.358c-2.076-1.72-5.686-2.063-8.214-0.781
		c-2.2,1.111-3.67,3.313-3.743,5.609c-0.082,2.585,1.427,4.543,2.867,5.514c1.151,0.777,2.619,1.102,4.105,1.102
		c1.693,0,3.41-0.422,4.706-1.075C16.894,16.861,17,16.688,17,16.5v-2.521l0.72-1.227c0.091-0.154,0.092-0.346,0.002-0.501
		C17.633,12.096,17.468,12,17.288,12z"/>
</g>
</svg>
