<?xml version="1.0" encoding="utf-8"?>
<!-- Generator: Adobe Illustrator 16.0.0, SVG Export Plug-In . SVG Version: 6.00 Build 0)  -->
<!DOCTYPE svg PUBLIC "-//W3C//DTD SVG 1.1//EN" "http://www.w3.org/Graphics/SVG/1.1/DTD/svg11.dtd">
<svg version="1.1" id="Filled_Icons" xmlns="http://www.w3.org/2000/svg" xmlns:xlink="http://www.w3.org/1999/xlink" x="0px"
	 y="0px" width="24px" height="24px" viewBox="0 0 24 24" enable-background="new 0 0 24 24" xml:space="preserve">
<path d="M12,0C5.383,0,0,5.383,0,12s5.383,12,12,12s12-5.383,12-12S18.617,0,12,0z M17.72,12.753L17,13.979V16.5
	c0,0.189-0.106,0.361-0.274,0.446c-1.297,0.653-3.013,1.075-4.706,1.075c-1.486,0-2.954-0.324-4.105-1.101
	c-1.44-0.972-2.949-2.931-2.867-5.515C5.12,9.11,6.59,6.908,8.79,5.797c2.53-1.281,6.138-0.938,8.214,0.781
	c0.107,0.089,0.173,0.221,0.18,0.359c0.008,0.14-0.044,0.275-0.142,0.375L15.869,8.51c-0.194,0.196-0.511,0.201-0.707,0.006
	c-0.197-0.193-0.201-0.51-0.008-0.707l0.77-0.783C14.104,5.85,11.235,5.68,9.241,6.689c-1.879,0.949-3.133,2.813-3.194,4.749
	c-0.069,2.177,1.208,3.831,2.426,4.653c1.983,1.338,5.308,1.1,7.527,0.094v-2.342c0-0.089,0.023-0.176,0.068-0.253L16.415,13h-2.567
	c-0.276,0-0.5-0.224-0.5-0.5s0.224-0.5,0.5-0.5h3.44c0.18,0,0.345,0.096,0.434,0.252C17.812,12.407,17.811,12.598,17.72,12.753z"/>
</svg>
