<?xml version="1.0" encoding="utf-8"?>
<!-- Generator: Adobe Illustrator 16.0.0, SVG Export Plug-In . SVG Version: 6.00 Build 0)  -->
<!DOCTYPE svg PUBLIC "-//W3C//DTD SVG 1.1//EN" "http://www.w3.org/Graphics/SVG/1.1/DTD/svg11.dtd">
<svg version="1.1" id="Filled_Icons" xmlns="http://www.w3.org/2000/svg" xmlns:xlink="http://www.w3.org/1999/xlink" x="0px"
	 y="0px" width="24px" height="24px" viewBox="0 0 24 24" enable-background="new 0 0 24 24" xml:space="preserve">
<path d="M16.5,0h-9C5.57,0,4,1.57,4,3.5v17C4,22.43,5.57,24,7.5,24h9c1.93,0,3.5-1.57,3.5-3.5v-17C20,1.57,18.43,0,16.5,0z M9.5,2h5
	C14.776,2,15,2.224,15,2.5S14.776,3,14.5,3h-5C9.224,3,9,2.776,9,2.5S9.224,2,9.5,2z M9,21H8v-1h1V21z M14,21.5
	c0,0.276-0.224,0.5-0.5,0.5h-3c-0.276,0-0.5-0.224-0.5-0.5v-2c0-0.276,0.224-0.5,0.5-0.5h3c0.276,0,0.5,0.224,0.5,0.5V21.5z M16,21
	h-1v-1h1V21z M18,16.5c0,0.827-0.673,1.5-1.5,1.5h-9C6.673,18,6,17.327,6,16.5v-11C6,4.673,6.673,4,7.5,4h9
	C17.327,4,18,4.673,18,5.5V16.5z"/>
</svg>
