<?xml version="1.0" encoding="utf-8"?>
<!-- Generator: Adobe Illustrator 16.0.0, SVG Export Plug-In . SVG Version: 6.00 Build 0)  -->
<!DOCTYPE svg PUBLIC "-//W3C//DTD SVG 1.1//EN" "http://www.w3.org/Graphics/SVG/1.1/DTD/svg11.dtd">
<svg version="1.1" id="Outline_Icons" xmlns="http://www.w3.org/2000/svg" xmlns:xlink="http://www.w3.org/1999/xlink" x="0px"
	 y="0px" width="24px" height="24px" viewBox="0 0 24 24" enable-background="new 0 0 24 24" xml:space="preserve">
<path d="M24,9.5C24,6.468,21.533,4,18.5,4h-5C10.416,4,8,5.537,8,7.5v7.861L2.963,5.178l1.344-0.665
	C4.555,4.39,4.656,4.09,4.534,3.843c-0.123-0.248-0.422-0.35-0.67-0.227L2.073,4.502C2.072,4.503,2.072,4.503,2.071,4.503
	S2.07,4.504,2.07,4.504L0.278,5.391c-0.248,0.123-0.349,0.423-0.227,0.67C0.139,6.237,0.316,6.339,0.5,6.339
	c0.074,0,0.15-0.017,0.221-0.052l1.345-0.666L8,17.617V18.5c0,1.379,1.122,2.5,2.5,2.5h6c1.378,0,2.5-1.121,2.5-2.5v-3.525
	C21.799,14.721,24,12.363,24,9.5z M18,18.5c0,0.827-0.673,1.5-1.5,1.5h-6C9.673,20,9,19.327,9,18.5v-11
	c0-1.306,1.914-2.416,4.235-2.495l1.849,2.772C15.177,7.916,15.333,8,15.5,8H18V18.5z M19,13.949V7.5C19,7.224,18.776,7,18.5,7
	h-2.732l-1.333-2H18.5C20.981,5,23,7.019,23,9.5C23,11.811,21.244,13.697,19,13.949z"/>
</svg>
