<?xml version="1.0" encoding="utf-8"?>
<!-- Generator: Adobe Illustrator 16.0.0, SVG Export Plug-In . SVG Version: 6.00 Build 0)  -->
<!DOCTYPE svg PUBLIC "-//W3C//DTD SVG 1.1//EN" "http://www.w3.org/Graphics/SVG/1.1/DTD/svg11.dtd">
<svg version="1.1" id="Outline_Icons" xmlns="http://www.w3.org/2000/svg" xmlns:xlink="http://www.w3.org/1999/xlink" x="0px"
	 y="0px" width="24px" height="24px" viewBox="0 0 24 24" enable-background="new 0 0 24 24" xml:space="preserve">
<g>
	<path d="M23.575,9.691c0.05-0.122,0.05-0.26,0-0.382c-0.025-0.062-0.062-0.117-0.109-0.163l-3.999-4
		c-0.195-0.195-0.512-0.195-0.707,0s-0.195,0.512,0,0.707L21.906,9H12.5C10.019,9,8,11.019,8,13.5v2C8,15.776,8.224,16,8.5,16
		S9,15.776,9,15.5v-2c0-1.93,1.57-3.5,3.5-3.5h9.406l-3.146,3.146c-0.195,0.195-0.195,0.512,0,0.707
		C18.857,13.951,18.985,14,19.113,14s0.256-0.049,0.354-0.146l3.999-4C23.513,9.808,23.55,9.752,23.575,9.691z"/>
	<path d="M14.5,12.5c-0.276,0-0.5,0.224-0.5,0.5v6H1V6h13v1c0,0.276,0.224,0.5,0.5,0.5S15,7.276,15,7V5.5C15,5.224,14.776,5,14.5,5
		h-14C0.224,5,0,5.224,0,5.5v14C0,19.776,0.224,20,0.5,20h14c0.276,0,0.5-0.224,0.5-0.5V13C15,12.724,14.776,12.5,14.5,12.5z"/>
</g>
</svg>
