<?xml version="1.0" encoding="utf-8"?>
<!-- Generator: Adobe Illustrator 17.1.0, SVG Export Plug-In . SVG Version: 6.00 Build 0)  -->
<!DOCTYPE svg PUBLIC "-//W3C//DTD SVG 1.1//EN" "http://www.w3.org/Graphics/SVG/1.1/DTD/svg11.dtd">
<svg version="1.1" id="Filled_Icons" xmlns="http://www.w3.org/2000/svg" xmlns:xlink="http://www.w3.org/1999/xlink" x="0px"
	 y="0px" width="24px" height="24px" viewBox="0 0 24 24" enable-background="new 0 0 24 24" xml:space="preserve">
<g>
	<path d="M23.923,10.382c0.102-0.244,0.102-0.519,0-0.763c-0.051-0.124-0.124-0.234-0.217-0.327l-3.999-3.999
		c-0.391-0.391-1.023-0.391-1.414,0c-0.391,0.391-0.391,1.023,0,1.413L20.586,9h-8.199c-2.757,0-5,2.243-5,5v2c0,0.552,0.447,1,1,1
		c0.553,0,1-0.448,1-1v-2c0-1.654,1.346-3,3-3h8.199l-2.293,2.293c-0.391,0.391-0.391,1.023,0,1.413C18.488,14.902,18.744,15,19,15
		s0.512-0.098,0.707-0.293l3.999-3.999C23.799,10.615,23.872,10.505,23.923,10.382z"/>
	<path d="M15,12c-0.553,0-1,0.448-1,1v5H2V6h12v1c0,0.552,0.447,1,1,1s1-0.448,1-1V5c0-0.552-0.447-1-1-1H1C0.447,4,0,4.448,0,5v14
		c0,0.552,0.447,1,1,1h14c0.553,0,1-0.448,1-1v-6C16,12.448,15.553,12,15,12z"/>
</g>
</svg>
