<?xml version="1.0" encoding="utf-8"?>
<!-- Generator: Adobe Illustrator 16.0.0, SVG Export Plug-In . SVG Version: 6.00 Build 0)  -->
<!DOCTYPE svg PUBLIC "-//W3C//DTD SVG 1.1//EN" "http://www.w3.org/Graphics/SVG/1.1/DTD/svg11.dtd">
<svg version="1.1" id="Outline_Icons" xmlns="http://www.w3.org/2000/svg" xmlns:xlink="http://www.w3.org/1999/xlink" x="0px"
	 y="0px" width="24px" height="24px" viewBox="0 0 24 24" enable-background="new 0 0 24 24" xml:space="preserve">
<g>
	<path d="M2.094,10H11.5c1.93,0,3.5,1.57,3.5,3.5v2c0,0.276,0.224,0.5,0.5,0.5s0.5-0.224,0.5-0.5v-2c0-2.481-2.019-4.5-4.5-4.5
		H2.094L5.24,5.854c0.195-0.195,0.195-0.512,0-0.707s-0.512-0.195-0.707,0l-3.999,4C0.487,9.192,0.45,9.248,0.425,9.309
		c-0.05,0.122-0.05,0.26,0,0.382C0.45,9.752,0.487,9.808,0.534,9.854l3.999,4C4.631,13.951,4.759,14,4.887,14
		s0.256-0.049,0.354-0.146c0.195-0.195,0.195-0.512,0-0.707L2.094,10z"/>
	<path d="M23.5,5h-14C9.224,5,9,5.224,9,5.5V7c0,0.276,0.224,0.5,0.5,0.5S10,7.276,10,7V6h13v13H10v-6c0-0.276-0.224-0.5-0.5-0.5
		S9,12.724,9,13v6.5C9,19.776,9.224,20,9.5,20h14c0.276,0,0.5-0.224,0.5-0.5v-14C24,5.224,23.776,5,23.5,5z"/>
</g>
</svg>
