<?xml version="1.0" encoding="utf-8"?>
<!-- Generator: Adobe Illustrator 16.0.0, SVG Export Plug-In . SVG Version: 6.00 Build 0)  -->
<!DOCTYPE svg PUBLIC "-//W3C//DTD SVG 1.1//EN" "http://www.w3.org/Graphics/SVG/1.1/DTD/svg11.dtd">
<svg version="1.1" id="Outline_Icons" xmlns="http://www.w3.org/2000/svg" xmlns:xlink="http://www.w3.org/1999/xlink" x="0px"
	 y="0px" width="24px" height="24px" viewBox="0 0 24 24" enable-background="new 0 0 24 24" xml:space="preserve">
<g>
	<path d="M21.5,0h-19C1.122,0,0,1.122,0,2.5v21C0,23.776,0.224,24,0.5,24H3c0.215,0,0.406-0.138,0.474-0.341L4.36,21h15.267
		l0.916,2.663C20.612,23.865,20.802,24,21.016,24H23.5c0.276,0,0.5-0.224,0.5-0.5v-21C24,1.122,22.878,0,21.5,0z M23,23h-1.627
		l-0.916-2.662C20.388,20.136,20.198,20,19.984,20H4c-0.215,0-0.406,0.138-0.474,0.342L2.64,23H1V2.5C1,1.673,1.673,1,2.5,1h19
		C22.327,1,23,1.673,23,2.5V23z"/>
	<path d="M21.5,2h-19C2.224,2,2,2.224,2,2.5v7C2,9.776,2.224,10,2.5,10h2h3h3h3h8c0.276,0,0.5-0.224,0.5-0.5v-7
		C22,2.224,21.776,2,21.5,2z M7,9H5V5h2V9z M8,5h2v4H8V5z M11,9V5h2v4H11z M14,6.876L14.79,9H14V6.876z M15.801,8.849l-1.299-3.491
		l1.745-0.649l1.298,3.49L15.801,8.849z M21,9h-2.737l0.1-0.037c0.259-0.096,0.391-0.384,0.294-0.643l-1.646-4.428
		c-0.046-0.124-0.14-0.225-0.261-0.28c-0.12-0.055-0.257-0.06-0.382-0.015l-2.372,0.882C13.984,4.214,13.769,4,13.5,4h-3h-3h-3
		C4.224,4,4,4.224,4,4.5V9H3V3h18V9z"/>
	<path d="M21.5,11h-19C2.224,11,2,11.224,2,11.5v7C2,18.776,2.224,19,2.5,19h8h3h3h3h2c0.276,0,0.5-0.224,0.5-0.5v-7
		C22,11.224,21.776,11,21.5,11z M13,18h-2v-4h2V18z M14,14h2v4h-2V14z M17,18v-4h2v4H17z M21,18h-1v-4.5c0-0.276-0.224-0.5-0.5-0.5
		h-3h-3h-3c-0.276,0-0.5,0.224-0.5,0.5V18H3v-6h18V18z"/>
</g>
</svg>
