<?xml version="1.0" encoding="utf-8"?>
<!-- Generator: Adobe Illustrator 16.0.0, SVG Export Plug-In . SVG Version: 6.00 Build 0)  -->
<!DOCTYPE svg PUBLIC "-//W3C//DTD SVG 1.1//EN" "http://www.w3.org/Graphics/SVG/1.1/DTD/svg11.dtd">
<svg version="1.1" id="Filled_Icons" xmlns="http://www.w3.org/2000/svg" xmlns:xlink="http://www.w3.org/1999/xlink" x="0px"
	 y="0px" width="24px" height="24px" viewBox="0 0 24 24" enable-background="new 0 0 24 24" xml:space="preserve">
<g>
	<path d="M18.948,16.617c-0.314,2.024-2.147,3.146-3.787,4.146c-1.428,0.869-2.661,1.62-2.661,2.731c0,0.275-0.224,0.5-0.5,0.5
		s-0.5-0.225-0.5-0.5c0-1.172-1.377-2.068-2.835-3.019c-1.542-1.005-3.266-2.132-3.602-3.864C2.253,17.894,0,19.364,0,21.994V24h24
		v-2.006C24,19.367,21.752,17.897,18.948,16.617z"/>
	<path d="M4,15.049c0.272,0,0.536-0.027,0.782-0.078c1.044-0.214,1.902-0.802,2.39-1.558c0.367,0.641,0.848,1.205,1.396,1.692
		c-0.437,0.187-0.875,0.377-1.304,0.557c-0.422,0.176-0.84,0.352-1.251,0.529c0.128,1.443,1.686,2.461,3.198,3.446
		c1.083,0.705,2.187,1.427,2.801,2.34c0.594-0.827,1.621-1.456,2.629-2.069c1.593-0.971,3.234-1.975,3.348-3.716
		c-0.412-0.178-0.831-0.354-1.253-0.53c-0.428-0.18-0.867-0.369-1.304-0.557c0.551-0.489,1.034-1.057,1.401-1.7
		c0.486,0.76,1.345,1.352,2.391,1.565c1.382,0.285,3.32-0.144,4.235-2.28c0.066-0.154,0.051-0.332-0.042-0.472
		c-0.093-0.141-0.25-0.225-0.417-0.225c-1.351,0-1.858-2.195-2.396-4.519c-0.606-2.622-1.293-5.593-3.466-6.615
		C15.802,0.231,14.12,0.42,12,1.437C9.881,0.42,8.198,0.231,6.862,0.86c-2.173,1.022-2.86,3.993-3.466,6.615
		C2.858,9.799,2.35,11.994,1,11.994c-0.168,0-0.325,0.084-0.417,0.225c-0.093,0.14-0.108,0.317-0.042,0.472
		C1.294,14.449,2.741,15.049,4,15.049z M7,8.994c0.229,0,0.429-0.156,0.485-0.379l0.407-1.627C10.535,6.922,11.46,6.17,12,5.388
		c0.54,0.782,1.466,1.534,4.108,1.601l0.407,1.627C16.57,8.838,16.771,8.994,17,8.994c0.495,0,0.625,0.653,0.625,1
		c0,0.346-0.13,1-0.625,1c-0.245,0-0.453,0.176-0.493,0.417c-0.481,2.887-3.559,4.211-4.507,4.554
		c-0.948-0.343-4.026-1.667-4.507-4.554C7.453,11.17,7.245,10.994,7,10.994c-0.495,0-0.625-0.654-0.625-1
		C6.375,9.647,6.505,8.994,7,8.994z"/>
	<path d="M9,9.495c0.273,0,0.495-0.219,0.5-0.491c0.095-0.012,0.252-0.01,0.364-0.01L10,8.995l0.136-0.001
		c0.112,0,0.27-0.002,0.364,0.01c0.004,0.272,0.227,0.491,0.5,0.491c0.276,0,0.5-0.225,0.5-0.5c0-0.298-0.089-0.538-0.266-0.713
		c-0.296-0.294-0.709-0.29-1.106-0.288L10,7.995L9.872,7.994c-0.399-0.003-0.81-0.006-1.106,0.288C8.589,8.457,8.5,8.697,8.5,8.995
		C8.5,9.271,8.724,9.495,9,9.495z"/>
	<path d="M13,9.495c0.273,0,0.495-0.219,0.5-0.491c0.095-0.012,0.251-0.01,0.364-0.01L14,8.995l0.136-0.001
		c0.112,0,0.27-0.002,0.364,0.01c0.004,0.272,0.227,0.491,0.5,0.491c0.276,0,0.5-0.225,0.5-0.5c0-0.298-0.089-0.538-0.266-0.713
		c-0.296-0.294-0.708-0.29-1.106-0.288L14,7.995l-0.128-0.001c-0.397-0.003-0.81-0.006-1.106,0.288
		C12.589,8.457,12.5,8.697,12.5,8.995C12.5,9.271,12.724,9.495,13,9.495z"/>
</g>
</svg>
