<?xml version="1.0" encoding="utf-8"?>
<!-- Generator: Adobe Illustrator 16.0.0, SVG Export Plug-In . SVG Version: 6.00 Build 0)  -->
<!DOCTYPE svg PUBLIC "-//W3C//DTD SVG 1.1//EN" "http://www.w3.org/Graphics/SVG/1.1/DTD/svg11.dtd">
<svg version="1.1" id="Filled_Icons" xmlns="http://www.w3.org/2000/svg" xmlns:xlink="http://www.w3.org/1999/xlink" x="0px"
	 y="0px" width="24px" height="24px" viewBox="0 0 24 24" enable-background="new 0 0 24 24" xml:space="preserve">
<g>
	<path d="M21.038,16.773l-5.402-1.495c0.948-0.853,1.712-1.993,1.844-3.356c0.686-0.234,1.146-0.971,1.146-1.922
		c0-0.289-0.047-0.555-0.125-0.797l0.498-3.653c0.008-0.08,0.18-1.976-1.244-3.549C16.552,0.674,14.616,0,12,0
		S7.448,0.674,6.247,2.001C4.823,3.574,4.995,5.47,5.005,5.568L5.5,9.204C5.422,9.445,5.375,9.711,5.375,10
		c0,0.951,0.46,1.688,1.146,1.922c0.134,1.376,0.911,2.524,1.872,3.381L2.92,16.787C1.173,17.441,0,19.135,0,21v3h8.635l2.551-4.677
		C10.489,19.011,10,18.313,10,17.5v-1.102C10.761,16.788,11.49,17,12,17s1.24-0.212,2-0.602V17.5c0,0.813-0.489,1.511-1.186,1.823
		L15.365,24H24v-3C24,19.135,22.827,17.441,21.038,16.773z M12,16c-1.342,0-4.5-1.9-4.5-4.5C7.5,11.225,7.276,11,7,11
		c-0.494,0-0.625-0.654-0.625-1S6.506,9,7,9c0.238,0,0.444-0.168,0.49-0.401l0.421-2.104c2.628-0.07,3.55-0.819,4.089-1.601
		c0.539,0.781,1.461,1.53,4.089,1.601l0.42,2.104C16.557,8.832,16.762,9,17,9c0.495,0,0.625,0.654,0.625,1s-0.13,1-0.625,1
		c-0.276,0-0.5,0.225-0.5,0.5C16.5,14.1,13.342,16,12,16z M21,21h-3.5v-1H21V21z"/>
	<path d="M10.128,8.501L10,8.502L9.872,8.501c-0.399-0.004-0.81-0.007-1.106,0.288C8.589,8.964,8.5,9.203,8.5,9.502
		c0,0.275,0.224,0.5,0.5,0.5c0.273,0,0.496-0.22,0.5-0.491C9.595,9.499,9.752,9.5,9.864,9.501L10,9.502l0.136-0.001
		c0.112-0.001,0.27-0.002,0.364,0.01c0.005,0.271,0.227,0.491,0.5,0.491c0.276,0,0.5-0.225,0.5-0.5c0-0.299-0.089-0.538-0.266-0.713
		C10.938,8.495,10.525,8.499,10.128,8.501z"/>
	<path d="M14.128,8.501L14,8.502l-0.128-0.001c-0.398-0.004-0.81-0.007-1.106,0.288C12.589,8.964,12.5,9.203,12.5,9.502
		c0,0.275,0.224,0.5,0.5,0.5c0.273,0,0.496-0.22,0.5-0.491c0.095-0.012,0.252-0.011,0.364-0.01L14,9.502l0.136-0.001
		c0.112-0.001,0.27-0.002,0.364,0.01c0.005,0.271,0.227,0.491,0.5,0.491c0.276,0,0.5-0.225,0.5-0.5c0-0.299-0.089-0.538-0.266-0.713
		C14.938,8.495,14.527,8.499,14.128,8.501z"/>
</g>
</svg>
