<?xml version="1.0" encoding="utf-8"?>
<!-- Generator: Adobe Illustrator 16.0.0, SVG Export Plug-In . SVG Version: 6.00 Build 0)  -->
<!DOCTYPE svg PUBLIC "-//W3C//DTD SVG 1.1//EN" "http://www.w3.org/Graphics/SVG/1.1/DTD/svg11.dtd">
<svg version="1.1" id="Outline_Icons" xmlns="http://www.w3.org/2000/svg" xmlns:xlink="http://www.w3.org/1999/xlink" x="0px"
	 y="0px" width="24px" height="24px" viewBox="0 0 24 24" enable-background="new 0 0 24 24" xml:space="preserve">
<g>
	<path d="M17,6c0-0.276-0.224-0.5-0.5-0.5c-2.984,0-3.486-0.84-3.819-1.396c-0.099-0.166-0.192-0.322-0.328-0.457
		c-0.188-0.188-0.52-0.188-0.707,0c-0.135,0.135-0.229,0.292-0.328,0.457C10.987,4.66,10.484,5.5,7.5,5.5C7.224,5.5,7,5.724,7,6
		s0.224,0.5,0.5,0.5c2.945,0,3.935-0.786,4.5-1.606c0.565,0.82,1.555,1.606,4.5,1.606C16.777,6.5,17,6.276,17,6z"/>
	<path d="M21.042,16.774l-6.27-1.78c-0.009-0.002-0.018,0-0.027-0.002c-0.033-0.007-0.066-0.007-0.101-0.008
		c-0.033-0.001-0.064-0.003-0.096,0.002c-0.027,0.005-0.052,0.016-0.078,0.026c-0.036,0.013-0.07,0.024-0.103,0.045
		c-0.007,0.005-0.016,0.006-0.023,0.011C13.487,15.68,12.516,16,12,16c-1.342,0-4.5-1.9-4.5-4.5C7.5,11.224,7.277,11,7,11
		c-0.542,0-0.861-0.542-0.971-1.007C5.917,9.517,6.002,9.058,6.224,8.947C6.42,8.849,6.53,8.634,6.494,8.418L5.998,5.45
		c-0.001-0.015-0.139-1.531,0.99-2.778C7.992,1.562,9.679,1,12,1c2.313,0,3.996,0.559,5.001,1.66c1.108,1.214,1.006,2.72,1.013,2.72
		l-0.5,1.999c-0.005,0.021,0,0.04-0.003,0.06C17.51,7.46,17.5,7.479,17.5,7.5v3c0,0.276,0.224,0.5,0.5,0.5h1
		c0.002,0,0.003,0,0.005,0l0.004,0.402C18.862,12.141,18.17,13,17.5,13h-3.153c-0.174-0.293-0.48-0.5-0.847-0.5h-2
		c-0.552,0-1,0.448-1,1s0.448,1,1,1h2c0.366,0,0.672-0.207,0.847-0.5H17.5c1.202,0,2.258-1.242,2.5-2.5v-0.778
		c0.595-0.347,1-0.984,1-1.722c0-1.103-0.897-2-2-2h-0.361l0.359-1.45c0.008-0.08,0.179-1.976-1.244-3.549
		C16.552,0.673,14.617,0,12,0S7.449,0.673,6.247,2.001C4.824,3.574,4.995,5.47,5.007,5.582l0.45,2.699
		C5.03,8.7,4.869,9.429,5.056,10.222c0.209,0.887,0.762,1.517,1.466,1.713c0.135,1.345,0.886,2.472,1.819,3.32l-5.421,1.532
		C1.174,17.441,0,19.134,0,21v2.5C0,23.776,0.224,24,0.5,24h23c0.276,0,0.5-0.224,0.5-0.5V21C24,19.134,22.827,17.441,21.042,16.774
		z M20,9c0,0.551-0.449,1-1,1h-0.5V8H19C19.552,8,20,8.449,20,9z M23,23H1v-2c0-1.451,0.913-2.768,2.231-3.264l6.102-1.723
		C10.319,16.649,11.342,17,12,17c0.752,0,1.811-0.396,2.709-0.984l6.02,1.708C22.088,18.232,23,19.549,23,21V23z"/>
	<path d="M9.003,9.473c0.254,0,0.467-0.214,0.498-0.464C9.595,8.997,9.75,8.999,9.863,9L10,9l0.137,0
		c0.113-0.001,0.268-0.002,0.363,0.009C10.505,9.281,10.727,9.5,11,9.5c0.276,0,0.5-0.224,0.5-0.5c0-0.298-0.089-0.538-0.266-0.713
		C10.938,7.993,10.527,7.997,10.13,8L10,8L9.871,8c-0.39-0.002-0.809-0.006-1.105,0.288C8.59,8.462,8.5,8.702,8.5,9
		C8.5,9.276,8.727,9.473,9.003,9.473z"/>
	<path d="M14,8l-0.129,0c-0.391-0.002-0.808-0.006-1.105,0.288C12.59,8.462,12.5,8.702,12.5,9c0,0.276,0.226,0.473,0.502,0.473
		c0.254,0,0.467-0.214,0.498-0.464c0.095-0.011,0.25-0.01,0.362-0.009L14,9l0.137,0c0.113-0.001,0.269-0.002,0.363,0.009
		C14.505,9.281,14.727,9.5,15,9.5c0.276,0,0.5-0.224,0.5-0.5c0-0.298-0.089-0.538-0.266-0.713C14.938,7.993,14.526,7.997,14.13,8
		L14,8z"/>
</g>
</svg>
