<?xml version="1.0" encoding="utf-8"?>
<!-- Generator: Adobe Illustrator 16.0.0, SVG Export Plug-In . SVG Version: 6.00 Build 0)  -->
<!DOCTYPE svg PUBLIC "-//W3C//DTD SVG 1.1//EN" "http://www.w3.org/Graphics/SVG/1.1/DTD/svg11.dtd">
<svg version="1.1" id="Outline_Icons" xmlns="http://www.w3.org/2000/svg" xmlns:xlink="http://www.w3.org/1999/xlink" x="0px"
	 y="0px" width="24px" height="24px" viewBox="0 0 24 24" enable-background="new 0 0 24 24" xml:space="preserve">
<g>
	<path d="M21.038,16.773l-5.402-1.495c0.948-0.853,1.712-1.994,1.844-3.356c0.686-0.234,1.146-0.971,1.146-1.922
		c0-0.285-0.051-0.542-0.127-0.78l0.5-3.67c0.008-0.08,0.179-1.976-1.244-3.549C16.552,0.673,14.617,0,12,0S7.449,0.673,6.247,2.001
		C4.824,3.574,4.995,5.47,5.005,5.567L5.503,9.22C5.427,9.458,5.375,9.715,5.375,10c0,0.951,0.46,1.688,1.146,1.922
		c0.133,1.369,0.904,2.515,1.858,3.369l-5.458,1.496C1.174,17.441,0,19.134,0,21v2.5C0,23.776,0.224,24,0.5,24H9h6h8.5
		c0.276,0,0.5-0.224,0.5-0.5V21C24,19.134,22.827,17.441,21.038,16.773z M6.988,2.672C7.992,1.562,9.679,1,12,1
		c2.313,0,3.996,0.559,5.001,1.66c1.127,1.235,1.002,2.772,1.003,2.772l-0.373,2.736c-0.071-0.035-0.133-0.086-0.209-0.109
		l-0.432-2.158C16.944,5.668,16.739,5.5,16.5,5.5c-2.984,0-3.486-0.84-3.819-1.396c-0.099-0.166-0.192-0.322-0.328-0.457
		c-0.188-0.188-0.52-0.188-0.707,0c-0.135,0.135-0.229,0.292-0.328,0.457C10.987,4.66,10.484,5.5,7.5,5.5
		c-0.238,0-0.443,0.168-0.49,0.402L6.579,8.06C6.502,8.083,6.44,8.134,6.369,8.169L5.998,5.45C5.997,5.435,5.859,3.919,6.988,2.672z
		 M7.5,11.5C7.5,11.224,7.277,11,7,11c-0.494,0-0.625-0.654-0.625-1S6.506,9,7,9c0.238,0,0.443-0.168,0.49-0.402l0.421-2.104
		c2.628-0.07,3.55-0.819,4.089-1.601c0.539,0.781,1.461,1.53,4.089,1.601l0.421,2.104C16.557,8.832,16.762,9,17,9
		c0.494,0,0.625,0.654,0.625,1S17.495,11,17,11c-0.276,0-0.5,0.224-0.5,0.5c0,2.6-3.158,4.5-4.5,4.5S7.5,14.1,7.5,11.5z M12,18.5
		c-0.551,0-1-0.449-1-1v-0.684C11.378,16.936,11.723,17,12,17s0.623-0.064,1-0.184V17.5C13,18.051,12.552,18.5,12,18.5z M1,21
		c0-1.451,0.913-2.768,2.228-3.263l6.165-1.688c0.203,0.128,0.406,0.246,0.608,0.349V17.5c0,0.812,0.488,1.509,1.184,1.822L8.733,23
		H1V21z M9.935,23L12,19.901L14.066,23H9.935z M23,23h-7.732l-2.452-3.678C13.513,19.009,14,18.312,14,17.5v-1.102
		c0.208-0.106,0.419-0.228,0.628-0.361l6.101,1.686C22.088,18.232,23,19.549,23,21V23z"/>
	<path d="M9.501,9.51C9.595,9.499,9.75,9.5,9.863,9.501l0.137,0l0.137,0C10.25,9.5,10.406,9.5,10.5,9.51
		c0.004,0.272,0.227,0.492,0.5,0.492c0.276,0,0.5-0.224,0.5-0.5c0-0.298-0.089-0.538-0.266-0.713
		c-0.296-0.294-0.708-0.291-1.105-0.288l-0.129,0l-0.129,0c-0.39-0.002-0.809-0.006-1.105,0.288C8.59,8.964,8.5,9.204,8.5,9.502
		c0,0.276,0.226,0.473,0.502,0.473C9.257,9.975,9.47,9.76,9.501,9.51z"/>
	<path d="M13.003,9.975c0.254,0,0.467-0.214,0.498-0.464c0.095-0.011,0.25-0.01,0.362-0.009l0.137,0l0.137,0
		C14.25,9.5,14.406,9.5,14.5,9.51c0.004,0.272,0.227,0.492,0.5,0.492c0.276,0,0.5-0.224,0.5-0.5c0-0.298-0.089-0.538-0.266-0.713
		c-0.296-0.294-0.708-0.291-1.105-0.288l-0.129,0l-0.129,0c-0.391-0.002-0.808-0.006-1.105,0.288C12.59,8.964,12.5,9.204,12.5,9.502
		C12.5,9.778,12.727,9.975,13.003,9.975z"/>
	<rect x="17.5" y="20" width="3.5" height="1"/>
</g>
</svg>
