<?xml version="1.0" encoding="utf-8"?>
<!-- Generator: Adobe Illustrator 16.0.0, SVG Export Plug-In . SVG Version: 6.00 Build 0)  -->
<!DOCTYPE svg PUBLIC "-//W3C//DTD SVG 1.1//EN" "http://www.w3.org/Graphics/SVG/1.1/DTD/svg11.dtd">
<svg version="1.1" id="Outline_Icons" xmlns="http://www.w3.org/2000/svg" xmlns:xlink="http://www.w3.org/1999/xlink" x="0px"
	 y="0px" width="24px" height="24px" viewBox="0 0 24 24" enable-background="new 0 0 24 24" xml:space="preserve">
<g>
	<path d="M16.737,15.663c-0.429-0.179-0.87-0.371-1.308-0.559c0.553-0.491,1.026-1.068,1.395-1.715
		c0.485,0.768,1.346,1.366,2.4,1.582c1.382,0.284,3.319-0.144,4.235-2.281c0.066-0.154,0.05-0.332-0.042-0.472
		c-0.093-0.14-0.25-0.225-0.417-0.225c-1.35,0-1.858-2.195-2.396-4.519c-0.606-2.621-1.293-5.592-3.466-6.615
		C15.801,0.231,14.118,0.419,12,1.437C9.882,0.42,8.2,0.232,6.862,0.86c-2.173,1.023-2.86,3.994-3.466,6.615
		C2.858,9.798,2.351,11.993,1,11.993c-0.168,0-0.325,0.084-0.417,0.225c-0.092,0.141-0.108,0.318-0.042,0.472
		c0.753,1.758,2.2,2.359,3.46,2.359c0.272,0,0.536-0.028,0.782-0.079c1.051-0.215,1.912-0.81,2.398-1.573
		c0.368,0.644,0.84,1.218,1.391,1.707c-0.438,0.188-0.878,0.379-1.308,0.559C3.528,17.225,0,18.701,0,21.993V23.5
		C0,23.776,0.224,24,0.5,24h23c0.276,0,0.5-0.224,0.5-0.5v-1.507C24,18.702,20.472,17.226,16.737,15.663z M4.582,13.991
		c-0.459,0.096-1.904,0.257-2.817-1.124c1.537-0.548,2.058-2.8,2.605-5.167c0.555-2.4,1.185-5.12,2.918-5.936
		c1.085-0.513,2.555-0.291,4.488,0.676c0.141,0.07,0.307,0.07,0.447,0c1.932-0.966,3.401-1.188,4.488-0.676
		C18.446,2.581,19.076,5.3,19.631,7.7c0.547,2.367,1.068,4.619,2.605,5.167c-0.912,1.38-2.351,1.219-2.811,1.124
		c-1.006-0.206-2.023-0.958-2.025-1.995c0.005-0.021,0.016-0.041,0.021-0.062c0.718-0.211,1.204-0.963,1.204-1.94
		c0-0.985-0.494-1.741-1.221-1.945l-0.419-1.676C16.93,6.149,16.73,5.993,16.5,5.993c-2.984,0-3.486-0.84-3.819-1.396
		c-0.099-0.166-0.192-0.322-0.328-0.457c-0.188-0.188-0.52-0.188-0.707,0c-0.135,0.135-0.229,0.292-0.328,0.457
		C10.987,5.153,10.484,5.993,7.5,5.993c-0.229,0-0.429,0.156-0.485,0.379L6.597,8.047C6.253,8.142,5.957,8.36,5.741,8.685
		C5.505,9.038,5.375,9.502,5.375,9.993c0,0.978,0.486,1.729,1.204,1.94c0.007,0.029,0.021,0.055,0.028,0.084
		C6.591,13.043,5.582,13.785,4.582,13.991z M7.494,11.411C7.454,11.17,7.245,10.993,7,10.993c-0.494,0-0.625-0.654-0.625-1
		s0.131-1,0.625-1c0.229,0,0.429-0.156,0.485-0.379l0.407-1.626C10.535,6.921,11.46,6.17,12,5.387
		c0.54,0.783,1.465,1.534,4.108,1.601l0.407,1.626C16.571,8.837,16.771,8.993,17,8.993c0.494,0,0.625,0.654,0.625,1
		s-0.131,1-0.625,1c-0.245,0-0.453,0.177-0.493,0.418c-0.481,2.886-3.56,4.21-4.507,4.553C11.053,15.622,7.975,14.297,7.494,11.411z
		 M7.65,16.584c0.6-0.251,1.214-0.512,1.829-0.781c0.76,0.511,1.58,0.902,2.364,1.164c0.051,0.017,0.105,0.026,0.158,0.026
		s0.107-0.009,0.158-0.026c0.784-0.261,1.604-0.653,2.364-1.164c0.614,0.269,1.229,0.53,1.829,0.781
		c0.551,0.231,1.089,0.457,1.608,0.684c-0.205,1.047-1.532,1.773-2.945,2.534c-1.176,0.633-2.365,1.288-3.013,2.204
		c-0.648-0.917-1.837-1.571-3.013-2.204c-1.413-0.761-2.74-1.488-2.945-2.535C6.561,17.042,7.098,16.815,7.65,16.584z M1,21.993
		c0-1.969,1.733-3.187,4.104-4.303c0.396,1.364,1.921,2.191,3.409,2.993c1.314,0.708,2.559,1.384,2.893,2.316H1V21.993z M23,23
		H12.595c0.334-0.933,1.579-1.608,2.893-2.316c1.488-0.801,3.014-1.629,3.409-2.993C21.268,18.807,23,20.024,23,21.993V23z"/>
	<path d="M9.501,9.003c0.094-0.011,0.25-0.01,0.362-0.009l0.137,0l0.137,0c0.112-0.001,0.269-0.002,0.363,0.009
		c0.004,0.272,0.227,0.492,0.5,0.492c0.276,0,0.5-0.224,0.5-0.5c0-0.298-0.089-0.538-0.266-0.713
		c-0.296-0.294-0.71-0.291-1.105-0.288l-0.129,0l-0.129,0C9.479,7.992,9.063,7.988,8.766,8.282C8.59,8.457,8.5,8.697,8.5,8.995
		c0,0.276,0.226,0.473,0.502,0.473C9.257,9.468,9.47,9.253,9.501,9.003z"/>
	<path d="M13.003,9.468c0.254,0,0.467-0.214,0.498-0.464c0.095-0.011,0.25-0.01,0.362-0.009l0.137,0l0.137,0
		c0.112-0.001,0.269-0.002,0.363,0.009c0.004,0.272,0.227,0.492,0.5,0.492c0.276,0,0.5-0.224,0.5-0.5
		c0-0.298-0.089-0.538-0.266-0.713c-0.296-0.294-0.707-0.291-1.105-0.288l-0.129,0l-0.129,0c-0.394-0.002-0.809-0.006-1.105,0.288
		C12.59,8.457,12.5,8.697,12.5,8.995C12.5,9.271,12.727,9.468,13.003,9.468z"/>
</g>
</svg>
