<?xml version="1.0" encoding="utf-8"?>
<!-- Generator: Adobe Illustrator 19.2.1, SVG Export Plug-In . SVG Version: 6.00 Build 0)  -->
<svg version="1.1" xmlns="http://www.w3.org/2000/svg" xmlns:xlink="http://www.w3.org/1999/xlink" x="0px" y="0px" width="24px"
	 height="24px" viewBox="0 0 24 24" enable-background="new 0 0 24 24" xml:space="preserve">
<g id="Filled_Icons_1_">
	<g id="Filled_Icons">
		<path d="M21.999,17.691l-2.453-2.453c-1.001-1.002-2.622-1.002-3.625,0l-0.657,0.657c-2.57-2.126-5.038-4.594-7.159-7.16
			l0.657-0.657c0.999-0.999,0.999-2.625,0-3.624L6.309,2.001c-1.001-1.002-2.623-1.002-3.625,0L1.338,3.347
			c-1.243,1.242-1.441,3.211-0.47,4.68c3.934,5.947,9.157,11.17,15.105,15.104c1.45,0.959,3.409,0.803,4.68-0.47l1.346-1.346
			C23.003,20.314,22.999,18.69,21.999,17.691z"/>
	</g>
	<g id="New_icons">
	</g>
</g>
<g id="Invisible_Shape">
	<rect fill="none" width="24" height="24"/>
</g>
</svg>
