<?xml version="1.0" encoding="utf-8"?>
<!-- Generator: Adobe Illustrator 19.2.1, SVG Export Plug-In . SVG Version: 6.00 Build 0)  -->
<svg version="1.1" xmlns="http://www.w3.org/2000/svg" xmlns:xlink="http://www.w3.org/1999/xlink" x="0px" y="0px" width="24px"
	 height="24px" viewBox="0 0 24 24" enable-background="new 0 0 24 24" xml:space="preserve">
<g id="Filled_Icons_1_">
	<g id="Filled_Icons">
		<g>
			<path d="M12,0.001c-0.276,0-0.5,0.225-0.5,0.5c0,0.276,0.224,0.5,0.5,0.5c6.065,0,11,4.935,11,11c0,0.276,0.224,0.5,0.5,0.5
				s0.5-0.224,0.5-0.5C24,5.385,18.617,0.001,12,0.001z"/>
			<path d="M12,5.001c3.86,0,7,3.141,7,7c0,0.276,0.224,0.5,0.5,0.5s0.5-0.224,0.5-0.5c0-4.411-3.589-8-8-8
				c-0.276,0-0.5,0.225-0.5,0.5C11.5,4.777,11.724,5.001,12,5.001z"/>
			<path d="M12,9.001c1.654,0,3,1.346,3,3c0,0.276,0.224,0.5,0.5,0.5s0.5-0.224,0.5-0.5c0-2.205-1.794-4-4-4
				c-0.276,0-0.5,0.225-0.5,0.5C11.5,8.777,11.724,9.001,12,9.001z"/>
			<path d="M0.581,10.285c3.423,5.184,7.955,9.719,13.146,13.145c1.353,0.898,3.201,0.76,4.404-0.445l1.163-1.164
				c0.98-0.981,0.972-2.562-0.003-3.535l-2.121-2.121c-0.98-0.974-2.751-1.051-3.922,0.389c-2.019-1.688-3.999-3.647-5.789-5.789
				c1.439-1.171,1.362-2.941,0.389-3.922L5.725,4.722C4.753,3.746,3.172,3.739,2.191,4.718L1.027,5.882
				C-0.178,7.083-0.316,8.932,0.581,10.285z"/>
		</g>
	</g>
	<g id="New_icons">
	</g>
</g>
<g id="Invisible_Shape">
	<rect fill="none" width="24" height="24"/>
</g>
</svg>
