<?xml version="1.0" encoding="utf-8"?>
<!-- Generator: Adobe Illustrator 16.0.0, SVG Export Plug-In . SVG Version: 6.00 Build 0)  -->
<!DOCTYPE svg PUBLIC "-//W3C//DTD SVG 1.1//EN" "http://www.w3.org/Graphics/SVG/1.1/DTD/svg11.dtd">
<svg version="1.1" id="Outline_Icons" xmlns="http://www.w3.org/2000/svg" xmlns:xlink="http://www.w3.org/1999/xlink" x="0px"
	 y="0px" width="24px" height="24px" viewBox="0 0 24 24" enable-background="new 0 0 24 24" xml:space="preserve">
<g>
	<path d="M23.959,15.304l-3-7C20.881,8.12,20.7,8,20.5,8H20V5h0.5C20.776,5,21,4.777,21,4.5S20.776,4,20.5,4h-1h-2h-0.984
		c-0.276,0-0.5,0.224-0.5,0.5s0.224,0.5,0.5,0.5H17v3h-2.41l-2.198-2.789c-0.189-0.24-0.596-0.24-0.785,0L9.41,8H7V5h0.5
		C7.776,5,8,4.777,8,4.5S7.776,4,7.5,4h-1h-2H3.516c-0.276,0-0.5,0.224-0.5,0.5S3.239,5,3.516,5H4v3H3.5
		C3.3,8,3.119,8.12,3.041,8.304l-3,7c-0.066,0.154-0.05,0.332,0.042,0.472C0.175,15.916,0.332,16,0.5,16H2v7.5
		C2,23.777,2.224,24,2.5,24h6h2h3h2h6c0.276,0,0.5-0.224,0.5-0.5V16h1.5c0.168,0,0.325-0.084,0.417-0.225
		C24.01,15.635,24.026,15.458,23.959,15.304z M18,5h1v3h-1V5z M12,6.329L16.469,12H15.5h-7H7.531L12,6.329z M5,5h1v3H5V5z M3.83,9
		H4.5h2h2.122l-2.514,3.19c-0.119,0.15-0.141,0.355-0.057,0.528C6.134,12.891,6.309,13,6.5,13H8v2H2.5H1.258L3.83,9z M3,16h5v7H3V16
		z M11,23v-5h2v5H11z M14,23v-5.5c0-0.276-0.224-0.5-0.5-0.5h-3c-0.276,0-0.5,0.224-0.5,0.5V23H9V13h6v10H14z M21,23h-5v-7h5V23z
		 M21.5,15H16v-2h1.5c0.006,0,0.013,0,0.02,0c0.276,0,0.5-0.224,0.5-0.5c0-0.162-0.077-0.306-0.197-0.397L15.378,9H17.5h2h0.67
		l2.571,6H21.5z"/>
	<path d="M17.5,20h2c0.276,0,0.5-0.224,0.5-0.5v-2c0-0.276-0.224-0.5-0.5-0.5h-2c-0.276,0-0.5,0.224-0.5,0.5v2
		C17,19.777,17.224,20,17.5,20z M18,18h1v1h-1V18z"/>
	<path d="M6.5,17h-2C4.224,17,4,17.224,4,17.5v2C4,19.777,4.224,20,4.5,20h2C6.776,20,7,19.777,7,19.5v-2C7,17.224,6.776,17,6.5,17z
		 M6,19H5v-1h1V19z"/>
</g>
</svg>
