<?xml version="1.0" encoding="utf-8"?>
<!-- Generator: Adobe Illustrator 17.1.0, SVG Export Plug-In . SVG Version: 6.00 Build 0)  -->
<!DOCTYPE svg PUBLIC "-//W3C//DTD SVG 1.1//EN" "http://www.w3.org/Graphics/SVG/1.1/DTD/svg11.dtd">
<svg version="1.1" id="Filled_Icons" xmlns="http://www.w3.org/2000/svg" xmlns:xlink="http://www.w3.org/1999/xlink" x="0px"
	 y="0px" width="24px" height="24px" viewBox="0 0 24 24" enable-background="new 0 0 24 24" xml:space="preserve">
<g>
	<path d="M23.5,23.006H21v-8.5c0-0.277-0.225-0.5-0.5-0.5h-17c-0.276,0-0.5,0.223-0.5,0.5v8.5H0.5c-0.276,0-0.5,0.223-0.5,0.5
		C0,23.783,0.224,24,0.5,24h23c0.275,0,0.5-0.217,0.5-0.494C24,23.229,23.775,23.006,23.5,23.006z M6,15.506
		c0-0.277,0.224-0.5,0.5-0.506h3c0.275,0.006,0.5,0.229,0.5,0.506v5c0,0.276-0.225,0.5-0.5,0.5h-3c-0.276,0-0.5-0.224-0.5-0.5
		V15.506z M11,22.5c0,0.276-0.225,0.5-0.5,0.5h-5C5.224,23,5,22.776,5,22.5v0.006c0-0.277,0.224-0.5,0.5-0.506h5
		c0.275,0.006,0.5,0.229,0.5,0.506V22.5z M18,19.506c0,0.276-0.225,0.5-0.5,0.5h-5c-0.276,0-0.5-0.224-0.5-0.5v-3
		c0-0.277,0.224-0.5,0.5-0.506h5c0.275,0.006,0.5,0.229,0.5,0.506V19.506z"/>
	<path d="M0.5,13h23c0.216,0.006,0.407-0.133,0.475-0.337c0.067-0.205-0.004-0.431-0.178-0.559L21,10.037V5.5
		C21,5.223,20.775,5,20.5,5h-3C17.224,5,17,5.223,17,5.5v1.58l-4.703-3.476c-0.177-0.13-0.418-0.13-0.595,0l-11.5,8.5
		c-0.173,0.128-0.245,0.354-0.178,0.559C0.092,12.867,0.284,13.006,0.5,13z"/>
</g>
</svg>
