<?xml version="1.0" encoding="utf-8"?>
<!-- Generator: Adobe Illustrator 17.1.0, SVG Export Plug-In . SVG Version: 6.00 Build 0)  -->
<!DOCTYPE svg PUBLIC "-//W3C//DTD SVG 1.1//EN" "http://www.w3.org/Graphics/SVG/1.1/DTD/svg11.dtd">
<svg version="1.1" id="Filled_Icons" xmlns="http://www.w3.org/2000/svg" xmlns:xlink="http://www.w3.org/1999/xlink" x="0px"
	 y="0px" width="24px" height="24px" viewBox="0 0 24 24" enable-background="new 0 0 24 24" xml:space="preserve">
<g>
	<polygon points="8.257,11.016 8.615,11.016 8.436,10.37 	"/>
	<path d="M22.5,0H1.438c-0.276,0-0.5,0.223-0.5,0.5c0,0.276,0.224,0.5,0.5,0.5H4v3H1.5C1.224,4,1,4.223,1,4.5v12
		C1,16.776,1.224,17,1.5,17h17c0.276,0,0.5-0.224,0.5-0.5v-12C19,4.223,18.776,4,18.5,4h-2.531V1H22v22.5c0,0.276,0.224,0.5,0.5,0.5
		s0.5-0.224,0.5-0.5v-23C23,0.223,22.776,0,22.5,0z M4.969,1H15v3H4.969V1z M4.969,12.994c-0.758,0-1.389-0.618-1.435-1.408
		c-0.017-0.276,0.194-0.513,0.469-0.529c0.278-0.02,0.513,0.193,0.529,0.469c0.016,0.262,0.208,0.467,0.438,0.467
		c0.241,0,0.437-0.225,0.437-0.5c0-0.274-0.135-0.406-0.517-0.504c-1.137-0.301-1.356-0.978-1.356-1.496
		c0-0.827,0.645-1.5,1.437-1.5c0.757,0,1.388,0.618,1.435,1.406c0.017,0.276-0.193,0.512-0.469,0.529
		C5.658,9.946,5.422,9.735,5.406,9.459C5.391,9.198,5.199,8.994,4.97,8.994c-0.241,0-0.438,0.224-0.438,0.5
		c0,0.271,0.135,0.403,0.518,0.504c1.191,0.308,1.356,1.068,1.356,1.496C6.405,12.32,5.761,12.994,4.969,12.994z M9.675,12.976
		c-0.261,0.073-0.542-0.082-0.615-0.349l-0.169-0.611H7.981l-0.169,0.611c-0.062,0.222-0.263,0.367-0.481,0.367
		c-0.044,0-0.089-0.006-0.134-0.018c-0.266-0.074-0.422-0.349-0.349-0.615l0.236-0.853c0.001-0.081,0.025-0.154,0.061-0.222
		l0.81-2.925c0.06-0.217,0.257-0.367,0.482-0.367c0.225,0,0.422,0.15,0.482,0.367l0.808,2.925c0.036,0.068,0.062,0.142,0.062,0.224
		l0.235,0.851C10.098,12.627,9.941,12.902,9.675,12.976z M13,12.994h-1.5c-0.276,0-0.5-0.224-0.5-0.5v-4c0-0.276,0.224-0.5,0.5-0.5
		s0.5,0.224,0.5,0.5v3.5h1c0.276,0,0.5,0.224,0.5,0.5C13.5,12.77,13.276,12.994,13,12.994z M16.201,7.994c0.276,0,0.5,0.224,0.5,0.5
		c0,0.276-0.224,0.5-0.5,0.5H15v1h0.738c0.276,0,0.5,0.224,0.5,0.5c0,0.276-0.224,0.5-0.5,0.5H15v1h1.201c0.276,0,0.5,0.224,0.5,0.5
		c0,0.276-0.224,0.5-0.5,0.5H14.5c-0.276,0-0.5-0.224-0.5-0.5v-4c0-0.276,0.224-0.5,0.5-0.5H16.201z"/>
</g>
</svg>
