<?xml version="1.0" encoding="utf-8"?>
<!-- Generator: Adobe Illustrator 16.0.0, SVG Export Plug-In . SVG Version: 6.00 Build 0)  -->
<!DOCTYPE svg PUBLIC "-//W3C//DTD SVG 1.1//EN" "http://www.w3.org/Graphics/SVG/1.1/DTD/svg11.dtd">
<svg version="1.1" id="Outline_Icons" xmlns="http://www.w3.org/2000/svg" xmlns:xlink="http://www.w3.org/1999/xlink" x="0px"
	 y="0px" width="24px" height="24px" viewBox="0 0 24 24" enable-background="new 0 0 24 24" xml:space="preserve">
<g>
	<path d="M22.5,0H1.438c-0.276,0-0.5,0.224-0.5,0.5S1.161,1,1.438,1H4v3H1.5C1.224,4,1,4.224,1,4.5v12C1,16.776,1.224,17,1.5,17h17
		c0.276,0,0.5-0.224,0.5-0.5v-12C19,4.224,18.776,4,18.5,4H16V1h6v22.5c0,0.276,0.224,0.5,0.5,0.5s0.5-0.224,0.5-0.5v-23
		C23,0.224,22.776,0,22.5,0z M18,16H2V5h16V16z M15,4H5V1h10V4z"/>
	<path d="M14.5,13h1.701c0.276,0,0.5-0.224,0.5-0.5s-0.224-0.5-0.5-0.5H15v-1h0.738c0.276,0,0.5-0.224,0.5-0.5s-0.224-0.5-0.5-0.5
		H15V9h1.201c0.276,0,0.5-0.224,0.5-0.5S16.478,8,16.201,8H14.5C14.224,8,14,8.224,14,8.5v4C14,12.776,14.224,13,14.5,13z"/>
	<path d="M7.196,12.982C7.241,12.994,7.286,13,7.33,13c0.219,0,0.42-0.145,0.481-0.367l0.169-0.611h0.911l0.169,0.611
		c0.074,0.267,0.354,0.421,0.615,0.349c0.266-0.074,0.422-0.349,0.349-0.615l-0.235-0.851c-0.001-0.082-0.026-0.156-0.062-0.224
		L8.918,8.367C8.858,8.15,8.662,8,8.437,8C8.212,8,8.015,8.15,7.955,8.367l-0.81,2.925c-0.036,0.067-0.06,0.141-0.061,0.222
		l-0.236,0.853C6.774,12.633,6.93,12.908,7.196,12.982z M8.615,11.022H8.257l0.179-0.646L8.615,11.022z"/>
	<path d="M11.5,13H13c0.276,0,0.5-0.224,0.5-0.5S13.276,12,13,12h-1V8.5C12,8.224,11.776,8,11.5,8S11,8.224,11,8.5v4
		C11,12.776,11.224,13,11.5,13z"/>
	<path d="M4.888,10.996c0.382,0.098,0.517,0.23,0.517,0.504c0,0.276-0.196,0.5-0.437,0.5c-0.229,0-0.422-0.205-0.438-0.467
		c-0.016-0.276-0.251-0.489-0.529-0.469c-0.275,0.016-0.486,0.253-0.469,0.529C3.58,12.382,4.211,13,4.969,13
		c0.792,0,1.437-0.673,1.437-1.5c0-0.428-0.165-1.188-1.355-1.496C4.667,9.902,4.532,9.771,4.532,9.5C4.532,9.224,4.729,9,4.97,9
		c0.229,0,0.421,0.205,0.437,0.465c0.016,0.276,0.252,0.487,0.529,0.469c0.276-0.017,0.486-0.253,0.469-0.529
		C6.357,8.618,5.727,8,4.97,8C4.177,8,3.532,8.673,3.532,9.5C3.532,10.018,3.751,10.694,4.888,10.996z"/>
</g>
</svg>
