<?xml version="1.0" encoding="utf-8"?>
<!-- Generator: Adobe Illustrator 16.0.0, SVG Export Plug-In . SVG Version: 6.00 Build 0)  -->
<!DOCTYPE svg PUBLIC "-//W3C//DTD SVG 1.1//EN" "http://www.w3.org/Graphics/SVG/1.1/DTD/svg11.dtd">
<svg version="1.1" id="Outline_Icons" xmlns="http://www.w3.org/2000/svg" xmlns:xlink="http://www.w3.org/1999/xlink" x="0px"
	 y="0px" width="24px" height="24px" viewBox="0 0 24 24" enable-background="new 0 0 24 24" xml:space="preserve">
<g>
	<path d="M20.5,23H4V12.5C4,12.224,3.776,12,3.5,12S3,12.224,3,12.5v11C3,23.776,3.224,24,3.5,24h17c0.276,0,0.5-0.224,0.5-0.5
		S20.776,23,20.5,23z"/>
	<path d="M23.837,11.631l-11.5-10.5c-0.19-0.175-0.483-0.175-0.674,0l-11.5,10.5c-0.204,0.186-0.219,0.502-0.032,0.706
		c0.187,0.205,0.503,0.219,0.706,0.032L12,2.177l11.163,10.192c0.096,0.088,0.216,0.131,0.337,0.131
		c0.135,0,0.271-0.055,0.369-0.163C24.056,12.133,24.041,11.817,23.837,11.631z"/>
	<path d="M16,3h3v3c0,0.276,0.224,0.5,0.5,0.5S20,6.276,20,6V2.5C20,2.224,19.776,2,19.5,2H16c-0.276,0-0.5,0.224-0.5,0.5
		S15.724,3,16,3z"/>
	<path d="M13.5,6h-3C10.224,6,10,6.224,10,6.5v3c0,0.276,0.224,0.5,0.5,0.5h3c0.276,0,0.5-0.224,0.5-0.5v-3
		C14,6.224,13.776,6,13.5,6z M13,9h-2V7h2V9z"/>
	<path d="M20.165,15.543h-0.706c-0.276,0-0.5,0.224-0.5,0.5v3.914c0,0.276,0.224,0.5,0.5,0.5h0.706C21.263,20.457,22,19.47,22,18
		S21.263,15.543,20.165,15.543z M20.165,19.457h-0.206v-2.914h0.206C20.742,16.543,21,17.275,21,18S20.742,19.457,20.165,19.457z"/>
	<path d="M16.5,15.5c-0.276,0-0.5,0.224-0.5,0.5v3.914c0,0.276,0.224,0.5,0.5,0.5H18c0.276,0,0.5-0.224,0.5-0.5s-0.224-0.5-0.5-0.5
		h-1V16C17,15.724,16.776,15.5,16.5,15.5z"/>
	<path d="M12.266,18c0,0.683,0,2.498,1.606,2.498c1.605,0,1.605-1.814,1.605-2.498c0-0.684,0-2.5-1.605-2.5
		C12.266,15.5,12.266,17.316,12.266,18z M14.478,18c0,1.498-0.364,1.498-0.605,1.498c-0.256,0-0.606,0-0.606-1.498
		c0-1.5,0.351-1.5,0.606-1.5C14.113,16.5,14.478,16.5,14.478,18z"/>
	<path d="M8.5,17c0,0.521,0.219,1.198,1.354,1.496c0.382,0.098,0.518,0.23,0.518,0.503c0,0.276-0.196,0.501-0.438,0.501
		c-0.229,0-0.42-0.205-0.436-0.465c-0.016-0.276-0.249-0.482-0.528-0.47c-0.276,0.016-0.486,0.252-0.47,0.528
		c0.045,0.79,0.675,1.408,1.434,1.408c0.792,0,1.438-0.673,1.438-1.501c0-0.428-0.165-1.189-1.355-1.495
		C9.635,17.404,9.5,17.272,9.5,17c0-0.276,0.195-0.5,0.436-0.5c0.229,0,0.422,0.205,0.438,0.465c0.016,0.276,0.25,0.487,0.529,0.469
		c0.276-0.017,0.486-0.253,0.469-0.529c-0.047-0.788-0.678-1.406-1.436-1.406C9.144,15.5,8.5,16.173,8.5,17z"/>
</g>
</svg>
