<?xml version="1.0" encoding="utf-8"?>
<!-- Generator: Adobe Illustrator 17.1.0, SVG Export Plug-In . SVG Version: 6.00 Build 0)  -->
<!DOCTYPE svg PUBLIC "-//W3C//DTD SVG 1.1//EN" "http://www.w3.org/Graphics/SVG/1.1/DTD/svg11.dtd">
<svg version="1.1" id="Filled_Icons" xmlns="http://www.w3.org/2000/svg" xmlns:xlink="http://www.w3.org/1999/xlink" x="0px"
	 y="0px" width="24px" height="24px" viewBox="0 0 24 24" enable-background="new 0 0 24 24" xml:space="preserve">
<path d="M22.5,0h-22C0.224,0,0,0.224,0,0.5v22C0,22.776,0.224,23,0.5,23h22c0.275,0,0.5-0.224,0.5-0.5v-22C23,0.224,22.775,0,22.5,0
	z M17.593,12.012L12,12v5.5c0,0.276-0.225,0.5-0.5,0.5c-0.276,0-0.5-0.224-0.5-0.5v-5.495L5.499,12C5.223,11.999,5,11.775,5,11.499
	C5,11.224,5.224,11,5.5,11v-0.005L11,11V5.5C11,5.224,11.224,5,11.5,5C11.775,5,12,5.224,12,5.5v5.494L17.594,11
	c0.275,0.012,0.499,0.235,0.499,0.512C18.093,11.788,17.869,12.012,17.593,12.012z"/>
</svg>
