<?xml version="1.0" encoding="utf-8"?>
<!-- Generator: Adobe Illustrator 16.0.0, SVG Export Plug-In . SVG Version: 6.00 Build 0)  -->
<!DOCTYPE svg PUBLIC "-//W3C//DTD SVG 1.1//EN" "http://www.w3.org/Graphics/SVG/1.1/DTD/svg11.dtd">
<svg version="1.1" id="Outline_Icons" xmlns="http://www.w3.org/2000/svg" xmlns:xlink="http://www.w3.org/1999/xlink" x="0px"
	 y="0px" width="24px" height="24px" viewBox="0 0 24 24" enable-background="new 0 0 24 24" xml:space="preserve">
<g>
	<path d="M5.5,12H11v5.5c0,0.276,0.224,0.5,0.5,0.5s0.5-0.224,0.5-0.5V12h5.5c0.276,0,0.5-0.224,0.5-0.5S17.776,11,17.5,11H12V5.5
		C12,5.224,11.776,5,11.5,5S11,5.224,11,5.5V11H5.5C5.224,11,5,11.224,5,11.5S5.224,12,5.5,12z"/>
	<path d="M22.5,0h-22C0.224,0,0,0.224,0,0.5v22C0,22.776,0.224,23,0.5,23h22c0.276,0,0.5-0.224,0.5-0.5v-22
		C23,0.224,22.776,0,22.5,0z M22,22H1V1h21V22z"/>
</g>
</svg>
