<?xml version="1.0" encoding="utf-8"?>
<!-- Generator: Adobe Illustrator 16.0.0, SVG Export Plug-In . SVG Version: 6.00 Build 0)  -->
<!DOCTYPE svg PUBLIC "-//W3C//DTD SVG 1.1//EN" "http://www.w3.org/Graphics/SVG/1.1/DTD/svg11.dtd">
<svg version="1.1" id="Layer_3" xmlns="http://www.w3.org/2000/svg" xmlns:xlink="http://www.w3.org/1999/xlink" x="0px" y="0px"
	 width="24px" height="24px" viewBox="0 0 24 24" style="enable-background:new 0 0 24 24;" xml:space="preserve">
<g style="display:none;">
	<path style="display:inline;fill:#0F8EA1;" d="M9,24.007c0,0.376,0.124,0.681,0.5,0.681s0.5-0.305,0.5-0.681V20.26l-1,1V24.007z"/>
	<path style="display:inline;fill:#0F8EA1;" d="M11,24.007c0,0.376,0.124,0.681,0.5,0.681s0.5-0.305,0.5-0.681V18.26l-1,1V24.007z"
		/>
	<path style="display:inline;fill:#0F8EA1;" d="M13,17.261v6.746c0,0.376,0.124,0.681,0.5,0.681s0.5-0.305,0.5-0.681v-6.801
		l-0.473-0.474L13,17.261z"/>
	<path style="display:inline;fill:#0F8EA1;" d="M15,18.205v5.802c0,0.376,0.123,0.681,0.5,0.681s0.5-0.305,0.5-0.681v-4.801
		l-0.318-0.319L15,18.205z"/>
	<path style="display:inline;fill:#0F8EA1;" d="M17,20.003v4.004c0,0.376,0.123,0.681,0.5,0.681s0.5-0.305,0.5-0.681v-5.004
		l-0.74,0.74L17,20.003z"/>
	<path style="display:inline;fill:#0F8EA1;" d="M19,24.007c0,0.376,0.123,0.681,0.5,0.681s0.5-0.305,0.5-0.681v-7.004l-1,1V24.007z"
		/>
</g>
<g>
	<polyline style="fill:#E0454B;" points="14.803,14.613 14.783,24 20.969,24 20.969,8.592 12.265,3.565 3.561,8.592 3.561,15.646 
		4.306,14.9 5.184,14.023 5.442,13.766 7.17,12.037 7.481,11.727 7.791,12.037 8.606,12.854 9.519,13.766 9.79,14.035 10.654,14.9 
		10.969,15.212 11.278,14.9 13.829,12.349 13.266,11.782 12.643,11.158 13.514,11.036 16.695,10.591 17.273,10.512 17.193,11.087 
		16.749,14.271 16.629,15.15 16.004,14.523 15.448,13.966 14.803,14.613 	"/>
	<g>
		<path style="fill:#E0454B;" d="M23.177,8.925c-0.128,0-0.258-0.031-0.376-0.102L12.265,2.741L1.729,8.826
			c-0.358,0.209-0.82,0.086-1.03-0.276C0.492,8.191,0.616,7.73,0.976,7.522L12.265,1l11.29,6.521c0.36,0.208,0.483,0.669,0.275,1.03
			C23.689,8.793,23.436,8.925,23.177,8.925z"/>
	</g>
	<g>
		<polygon style="fill:#0F8EA1;" points="14.204,15.212 13.893,15.521 13.432,15.984 13.025,16.391 12.715,16.7 12.715,22.23 
			12.715,24 14.311,24 14.311,22.23 14.311,15.212 		"/>
		<polygon style="fill:#0F8EA1;" points="11.281,18.135 10.972,18.452 10.657,18.139 10.271,17.752 10.271,22.23 10.271,24 
			11.863,24 11.863,22.23 11.863,17.553 		"/>
		<polygon style="fill:#0F8EA1;" points="9.168,16.65 8.607,16.089 7.885,15.366 7.885,22.23 7.885,24 9.479,24 9.479,22.23 
			9.479,16.961 		"/>
		<polygon style="fill:#0F8EA1;" points="6.362,16.079 5.804,16.635 5.495,16.945 5.495,22.23 5.495,24 7.087,24 7.087,22.23 
			7.087,15.355 		"/>
		<polygon style="fill:#0F8EA1;" points="4.249,18.193 3.412,19.032 3.102,19.341 3.102,24 4.695,24 4.695,22.23 4.695,17.744 		"/>
	</g>
	<polygon style="fill:#EAA001;" points="3.938,17.883 4.668,17.15 4.695,17.124 5.495,16.324 6.052,15.768 6.782,15.04 
		7.087,14.736 7.481,14.342 7.885,14.744 8.191,15.05 8.918,15.777 9.479,16.34 10.082,16.941 10.271,17.128 10.304,17.16 
		10.969,17.826 11.01,17.786 11.863,16.932 12.38,16.416 12.715,16.08 13.12,15.675 13.583,15.212 14.492,14.302 15.45,13.344 
		16.313,14.212 16.76,11.027 13.576,11.471 14.453,12.349 11.59,15.212 10.969,15.833 10.346,15.212 9.479,14.348 9.208,14.075 
		8.296,13.163 7.481,12.349 5.753,14.075 5.495,14.334 4.617,15.212 3.102,16.727 0.691,19.136 1.688,20.134 2.557,19.266 
		3.102,18.72 	"/>
	<path style="fill:#FFFFFF;" d="M4.249,18.193l0.446-0.449l0.283-0.283l0.517-0.516l0.309-0.312l0.559-0.556l0.725-0.725
		l0.005-0.004l0.305-0.305l0.086-0.084l0.092,0.094l0.304,0.305l0.005,0.007l0.723,0.723l0.561,0.562l0.312,0.312l0.292,0.291
		l0.188,0.188l0.311,0.313l0.387,0.387l0.314,0.313l0.31-0.317l0.582-0.582l0.313-0.311l0.513-0.516l0.025-0.026l0.311-0.31
		l0.406-0.406l0.461-0.463l0.313-0.311l0.6-0.599l0.646-0.647l0.556,0.559l0.625,0.627l0.12-0.879l0.444-3.186l0.08-0.575
		L16.7,10.592l-3.185,0.445l-0.869,0.123l0.623,0.624l0.563,0.567L11.278,14.9l-0.31,0.312L10.654,14.9L9.79,14.035l-0.271-0.271
		l-0.912-0.91l-0.815-0.816l-0.31-0.31l-0.312,0.31l-1.728,1.729l-0.259,0.258L4.306,14.9l-0.745,0.746l-0.77,0.769L0.38,18.824
		l-0.311,0.312l0.311,0.313l0.996,0.997l0.31,0.311l0.313-0.311l0.868-0.867l0.235-0.236l0.311-0.309L4.249,18.193z M2.557,19.266
		l-0.868,0.868l-0.997-0.998l2.41-2.409l1.516-1.515l0.878-0.878l0.258-0.259l1.729-1.726l0.814,0.814l0.912,0.912l0.271,0.271
		l0.866,0.865l0.623,0.621l0.621-0.621l2.863-2.863l-0.877-0.878l3.184-0.444l-0.445,3.185l-0.863-0.868l-0.958,0.958l-0.909,0.91
		l-0.463,0.463l-0.405,0.405l-0.335,0.336l-0.517,0.517l-0.854,0.854l-0.041,0.04l-0.665-0.666l-0.033-0.032l-0.188-0.188
		l-0.604-0.6l-0.562-0.563L8.191,15.05l-0.307-0.306l-0.403-0.402l-0.395,0.395L6.782,15.04l-0.73,0.728l-0.557,0.558l-0.8,0.8
		l-0.027,0.027l-0.729,0.73L3.102,18.72L2.557,19.266z"/>
</g>
<path style="display:none;fill:#FFFFFF;" d="M22.428,12.301l-3.076,0.43l-1.018,0.144l0.727,0.726l0.486,0.485l-2.648,2.647
	l-2.223-2.222l-0.787-0.788l-0.361-0.361l-0.359,0.361l-6.565,6.564L6.24,20.648l0.361,0.36l0.963,0.966l0.361,0.358l0.361-0.358
	l0.479-0.479L9,21.26l1-1l0.127-0.127l0.681-0.681L11,19.26l1-1l0.17-0.17l0.682-0.681L13,17.261l0.527-0.526L14,17.206l0.213,0.213
	l0.682,0.681L15,18.205l0.682,0.682L16,19.206l0.257,0.257l0.28,0.28l0.361,0.36l0.039-0.039L17,20.003l0.26-0.26l0.74-0.74l0.3-0.3
	l0.681-0.682l0.021-0.021l1-1l0.344-0.343l0.891-0.893l0.476,0.479l0.726,0.725l0.144-1.016l0.431-3.077l0.094-0.67L22.428,12.301z
	 M22.068,15.885l-0.836-0.837l-0.926,0.927l-1.326,1.324l-0.717,0.719l-1.326,1.325l-0.039,0.04l-0.644-0.643l-0.215-0.215
	L14.917,17.4l-0.704-0.703l-0.686-0.688l-0.676,0.676l-0.708,0.707l-1.337,1.338l-0.706,0.705l-1.338,1.338l-0.839,0.84
	l-0.963-0.965l6.564-6.564l0.787,0.789l2.584,2.582l3.369-3.371l-0.848-0.848l3.077-0.43L22.068,15.885z"/>
<g>
	<path style="fill:#C0E233;" d="M1.792,20.177c-0.065-0.039-0.171-0.039-0.236,0l-0.591,0.353c-0.065,0.039-0.118,0.132-0.118,0.208
		v2.078c0,0.075,0.063,0.138,0.138,0.138l1.379,0.001c0.075,0,0.138-0.063,0.138-0.138v-2.079c0-0.075-0.053-0.17-0.118-0.209
		L1.792,20.177z M1.674,20.357c0.069-0.001,0.126,0.056,0.127,0.126c0,0.069-0.057,0.126-0.127,0.127
		c-0.069,0-0.126-0.057-0.126-0.127C1.548,20.413,1.604,20.356,1.674,20.357z M2.207,21.37c-0.021,0.052-0.054,0.069-0.108,0.063
		c-0.032-0.004-0.065,0.002-0.096,0.001c-0.016,0-0.016,0-0.016,0c-0.004,0.012-0.03,0.079-0.056,0.149c0,0-0.04,0.11-0.15,0.188
		c-0.085,0.06-0.182,0.092-0.283,0.107c-0.01,0.001-0.01,0.001-0.01,0.001c-0.013,0.002,0.014,0.053,0.062,0.111l0.494,0.606
		c0.047,0.06,0.058,0.109,0.022,0.11c0,0,0,0-0.029,0.001c-0.054,0.003-0.106,0.004-0.16,0.007c-0.017,0.002-0.029-0.005-0.04-0.018
		c-0.143-0.179-0.286-0.355-0.429-0.533c-0.058-0.071-0.117-0.145-0.176-0.217c-0.013-0.016-0.02-0.032-0.02-0.053
		c0-0.044,0-0.044,0-0.044c0-0.053,0.037-0.096,0.082-0.095c0,0,0,0,0.041-0.001c0.097-0.002,0.19-0.016,0.274-0.069
		c0.084-0.053,0.1-0.099,0.1-0.099c0.024-0.07,0.043-0.132,0.043-0.135c0-0.002-0.062-0.011-0.139-0.01l-0.335,0.007
		c-0.076,0.001-0.132-0.01-0.123-0.025c0,0,0,0,0.006-0.013c0.022-0.039,0.044-0.078,0.066-0.117
		c0.007-0.014,0.017-0.021,0.034-0.02c0.145-0.002,0.29-0.006,0.437-0.009c0.008,0,0.008,0,0.008,0
		c0.011-0.001,0.001-0.032-0.021-0.068c0,0,0,0-0.03-0.023c-0.056-0.043-0.122-0.063-0.192-0.067c-0.1-0.005-0.201-0.003-0.3-0.004
		c-0.009,0-0.009,0-0.009,0c-0.012,0-0.019-0.005-0.017-0.013c0,0,0,0,0.003-0.005c0.026-0.048,0.052-0.095,0.08-0.142
		c0.004-0.009,0.018-0.016,0.027-0.015c0.329-0.008,0.656-0.013,0.984-0.02c0.007,0.001,0.007,0.001,0.007,0.001
		c0.01,0.001,0.008,0.018-0.002,0.037c0,0,0,0-0.009,0.019c-0.02,0.032-0.039,0.065-0.056,0.1c-0.008,0.015-0.018,0.02-0.034,0.02
		c-0.074,0.001-0.147,0.002-0.221,0.003c-0.009,0.002-0.009,0.002-0.009,0.002c-0.012,0-0.01,0.016,0.004,0.034c0,0,0,0,0.006,0.016
		c0.017,0.033,0.031,0.067,0.044,0.102c0.005,0.016,0.012,0.021,0.029,0.02c0.083-0.003,0.165-0.004,0.247-0.006
		c0.009-0.001,0.009-0.001,0.009-0.001c0.012,0,0.001,0.035-0.025,0.077C2.222,21.332,2.222,21.332,2.207,21.37z"/>
</g>
</svg>
