<?xml version="1.0" encoding="utf-8"?>
<!-- Generator: Adobe Illustrator 16.0.0, SVG Export Plug-In . SVG Version: 6.00 Build 0)  -->
<!DOCTYPE svg PUBLIC "-//W3C//DTD SVG 1.1//EN" "http://www.w3.org/Graphics/SVG/1.1/DTD/svg11.dtd">
<svg version="1.1" id="Outline_Icons" xmlns="http://www.w3.org/2000/svg" xmlns:xlink="http://www.w3.org/1999/xlink" x="0px"
	 y="0px" width="24px" height="24px" viewBox="0 0 24 24" enable-background="new 0 0 24 24" xml:space="preserve">
<g>
	<path d="M10.5,13h-10C0.224,13,0,13.224,0,13.5v10C0,23.776,0.224,24,0.5,24h10c0.276,0,0.5-0.224,0.5-0.5v-10
		C11,13.224,10.776,13,10.5,13z M10,23H1v-9h9V23z"/>
	<path d="M10.5,0h-10C0.224,0,0,0.224,0,0.5v10C0,10.776,0.224,11,0.5,11S1,10.776,1,10.5V1h9.5C10.776,1,11,0.776,11,0.5
		S10.776,0,10.5,0z"/>
	<path d="M23.5,0h-10C13.224,0,13,0.224,13,0.5S13.224,1,13.5,1H23v9.5c0,0.276,0.224,0.5,0.5,0.5s0.5-0.224,0.5-0.5v-10
		C24,0.224,23.776,0,23.5,0z"/>
	<path d="M23.5,13c-0.276,0-0.5,0.224-0.5,0.5V23h-9.5c-0.276,0-0.5,0.224-0.5,0.5s0.224,0.5,0.5,0.5h10c0.276,0,0.5-0.224,0.5-0.5
		v-10C24,13.224,23.776,13,23.5,13z"/>
</g>
</svg>
