<?xml version="1.0" encoding="utf-8"?>
<!-- Generator: Adobe Illustrator 16.0.0, SVG Export Plug-In . SVG Version: 6.00 Build 0)  -->
<!DOCTYPE svg PUBLIC "-//W3C//DTD SVG 1.1//EN" "http://www.w3.org/Graphics/SVG/1.1/DTD/svg11.dtd">
<svg version="1.1" id="Outline_Icons" xmlns="http://www.w3.org/2000/svg" xmlns:xlink="http://www.w3.org/1999/xlink" x="0px"
	 y="0px" width="24px" height="24px" viewBox="0 0 24 24" enable-background="new 0 0 24 24" xml:space="preserve">
<g>
	<path d="M16.5,13.016c-0.276,0-0.5,0.224-0.5,0.5v5.469H5v-11h5.5c0.276,0,0.5-0.224,0.5-0.5s-0.224-0.5-0.5-0.5h-6
		c-0.276,0-0.5,0.224-0.5,0.5v12c0,0.276,0.224,0.5,0.5,0.5h12c0.276,0,0.5-0.224,0.5-0.5v-5.969
		C17,13.239,16.776,13.016,16.5,13.016z"/>
	<path d="M19.962,4.309c-0.051-0.122-0.148-0.22-0.271-0.27C19.63,4.014,19.565,4,19.5,4h-6C13.224,4,13,4.224,13,4.5
		S13.224,5,13.5,5h4.793L7.146,16.146c-0.195,0.195-0.195,0.512,0,0.707C7.244,16.951,7.372,17,7.5,17s0.256-0.049,0.354-0.146
		L19,5.707V10.5c0,0.276,0.224,0.5,0.5,0.5s0.5-0.224,0.5-0.5v-6C20,4.435,19.986,4.37,19.962,4.309z"/>
</g>
</svg>
