<?xml version="1.0" encoding="utf-8"?>
<!-- Generator: Adobe Illustrator 16.0.0, SVG Export Plug-In . SVG Version: 6.00 Build 0)  -->
<!DOCTYPE svg PUBLIC "-//W3C//DTD SVG 1.1//EN" "http://www.w3.org/Graphics/SVG/1.1/DTD/svg11.dtd">
<svg version="1.1" id="Layer_2" xmlns="http://www.w3.org/2000/svg" xmlns:xlink="http://www.w3.org/1999/xlink" x="0px" y="0px"
	 width="24px" height="24px" viewBox="0 0 24 24" enable-background="new 0 0 24 24" xml:space="preserve">
<g>
	<path d="M12.514,8.858l5.648-3.263l5.649,3.263c0.181,0.104,0.241,0.336,0.138,0.515c-0.104,0.181-0.335,0.242-0.516,0.138
		l-5.271-3.045l-5.271,3.045c-0.06,0.035-0.126,0.051-0.189,0.051c-0.131,0-0.257-0.067-0.328-0.189
		C12.271,9.194,12.333,8.962,12.514,8.858z"/>
	<polygon points="22.154,10.005 22.155,10.005 22.155,16.188 22.155,17.081 19.486,17.081 19.484,17.081 18.162,18.404 
		16.84,17.081 14.171,17.081 14.171,16.188 14.171,10.005 14.17,10.005 18.162,7.725 	"/>
</g>
<rect y="10.188" width="11.739" height="3.625"/>
<rect x="-0.056" y="19.978" width="24.111" height="2.022"/>
<rect x="-0.056" y="1.906" width="24.111" height="2.022"/>
</svg>
