<?xml version="1.0" encoding="utf-8"?>
<!-- Generator: Adobe Illustrator 16.0.0, SVG Export Plug-In . SVG Version: 6.00 Build 0)  -->
<!DOCTYPE svg PUBLIC "-//W3C//DTD SVG 1.1//EN" "http://www.w3.org/Graphics/SVG/1.1/DTD/svg11.dtd">
<svg version="1.1" xmlns="http://www.w3.org/2000/svg" xmlns:xlink="http://www.w3.org/1999/xlink" x="0px" y="0px" width="24px"
	 height="24px" viewBox="0 0 24 24" style="enable-background:new 0 0 24 24;" xml:space="preserve">
<g id="Layer_1">
	<g>
		<polygon style="fill:#EAA001;" points="13.813,10.844 11.604,8.909 10.604,8.034 10.31,7.777 10.31,9.462 4.852,9.462 
			4.852,12.225 10.31,12.225 10.31,13.91 10.604,13.653 11.604,12.778 		"/>
		<polygon style="fill:none;" points="13.813,10.844 11.604,8.909 11.604,8.909 11.249,8.6 10.31,7.777 10.31,9.462 4.852,9.462 
			4.852,12.225 10.31,12.225 10.31,13.91 		"/>
		<polygon style="fill:#E0454B;" points="11.604,8.909 11.249,8.6 11.604,8.909 		"/>
		<g>
			<polygon style="fill:#E0454B;" points="10.604,3.992 10.604,7.037 10.804,7.213 11.604,7.912 11.604,4.992 17.302,4.992 
				14.876,6.305 14.876,16.695 11.604,16.695 11.604,13.775 10.804,14.475 10.604,14.65 10.604,17.695 14.876,17.695 14.876,20.008 
				19.148,17.695 19.148,3.992 19.148,3.992 			"/>
		</g>
	</g>
</g>
<g id="Guides">
	<g>
	</g>
</g>
<g id="Layer_3">
	<rect x="2" y="1.999" style="fill:none;" width="19.979" height="19.979"/>
	<rect x="4" y="3.999" style="fill:none;" width="15.979" height="15.979"/>
</g>
</svg>
