<?xml version="1.0" encoding="utf-8"?>
<!-- Generator: Adobe Illustrator 16.0.0, SVG Export Plug-In . SVG Version: 6.00 Build 0)  -->
<!DOCTYPE svg PUBLIC "-//W3C//DTD SVG 1.1//EN" "http://www.w3.org/Graphics/SVG/1.1/DTD/svg11.dtd">
<svg version="1.1" id="Layer_1" xmlns="http://www.w3.org/2000/svg" xmlns:xlink="http://www.w3.org/1999/xlink" x="0px" y="0px"
	 width="24px" height="24px" viewBox="0 0 24 24" style="enable-background:new 0 0 24 24;" xml:space="preserve">
<path style="fill:none;" d="M0,0h24v24H0V0z"/>
<g>
	<g>
		<path style="fill:#959595;" d="M5.557,8.981L12,5.262l6.445,3.719c0.205,0.12,0.271,0.385,0.156,0.589
			c-0.117,0.208-0.381,0.278-0.588,0.159L12,6.255L5.987,9.729C5.92,9.769,5.846,9.788,5.774,9.788
			c-0.151,0-0.295-0.077-0.374-0.217C5.282,9.366,5.352,9.101,5.557,8.981z"/>
		<polygon style="fill:#959595;" points="16.555,10.665 16.555,10.665 16.555,18.738 7.448,18.738 7.448,10.665 7.447,10.665 
			12,8.064 		"/>
	</g>
	<g>
		<path style="fill:#959595;" d="M21.436,11.283l-1.236,1.236h1.257c-0.103,2.403-1.075,4.651-2.786,6.363
			c-1.813,1.811-4.218,2.809-6.777,2.809c-0.277,0-0.552-0.019-0.824-0.041l-0.891,0.892c0.563,0.092,1.134,0.147,1.715,0.147
			c2.828,0.002,5.485-1.101,7.484-3.1c1.9-1.9,2.979-4.398,3.079-7.07h1.296l-0.412-0.412L22.432,11.2l-0.457-0.456L21.436,11.283z"
			/>
		<path style="fill:#959595;" d="M11.893,1.525c-2.827,0-5.484,1.101-7.483,3.1c-2,1.999-3.1,4.657-3.1,7.483
			c0,0.139,0.015,0.274,0.02,0.412H0.034l1.446,1.447l0.329,0.329l0.635-0.635l1.141-1.142H2.329
			c-0.006-0.137-0.02-0.272-0.02-0.412c0-2.559,0.997-4.966,2.807-6.776c1.81-1.81,4.217-2.807,6.776-2.807
			c0.526,0,1.043,0.053,1.553,0.135l0.851-0.852C13.518,1.628,12.713,1.525,11.893,1.525z"/>
	</g>
</g>
</svg>
