<?xml version="1.0" encoding="utf-8"?>
<!-- Generator: Adobe Illustrator 16.0.0, SVG Export Plug-In . SVG Version: 6.00 Build 0)  -->
<!DOCTYPE svg PUBLIC "-//W3C//DTD SVG 1.1//EN" "http://www.w3.org/Graphics/SVG/1.1/DTD/svg11.dtd">
<svg version="1.1" id="Layer_1" xmlns="http://www.w3.org/2000/svg" xmlns:xlink="http://www.w3.org/1999/xlink" x="0px" y="0px"
	 width="24px" height="24px" viewBox="0 0 24 24" style="enable-background:new 0 0 24 24;" xml:space="preserve">
<path style="fill:none;" d="M0,0h24v24H0V0z"/>
<g>
	<path style="fill:#959595;" d="M5.557,8.981L12,5.262l6.445,3.72c0.205,0.119,0.271,0.385,0.156,0.589
		c-0.117,0.208-0.381,0.277-0.588,0.158L12,6.255L5.986,9.729c-0.067,0.04-0.141,0.059-0.213,0.059
		c-0.151,0-0.295-0.076-0.374-0.217C5.281,9.366,5.352,9.101,5.557,8.981z"/>
	<polygon style="fill:#959595;" points="16.555,10.665 16.555,10.665 16.555,18.738 7.447,18.738 7.447,10.665 7.446,10.665 
		12,8.063 	"/>
</g>
<g>
	<path style="fill:#959595;" d="M12,22.667C6.118,22.667,1.333,17.882,1.333,12S6.118,1.333,12,1.333S22.667,6.118,22.667,12
		S17.882,22.667,12,22.667z M12,2.333c-5.331,0-9.667,4.336-9.667,9.667c0,5.33,4.336,9.667,9.667,9.667
		c5.33,0,9.667-4.337,9.667-9.667C21.667,6.669,17.33,2.333,12,2.333z"/>
</g>
</svg>
