<?xml version="1.0" encoding="utf-8"?>
<!-- Generator: Adobe Illustrator 16.0.0, SVG Export Plug-In . SVG Version: 6.00 Build 0)  -->
<!DOCTYPE svg PUBLIC "-//W3C//DTD SVG 1.1//EN" "http://www.w3.org/Graphics/SVG/1.1/DTD/svg11.dtd">
<svg version="1.1" id="Layer_3" xmlns="http://www.w3.org/2000/svg" xmlns:xlink="http://www.w3.org/1999/xlink" x="0px" y="0px"
	 width="24px" height="24px" viewBox="0 0 24 24" enable-background="new 0 0 24 24" xml:space="preserve">
<g>
	<g>
		<path d="M20,6.273V2c0-0.277-0.225-0.5-0.5-0.5h-4.727L20,6.273z"/>
	</g>
	<g>
		<g>
			<path d="M23.5,12c-0.121,0-0.241-0.043-0.337-0.131L12,1.677L0.837,11.87c-0.203,0.186-0.52,0.173-0.706-0.033
				c-0.187-0.204-0.172-0.52,0.032-0.706l11.5-10.5c0.19-0.174,0.483-0.174,0.674,0l11.5,10.5c0.204,0.186,0.22,0.502,0.032,0.706
				C23.771,11.945,23.635,12,23.5,12z"/>
		</g>
	</g>
	<path d="M12,18c0-3.584,2.916-6.5,6.5-6.5c0.887,0,1.73,0.179,2.5,0.502v-0.754l-9-8.217l-9,8.217V23c0,0.275,0.224,0.5,0.5,0.5
		h11.552C13.223,22.35,12,20.316,12,18z M11,8V7c0-0.277,0.224-0.5,0.5-0.5h1C12.775,6.5,13,6.724,13,7v1c0,0.276-0.225,0.5-0.5,0.5
		h-1C11.224,8.5,11,8.276,11,8z"/>
	<path d="M18.5,12.5c-3.033,0-5.5,2.466-5.5,5.5s2.467,5.5,5.5,5.5c3.032,0,5.5-2.467,5.5-5.5S21.532,12.5,18.5,12.5z M21,18.5h-2v2
		c0,0.275-0.225,0.5-0.5,0.5S18,20.775,18,20.5v-2h-2c-0.275,0-0.5-0.225-0.5-0.5c0-0.277,0.225-0.5,0.5-0.5h2v-2
		c0-0.277,0.225-0.5,0.5-0.5s0.5,0.223,0.5,0.5v2h2c0.275,0,0.5,0.223,0.5,0.5C21.5,18.275,21.275,18.5,21,18.5z"/>
</g>
</svg>
