<?xml version="1.0" encoding="utf-8"?>
<!-- Generator: Adobe Illustrator 16.0.0, SVG Export Plug-In . SVG Version: 6.00 Build 0)  -->
<!DOCTYPE svg PUBLIC "-//W3C//DTD SVG 1.1//EN" "http://www.w3.org/Graphics/SVG/1.1/DTD/svg11.dtd">
<svg version="1.1" xmlns="http://www.w3.org/2000/svg" xmlns:xlink="http://www.w3.org/1999/xlink" x="0px" y="0px" width="24px"
	 height="24px" viewBox="0 0 24 24" style="enable-background:new 0 0 24 24;" xml:space="preserve">
<g id="Layer_1">
	<g>
		<polygon style="fill:#B7B7B7;" points="19.775,20 12.073,20 11.926,20 9.536,20 9.536,16.021 6.762,16.021 6.762,20 4.223,20 
			4.223,12.673 8.149,11.059 11.926,12.611 11.926,11.056 8.149,9.503 3.038,11.604 2.629,10.609 8.149,8.341 11.926,9.894 
			11.926,8.371 15.852,6.758 19.775,8.371 		"/>
		<polygon style="fill:#B7B7B7;" points="15.852,5.201 10.742,7.302 10.333,6.307 15.852,4.038 21.37,6.307 20.962,7.302 		"/>
	</g>
	<g>
		<rect x="13.129" y="13.751" style="fill:#E6E6E6;" width="2.33" height="2.33"/>
		<rect x="16.242" y="10.637" style="fill:#E6E6E6;" width="2.332" height="2.329"/>
		<polygon style="fill:#E6E6E6;" points="13.129,10.637 13.129,11.551 13.129,12.966 15.459,12.966 15.459,10.637 13.656,10.637 		
			"/>
		<rect x="16.242" y="13.751" style="fill:#E6E6E6;" width="2.332" height="2.33"/>
	</g>
</g>
<g id="Guides">
	<g>
	</g>
</g>
<g id="Layer_3">
	<rect x="2" y="1.999" style="fill:none;" width="19.979" height="19.979"/>
	<rect x="4" y="3.999" style="fill:none;" width="15.979" height="15.979"/>
</g>
</svg>
