<?xml version="1.0" encoding="utf-8"?>
<!-- Generator: Adobe Illustrator 16.0.0, SVG Export Plug-In . SVG Version: 6.00 Build 0)  -->
<!DOCTYPE svg PUBLIC "-//W3C//DTD SVG 1.1//EN" "http://www.w3.org/Graphics/SVG/1.1/DTD/svg11.dtd">
<svg version="1.1" id="Outline_Icons" xmlns="http://www.w3.org/2000/svg" xmlns:xlink="http://www.w3.org/1999/xlink" x="0px"
	 y="0px" width="24px" height="24px" viewBox="0 0 24 24" enable-background="new 0 0 24 24" xml:space="preserve">
<g>
	<path d="M8.512,12c-1.93,0-3.5,1.57-3.5,3.5s1.57,3.5,3.5,3.5s3.5-1.57,3.5-3.5S10.441,12,8.512,12z M8.512,18
		c-1.378,0-2.5-1.122-2.5-2.5s1.122-2.5,2.5-2.5s2.5,1.122,2.5,2.5S9.89,18,8.512,18z"/>
	<path d="M19.012,3c-1.103,0-2,0.897-2,2c0,1.103,0.897,2,2,2s2-0.897,2-2C21.012,3.897,20.115,3,19.012,3z M19.012,6
		c-0.551,0-1-0.449-1-1s0.449-1,1-1s1,0.449,1,1S19.563,6,19.012,6z"/>
	<path d="M16.697,17.335l-1.271-0.732c0.057-0.362,0.085-0.731,0.085-1.103c0-0.363-0.03-0.732-0.089-1.102l1.266-0.732
		c0.239-0.138,0.321-0.443,0.183-0.683l-2-3.465c-0.067-0.116-0.177-0.2-0.306-0.233c-0.131-0.037-0.267-0.016-0.381,0.053
		l-1.231,0.727c-0.556-0.471-1.124-0.848-1.871-1.112V7.5c0-0.276-0.224-0.5-0.5-0.5h-4c-0.276,0-0.5,0.224-0.5,0.5v1.452
		c-0.7,0.244-1.32,0.601-1.944,1.118L2.847,9.334c-0.239-0.137-0.542-0.053-0.68,0.184l-2.008,3.465
		c-0.066,0.115-0.084,0.251-0.05,0.379c0.034,0.128,0.118,0.237,0.232,0.304l1.262,0.731c-0.06,0.37-0.09,0.739-0.09,1.104
		c0,0.371,0.029,0.74,0.086,1.103l-1.267,0.732c-0.239,0.138-0.321,0.444-0.183,0.683l1.999,3.465
		c0.137,0.237,0.441,0.32,0.679,0.186l1.308-0.739c0.623,0.518,1.244,0.875,1.946,1.121v1.45c0,0.276,0.224,0.5,0.5,0.5h4
		c0.276,0,0.5-0.224,0.5-0.5v-1.451c0.749-0.266,1.317-0.644,1.873-1.115l1.249,0.73c0.116,0.067,0.253,0.086,0.381,0.052
		c0.129-0.035,0.239-0.119,0.305-0.234l1.991-3.465C17.018,17.778,16.936,17.473,16.697,17.335z M14.273,20.547l-1.125-0.658
		c-0.187-0.11-0.425-0.086-0.587,0.06c-0.65,0.586-1.23,1.001-2.117,1.254c-0.215,0.062-0.363,0.258-0.363,0.481V23h-3v-1.316
		c0-0.223-0.148-0.419-0.363-0.481c-0.819-0.234-1.474-0.608-2.187-1.254c-0.161-0.145-0.394-0.168-0.582-0.064l-1.184,0.669
		l-1.502-2.603l1.141-0.659c0.188-0.108,0.284-0.326,0.239-0.538c-0.087-0.408-0.131-0.831-0.131-1.255
		c0-0.413,0.045-0.834,0.135-1.254c0.045-0.212-0.051-0.429-0.238-0.537l-1.135-0.658l1.508-2.602l1.167,0.665
		c0.187,0.108,0.422,0.083,0.583-0.063c0.716-0.646,1.37-1.02,2.186-1.251c0.215-0.061,0.364-0.257,0.364-0.481V8h3v1.318
		c0,0.224,0.148,0.42,0.364,0.481c0.885,0.25,1.465,0.665,2.115,1.251c0.163,0.146,0.402,0.17,0.589,0.06l1.108-0.655l1.498,2.594
		l-1.139,0.658c-0.188,0.108-0.284,0.325-0.239,0.537c0.089,0.421,0.135,0.844,0.135,1.255c0,0.427-0.043,0.849-0.13,1.256
		c-0.045,0.212,0.052,0.429,0.24,0.536l1.144,0.659L14.273,20.547z"/>
	<path d="M23.667,5.951l-0.692-0.398C22.999,5.37,23.012,5.186,23.012,5c0-0.183-0.013-0.366-0.041-0.554l0.687-0.397
		c0.239-0.138,0.321-0.443,0.183-0.683l-1-1.732c-0.067-0.116-0.178-0.2-0.308-0.234s-0.268-0.014-0.382,0.055l-0.65,0.39
		C21.219,1.624,20.908,1.44,20.582,1.3V0.5c0-0.276-0.224-0.5-0.5-0.5h-2c-0.276,0-0.5,0.224-0.5,0.5v0.798
		c-0.362,0.147-0.704,0.338-0.992,0.554l-0.713-0.403c-0.24-0.135-0.542-0.053-0.679,0.184L14.19,3.365
		c-0.067,0.115-0.085,0.251-0.051,0.379s0.118,0.238,0.233,0.305l0.684,0.396C15.027,4.632,15.014,4.818,15.014,5
		c0,0.184,0.013,0.369,0.04,0.554l-0.689,0.397c-0.115,0.066-0.199,0.175-0.233,0.304c-0.034,0.128-0.017,0.265,0.05,0.379l1,1.732
		c0.137,0.236,0.438,0.319,0.677,0.186l0.73-0.407c0.289,0.219,0.631,0.411,0.995,0.559V9.5c0,0.276,0.224,0.5,0.5,0.5h2
		c0.276,0,0.5-0.224,0.5-0.5V8.701c0.326-0.139,0.637-0.324,0.922-0.547l0.668,0.394c0.115,0.068,0.252,0.087,0.382,0.053
		c0.129-0.034,0.239-0.119,0.306-0.235l0.991-1.732C23.988,6.394,23.905,6.088,23.667,5.951z M22.243,7.428l-0.54-0.318
		c-0.192-0.113-0.435-0.086-0.597,0.067c-0.341,0.322-0.747,0.564-1.175,0.699c-0.208,0.065-0.349,0.258-0.349,0.477V9h-1V8.354
		c0-0.218-0.141-0.411-0.349-0.477c-0.477-0.151-0.942-0.412-1.245-0.698c-0.158-0.15-0.396-0.18-0.587-0.074L15.8,7.44
		l-0.503-0.873l0.563-0.325c0.192-0.11,0.289-0.334,0.237-0.55C16.042,5.463,16.014,5.23,16.014,5c0-0.226,0.028-0.453,0.086-0.693
		c0.051-0.215-0.044-0.438-0.236-0.549l-0.558-0.323l0.508-0.872l0.584,0.331c0.192,0.108,0.431,0.08,0.59-0.072
		c0.305-0.289,0.759-0.543,1.244-0.697c0.208-0.066,0.349-0.259,0.349-0.477V1h1v0.646c0,0.218,0.141,0.41,0.348,0.476
		c0.432,0.138,0.838,0.38,1.175,0.699c0.164,0.156,0.41,0.181,0.601,0.066l0.524-0.313l0.496,0.858l-0.561,0.324
		c-0.191,0.11-0.287,0.333-0.237,0.546C21.984,4.548,22.012,4.776,22.012,5c0,0.236-0.027,0.469-0.08,0.694
		c-0.051,0.215,0.045,0.438,0.237,0.549l0.567,0.326L22.243,7.428z"/>
</g>
</svg>
