<?xml version="1.0" encoding="utf-8"?>
<!-- Generator: Adobe Illustrator 16.0.0, SVG Export Plug-In . SVG Version: 6.00 Build 0)  -->
<!DOCTYPE svg PUBLIC "-//W3C//DTD SVG 1.1//EN" "http://www.w3.org/Graphics/SVG/1.1/DTD/svg11.dtd">
<svg version="1.1" id="Layer_1" xmlns="http://www.w3.org/2000/svg" xmlns:xlink="http://www.w3.org/1999/xlink" x="0px" y="0px"
	 width="24px" height="24px" viewBox="0 0 24 24" style="enable-background:new 0 0 24 24;" xml:space="preserve">
<g>
	<path style="fill:#E9A122;" d="M24,8.797V7.181h-5.471V6.346h-2.266v0.835H7.736V6.346H5.47v0.835H0v1.617h5.47v0.91H0v1.617h5.47
		v0.909H0v1.619h5.47v1.787h2.267v-1.787h8.527v1.787h2.266v-1.787H24v-1.619h-5.471v-0.909H24V9.707h-5.471v-0.91H24z
		 M16.264,12.233H7.736v-0.909h8.527V12.233z M16.264,9.707H7.736v-0.91h8.527V9.707z"/>
	<polygon style="fill:#E0454B;" points="24,16.396 0,16.396 0,20.344 5.47,20.344 5.47,24 7.737,24 7.737,20.344 16.264,20.344 
		16.264,24 18.53,24 18.53,20.344 24,20.344 	"/>
</g>
</svg>
