<?xml version="1.0" encoding="utf-8"?>
<!-- Generator: Adobe Illustrator 16.0.0, SVG Export Plug-In . SVG Version: 6.00 Build 0)  -->
<!DOCTYPE svg PUBLIC "-//W3C//DTD SVG 1.1//EN" "http://www.w3.org/Graphics/SVG/1.1/DTD/svg11.dtd">
<svg version="1.1" id="Outline_Icons" xmlns="http://www.w3.org/2000/svg" xmlns:xlink="http://www.w3.org/1999/xlink" x="0px"
	 y="0px" width="24px" height="24px" viewBox="0 0 24 24" style="enable-background:new 0 0 24 24;" xml:space="preserve">
<g>
	<path style="fill:#E0454B;" d="M7.814,8.964l5,2C12.874,10.988,12.938,11,13,11s0.126-0.012,0.186-0.036l5-2
		C18.376,8.889,18.5,8.706,18.5,8.5V2c0-0.008-0.005-0.016-0.006-0.024c-0.003-0.059-0.018-0.114-0.039-0.167
		c-0.006-0.013-0.006-0.026-0.014-0.039c-0.031-0.063-0.078-0.118-0.135-0.163c-0.004-0.003-0.005-0.007-0.009-0.01
		c-0.016-0.011-0.034-0.012-0.051-0.021c-0.034-0.021-0.065-0.044-0.104-0.056l-5-1.5c-0.094-0.028-0.192-0.028-0.287,0l-5,1.5
		c-0.04,0.012-0.071,0.036-0.105,0.056c-0.016,0.009-0.035,0.011-0.05,0.021C7.697,1.6,7.696,1.604,7.693,1.607
		c-0.058,0.044-0.104,0.1-0.136,0.163c-0.006,0.013-0.006,0.027-0.012,0.04C7.523,1.862,7.509,1.917,7.506,1.977
		C7.505,1.984,7.5,1.993,7.5,2v6.5C7.5,8.706,7.624,8.889,7.814,8.964z M17.5,8.163l-4,1.6v-5.89l4-1.2V8.163z M13,1.022L16.26,2
		l-3.23,0.969c-0.01,0-0.018-0.006-0.028-0.006c-0.01,0-0.019,0.005-0.028,0.006L9.74,2L13,1.022z M8.5,2.672l4,1.2v5.89l-4-1.6
		V2.672z"/>
	<polygon style="fill:#EAA001;" points="12.5,3.873 8.5,2.672 8.5,8.163 12.5,9.763 	"/>
	<polygon style="fill:#EAA001;" points="13.5,9.763 17.5,8.163 17.5,2.672 13.5,3.873 	"/>
	<path style="fill:#0F8EA1;" d="M13.001,2.963c0.011,0,0.019,0.006,0.028,0.006L16.26,2L13,1.022L9.74,2l3.232,0.969
		C12.982,2.968,12.991,2.963,13.001,2.963z"/>
	<path style="fill:#E0454B;" d="M23.498,12.492c-0.001-0.074-0.02-0.146-0.053-0.211c-0.008-0.017-0.021-0.029-0.031-0.044
		c-0.029-0.046-0.063-0.087-0.107-0.122c-0.009-0.007-0.012-0.02-0.021-0.025c-0.015-0.01-0.031-0.01-0.046-0.018
		c-0.022-0.012-0.039-0.03-0.063-0.04l-4-1.5c-0.112-0.042-0.237-0.042-0.352,0l-4,1.5c-0.024,0.009-0.041,0.027-0.063,0.04
		c-0.015,0.008-0.031,0.008-0.046,0.018c-0.01,0.006-0.013,0.018-0.021,0.025c-0.045,0.035-0.078,0.076-0.107,0.122
		c-0.011,0.016-0.023,0.028-0.031,0.044c-0.033,0.066-0.052,0.137-0.053,0.211c0,0.003-0.002,0.006-0.002,0.008V17
		c0,0.189,0.107,0.361,0.275,0.447l4,2c0.07,0.035,0.147,0.053,0.225,0.053s0.152-0.018,0.225-0.053l4-2
		C23.393,17.361,23.5,17.189,23.5,17v-4.5C23.5,12.498,23.498,12.495,23.498,12.492z M18.5,18.191l-3-1.5v-3.469l3,1.125V18.191z
		 M19.004,13.465c-0.001,0-0.002-0.002-0.004-0.002s-0.003,0.002-0.004,0.002L16.425,12.5L19,11.535l2.575,0.965L19.004,13.465z
		 M22.5,16.691l-3,1.5v-3.844l3-1.125V16.691z"/>
	<polygon style="fill:#0F8EA1;" points="19,11.535 16.425,12.5 18.996,13.465 19,13.463 19.004,13.465 21.575,12.5 	"/>
	<polygon style="fill:#EAA001;" points="15.5,16.691 18.5,18.191 18.5,14.348 15.5,13.223 	"/>
	<polygon style="fill:#EAA001;" points="19.5,18.191 22.5,16.691 22.5,13.223 19.5,14.348 	"/>
	<path style="fill:#E0454B;" d="M13.445,13.273c-0.002-0.004-0.008-0.008-0.012-0.014c-0.031-0.057-0.074-0.107-0.129-0.15
		c-0.006-0.004-0.008-0.012-0.014-0.016c-0.016-0.01-0.035-0.012-0.053-0.02c-0.026-0.018-0.051-0.037-0.081-0.049l-6-1.999
		c-0.104-0.034-0.213-0.034-0.316,0l-6,1.999c-0.031,0.012-0.055,0.031-0.082,0.049c-0.017,0.008-0.036,0.01-0.052,0.02
		C0.702,13.1,0.7,13.105,0.694,13.109c-0.054,0.043-0.098,0.094-0.129,0.15c-0.003,0.006-0.009,0.01-0.011,0.014
		c-0.033,0.064-0.048,0.137-0.051,0.209C0.504,13.49,0.5,13.494,0.5,13.5v8c0,0.215,0.138,0.406,0.342,0.475l6,2
		C6.894,23.992,6.946,24,7,24s0.106-0.008,0.158-0.025l6-2c0.203-0.068,0.342-0.26,0.342-0.475v-8c0-0.006-0.004-0.01-0.004-0.018
		C13.493,13.41,13.479,13.338,13.445,13.273z M6.5,22.807l-5-1.666v-6.947l5,1.668V22.807z M7.019,14.967
		c-0.007,0-0.012-0.002-0.019-0.002s-0.012,0.002-0.019,0.002L2.58,13.5L7,12.027l4.42,1.473L7.019,14.967z M12.5,21.141l-5,1.666
		v-6.947l5-1.666V21.141z"/>
	<path style="fill:#0F8EA1;" d="M7,12.027L2.58,13.5l4.401,1.467c0.007,0,0.012-0.002,0.019-0.002s0.012,0.002,0.019,0.002
		L11.42,13.5L7,12.027z"/>
	<polygon style="fill:#EAA001;" points="1.5,21.141 6.5,22.807 6.5,15.861 1.5,14.193 	"/>
	<polygon style="fill:#EAA001;" points="7.5,22.807 12.5,21.141 12.5,14.193 7.5,15.859 	"/>
</g>
</svg>
