<?xml version="1.0" encoding="utf-8"?>
<!-- Generator: Adobe Illustrator 16.0.0, SVG Export Plug-In . SVG Version: 6.00 Build 0)  -->
<!DOCTYPE svg PUBLIC "-//W3C//DTD SVG 1.1//EN" "http://www.w3.org/Graphics/SVG/1.1/DTD/svg11.dtd">
<svg version="1.1" id="Layer_2" xmlns="http://www.w3.org/2000/svg" xmlns:xlink="http://www.w3.org/1999/xlink" x="0px" y="0px"
	 width="24px" height="24px" viewBox="0 0 24 24" style="enable-background:new 0 0 24 24;" xml:space="preserve">
<path style="fill:#C68605;" d="M9.625,13.221c-3.48,0-6.754,0.446-9.625,1.229v2.175c2.871-0.781,4-1.56,9.625-2.298
	C15.18,13.596,20.3,14.932,24,16.791v-0.559C20.3,14.372,15.229,13.221,9.625,13.221z"/>
<path style="fill:#EAA001;" d="M9.625,14.326C4,15.064,2.871,15.843,0,16.624V24h24v-7.209C20.3,14.932,15.18,13.596,9.625,14.326z"
	/>
<g>
	<path style="fill:#E0454B;" d="M22.5,10.343l-7.039-4.066L8.42,10.343c-0.225,0.13-0.302,0.417-0.172,0.642
		s0.418,0.302,0.642,0.171l6.57-3.794l6.567,3.794c0.074,0.043,0.156,0.063,0.234,0.063c0.162,0,0.32-0.084,0.408-0.235
		C22.801,10.76,22.725,10.473,22.5,10.343z"/>
	<path style="fill:#E0454B;" d="M10.032,11.012v8.506h10.856v-8.506L15.46,7.877L10.032,11.012z M18.576,13.695h-1.48v-1.479h1.48
		V13.695z M16.902,11.683h1.858l0.343,0.336h-2.545L16.902,11.683z"/>
	<polygon style="fill:#FFFFFF;" points="18.762,11.683 16.902,11.683 16.559,12.019 19.104,12.019 	"/>
	<rect x="17.096" y="12.217" style="fill:#FFFFFF;" width="1.48" height="1.479"/>
</g>
<g>
	<path style="fill:#E0454B;" d="M1.265,6.268V19h6.552V6.268H1.265z M4.5,13.098h2.15v2.149H4.5V13.098z M4.5,9.29h2.15v2.149H4.5
		V9.29z"/>
	<rect x="4.5" y="9.29" style="fill:#FFFFFF;" width="2.15" height="2.149"/>
	<rect x="4.5" y="13.098" style="fill:#FFFFFF;" width="2.15" height="2.149"/>
</g>
</svg>
