<?xml version="1.0" encoding="utf-8"?>
<!-- Generator: Adobe Illustrator 16.0.0, SVG Export Plug-In . SVG Version: 6.00 Build 0)  -->
<!DOCTYPE svg PUBLIC "-//W3C//DTD SVG 1.1//EN" "http://www.w3.org/Graphics/SVG/1.1/DTD/svg11.dtd">
<svg version="1.1" id="Layer_2" xmlns="http://www.w3.org/2000/svg" xmlns:xlink="http://www.w3.org/1999/xlink" x="0px" y="0px"
	 width="24px" height="24px" viewBox="0 0 24 24" style="enable-background:new 0 0 24 24;" xml:space="preserve">
<path style="fill:#C68605;" d="M9.625,13.221c-3.48,0-6.754,0.446-9.625,1.229v2.175c2.871-0.781,4-1.56,9.625-2.298
	C15.18,13.596,20.3,14.932,24,16.791v-0.559C20.3,14.372,15.229,13.221,9.625,13.221z"/>
<path style="fill:#EAA001;" d="M9.625,14.326C4,15.064,2.871,15.843,0,16.624V24h24v-7.209C20.3,14.932,15.18,13.596,9.625,14.326z"
	/>
<g>
	<g>
		<polygon style="fill:#CC3333;" points="2.539,9.986 2.539,18.492 5.937,19.063 5.937,6.878 		"/>
		<polygon style="fill:#E0454B;" points="5.965,6.852 5.937,6.878 5.937,19.063 13.395,18.492 13.395,9.986 		"/>
	</g>
	<g>
		<path style="fill:#E0454B;" d="M15.005,8.959L5.966,4.937l-0.03,0.026v1.085l0.029-0.026l8.567,3.75
			c0.074,0.043,0.156,0.063,0.234,0.063c0.162,0,0.32-0.084,0.408-0.235C15.307,9.376,15.23,9.089,15.005,8.959z"/>
		<path style="fill:#CC3333;" d="M0.925,9.317C0.7,9.447,0.625,9.734,0.753,9.959s0.418,0.302,0.642,0.171l4.541-4.083V4.963
			L0.925,9.317z"/>
	</g>
	<polygon style="fill:#FFFFFF;" points="12.28,18.577 9.938,18.776 9.938,14.37 12.28,14.993 	"/>
	<g>
		<polygon style="fill:#FFFFFF;" points="6.989,9.835 6.989,11.501 8.655,12.157 8.655,10.491 		"/>
		<polygon style="fill:#FFFFFF;" points="6.989,14.282 8.655,14.938 8.655,13.271 6.989,12.616 		"/>
	</g>
</g>
</svg>
