<?xml version="1.0" encoding="utf-8"?>
<!-- Generator: Adobe Illustrator 16.0.0, SVG Export Plug-In . SVG Version: 6.00 Build 0)  -->
<!DOCTYPE svg PUBLIC "-//W3C//DTD SVG 1.1//EN" "http://www.w3.org/Graphics/SVG/1.1/DTD/svg11.dtd">
<svg version="1.1" id="Layer_1" xmlns="http://www.w3.org/2000/svg" xmlns:xlink="http://www.w3.org/1999/xlink" x="0px" y="0px"
	 width="30px" height="30px" viewBox="0 0 30 30" style="enable-background:new 0 0 30 30;" xml:space="preserve">
<polygon style="display:none;fill:#CCCCCC;" points="8.682,19.385 8.682,7.5 1.181,0 -0.006,0 -0.006,28.072 "/>
<polygon style="display:none;fill:#CCCCCC;" points="30.005,28.632 30.005,28.889 21.604,20.486 9.899,20.486 0.385,30 30.006,30 
	30.006,28.633 "/>
<path style="fill-rule:evenodd;clip-rule:evenodd;fill:#E0454B;" d="M29.408,17.146c-0.424-0.75-0.848-1.5-1.27-2.25
	c-0.244-0.436-0.482-0.874-0.729-1.308c-0.174-0.312-0.361-0.361-0.682-0.191c-0.109,0.059-0.213,0.137-0.328,0.178
	c-0.289,0.104-0.359,0.484-0.238,0.682c0.225,0.367,0.088,0.657-0.182,0.898c-0.27,0.245-0.555,0.491-0.873,0.665
	c-0.893,0.494-1.789,0.99-2.717,1.41c-1.201,0.547-2.428,1.037-3.658,1.518c-0.359,0.139-0.766,0.182-1.154,0.229
	c-0.305,0.041-0.398-0.096-0.316-0.391c0.186-0.656,0.375-1.309,0.568-1.984c-4.386-1.256-8.758-2.51-13.152-3.77
	c-0.236,0.824-0.473,1.649-0.714,2.489c-1.222-1.563-1.392-4.578-0.226-6.644c1.954-3.459,5.742-4.112,8.252-3.159
	c3.471,1.32,4.722,4.615,4.414,7.062c-0.111-0.032-0.217-0.062-0.324-0.093c-3.022-0.867-6.045-1.738-9.071-2.597
	C6.651,9.788,6.28,9.73,5.909,9.904c-0.322,0.149-0.488,0.419-0.603,0.715c-0.139,0.355-0.218,0.732-0.329,1.118
	c4.39,1.259,8.762,2.512,13.187,3.781c0.102-0.447,0.207-0.887,0.301-1.332c0.092-0.434,0.211-0.869,0.244-1.309
	c0.049-0.634,0.084-1.275,0.033-1.905c-0.111-1.378-0.561-2.662-1.285-3.833c-0.826-1.333-1.922-2.391-3.292-3.171
	c-0.881-0.501-1.828-0.82-2.8-1.018c-0.983-0.2-1.987-0.199-2.996-0.054C7.209,3.063,6.13,3.436,5.131,4.022
	c-1.293,0.755-2.337,1.771-3.146,3.05C1.368,8.048,1.008,9.109,0.76,10.208c-0.213,0.936-0.204,1.894-0.08,2.856
	c0.169,1.318,0.611,2.53,1.306,3.649c0.278,0.455,0.636,0.861,0.985,1.266c0.113,0.133,0.158,0.221,0.107,0.389
	c-0.402,1.383-0.802,2.762-1.189,4.15c-0.142,0.504-0.071,0.973,0.374,1.32c0.093,0.072,0.209,0.129,0.323,0.16
	c3.677,1.059,7.356,2.109,11.033,3.172c0.438,0.129,1.091-0.064,1.312-0.643c0.249-0.66,0.737-1.16,1.26-1.6
	c1.234-1.027,2.48-2.043,3.758-3.016c0.969-0.734,1.988-1.404,2.998-2.088c0.799-0.541,1.627-1.045,2.426-1.588
	c0.506-0.344,1.037-0.623,1.623-0.803c0.563-0.172,0.77-0.137,1.129,0.314c0.182,0.23,0.369,0.232,0.598,0.127
	c0.189-0.09,0.373-0.191,0.559-0.285C29.322,17.441,29.365,17.293,29.408,17.146z"/>
</svg>
