<?xml version="1.0" encoding="utf-8"?>
<!-- Generator: Adobe Illustrator 16.0.0, SVG Export Plug-In . SVG Version: 6.00 Build 0)  -->
<!DOCTYPE svg PUBLIC "-//W3C//DTD SVG 1.1//EN" "http://www.w3.org/Graphics/SVG/1.1/DTD/svg11.dtd">
<svg version="1.1" id="Layer_1" xmlns="http://www.w3.org/2000/svg" xmlns:xlink="http://www.w3.org/1999/xlink" x="0px" y="0px"
	 width="24px" height="24px" viewBox="0 0 24 24" style="enable-background:new 0 0 24 24;" xml:space="preserve">
<g>
	<polygon style="fill:#E9A122;" points="17.535,6.171 7.578,6.171 0.018,8.964 23.994,8.964 	"/>
	<path style="fill:#E0454B;" d="M0.018,9.256H0.006v8.355h3.401v-5.668h3.064v5.668h8v-5.668h3.064v5.668h6.447V9.963H0.018V9.256z
		 M18.65,11.943h1.932v2.268H18.65V11.943z M7.578,11.943h1.931v2.268H7.578V11.943z"/>
	<rect x="3.407" y="11.943" style="fill:#FFFFFF;" width="3.064" height="5.668"/>
	<rect x="14.471" y="11.943" style="fill:#FFFFFF;" width="3.064" height="5.668"/>
	<rect x="7.578" y="11.943" style="fill:#FFFFFF;" width="1.931" height="2.268"/>
	<rect x="18.65" y="11.943" style="fill:#FFFFFF;" width="1.932" height="2.268"/>
	<rect x="0.018" y="9.256" style="fill:#CC3333;" width="23.965" height="0.854"/>
	<rect x="0.012" y="17.611" style="fill:#CC3333;" width="23.965" height="0.217"/>
</g>
</svg>
