<?xml version="1.0" encoding="utf-8"?>
<!-- Generator: Adobe Illustrator 16.0.0, SVG Export Plug-In . SVG Version: 6.00 Build 0)  -->
<!DOCTYPE svg PUBLIC "-//W3C//DTD SVG 1.1//EN" "http://www.w3.org/Graphics/SVG/1.1/DTD/svg11.dtd">
<svg version="1.1" id="Outline_Icons" xmlns="http://www.w3.org/2000/svg" xmlns:xlink="http://www.w3.org/1999/xlink" x="0px"
	 y="0px" width="24px" height="24px" viewBox="0 0 24 24" style="enable-background:new 0 0 24 24;" xml:space="preserve">
<path style="fill:#E0454B;" d="M19.928,0.241c-0.182-0.299-0.674-0.299-0.854,0c-0.378,0.622-2.261,3.789-2.261,5.071
	c0,1.311,0.944,2.402,2.188,2.637V9.5c0,3.415-2.649,6.218-6,6.475V7.949c1.243-0.235,2.188-1.327,2.188-2.637
	c0-1.283-1.883-4.45-2.26-5.071c-0.183-0.299-0.675-0.299-0.855,0c-0.377,0.622-2.26,3.789-2.26,5.071
	c0,1.311,0.944,2.402,2.188,2.637v8.025c-3.351-0.258-6-3.061-6-6.476v-1.55C7.245,7.714,8.19,6.622,8.19,5.312
	c0-1.283-1.883-4.45-2.26-5.071c-0.182-0.299-0.674-0.299-0.855,0c-0.377,0.622-2.26,3.789-2.26,5.071
	c0,1.311,0.944,2.402,2.188,2.637V9.5c0,3.967,3.098,7.215,7,7.475V23H8c-0.276,0-0.5,0.225-0.5,0.5S7.724,24,8,24h9
	c0.275,0,0.5-0.225,0.5-0.5S17.275,23,17,23h-4v-6.025c3.902-0.259,7-3.508,7-7.475V7.949c1.243-0.235,2.188-1.326,2.188-2.637
	C22.188,4.029,20.305,0.862,19.928,0.241z M3.813,5.312c0-0.652,0.911-2.462,1.688-3.825C6.276,2.85,7.188,4.66,7.188,5.312
	C7.188,6.243,6.431,7,5.5,7S3.813,6.243,3.813,5.312z M12.5,7c-0.931,0-1.687-0.757-1.687-1.688c0-0.652,0.911-2.462,1.688-3.825
	c0.776,1.363,1.688,3.173,1.688,3.825C14.188,6.243,13.432,7,12.5,7z M19.5,7c-0.932,0-1.688-0.757-1.688-1.688
	c0-0.652,0.91-2.462,1.688-3.825c0.775,1.363,1.688,3.173,1.688,3.825C21.188,6.243,20.432,7,19.5,7z"/>
<path style="fill:#EAA001;" d="M6.721,5.727c0-0.472-0.66-1.782-1.22-2.769C4.939,3.945,4.279,5.255,4.279,5.727
	c0,0.673,0.547,1.221,1.221,1.221S6.721,6.4,6.721,5.727z"/>
<path style="fill:#0F8EA1;" d="M13.723,5.727c0-0.472-0.66-1.782-1.221-2.769C11.94,3.945,11.28,5.255,11.28,5.727
	c0,0.673,0.547,1.221,1.221,1.221S13.723,6.4,13.723,5.727z"/>
<path style="fill:#EAA001;" d="M20.723,5.727c0-0.472-0.66-1.782-1.221-2.769c-0.563,0.987-1.222,2.296-1.222,2.769
	c0,0.673,0.547,1.221,1.221,1.221S20.723,6.4,20.723,5.727z"/>
</svg>
