<?xml version="1.0" encoding="utf-8"?>
<!-- Generator: Adobe Illustrator 16.0.0, SVG Export Plug-In . SVG Version: 6.00 Build 0)  -->
<!DOCTYPE svg PUBLIC "-//W3C//DTD SVG 1.1//EN" "http://www.w3.org/Graphics/SVG/1.1/DTD/svg11.dtd">
<svg version="1.1" id="Layer_1" xmlns="http://www.w3.org/2000/svg" xmlns:xlink="http://www.w3.org/1999/xlink" x="0px" y="0px"
	 width="30px" height="30px" viewBox="0 0 30 30" style="enable-background:new 0 0 30 30;" xml:space="preserve">
<polygon style="display:none;fill:#CCCCCC;" points="8.682,19.385 8.682,7.5 1.181,0 -0.006,0 -0.006,28.072 "/>
<polygon style="display:none;fill:#CCCCCC;" points="30.005,28.632 30.005,28.889 21.604,20.486 9.899,20.486 0.385,30 30.006,30 
	30.006,28.633 "/>
<g>
	<path style="fill-rule:evenodd;clip-rule:evenodd;fill:#E0454B;" d="M15.78,0.805c0.496-0.13,0.855-0.035,1.161,0.271
		c0.638,0.636,1.28,1.266,1.913,1.906C19,3.129,19.12,3.176,19.336,3.11c2.555-0.782,4.819-0.178,6.854,1.467
		c0.517,0.417,0.517,1.072,0.02,1.574c-2.242,2.263-4.486,4.523-6.731,6.784c-0.343,0.346-0.681,0.695-1.029,1.034
		c-0.478,0.467-1.135,0.441-1.552-0.072c-1.653-2.041-2.271-4.309-1.478-6.877c0.052-0.166,0.016-0.259-0.103-0.374
		c-0.644-0.629-1.279-1.266-1.917-1.9c-0.537-0.537-0.54-1.087-0.008-1.625c0.661-0.67,1.322-1.34,1.99-2.004
		C15.52,0.982,15.687,0.878,15.78,0.805z"/>
	<path style="fill-rule:evenodd;clip-rule:evenodd;fill:#E0454B;" d="M6.848,29.252c0-0.32-0.003-0.607,0-0.897
		c0.008-0.642,0.412-1.052,1.049-1.058c0.61-0.004,1.222-0.003,1.833-0.004c0.019,0,0.038-0.009,0.09-0.023
		c0.032-0.681,0.248-1.316,0.721-1.919c-0.095-0.067-0.189-0.119-0.263-0.191C8.05,22.936,5.822,20.71,3.6,18.479
		c-0.142-0.141-0.264-0.194-0.482-0.167c-0.811,0.099-1.473-0.203-1.915-0.891c-0.448-0.699-0.448-1.437,0.001-2.137
		c0.442-0.688,1.104-0.988,1.915-0.89c0.219,0.027,0.342-0.027,0.482-0.169c2.019-2.024,4.038-4.046,6.063-6.063
		c0.159-0.158,0.225-0.295,0.187-0.535c-0.127-0.813,0.351-1.649,1.106-2.013c0.762-0.365,1.673-0.207,2.265,0.394
		c0.605,0.612,0.748,1.532,0.357,2.295c-0.386,0.752-1.223,1.197-2.038,1.059c-0.188-0.032-0.302,0.008-0.433,0.139
		c-2.047,2.055-4.1,4.102-6.144,6.159c-0.089,0.089-0.115,0.259-0.134,0.396c-0.019,0.142,0.047,0.3,0.007,0.432
		c-0.102,0.322,0.056,0.507,0.266,0.716c2.32,2.308,4.634,4.623,6.943,6.94c0.151,0.153,0.289,0.208,0.512,0.188
		c1.632-0.156,3.048,1.049,3.22,2.723c0.009,0.068,0.014,0.141,0.021,0.242c0.607,0,1.204,0,1.805,0.001
		c0.786,0,1.165,0.376,1.166,1.156c0.001,0.258,0,0.517,0,0.799C14.796,29.252,10.839,29.252,6.848,29.252z"/>
	<path style="fill:#EAA001;" d="M25.668,12.487c1.188-1.192,1.185-3.121-0.008-4.307l-4.298,4.314
		C22.554,13.683,24.481,13.679,25.668,12.487z"/>
	<g>
		
			<rect x="25.784" y="13.366" transform="matrix(0.7086 0.7057 -0.7057 0.7086 17.4101 -14.9402)" style="fill:#EAA001;" width="2.016" height="0.483"/>
	</g>
	<g>
		<rect x="27.116" y="10.791" style="fill:#EAA001;" width="2.018" height="0.483"/>
	</g>
	<g>
		<rect x="23.981" y="13.939" style="fill:#EAA001;" width="0.482" height="2.018"/>
	</g>
</g>
</svg>
