<?xml version="1.0" encoding="utf-8"?>
<!-- Generator: Adobe Illustrator 16.0.0, SVG Export Plug-In . SVG Version: 6.00 Build 0)  -->
<!DOCTYPE svg PUBLIC "-//W3C//DTD SVG 1.1//EN" "http://www.w3.org/Graphics/SVG/1.1/DTD/svg11.dtd">
<svg version="1.1" id="Outline_Icons" xmlns="http://www.w3.org/2000/svg" xmlns:xlink="http://www.w3.org/1999/xlink" x="0px"
	 y="0px" width="24px" height="24px" viewBox="0 0 24 24" enable-background="new 0 0 24 24" xml:space="preserve">
<path d="M20.806,4.668C18.849,2.85,16.313,1.903,13.632,2C10.9,2.102,8.405,3.266,6.605,5.28c-1.571,1.76-2.462,4.05-2.604,6.565
	L1.916,8.717C1.761,8.486,1.45,8.426,1.223,8.578C0.993,8.731,0.931,9.042,1.084,9.271l3,4.5c0.018,0.026,0.046,0.041,0.067,0.063
	c0.018,0.018,0.034,0.036,0.055,0.051c0.033,0.025,0.067,0.044,0.105,0.06c0.03,0.013,0.061,0.021,0.093,0.028
	c0.021,0.004,0.041,0.018,0.063,0.019c0.011,0,0.021,0.001,0.032,0.001c0.008,0,0.014-0.004,0.021-0.004s0.015,0.003,0.022,0.003
	c0.044-0.004,0.082-0.021,0.122-0.035c0.015-0.005,0.031-0.006,0.046-0.013c0.074-0.034,0.137-0.083,0.186-0.146l3.479-3.976
	C8.559,9.616,8.537,9.3,8.329,9.118C8.122,8.937,7.806,8.956,7.624,9.165l-2.641,3.018C5.059,9.781,5.875,7.6,7.352,5.947
	c1.616-1.81,3.86-2.856,6.317-2.947c2.407-0.091,4.694,0.764,6.456,2.4c1.762,1.636,2.78,3.86,2.867,6.263
	c0.09,2.402-0.762,4.695-2.398,6.457s-3.861,2.78-6.264,2.868c-0.275,0.01-0.491,0.242-0.481,0.518c0.01,0.27,0.232,0.481,0.5,0.481
	c0.006,0,0.012,0,0.019,0c2.669-0.098,5.141-1.229,6.959-3.186c1.818-1.958,2.765-4.506,2.666-7.174
	C23.895,8.957,22.763,6.486,20.806,4.668z"/>
</svg>
