<?xml version="1.0" encoding="utf-8"?>
<!-- Generator: Adobe Illustrator 16.0.0, SVG Export Plug-In . SVG Version: 6.00 Build 0)  -->
<!DOCTYPE svg PUBLIC "-//W3C//DTD SVG 1.1//EN" "http://www.w3.org/Graphics/SVG/1.1/DTD/svg11.dtd">
<svg version="1.1" id="Layer_1" xmlns="http://www.w3.org/2000/svg" xmlns:xlink="http://www.w3.org/1999/xlink" x="0px" y="0px"
	 width="30px" height="30px" viewBox="0 0 30 30" style="enable-background:new 0 0 30 30;" xml:space="preserve">
<polygon style="display:none;fill:#CCCCCC;" points="8.682,19.385 8.682,7.5 1.181,0 -0.006,0 -0.006,28.072 "/>
<polygon style="display:none;fill:#CCCCCC;" points="30.005,28.632 30.005,28.889 21.604,20.486 9.899,20.486 0.385,30 30.006,30 
	30.006,28.633 "/>
<g>
	<path style="fill-rule:evenodd;clip-rule:evenodd;fill:#EAA001;" d="M10.609,13.51c0.104,1.039,0.192,1.722,0.236,2.407
		c0.046,0.715,0.404,1.04,1.114,1.033c1.46-0.015,2.921-0.047,4.38-0.008c0.777,0.021,0.99-0.314,1.032-1.031
		c0.054-0.896,0.236-1.785,0.39-2.868c0.934,0.586,1.648,1.065,2.393,1.497c0.938,0.543,1.744,0.532,2.517-0.421
		c0.835-1.03,1.886-1.883,2.729-2.908c0.564-0.687,1.267-2.088,0.101-2.567c-0.951-0.392-1.376,0.458-1.974,1.091
		c-0.175,0.186-2.093,2.235-2.1,2.229c-1.202-1.088-2.32-2.125-3.464-3.131C15.6,6.751,11.51,7.299,9.795,9.899
		c-0.801,1.216-1.538,2.493-2.477,3.596c-0.676,0.794-1.464,1.466-2.227,2.173c-0.467,0.431-0.78,1.376,0.204,1.531
		c0.793,0.126,1.878-0.438,2.546-1.1C8.655,15.295,9.512,14.53,10.609,13.51z"/>
</g>
<g>
	<circle style="fill-rule:evenodd;clip-rule:evenodd;fill:#EAA001;" cx="14.513" cy="4.035" r="2.68"/>
</g>
<path style="fill:#E0454B;" d="M28.541,17.666c-0.057,0.011-5.822,1.067-13.541,1.067c-7.753,0-13.48-1.057-13.537-1.067
	c-0.583-0.107-1.156,0.277-1.266,0.866c-0.112,0.59,0.276,1.156,0.866,1.268c0.082,0.015,0.817,0.149,2.051,0.318
	c-0.019,0.08-0.049,0.156-0.049,0.242v9.626c0,0.005,0.003,0.009,0.003,0.014h2.165c0-0.005,0.003-0.009,0.003-0.014v-9.608
	c0.951,0.104,2.044,0.205,3.254,0.291v9.317c0,0.005,0.002,0.009,0.003,0.014h2.164c0-0.005,0.003-0.009,0.003-0.014v-9.188
	c1.025,0.049,2.115,0.082,3.254,0.096v9.093c0,0.005,0.002,0.009,0.003,0.014h2.165c0-0.005,0.002-0.009,0.002-0.014v-9.093
	c1.139-0.014,2.227-0.047,3.254-0.097v9.189c0,0.005,0.002,0.009,0.002,0.014h2.166c0-0.005,0.004-0.009,0.004-0.014v-9.318
	c1.207-0.087,2.301-0.188,3.252-0.292v9.61c0,0.005,0.004,0.009,0.004,0.014h2.164c0-0.005,0.004-0.009,0.004-0.014V20.36
	c0-0.087-0.031-0.163-0.049-0.243c1.23-0.169,1.969-0.303,2.051-0.317c0.59-0.111,0.979-0.678,0.869-1.266
	C29.693,17.945,29.125,17.554,28.541,17.666z"/>
</svg>
