<?xml version="1.0" encoding="utf-8"?>
<!-- Generator: Adobe Illustrator 16.0.0, SVG Export Plug-In . SVG Version: 6.00 Build 0)  -->
<!DOCTYPE svg PUBLIC "-//W3C//DTD SVG 1.1//EN" "http://www.w3.org/Graphics/SVG/1.1/DTD/svg11.dtd">
<svg version="1.1" id="Outline_Icons" xmlns="http://www.w3.org/2000/svg" xmlns:xlink="http://www.w3.org/1999/xlink" x="0px"
	 y="0px" width="24px" height="24px" viewBox="0 0 24 24" enable-background="new 0 0 24 24" xml:space="preserve">
<g>
	<path d="M2.5,2C1.121,2,0,3.121,0,4.5S1.121,7,2.5,7S5,5.879,5,4.5S3.879,2,2.5,2z M2.5,6C1.673,6,1,5.327,1,4.5S1.673,3,2.5,3
		S4,3.673,4,4.5S3.327,6,2.5,6z"/>
	<path d="M8.569,4.928H23.5c0.276,0,0.5-0.224,0.5-0.5s-0.224-0.5-0.5-0.5H8.569c-0.276,0-0.5,0.224-0.5,0.5
		S8.293,4.928,8.569,4.928z"/>
	<path d="M2.5,10C1.121,10,0,11.121,0,12.5S1.121,15,2.5,15S5,13.879,5,12.5S3.879,10,2.5,10z M2.5,14C1.673,14,1,13.327,1,12.5
		S1.673,11,2.5,11S4,11.673,4,12.5S3.327,14,2.5,14z"/>
	<path d="M23.5,11.928H8.569c-0.276,0-0.5,0.224-0.5,0.5s0.224,0.5,0.5,0.5H23.5c0.276,0,0.5-0.224,0.5-0.5
		S23.776,11.928,23.5,11.928z"/>
	<path d="M2.5,18C1.121,18,0,19.121,0,20.5S1.121,23,2.5,23S5,21.879,5,20.5S3.879,18,2.5,18z M2.5,22C1.673,22,1,21.327,1,20.5
		S1.673,19,2.5,19S4,19.673,4,20.5S3.327,22,2.5,22z"/>
	<path d="M23.5,19.927H8.569c-0.276,0-0.5,0.224-0.5,0.5s0.224,0.5,0.5,0.5H23.5c0.276,0,0.5-0.224,0.5-0.5
		S23.776,19.927,23.5,19.927z"/>
</g>
</svg>
