<?xml version="1.0" encoding="utf-8"?>
<!-- Generator: Adobe Illustrator 16.0.0, SVG Export Plug-In . SVG Version: 6.00 Build 0)  -->
<!DOCTYPE svg PUBLIC "-//W3C//DTD SVG 1.1//EN" "http://www.w3.org/Graphics/SVG/1.1/DTD/svg11.dtd">
<svg version="1.1" id="Filled_Icons" xmlns="http://www.w3.org/2000/svg" xmlns:xlink="http://www.w3.org/1999/xlink" x="0px"
	 y="0px" width="24px" height="24px" viewBox="0 0 24 24" enable-background="new 0 0 24 24" xml:space="preserve">
<g>
	<path d="M23.5,18c-1.378,0-2.5-1.121-2.5-2.5V11c0-3.641-2.24-6.951-5.603-8.325C15.022,1.108,13.637,0,12,0
		c-1.612,0-3.024,1.131-3.4,2.675C5.239,4.049,3,7.358,3,11v4.5C3,16.879,1.878,18,0.5,18C0.224,18,0,18.224,0,18.5S0.224,19,0.5,19
		h23c0.276,0,0.5-0.224,0.5-0.5S23.776,18,23.5,18z"/>
	<path d="M15,20H9c-0.276,0-0.5,0.224-0.5,0.5c0,1.93,1.57,3.5,3.5,3.5s3.5-1.57,3.5-3.5C15.5,20.224,15.276,20,15,20z"/>
</g>
</svg>
