<?xml version="1.0" encoding="utf-8"?>
<!-- Generator: Adobe Illustrator 16.0.0, SVG Export Plug-In . SVG Version: 6.00 Build 0)  -->
<!DOCTYPE svg PUBLIC "-//W3C//DTD SVG 1.1//EN" "http://www.w3.org/Graphics/SVG/1.1/DTD/svg11.dtd">
<svg version="1.1" id="Filled_Icons" xmlns="http://www.w3.org/2000/svg" xmlns:xlink="http://www.w3.org/1999/xlink" x="0px"
	 y="0px" width="24px" height="24px" viewBox="0 0 24 24" enable-background="new 0 0 24 24" xml:space="preserve">
<g>
	<path d="M20.5,19c-0.827,0-1.5-0.673-1.5-1.5V14c0-2.726-1.567-5.18-4.018-6.333C14.815,6.169,13.542,5,12,5
		S9.185,6.169,9.018,7.666C6.567,8.819,5,11.271,5,14v3.5C5,18.327,4.327,19,3.5,19C3.224,19,3,19.224,3,19.5S3.224,20,3.5,20h17
		c0.276,0,0.5-0.224,0.5-0.5S20.776,19,20.5,19z"/>
	<path d="M14,21h-4c-0.276,0-0.5,0.224-0.5,0.5c0,1.379,1.122,2.5,2.5,2.5s2.5-1.121,2.5-2.5C14.5,21.224,14.276,21,14,21z"/>
	<path d="M9,3C5.691,3,3,5.691,3,9c0,0.276,0.224,0.5,0.5,0.5S4,9.276,4,9c0-2.757,2.243-5,5-5c0.276,0,0.5-0.224,0.5-0.5
		S9.276,3,9,3z"/>
	<path d="M9,1c0.276,0,0.5-0.224,0.5-0.5S9.276,0,9,0C4.037,0,0,4.037,0,9c0,0.276,0.224,0.5,0.5,0.5S1,9.276,1,9
		C1,4.589,4.589,1,9,1z"/>
	<path d="M15,3c-0.276,0-0.5,0.224-0.5,0.5S14.724,4,15,4c2.757,0,5,2.243,5,5c0,0.276,0.224,0.5,0.5,0.5S21,9.276,21,9
		C21,5.691,18.308,3,15,3z"/>
	<path d="M15,0c-0.276,0-0.5,0.224-0.5,0.5S14.724,1,15,1c4.411,0,8,3.589,8,8c0,0.276,0.224,0.5,0.5,0.5S24,9.276,24,9
		C24,4.037,19.962,0,15,0z"/>
</g>
</svg>
