<?xml version="1.0" encoding="utf-8"?>
<!-- Generator: Adobe Illustrator 16.0.0, SVG Export Plug-In . SVG Version: 6.00 Build 0)  -->
<!DOCTYPE svg PUBLIC "-//W3C//DTD SVG 1.1//EN" "http://www.w3.org/Graphics/SVG/1.1/DTD/svg11.dtd">
<svg version="1.1" id="Outline_Icons" xmlns="http://www.w3.org/2000/svg" xmlns:xlink="http://www.w3.org/1999/xlink" x="0px"
	 y="0px" width="24px" height="24px" viewBox="0 0 24 24" enable-background="new 0 0 24 24" xml:space="preserve">
<g>
	<path d="M20.5,21c-0.827,0-1.5-0.673-1.5-1.5V15c0-2.728-1.567-5.18-4.019-6.333C14.815,7.169,13.542,6,12,6
		S9.185,7.169,9.019,8.667C6.567,9.819,5,12.271,5,15v4.5C5,20.327,4.327,21,3.5,21C3.224,21,3,21.224,3,21.5S3.224,22,3.5,22h6.051
		c0.232,1.14,1.242,2,2.449,2s2.217-0.86,2.449-2H20.5c0.276,0,0.5-0.224,0.5-0.5S20.776,21,20.5,21z M12,23
		c-0.651,0-1.201-0.418-1.408-1h2.816C13.201,22.582,12.651,23,12,23z M5.499,21C5.813,20.582,6,20.063,6,19.5V15
		c0-2.43,1.449-4.604,3.692-5.538C9.878,9.384,10,9.202,10,9c0-1.103,0.897-2,2-2s2,0.897,2,2c0,0.202,0.121,0.384,0.308,0.462
		C16.551,10.398,18,12.571,18,15v4.5c0,0.563,0.187,1.082,0.501,1.5H5.499z"/>
	<path d="M9,3C5.691,3,3,5.691,3,9c0,0.276,0.224,0.5,0.5,0.5S4,9.276,4,9c0-2.757,2.243-5,5-5c0.276,0,0.5-0.224,0.5-0.5
		S9.276,3,9,3z"/>
	<path d="M9,1c0.276,0,0.5-0.224,0.5-0.5S9.276,0,9,0C4.038,0,0,4.038,0,9c0,0.276,0.224,0.5,0.5,0.5S1,9.276,1,9
		C1,4.589,4.589,1,9,1z"/>
	<path d="M15,3c-0.276,0-0.5,0.224-0.5,0.5S14.724,4,15,4c2.757,0,5,2.243,5,5c0,0.276,0.224,0.5,0.5,0.5S21,9.276,21,9
		C21,5.691,18.309,3,15,3z"/>
	<path d="M15,0c-0.276,0-0.5,0.224-0.5,0.5S14.724,1,15,1c4.411,0,8,3.589,8,8c0,0.276,0.224,0.5,0.5,0.5S24,9.276,24,9
		C24,4.038,19.962,0,15,0z"/>
</g>
</svg>
