<?xml version="1.0" encoding="utf-8"?>
<!-- Generator: Adobe Illustrator 16.0.0, SVG Export Plug-In . SVG Version: 6.00 Build 0)  -->
<!DOCTYPE svg PUBLIC "-//W3C//DTD SVG 1.1//EN" "http://www.w3.org/Graphics/SVG/1.1/DTD/svg11.dtd">
<svg version="1.1" id="Outline_Icons" xmlns="http://www.w3.org/2000/svg" xmlns:xlink="http://www.w3.org/1999/xlink" x="0px"
	 y="0px" width="24px" height="24px" viewBox="0 0 24 24" enable-background="new 0 0 24 24" xml:space="preserve">
<g>
	<path d="M7.646,0.021c-0.263-0.08-0.543,0.069-0.624,0.333l-7,23c-0.08,0.264,0.069,0.543,0.333,0.624
		C0.403,23.993,0.452,24,0.5,24c0.214,0,0.413-0.139,0.479-0.354l7-23C8.059,0.382,7.91,0.103,7.646,0.021z"/>
	<path d="M22.979,23.354l-7-23c-0.081-0.264-0.358-0.413-0.624-0.333c-0.264,0.081-0.413,0.36-0.333,0.624l7,23
		C22.087,23.861,22.286,24,22.5,24c0.048,0,0.097-0.007,0.146-0.021C22.91,23.897,23.059,23.618,22.979,23.354z"/>
	<path d="M11.5,19c-0.276,0-0.5,0.224-0.5,0.5v4c0,0.276,0.224,0.5,0.5,0.5s0.5-0.224,0.5-0.5v-4C12,19.224,11.776,19,11.5,19z"/>
	<path d="M11.5,11c-0.276,0-0.5,0.224-0.5,0.5v4c0,0.276,0.224,0.5,0.5,0.5s0.5-0.224,0.5-0.5v-4C12,11.224,11.776,11,11.5,11z"/>
	<path d="M11.5,4C11.224,4,11,4.224,11,4.5v3C11,7.776,11.224,8,11.5,8S12,7.776,12,7.5v-3C12,4.224,11.776,4,11.5,4z"/>
	<path d="M11.5,0C11.224,0,11,0.224,11,0.5v1C11,1.776,11.224,2,11.5,2S12,1.776,12,1.5v-1C12,0.224,11.776,0,11.5,0z"/>
</g>
</svg>
