<?xml version="1.0" encoding="utf-8"?>
<!-- Generator: Adobe Illustrator 16.0.0, SVG Export Plug-In . SVG Version: 6.00 Build 0)  -->
<!DOCTYPE svg PUBLIC "-//W3C//DTD SVG 1.1//EN" "http://www.w3.org/Graphics/SVG/1.1/DTD/svg11.dtd">
<svg version="1.1" id="Outline_Icons" xmlns="http://www.w3.org/2000/svg" xmlns:xlink="http://www.w3.org/1999/xlink" x="0px"
	 y="0px" width="24px" height="24px" viewBox="0 0 24 24" enable-background="new 0 0 24 24" xml:space="preserve">
<g>
	<path d="M17.854,15.147c-0.046-0.046-0.101-0.083-0.162-0.108C17.632,15.014,17.567,15,17.5,15H3.238l1.6-4h4.112
		c0.276,0,0.5-0.224,0.5-0.5S9.227,10,8.951,10H4.5c-0.205,0-0.388,0.124-0.464,0.314l-1.962,4.904l-1.927,1.928
		C0.053,17.24,0,17.367,0,17.5v4C0,21.776,0.224,22,0.5,22H1v1.5C1,23.776,1.224,24,1.5,24h3C4.776,24,5,23.776,5,23.5V22h10v1.5
		c0,0.276,0.224,0.5,0.5,0.5h3c0.276,0,0.5-0.224,0.5-0.5V22h0.5c0.276,0,0.5-0.224,0.5-0.5v-4c0-0.133-0.053-0.26-0.146-0.354
		L17.854,15.147z M4,23H2v-1h2V23z M18,23h-2v-1h2V23z M18.5,21h-3h-11h-3H1v-1h4c0.276,0,0.5-0.224,0.5-0.5S5.276,19,5,19H1v-1.293
		L2.707,16h14.586L19,17.707V19h-4c-0.276,0-0.5,0.224-0.5,0.5S14.724,20,15,20h4v1H18.5z"/>
	<path d="M17,0c-3.86,0-7,3.141-7,7s3.14,7,7,7s7-3.141,7-7S20.86,0,17,0z M17,13c-3.309,0-6-2.691-6-6s2.691-6,6-6s6,2.691,6,6
		S20.309,13,17,13z"/>
	<path d="M17.5,3h-2C15.224,3,15,3.224,15,3.5v7c0,0.276,0.224,0.5,0.5,0.5s0.5-0.224,0.5-0.5V8h1.5C18.878,8,20,6.879,20,5.5
		S18.878,3,17.5,3z M17.5,7H16V4h1.5C18.327,4,19,4.673,19,5.5S18.327,7,17.5,7z"/>
</g>
</svg>
