<?xml version="1.0" encoding="utf-8"?>
<!-- Generator: Adobe Illustrator 16.0.0, SVG Export Plug-In . SVG Version: 6.00 Build 0)  -->
<!DOCTYPE svg PUBLIC "-//W3C//DTD SVG 1.1//EN" "http://www.w3.org/Graphics/SVG/1.1/DTD/svg11.dtd">
<svg version="1.1" id="Outline_Icons" xmlns="http://www.w3.org/2000/svg" xmlns:xlink="http://www.w3.org/1999/xlink" x="0px"
	 y="0px" width="24px" height="24px" viewBox="0 0 24 24" enable-background="new 0 0 24 24" xml:space="preserve">
<g>
	<path d="M16.493,19.563l6.81-6.097c0.95-0.999,0.934-2.547-0.036-3.526c-0.972-0.981-2.746-0.918-3.616,0.022l-5.553,4.879
		C14.003,14.942,13.871,15,13.732,15H2.516c-1.378,0-2.5,1.122-2.5,2.5s1.122,2.5,2.5,2.5h4l-2.4,3.2
		c-0.166,0.221-0.121,0.534,0.1,0.7c0.09,0.067,0.195,0.1,0.299,0.1c0.152,0,0.302-0.069,0.4-0.2l2.85-3.8h5.458l2.85,3.8
		c0.098,0.131,0.248,0.2,0.4,0.2c0.104,0,0.209-0.033,0.299-0.1c0.221-0.166,0.266-0.479,0.1-0.7l-2.4-3.2h0.962
		C15.843,20,16.239,19.831,16.493,19.563z M1.016,17.5c0-0.827,0.673-1.5,1.5-1.5h11.217c0.415,0,0.814-0.174,1.061-0.442
		l5.553-4.879c0.573-0.616,1.617-0.633,2.209-0.035c0.586,0.592,0.596,1.528,0.051,2.104l-6.809,6.097
		C15.704,18.943,15.572,19,15.436,19H2.516C1.688,19,1.016,18.327,1.016,17.5z"/>
	<path d="M6.516,2.5c0.276,0,0.5-0.224,0.5-0.5V1c0-0.276-0.224-0.5-0.5-0.5s-0.5,0.224-0.5,0.5v1C6.016,2.276,6.239,2.5,6.516,2.5z
		"/>
	<path d="M9.671,3.82c0.128,0,0.256-0.049,0.354-0.146l0.707-0.708c0.195-0.195,0.195-0.512,0-0.707
		c-0.195-0.195-0.512-0.195-0.707,0L9.317,2.967c-0.195,0.195-0.195,0.512,0,0.707C9.415,3.771,9.543,3.82,9.671,3.82z"/>
	<path d="M10.516,6.5c0,0.276,0.224,0.5,0.5,0.5h1c0.276,0,0.5-0.224,0.5-0.5S12.292,6,12.016,6h-1
		C10.739,6,10.516,6.224,10.516,6.5z"/>
	<path d="M9.317,9.331c-0.195,0.195-0.195,0.512,0,0.707l0.707,0.708c0.098,0.098,0.226,0.146,0.354,0.146s0.256-0.049,0.354-0.146
		c0.195-0.195,0.195-0.512,0-0.707l-0.707-0.708C9.829,9.135,9.513,9.135,9.317,9.331z"/>
	<path d="M6.016,11v1c0,0.276,0.224,0.5,0.5,0.5s0.5-0.224,0.5-0.5v-1c0-0.276-0.224-0.5-0.5-0.5S6.016,10.724,6.016,11z"/>
	<path d="M2.953,9.331l-0.707,0.708c-0.195,0.195-0.195,0.512,0,0.707c0.098,0.098,0.226,0.146,0.354,0.146s0.256-0.049,0.354-0.146
		l0.707-0.708c0.195-0.195,0.195-0.512,0-0.707C3.465,9.135,3.148,9.135,2.953,9.331z"/>
	<path d="M1.016,7h1c0.276,0,0.5-0.224,0.5-0.5S2.292,6,2.016,6h-1c-0.276,0-0.5,0.224-0.5,0.5S0.739,7,1.016,7z"/>
	<path d="M2.953,3.674C3.051,3.771,3.179,3.82,3.307,3.82S3.562,3.771,3.66,3.674c0.195-0.195,0.195-0.512,0-0.707L2.953,2.259
		c-0.195-0.195-0.512-0.195-0.707,0c-0.195,0.195-0.195,0.512,0,0.707L2.953,3.674z"/>
	<path d="M6.516,9.518c1.654,0,3-1.346,3-3s-1.346-3-3-3s-3,1.346-3,3S4.861,9.518,6.516,9.518z M6.516,4.518c1.103,0,2,0.897,2,2
		s-0.897,2-2,2s-2-0.897-2-2S5.413,4.518,6.516,4.518z"/>
</g>
</svg>
