<?xml version="1.0" encoding="utf-8"?>
<!-- Generator: Adobe Illustrator 16.0.0, SVG Export Plug-In . SVG Version: 6.00 Build 0)  -->
<!DOCTYPE svg PUBLIC "-//W3C//DTD SVG 1.1//EN" "http://www.w3.org/Graphics/SVG/1.1/DTD/svg11.dtd">
<svg version="1.1" id="Outline_Icons" xmlns="http://www.w3.org/2000/svg" xmlns:xlink="http://www.w3.org/1999/xlink" x="0px"
	 y="0px" width="24px" height="24px" viewBox="0 0 24 24" enable-background="new 0 0 24 24" xml:space="preserve">
<path d="M22.947,19.219c-0.735-1.469-3.243-2.392-6.714-3.668c-0.4-0.147-0.812-0.299-1.233-0.456v-2.409
	c0.439-0.373,1.378-1.346,1.489-2.934c0.227-0.192,0.405-0.523,0.509-0.962c0.167-0.705,0.083-1.542-0.416-2.038
	c0.027-0.068,0.059-0.146,0.093-0.232c0.383-0.966,1.097-2.765,0.815-4.177C17.144,0.614,14.687,0,12.687,0
	c-1.552,0-3.436,0.391-4.03,1.461C8.06,1.528,7.599,1.775,7.284,2.199C6.416,3.37,7.046,5.451,7.385,6.568
	C7.403,6.629,7.42,6.686,7.436,6.735C6.921,7.229,6.833,8.077,7.002,8.791c0.104,0.439,0.282,0.77,0.509,0.962
	c0.111,1.588,1.05,2.561,1.489,2.934v2.409c-0.421,0.157-0.833,0.309-1.235,0.456c-3.471,1.276-5.979,2.199-6.712,3.667
	C0.012,21.301,0,23.411,0,23.5C0,23.776,0.224,24,0.5,24h23c0.276,0,0.5-0.224,0.5-0.5C24,23.411,23.988,21.301,22.947,19.219z
	 M1.03,23c0.065-0.702,0.27-2.039,0.917-3.333c0.557-1.114,3.155-2.07,6.163-3.176c0.505-0.186,1.029-0.378,1.565-0.58
	C9.871,15.838,10,15.651,10,15.443v-3c0-0.167-0.083-0.323-0.223-0.416C9.765,12.019,8.5,11.155,8.5,9.443
	c0-0.231-0.156-0.425-0.369-0.483C8.027,8.814,7.873,8.345,7.938,7.896C7.975,7.636,8.071,7.466,8.224,7.39
	C8.393,7.305,8.5,7.132,8.5,6.943c0-0.136-0.041-0.276-0.158-0.665C8.095,5.465,7.518,3.562,8.087,2.794
	C8.263,2.558,8.562,2.443,9,2.443c0.229,0,0.429-0.156,0.485-0.379C9.616,1.541,10.849,1,12.687,1c1.747,0,3.621,0.529,3.823,1.541
	c0.224,1.122-0.419,2.741-0.764,3.612C15.572,6.59,15.5,6.771,15.5,6.943c0,0.189,0.107,0.362,0.276,0.447
	c0.152,0.076,0.249,0.246,0.286,0.505c0.065,0.45-0.089,0.919-0.193,1.064C15.656,9.018,15.5,9.212,15.5,9.443
	c0,1.693-1.227,2.55-1.277,2.584C14.083,12.12,14,12.276,14,12.443v3c0,0.208,0.129,0.395,0.324,0.468
	c0.536,0.201,1.059,0.393,1.563,0.579c3.009,1.106,5.607,2.062,6.165,3.177C22.7,20.961,22.905,22.298,22.97,23H1.03z"/>
</svg>
