<?xml version="1.0" encoding="utf-8"?>
<!-- Generator: Adobe Illustrator 16.0.0, SVG Export Plug-In . SVG Version: 6.00 Build 0)  -->
<!DOCTYPE svg PUBLIC "-//W3C//DTD SVG 1.1//EN" "http://www.w3.org/Graphics/SVG/1.1/DTD/svg11.dtd">
<svg version="1.1" id="Outline_Icons" xmlns="http://www.w3.org/2000/svg" xmlns:xlink="http://www.w3.org/1999/xlink" x="0px"
	 y="0px" width="24px" height="24px" viewBox="0 0 24 24" enable-background="new 0 0 24 24" xml:space="preserve">
<g>
	<path d="M12,7c1.654,0,3-1.346,3-3s-1.346-3-3-3S9,2.346,9,4S10.346,7,12,7z M12,2c1.103,0,2,0.896,2,2c0,1.103-0.897,2-2,2
		s-2-0.897-2-2C10,2.896,10.897,2,12,2z"/>
	<path d="M19,7c1.103,0,2-0.897,2-2c0-1.104-0.897-2-2-2s-2,0.896-2,2C17,6.103,17.897,7,19,7z M19,4c0.551,0,1,0.449,1,1
		c0,0.551-0.449,1-1,1s-1-0.449-1-1C18,4.449,18.449,4,19,4z"/>
	<path d="M5,7c1.103,0,2-0.897,2-2c0-1.104-0.897-2-2-2S3,3.896,3,5C3,6.103,3.897,7,5,7z M5,4c0.551,0,1,0.449,1,1
		c0,0.551-0.449,1-1,1S4,5.551,4,5C4,4.449,4.449,4,5,4z"/>
	<path d="M17.042,18.2c-0.268-0.021-0.517,0.181-0.54,0.456c-0.023,0.275,0.181,0.517,0.456,0.54
		c4.558,0.385,5.93,1.124,6.051,1.255C22.715,21.007,18.785,22,12,22c-6.784,0-10.715-0.993-11.009-1.451
		C1.111,20.321,2.474,19.586,7,19.2c0.275-0.023,0.479-0.265,0.456-0.541c-0.023-0.275-0.26-0.489-0.541-0.456
		C2.327,18.595,0,19.367,0,20.5C0,22.93,10.772,23,12,23s12-0.07,12-2.5C24,19.363,21.659,18.589,17.042,18.2z"/>
	<path d="M9.5,18h5c0.276,0,0.5-0.224,0.5-0.5V11c0-1.654-1.346-3-3-3s-3,1.346-3,3v6.5C9,17.776,9.224,18,9.5,18z M10,11
		c0-1.104,0.897-2,2-2s2,0.896,2,2v6h-4V11z"/>
	<path d="M17.5,16h3c0.276,0,0.5-0.224,0.5-0.5V10c0-1.104-0.897-2-2-2s-2,0.896-2,2v5.5C17,15.776,17.224,16,17.5,16z M18,10
		c0-0.551,0.449-1,1-1s1,0.449,1,1v5h-2V10z"/>
	<path d="M3.5,16h3C6.776,16,7,15.776,7,15.5V10c0-1.104-0.897-2-2-2s-2,0.896-2,2v5.5C3,15.776,3.224,16,3.5,16z M4,10
		c0-0.551,0.449-1,1-1s1,0.449,1,1v5H4V10z"/>
</g>
</svg>
