<?xml version="1.0" encoding="utf-8"?>
<!-- Generator: Adobe Illustrator 16.0.3, SVG Export Plug-In . SVG Version: 6.00 Build 0)  -->
<!DOCTYPE svg PUBLIC "-//W3C//DTD SVG 1.1//EN" "http://www.w3.org/Graphics/SVG/1.1/DTD/svg11.dtd">
<svg version="1.1" xmlns="http://www.w3.org/2000/svg" xmlns:xlink="http://www.w3.org/1999/xlink" x="0px" y="0px" width="24px"
	 height="24px" viewBox="0 0 24 24" enable-background="new 0 0 24 24" xml:space="preserve">
<g id="Outline_Icons_1_">
	<g id="Outline_Icons">
		<g>
			<path d="M23.5,14.5c-0.276,0-0.5,0.224-0.5,0.5v0.77C22.013,14.696,20.538,14,19,14c-2.197,0-4.288,1.402-4.971,3.333
				c-0.092,0.26,0.044,0.546,0.304,0.638c0.26,0.093,0.547-0.044,0.638-0.304C15.51,16.146,17.242,15,19,15
				c1.489,0,2.951,0.826,3.693,2H21c-0.276,0-0.5,0.224-0.5,0.5S20.724,18,21,18h2.5c0.269,0,0.5-0.24,0.5-0.5V15
				C24,14.724,23.776,14.5,23.5,14.5z"/>
			<path d="M23.667,20.029c-0.261-0.092-0.546,0.044-0.638,0.304C22.49,21.854,20.758,23,19,23c-1.489,0-2.95-0.825-3.692-2H17
				c0.276,0,0.5-0.224,0.5-0.5S17.276,20,17,20h-2.5c-0.271,0-0.5,0.244-0.5,0.5V23c0,0.276,0.224,0.5,0.5,0.5S15,23.276,15,23
				v-0.771C15.987,23.304,17.462,24,19,24c2.197,0,4.288-1.402,4.971-3.333C24.063,20.407,23.927,20.121,23.667,20.029z"/>
			<path d="M14.44,13.511c0.087-0.262-0.055-0.545-0.317-0.632c-0.738-0.246-1.377-0.454-2.123-0.727v-1.863
				c0.486-0.325,1.382-1.159,1.489-2.932c0.367-0.235,0.598-0.744,0.598-1.393c0-0.57-0.178-1.031-0.469-1.294
				c0.244-0.615,0.641-1.688,0.368-2.791c-0.332-1.334-2.22-1.808-3.735-1.808c-1.343,0-2.977,0.372-3.563,1.384
				C6.169,1.421,5.77,1.566,5.488,1.872C4.82,2.6,5.191,3.949,5.411,4.711C5.295,4.806,5.195,4.93,5.116,5.081
				C4.985,5.333,4.913,5.659,4.913,6c0,0.635,0.231,1.132,0.598,1.361C5.619,9.131,6.514,9.964,7,10.289v1.864
				c-0.619,0.226-1.257,0.437-1.878,0.641c-2.354,0.777-4.213,1.39-4.597,2.549C0.033,16.83,0.001,19.387,0,19.495
				c-0.001,0.134,0.051,0.262,0.145,0.357C0.239,19.947,0.367,20,0.5,20H11c0.276,0,0.5-0.224,0.5-0.5S11.276,19,11,19H1.015
				c0.033-0.801,0.138-2.372,0.459-3.343c0.226-0.681,2.21-1.336,3.961-1.914c0.743-0.245,1.511-0.499,2.242-0.776
				C7.872,12.894,8,12.708,8,12.5V10c0-0.198-0.123-0.379-0.303-0.459C7.648,9.519,6.5,8.986,6.5,7c0-0.276-0.182-0.487-0.458-0.487
				C6.007,6.485,5.913,6.312,5.913,6c0-0.312,0.095-0.485,0.087-0.5c0.276,0,0.5-0.224,0.5-0.5c0-0.125-0.038-0.255-0.112-0.513
				C6.272,4.089,5.921,2.878,6.224,2.549C6.32,2.444,6.568,2.423,6.902,2.49c0.261,0.052,0.519-0.11,0.583-0.37
				c0.148-0.598,1.337-1.049,2.765-1.049s2.616,0.451,2.765,1.049c0.208,0.837-0.159,1.761-0.356,2.257
				C12.556,4.635,12.5,4.775,12.5,4.93c0,0.276,0.175,0.484,0.451,0.484c0.037,0.03,0.136,0.216,0.136,0.551S12.987,6.485,13,6.5
				c-0.276,0-0.5,0.224-0.5,0.5c0,1.986-1.148,2.519-1.191,2.538C11.122,9.615,11,9.797,11,10v2.5c0,0.208,0.129,0.395,0.324,0.468
				c0.853,0.321,1.631,0.577,2.485,0.86C14.07,13.913,14.353,13.773,14.44,13.511z"/>
		</g>
	</g>
	<g id="New_icons_1_">
	</g>
</g>
<g id="Invisible_Shape">
	<rect fill="none" width="24" height="24"/>
</g>
</svg>
