<?xml version="1.0" encoding="utf-8"?>
<!-- Generator: Adobe Illustrator 16.0.0, SVG Export Plug-In . SVG Version: 6.00 Build 0)  -->
<!DOCTYPE svg PUBLIC "-//W3C//DTD SVG 1.1//EN" "http://www.w3.org/Graphics/SVG/1.1/DTD/svg11.dtd">
<svg version="1.1" id="Outline_Icons" xmlns="http://www.w3.org/2000/svg" xmlns:xlink="http://www.w3.org/1999/xlink" x="0px"
	 y="0px" width="24px" height="24px" viewBox="0 0 24 24" enable-background="new 0 0 24 24" xml:space="preserve">
<path d="M19.677,17.318L15,15.647v-2.305c1.433-1.174,2.375-3.13,2.375-5.342c0-3.584-2.467-6.5-5.5-6.5s-5.5,2.916-5.5,6.5
	c0,2.338,1.053,4.385,2.625,5.531v2.117l-4.678,1.671C2.933,17.815,2,19.139,2,20.614V22.5C2,22.776,2.224,23,2.5,23h19
	c0.276,0,0.5-0.224,0.5-0.5v-1.886C22,19.14,21.066,17.815,19.677,17.318z M11.875,2.5c2.204,0,4.039,1.947,4.423,4.507
	c-0.007,0.001-0.011,0.001-0.018,0.002c-1.452,0.28-2.353-0.193-3.206-1.687c-0.09-0.159-0.232-0.233-0.444-0.252
	c-0.183,0.003-0.349,0.106-0.434,0.269C11.736,6.224,10.183,7,8.875,7C8.366,7,7.929,6.916,7.499,6.739
	C7.967,4.313,9.749,2.5,11.875,2.5z M7.375,8c0-0.081,0.007-0.16,0.01-0.24C7.854,7.917,8.339,8,8.875,8
	c1.374,0,2.881-0.653,3.735-1.55c0.797,1.109,1.737,1.635,2.931,1.635c0.264,0,0.544-0.034,0.834-0.085c0,3.033-2.019,5.5-4.5,5.5
	S7.375,11.033,7.375,8z M21,22H3v-1.386c0-1.054,0.667-2,1.659-2.354l5.009-1.789C9.867,16.4,10,16.211,10,16v-1.897
	c0.586,0.252,1.216,0.397,1.875,0.397c0.753,0,1.471-0.181,2.125-0.506V16c0,0.211,0.133,0.4,0.332,0.471l5.008,1.789
	c0.993,0.355,1.66,1.301,1.66,2.354V22z"/>
</svg>
