<?xml version="1.0" encoding="utf-8"?>
<!-- Generator: Adobe Illustrator 16.0.0, SVG Export Plug-In . SVG Version: 6.00 Build 0)  -->
<!DOCTYPE svg PUBLIC "-//W3C//DTD SVG 1.1//EN" "http://www.w3.org/Graphics/SVG/1.1/DTD/svg11.dtd">
<svg version="1.1" id="Outline_Icons" xmlns="http://www.w3.org/2000/svg" xmlns:xlink="http://www.w3.org/1999/xlink" x="0px"
	 y="0px" width="24px" height="24px" viewBox="0 0 24 24" enable-background="new 0 0 24 24" xml:space="preserve">
<g>
	<path d="M4,13c1.378,0,2.5-1.122,2.5-2.5S5.378,8,4,8s-2.5,1.122-2.5,2.5S2.622,13,4,13z M4,9c0.827,0,1.5,0.673,1.5,1.5
		S4.827,12,4,12s-1.5-0.673-1.5-1.5S3.173,9,4,9z"/>
	<path d="M7.5,14h-7C0.224,14,0,14.224,0,14.5c0,2.389,0.16,4.588,2,5.313V23.5C2,23.776,2.224,24,2.5,24h3
		C5.776,24,6,23.776,6,23.5v-3.687c1.84-0.725,2-2.925,2-5.313C8,14.224,7.776,14,7.5,14z M5.375,18.966
		C5.154,19.023,5,19.223,5,19.45V23H3v-3.55c0-0.228-0.154-0.427-0.375-0.484C1.348,18.638,1.039,17.315,1.003,15h5.993
		C6.961,17.315,6.652,18.638,5.375,18.966z"/>
	<path d="M20,13c1.378,0,2.5-1.122,2.5-2.5S21.378,8,20,8s-2.5,1.122-2.5,2.5S18.622,13,20,13z M20,9c0.827,0,1.5,0.673,1.5,1.5
		S20.827,12,20,12s-1.5-0.673-1.5-1.5S19.173,9,20,9z"/>
	<path d="M23.5,14h-7c-0.276,0-0.5,0.224-0.5,0.5c0,2.389,0.16,4.588,2,5.313V23.5c0,0.276,0.224,0.5,0.5,0.5h3
		c0.276,0,0.5-0.224,0.5-0.5v-3.687c1.84-0.725,2-2.925,2-5.313C24,14.224,23.776,14,23.5,14z M21.375,18.966
		C21.154,19.023,21,19.223,21,19.45V23h-2v-3.55c0-0.228-0.154-0.427-0.375-0.484c-1.276-0.328-1.586-1.651-1.621-3.966h5.993
		C22.961,17.315,22.652,18.638,21.375,18.966z"/>
	<path d="M12,5c1.378,0,2.5-1.122,2.5-2.5S13.378,0,12,0S9.5,1.122,9.5,2.5S10.622,5,12,5z M12,1c0.827,0,1.5,0.673,1.5,1.5
		S12.827,4,12,4s-1.5-0.673-1.5-1.5S11.173,1,12,1z"/>
	<path d="M15.5,6h-7C8.224,6,8,6.224,8,6.5c0,2.389,0.16,4.588,2,5.313V15.5c0,0.276,0.224,0.5,0.5,0.5h3c0.276,0,0.5-0.224,0.5-0.5
		v-3.687c1.84-0.725,2-2.925,2-5.313C16,6.224,15.776,6,15.5,6z M13.375,10.966C13.154,11.023,13,11.223,13,11.45V15h-2v-3.55
		c0-0.228-0.154-0.427-0.375-0.484C9.348,10.638,9.039,9.315,9.003,7h5.993C14.961,9.315,14.652,10.638,13.375,10.966z"/>
</g>
</svg>
