<?xml version="1.0" encoding="utf-8"?>
<!-- Generator: Adobe Illustrator 16.0.0, SVG Export Plug-In . SVG Version: 6.00 Build 0)  -->
<!DOCTYPE svg PUBLIC "-//W3C//DTD SVG 1.1//EN" "http://www.w3.org/Graphics/SVG/1.1/DTD/svg11.dtd">
<svg version="1.1" id="Filled_Icons" xmlns="http://www.w3.org/2000/svg" xmlns:xlink="http://www.w3.org/1999/xlink" x="0px"
	 y="0px" width="24px" height="24px" viewBox="0 0 24 24" enable-background="new 0 0 24 24" xml:space="preserve">
<path d="M21.63,4.518c-0.074-0.02-7.398-2.017-9.769-4.391c-0.188-0.189-0.537-0.189-0.725,0C8.77,2.5,1.443,4.498,1.37,4.518
	C1.151,4.576,1,4.774,1,5c0,8.569,0.76,15.405,10.326,18.948c0.056,0.021,0.115,0.031,0.174,0.031s0.118-0.01,0.174-0.031
	C21.24,20.405,22,13.569,22,5C22,4.774,21.849,4.576,21.63,4.518z M16.86,16.976c-0.007,0-0.013,0-0.02,0H6.16
	c-0.276,0-0.5-0.224-0.5-0.5c0-2.516,1.602-4.658,3.836-5.479C8.594,10.364,8,9.319,8,8.136c0-1.93,1.57-3.5,3.5-3.5
	s3.5,1.57,3.5,3.5c0,1.184-0.594,2.228-1.496,2.861c2.191,0.804,3.773,2.88,3.834,5.332c0.014,0.047,0.022,0.096,0.022,0.146
	C17.36,16.752,17.136,16.976,16.86,16.976z"/>
</svg>
