<?xml version="1.0" encoding="utf-8"?>
<!-- Generator: Adobe Illustrator 16.0.0, SVG Export Plug-In . SVG Version: 6.00 Build 0)  -->
<!DOCTYPE svg PUBLIC "-//W3C//DTD SVG 1.1//EN" "http://www.w3.org/Graphics/SVG/1.1/DTD/svg11.dtd">
<svg version="1.1" id="Outline_Icons" xmlns="http://www.w3.org/2000/svg" xmlns:xlink="http://www.w3.org/1999/xlink" x="0px"
	 y="0px" width="24px" height="24px" viewBox="0 0 24 24" enable-background="new 0 0 24 24" xml:space="preserve">
<g>
	<path d="M21.5,0h-20C1.224,0,1,0.224,1,0.5v23C1,23.776,1.224,24,1.5,24h20c0.276,0,0.5-0.224,0.5-0.5v-23
		C22,0.224,21.776,0,21.5,0z M21,23H2V1h19V23z"/>
	<path d="M3.5,22h16c0.276,0,0.5-0.224,0.5-0.5v-19C20,2.224,19.776,2,19.5,2h-16C3.224,2,3,2.224,3,2.5v19
		C3,21.776,3.224,22,3.5,22z M4,21v-2.14l5.658-1.886C9.862,16.906,10,16.715,10,16.5v-2c0-0.196-0.137-0.383-0.315-0.464
		C9.678,14.032,9,13.704,9,12c0-0.276-0.165-0.485-0.441-0.485c-0.115-0.079-0.271-0.561-0.168-0.894
		C8.428,10.5,8.461,10.5,8.5,10.5C8.776,10.5,9,10.276,9,10c0-0.159-0.064-0.311-0.191-0.611c-0.42-0.99-0.437-1.318-0.383-1.411
		c0-0.001,0.105-0.062,0.474,0.012C9.159,8.043,9.42,7.881,9.485,7.621C9.647,6.972,10.705,6.5,12,6.5s2.353,0.472,2.515,1.121
		c0.181,0.726-0.135,1.437-0.323,1.861c-0.1,0.224-0.16,0.358-0.16,0.518c0,0.276,0.253,0.503,0.53,0.503
		c0.021,0.015,0.082,0.12,0.084,0.336c0.004,0.344-0.134,0.626-0.146,0.661c-0.276,0-0.5,0.224-0.5,0.5
		c0,1.693-0.669,2.028-0.665,2.028C13.134,14.098,13,14.288,13,14.5v2c0,0.215,0.138,0.406,0.342,0.474L19,18.86V21H4z M19,3v14.807
		l-5-1.667V14.78c0.371-0.286,0.917-0.953,0.991-2.43c0.417-0.277,0.655-0.895,0.655-1.498c0-0.334-0.076-0.631-0.22-0.859
		c-0.068-0.11-0.151-0.202-0.245-0.276c0.22-0.513,0.54-1.394,0.304-2.338C15.138,5.992,13.391,5.5,12,5.5
		c-1.239,0-2.761,0.391-3.324,1.456C8.222,6.929,7.881,7.064,7.657,7.339C7.146,7.965,7.555,8.992,7.856,9.705
		C7.753,9.781,7.662,9.878,7.587,9.994c-0.15,0.233-0.229,0.536-0.229,0.875c0,0.596,0.236,1.207,0.65,1.481
		c0.075,1.477,0.62,2.144,0.991,2.43v1.359l-5,1.667V3H19z"/>
</g>
</svg>
