<?xml version="1.0" encoding="utf-8"?>
<!-- Generator: Adobe Illustrator 16.0.3, SVG Export Plug-In . SVG Version: 6.00 Build 0)  -->
<!DOCTYPE svg PUBLIC "-//W3C//DTD SVG 1.1//EN" "http://www.w3.org/Graphics/SVG/1.1/DTD/svg11.dtd">
<svg version="1.1" xmlns="http://www.w3.org/2000/svg" xmlns:xlink="http://www.w3.org/1999/xlink" x="0px" y="0px" width="24px"
	 height="24px" viewBox="0 0 24 24" enable-background="new 0 0 24 24" xml:space="preserve">
<g id="Outline_Icons_1_">
	<g id="Outline_Icons">
		<g>
			<path d="M10.5,13.999h-5c-0.276,0-0.5,0.224-0.5,0.5V17.5c0,1.083,0.336,1.73,1,1.932v4.067c0,0.276,0.224,0.5,0.5,0.5h3
				c0.276,0,0.5-0.224,0.5-0.5v-4.067c0.663-0.202,0.999-0.849,1-1.932v-3.001C11,14.223,10.776,13.999,10.5,13.999z M10,17.5
				c-0.001,1-0.278,1-0.5,1C9.224,18.5,9,18.724,9,19v3.999H7V19c0-0.276-0.224-0.5-0.5-0.5c-0.223,0-0.5,0-0.5-1v-2.501h4V17.5z"/>
			<path d="M10,11c0-1.104-0.897-2-2-2s-2,0.896-2,2c0,1.103,0.897,2,2,2S10,12.103,10,11z M7,11c0-0.551,0.449-1,1-1s1,0.449,1,1
				c0,0.551-0.449,1-1,1S7,11.551,7,11z"/>
			<path d="M18.5,13.999h-5c-0.276,0-0.5,0.224-0.5,0.5V17.5c0,1.083,0.336,1.73,1,1.932v4.067c0,0.276,0.224,0.5,0.5,0.5h3
				c0.276,0,0.5-0.224,0.5-0.5v-4.067c0.663-0.202,0.999-0.849,1-1.932v-3.001C19,14.223,18.776,13.999,18.5,13.999z M18,17.5
				c-0.001,1-0.278,1-0.5,1c-0.276,0-0.5,0.224-0.5,0.5v3.999h-2V19c0-0.276-0.224-0.5-0.5-0.5c-0.223,0-0.5,0-0.5-1v-2.501h4V17.5z
				"/>
			<path d="M18,11c0-1.104-0.897-2-2-2s-2,0.896-2,2c0,1.103,0.897,2,2,2S18,12.103,18,11z M15,11c0-0.551,0.449-1,1-1s1,0.449,1,1
				c0,0.551-0.449,1-1,1S15,11.551,15,11z"/>
			<path d="M3.5,12C3.224,12,3,12.224,3,12.5v11C3,23.776,3.224,24,3.5,24S4,23.776,4,23.5v-11C4,12.224,3.776,12,3.5,12z"/>
			<path d="M20.5,12c-0.276,0-0.5,0.224-0.5,0.5v11c0,0.276,0.224,0.5,0.5,0.5s0.5-0.224,0.5-0.5v-11C21,12.224,20.776,12,20.5,12z"
				/>
			<path d="M23.837,11.631l-11.5-10.5c-0.19-0.175-0.483-0.175-0.674,0l-11.5,10.5c-0.204,0.186-0.219,0.502-0.032,0.706
				c0.187,0.205,0.502,0.218,0.706,0.032L12,2.177l11.163,10.192c0.096,0.088,0.216,0.131,0.337,0.131
				c0.135,0,0.271-0.055,0.369-0.163C24.056,12.133,24.041,11.817,23.837,11.631z"/>
		</g>
	</g>
	<g id="New_icons_1_">
	</g>
</g>
<g id="Invisible_Shape">
	<rect fill="none" width="24" height="24"/>
</g>
</svg>
