<?xml version="1.0" encoding="utf-8"?>
<!-- Generator: Adobe Illustrator 16.0.0, SVG Export Plug-In . SVG Version: 6.00 Build 0)  -->
<!DOCTYPE svg PUBLIC "-//W3C//DTD SVG 1.1//EN" "http://www.w3.org/Graphics/SVG/1.1/DTD/svg11.dtd">
<svg version="1.1" id="Outline_Icons" xmlns="http://www.w3.org/2000/svg" xmlns:xlink="http://www.w3.org/1999/xlink" x="0px"
	 y="0px" width="24px" height="24px" viewBox="0 0 24 24" enable-background="new 0 0 24 24" xml:space="preserve">
<path d="M12,0C5.383,0,0,5.383,0,12c0,3.18,1.232,6.177,3.47,8.438C5.742,22.735,8.771,24,12,24c3.234,0,6.268-1.27,8.542-3.573
	C22.772,18.167,24,15.174,24,12C24,5.383,18.617,0,12,0z M4.655,20.17c1.029-0.563,2.533-1.111,4.001-1.644
	c0.514-0.186,1.027-0.372,1.52-0.559c0.195-0.074,0.323-0.26,0.323-0.468V15c0-0.209-0.138-0.398-0.334-0.472
	C10.118,14.511,9,14.072,9,12c0-0.276-0.207-0.494-0.482-0.494C8.471,11.474,8.38,11.288,8.38,11s0.091-0.474,0.12-0.5
	C8.776,10.5,9,10.276,9,10c0-0.124-0.037-0.256-0.118-0.544C8.735,8.933,8.345,7.542,8.688,7.091
	C8.726,7.039,8.933,6.896,9.402,6.99c0.26,0.056,0.519-0.109,0.583-0.369C10.147,5.972,11.311,5.5,12.75,5.5
	s2.603,0.472,2.765,1.121c0.229,0.917-0.178,2.188-0.374,2.799C15.044,9.725,15,9.863,15,10c0,0.276,0.207,0.494,0.482,0.494
	c0.046,0.032,0.137,0.218,0.137,0.506s-0.091,0.474-0.12,0.5c-0.276,0-0.5,0.224-0.5,0.5c0,2.072-1.118,2.511-1.158,2.526
	C13.638,14.594,13.5,14.785,13.5,15v2.5c0,0.208,0.129,0.395,0.324,0.469c0.543,0.203,1.085,0.399,1.614,0.591
	c1.51,0.546,2.943,1.066,3.919,1.599C17.333,21.988,14.75,23,12,23C9.256,23,6.678,21.992,4.655,20.17z M20.108,19.432
	c-1.047-0.625-2.583-1.181-4.33-1.812c-0.42-0.152-0.848-0.308-1.278-0.466v-1.848c0.501-0.309,1.384-1.108,1.49-2.936
	c0.386-0.226,0.63-0.727,0.63-1.37c0-0.578-0.198-1.043-0.52-1.294c0.243-0.757,0.681-2.145,0.385-3.327
	C16.138,4.992,14.256,4.5,12.75,4.5c-1.342,0-2.982,0.391-3.569,1.456c-0.707-0.042-1.095,0.272-1.29,0.53
	c-0.635,0.839-0.216,2.368,0.02,3.21C7.583,9.946,7.38,10.415,7.38,11c0,0.643,0.244,1.144,0.63,1.37
	c0.106,1.828,0.989,2.626,1.49,2.936v1.848c-0.388,0.145-0.786,0.289-1.184,0.433c-1.625,0.589-3.299,1.196-4.413,1.858
	C2.028,17.409,1,14.781,1,12C1,5.935,5.935,1,12,1s11,4.935,11,11C23,14.774,21.976,17.397,20.108,19.432z"/>
</svg>
