<?xml version="1.0" encoding="utf-8"?>
<!-- Generator: Adobe Illustrator 16.0.0, SVG Export Plug-In . SVG Version: 6.00 Build 0)  -->
<!DOCTYPE svg PUBLIC "-//W3C//DTD SVG 1.1//EN" "http://www.w3.org/Graphics/SVG/1.1/DTD/svg11.dtd">
<svg version="1.1" id="Outline_Icons" xmlns="http://www.w3.org/2000/svg" xmlns:xlink="http://www.w3.org/1999/xlink" x="0px"
	 y="0px" width="24px" height="24px" viewBox="0 0 24 24" enable-background="new 0 0 24 24" xml:space="preserve">
<g>
	<path d="M21.5,1h-17C4.224,1,4,1.224,4,1.5v12C4,13.776,4.224,14,4.5,14h17c0.276,0,0.5-0.224,0.5-0.5v-12
		C22,1.224,21.776,1,21.5,1z M21,13H5V2h16V13z"/>
	<path d="M2.5,0C2.224,0,2,0.224,2,0.5v23C2,23.776,2.224,24,2.5,24S3,23.776,3,23.5v-23C3,0.224,2.776,0,2.5,0z"/>
</g>
</svg>
