<?xml version="1.0" encoding="utf-8"?>
<!-- Generator: Adobe Illustrator 16.0.0, SVG Export Plug-In . SVG Version: 6.00 Build 0)  -->
<!DOCTYPE svg PUBLIC "-//W3C//DTD SVG 1.1//EN" "http://www.w3.org/Graphics/SVG/1.1/DTD/svg11.dtd">
<svg version="1.1" id="Outline_Icons" xmlns="http://www.w3.org/2000/svg" xmlns:xlink="http://www.w3.org/1999/xlink" x="0px"
	 y="0px" width="24px" height="24px" viewBox="0 0 24 24" enable-background="new 0 0 24 24" xml:space="preserve">
<g>
	<path d="M24,10c0-1.103-0.897-2-2-2h-7.268c0.425-1.158,1.151-3.481,0.749-4.916c-0.626-2.228-1.93-2.401-2.314-2.401
		c-0.935,0-1.667,0.798-1.667,1.817c0,3.48-3.347,7.36-5.5,7.923V9.5C6,9.224,5.776,9,5.5,9h-5C0.224,9,0,9.224,0,9.5v12
		C0,21.776,0.224,22,0.5,22h5C5.776,22,6,21.776,6,21.5v-1.417c1.012,0.158,1.772,0.313,2.443,0.452C9.746,20.805,10.687,21,12.5,21
		H19c1.327,0,2-0.505,2-1.5c0-0.412-0.125-0.794-0.339-1.112C21.44,18.114,22,17.371,22,16.5c0-0.412-0.125-0.794-0.339-1.112
		C22.44,15.114,23,14.371,23,13.5c0-0.427-0.135-0.823-0.363-1.148C23.476,11.948,24,10.807,24,10z M5,21H1V10h4v1v8.5V21z M22,11.5
		h-1c-0.276,0-0.5,0.224-0.5,0.5s0.224,0.5,0.5,0.5c0.552,0,1,0.449,1,1s-0.448,1-1,1h-1c-0.276,0-0.5,0.224-0.5,0.5
		s0.224,0.5,0.5,0.5c0.552,0,1,0.449,1,1s-0.448,1-1,1h-1c-0.276,0-0.5,0.224-0.5,0.5s0.224,0.5,0.5,0.5c0.552,0,1,0.449,1,1
		c0,0.234,0,0.5-1,0.5h-6.5c-1.711,0-2.609-0.187-3.854-0.444C7.927,19.406,7.122,19.24,6,19.068v-7.617
		c2.746-0.515,6.5-5.023,6.5-8.951c0-0.996,1.36-1.495,2.019,0.854c0.37,1.319-0.58,4.02-0.979,4.949
		c-0.065,0.154-0.05,0.332,0.043,0.472C13.675,8.916,13.832,9,14,9h8c0.552,0,1,0.449,1,1C23,10.62,22.482,11.5,22,11.5z"/>
	<circle cx="3.5" cy="19.5" r="0.5"/>
</g>
</svg>
