<?xml version="1.0" encoding="utf-8"?>
<!-- Generator: Adobe Illustrator 16.0.0, SVG Export Plug-In . SVG Version: 6.00 Build 0)  -->
<!DOCTYPE svg PUBLIC "-//W3C//DTD SVG 1.1//EN" "http://www.w3.org/Graphics/SVG/1.1/DTD/svg11.dtd">
<svg version="1.1" id="Outline_Icons" xmlns="http://www.w3.org/2000/svg" xmlns:xlink="http://www.w3.org/1999/xlink" x="0px"
	 y="0px" width="24px" height="24px" viewBox="0 0 24 24" enable-background="new 0 0 24 24" xml:space="preserve">
<g>
	<path d="M23.5,1h-5C18.224,1,18,1.224,18,1.5v1.129c-1.242-0.227-2.113-0.54-2.872-0.826c-1.036-0.391-2.016-0.759-3.628-0.759H5
		c-1.103,0-2,0.897-2,2c0,0.412,0.125,0.794,0.339,1.112C2.56,4.43,2,5.173,2,6.044c0,0.412,0.125,0.794,0.339,1.112
		C1.56,7.43,1,8.173,1,9.044c0,0.412,0.125,0.794,0.339,1.112C0.56,10.43,0,11.173,0,12.044c0,1.103,0.897,2,2,2h7.299
		c-0.421,1.29-1.198,4.019-0.78,5.508C9.156,21.824,10.481,22,10.873,22c0.928,0,1.627-0.762,1.627-1.773
		c0-3.598,3.339-7.381,5.5-7.926v1.2c0,0.276,0.224,0.5,0.5,0.5h5c0.276,0,0.5-0.224,0.5-0.5v-12C24,1.224,23.776,1,23.5,1z
		 M11.5,20.227c0,0.456-0.258,0.773-0.628,0.773c-0.419,0-1.034-0.45-1.391-1.718c-0.374-1.333,0.586-4.47,0.988-5.566
		c0.056-0.153,0.033-0.324-0.06-0.458c-0.094-0.134-0.247-0.214-0.41-0.214H2c-0.552,0-1-0.449-1-1s0.448-1,1-1h1
		c0.276,0,0.5-0.224,0.5-0.5s-0.224-0.5-0.5-0.5c-0.552,0-1-0.449-1-1s0.448-1,1-1h1c0.276,0,0.5-0.224,0.5-0.5s-0.224-0.5-0.5-0.5
		c-0.552,0-1-0.449-1-1s0.448-1,1-1h1c0.276,0,0.5-0.224,0.5-0.5s-0.224-0.5-0.5-0.5c-0.552,0-1-0.449-1-1s0.448-1,1-1h6.5
		c1.43,0,2.244,0.307,3.275,0.695C15.617,3.056,16.561,3.412,18,3.655v7.618C15.206,11.77,11.5,16.212,11.5,20.227z M23,13h-4
		v-1.273v-8.5V2h4V13z"/>
	<circle cx="20.5" cy="3.5" r="0.5"/>
</g>
</svg>
