<?xml version="1.0" encoding="utf-8"?>
<!-- Generator: Adobe Illustrator 16.0.0, SVG Export Plug-In . SVG Version: 6.00 Build 0)  -->
<!DOCTYPE svg PUBLIC "-//W3C//DTD SVG 1.1//EN" "http://www.w3.org/Graphics/SVG/1.1/DTD/svg11.dtd">
<svg version="1.1" id="Outline_Icons" xmlns="http://www.w3.org/2000/svg" xmlns:xlink="http://www.w3.org/1999/xlink" x="0px"
	 y="0px" width="24px" height="24px" viewBox="0 0 24 24" enable-background="new 0 0 24 24" xml:space="preserve">
<g>
	<path d="M1,6.681c0-3.674,2.285-5.494,4.551-5.667c2.108-0.157,4.446,1.13,4.945,4.374c0.037,0.244,0.247,0.424,0.494,0.424
		s0.457-0.18,0.494-0.424c0.511-3.322,2.879-4.336,4.796-4.19c2.336,0.179,4.7,2.119,4.7,5.483c0,0.815-0.155,1.688-0.463,2.596
		l0.947,0.32c0.342-1.01,0.516-1.991,0.516-2.916c0-3.972-2.829-6.266-5.624-6.48c-2.065-0.157-4.313,0.822-5.364,3.264
		C9.905,0.902,7.518-0.14,5.475,0.017C2.838,0.218,0,2.39,0,6.681c0,6.258,6.758,12.051,9.663,14.251l0.604-0.797
		C7.48,18.024,1,12.49,1,6.681z"/>
	<path d="M16.994,10.406c-3.584,0-6.5,2.916-6.5,6.5s2.916,6.5,6.5,6.5s6.5-2.916,6.5-6.5S20.578,10.406,16.994,10.406z
		 M16.994,22.406c-3.032,0-5.5-2.467-5.5-5.5s2.468-5.5,5.5-5.5s5.5,2.467,5.5,5.5S20.026,22.406,16.994,22.406z"/>
	<path d="M19.722,16.406h-2.228V14.18c0-0.276-0.224-0.5-0.5-0.5s-0.5,0.224-0.5,0.5v2.227h-2.227c-0.276,0-0.5,0.224-0.5,0.5
		s0.224,0.5,0.5,0.5h2.227v2.228c0,0.276,0.224,0.5,0.5,0.5s0.5-0.224,0.5-0.5v-2.228h2.228c0.276,0,0.5-0.224,0.5-0.5
		S19.998,16.406,19.722,16.406z"/>
</g>
</svg>
