<?xml version="1.0" encoding="utf-8"?>
<!-- Generator: Adobe Illustrator 17.1.0, SVG Export Plug-In . SVG Version: 6.00 Build 0)  -->
<!DOCTYPE svg PUBLIC "-//W3C//DTD SVG 1.1//EN" "http://www.w3.org/Graphics/SVG/1.1/DTD/svg11.dtd">
<svg version="1.1" id="Filled_Icons" xmlns="http://www.w3.org/2000/svg" xmlns:xlink="http://www.w3.org/1999/xlink" x="0px"
	 y="0px" width="24px" height="24px" viewBox="0 0 24 24" enable-background="new 0 0 24 24" xml:space="preserve">
<path d="M23.973,8.336C23.902,8.135,23.713,8,23.5,8h-8.146l-2.883-7.666C12.4,0.134,12.211,0,12,0
	c-0.213,0-0.401,0.134-0.472,0.334L8.646,8H0.5C0.287,8,0.097,8.135,0.027,8.336c-0.07,0.202-0.004,0.425,0.164,0.557l6.723,5.783
	l-2.889,8.666c-0.069,0.206,0.004,0.435,0.18,0.562c0.176,0.128,0.414,0.128,0.59-0.001L12,18.62l7.204,5.283
	C19.292,23.969,19.396,24,19.5,24s0.206-0.031,0.294-0.096c0.177-0.128,0.249-0.356,0.181-0.562l-2.89-8.666l6.724-5.783
	C23.977,8.761,24.042,8.538,23.973,8.336z"/>
</svg>
